{
  "version": 1,
  "savedAt": "2026-03-25T14:11:37.815Z",
  "fileName": "Axel-F-1.mid",
  "selectedTrackId": "import-1-track-7-channel-8",
  "tracks": [
    {
      "id": "import-1-track-1-channel-1",
      "name": "SYNBASS 1 · Ch 2",
      "source": {
        "kind": "midi-import",
        "midiTrackIndex": 1,
        "channel": 1
      },
      "midi": {
        "noteSegments": [
          {
            "noteNumber": 29,
            "velocity": 0.7165354330708661,
            "startMs": 20338.800000000017,
            "endMs": 20725.449062500018
          },
          {
            "noteNumber": 41,
            "velocity": 0.7165354330708661,
            "startMs": 20847.27000000002,
            "endMs": 21069.725625000017
          },
          {
            "noteNumber": 39,
            "velocity": 0.7165354330708661,
            "startMs": 21228.622500000016,
            "endMs": 21355.740000000016
          },
          {
            "noteNumber": 51,
            "velocity": 0.7165354330708661,
            "startMs": 21482.857500000016,
            "endMs": 21530.526562500017
          },
          {
            "noteNumber": 24,
            "velocity": 0.7165354330708661,
            "startMs": 21609.975000000017,
            "endMs": 21768.871875000015
          },
          {
            "noteNumber": 36,
            "velocity": 0.7165354330708661,
            "startMs": 21864.210000000014,
            "endMs": 22007.217187500013
          },
          {
            "noteNumber": 39,
            "velocity": 0.7165354330708661,
            "startMs": 22118.445000000014,
            "endMs": 22229.672812500015
          },
          {
            "noteNumber": 29,
            "velocity": 0.7165354330708661,
            "startMs": 22372.680000000015,
            "endMs": 22716.956562500014
          },
          {
            "noteNumber": 41,
            "velocity": 0.7165354330708661,
            "startMs": 22881.150000000016,
            "endMs": 23040.046875000015
          },
          {
            "noteNumber": 29,
            "velocity": 0.7165354330708661,
            "startMs": 23516.737500000014,
            "endMs": 23633.261875000015
          },
          {
            "noteNumber": 36,
            "velocity": 0.7165354330708661,
            "startMs": 23643.855000000014,
            "endMs": 23786.862187500014
          },
          {
            "noteNumber": 39,
            "velocity": 0.7165354330708661,
            "startMs": 23898.090000000015,
            "endMs": 24041.097187500014
          },
          {
            "noteNumber": 41,
            "velocity": 0.7165354330708661,
            "startMs": 24152.325000000015,
            "endMs": 24295.332187500015
          },
          {
            "noteNumber": 25,
            "velocity": 0.7165354330708661,
            "startMs": 24406.560000000016,
            "endMs": 24793.209062500016
          },
          {
            "noteNumber": 37,
            "velocity": 0.7165354330708661,
            "startMs": 24915.030000000017,
            "endMs": 25174.561562500017
          },
          {
            "noteNumber": 27,
            "velocity": 0.7165354330708661,
            "startMs": 25550.61750000002,
            "endMs": 25651.25218750002
          },
          {
            "noteNumber": 39,
            "velocity": 0.7165354330708661,
            "startMs": 25677.73500000002,
            "endMs": 25831.335312500018
          },
          {
            "noteNumber": 36,
            "velocity": 0.7165354330708661,
            "startMs": 25931.97000000002,
            "endMs": 26096.16343750002
          },
          {
            "noteNumber": 39,
            "velocity": 0.7165354330708661,
            "startMs": 26186.20500000002,
            "endMs": 26382.17781250002
          },
          {
            "noteNumber": 29,
            "velocity": 0.7165354330708661,
            "startMs": 26440.44000000002,
            "endMs": 26864.165000000023
          },
          {
            "noteNumber": 39,
            "velocity": 0.7165354330708661,
            "startMs": 27584.497500000023,
            "endMs": 27669.242500000022
          },
          {
            "noteNumber": 36,
            "velocity": 0.7165354330708661,
            "startMs": 27711.615000000023,
            "endMs": 27838.732500000024
          },
          {
            "noteNumber": 34,
            "velocity": 0.7165354330708661,
            "startMs": 27965.850000000024,
            "endMs": 28124.746875000023
          },
          {
            "noteNumber": 32,
            "velocity": 0.7165354330708661,
            "startMs": 28220.08500000002,
            "endMs": 28373.68531250002
          },
          {
            "noteNumber": 29,
            "velocity": 0.7165354330708661,
            "startMs": 28474.32000000002,
            "endMs": 28860.969062500022
          },
          {
            "noteNumber": 41,
            "velocity": 0.7165354330708661,
            "startMs": 28982.790000000023,
            "endMs": 29205.24562500002
          },
          {
            "noteNumber": 39,
            "velocity": 0.7165354330708661,
            "startMs": 29364.14250000002,
            "endMs": 29491.26000000002
          },
          {
            "noteNumber": 51,
            "velocity": 0.7165354330708661,
            "startMs": 29618.37750000002,
            "endMs": 29666.04656250002
          },
          {
            "noteNumber": 24,
            "velocity": 0.7165354330708661,
            "startMs": 29745.49500000002,
            "endMs": 29904.39187500002
          },
          {
            "noteNumber": 36,
            "velocity": 0.7165354330708661,
            "startMs": 29999.730000000018,
            "endMs": 30142.737187500017
          },
          {
            "noteNumber": 39,
            "velocity": 0.7165354330708661,
            "startMs": 30253.96500000002,
            "endMs": 30365.19281250002
          },
          {
            "noteNumber": 29,
            "velocity": 0.7165354330708661,
            "startMs": 30508.20000000002,
            "endMs": 30852.47656250002
          },
          {
            "noteNumber": 41,
            "velocity": 0.7165354330708661,
            "startMs": 31016.67000000002,
            "endMs": 31175.56687500002
          },
          {
            "noteNumber": 29,
            "velocity": 0.7165354330708661,
            "startMs": 31652.257500000018,
            "endMs": 31768.78187500002
          },
          {
            "noteNumber": 36,
            "velocity": 0.7165354330708661,
            "startMs": 31779.37500000002,
            "endMs": 31922.382187500018
          },
          {
            "noteNumber": 39,
            "velocity": 0.7165354330708661,
            "startMs": 32033.610000000015,
            "endMs": 32176.617187500015
          },
          {
            "noteNumber": 41,
            "velocity": 0.7165354330708661,
            "startMs": 32287.845000000016,
            "endMs": 32430.852187500015
          },
          {
            "noteNumber": 25,
            "velocity": 0.7165354330708661,
            "startMs": 32542.080000000016,
            "endMs": 32928.72906250001
          },
          {
            "noteNumber": 37,
            "velocity": 0.7165354330708661,
            "startMs": 33050.55,
            "endMs": 33310.08156249999
          },
          {
            "noteNumber": 27,
            "velocity": 0.7165354330708661,
            "startMs": 33686.13749999997,
            "endMs": 33786.77218749996
          },
          {
            "noteNumber": 39,
            "velocity": 0.7165354330708661,
            "startMs": 33813.25499999996,
            "endMs": 33966.85531249995
          },
          {
            "noteNumber": 36,
            "velocity": 0.7165354330708661,
            "startMs": 34067.48999999995,
            "endMs": 34231.68343749994
          },
          {
            "noteNumber": 39,
            "velocity": 0.7165354330708661,
            "startMs": 34321.72499999993,
            "endMs": 34517.69781249992
          },
          {
            "noteNumber": 29,
            "velocity": 0.7165354330708661,
            "startMs": 34575.95999999992,
            "endMs": 34999.684999999896
          },
          {
            "noteNumber": 39,
            "velocity": 0.7165354330708661,
            "startMs": 35720.017499999856,
            "endMs": 35804.76249999985
          },
          {
            "noteNumber": 36,
            "velocity": 0.7165354330708661,
            "startMs": 35847.13499999985,
            "endMs": 35974.25249999984
          },
          {
            "noteNumber": 34,
            "velocity": 0.7165354330708661,
            "startMs": 36101.369999999835,
            "endMs": 36260.26687499983
          },
          {
            "noteNumber": 32,
            "velocity": 0.7165354330708661,
            "startMs": 36355.60499999982,
            "endMs": 36509.20531249981
          },
          {
            "noteNumber": 29,
            "velocity": 0.7165354330708661,
            "startMs": 36609.83999999981,
            "endMs": 36996.489062499786
          },
          {
            "noteNumber": 41,
            "velocity": 0.7165354330708661,
            "startMs": 37118.30999999978,
            "endMs": 37340.76562499977
          },
          {
            "noteNumber": 39,
            "velocity": 0.7165354330708661,
            "startMs": 37499.66249999976,
            "endMs": 37626.77999999975
          },
          {
            "noteNumber": 51,
            "velocity": 0.7165354330708661,
            "startMs": 37753.897499999744,
            "endMs": 37801.56656249974
          },
          {
            "noteNumber": 24,
            "velocity": 0.7165354330708661,
            "startMs": 37881.01499999974,
            "endMs": 38039.91187499973
          },
          {
            "noteNumber": 36,
            "velocity": 0.7165354330708661,
            "startMs": 38135.24999999972,
            "endMs": 38278.257187499716
          },
          {
            "noteNumber": 39,
            "velocity": 0.7165354330708661,
            "startMs": 38389.48499999971,
            "endMs": 38500.7128124997
          },
          {
            "noteNumber": 29,
            "velocity": 0.7165354330708661,
            "startMs": 38643.719999999696,
            "endMs": 38987.99656249968
          },
          {
            "noteNumber": 41,
            "velocity": 0.7165354330708661,
            "startMs": 39152.18999999967,
            "endMs": 39311.08687499966
          },
          {
            "noteNumber": 29,
            "velocity": 0.7165354330708661,
            "startMs": 39787.77749999963,
            "endMs": 39904.301874999626
          },
          {
            "noteNumber": 36,
            "velocity": 0.7165354330708661,
            "startMs": 39914.894999999626,
            "endMs": 40057.90218749962
          },
          {
            "noteNumber": 39,
            "velocity": 0.7165354330708661,
            "startMs": 40169.12999999961,
            "endMs": 40312.137187499604
          },
          {
            "noteNumber": 41,
            "velocity": 0.7165354330708661,
            "startMs": 40423.3649999996,
            "endMs": 40566.37218749959
          },
          {
            "noteNumber": 25,
            "velocity": 0.7165354330708661,
            "startMs": 40677.599999999584,
            "endMs": 41064.24906249956
          },
          {
            "noteNumber": 37,
            "velocity": 0.7165354330708661,
            "startMs": 41186.069999999556,
            "endMs": 41445.60156249954
          },
          {
            "noteNumber": 27,
            "velocity": 0.7165354330708661,
            "startMs": 41821.65749999952,
            "endMs": 41922.292187499515
          },
          {
            "noteNumber": 39,
            "velocity": 0.7165354330708661,
            "startMs": 41948.774999999514,
            "endMs": 42102.375312499506
          },
          {
            "noteNumber": 36,
            "velocity": 0.7165354330708661,
            "startMs": 42203.0099999995,
            "endMs": 42367.20343749949
          },
          {
            "noteNumber": 39,
            "velocity": 0.7165354330708661,
            "startMs": 42457.244999999486,
            "endMs": 42653.217812499475
          },
          {
            "noteNumber": 29,
            "velocity": 0.7165354330708661,
            "startMs": 42711.47999999947,
            "endMs": 43135.204999999456
          },
          {
            "noteNumber": 39,
            "velocity": 0.7165354330708661,
            "startMs": 43855.537499999424,
            "endMs": 43940.28249999942
          },
          {
            "noteNumber": 36,
            "velocity": 0.7165354330708661,
            "startMs": 43982.65499999942,
            "endMs": 44109.77249999942
          },
          {
            "noteNumber": 34,
            "velocity": 0.7165354330708661,
            "startMs": 44236.88999999942,
            "endMs": 44395.786874999416
          },
          {
            "noteNumber": 32,
            "velocity": 0.7165354330708661,
            "startMs": 44491.12499999941,
            "endMs": 44644.7253124994
          },
          {
            "noteNumber": 29,
            "velocity": 0.7165354330708661,
            "startMs": 44745.3599999994,
            "endMs": 45132.009062499375
          },
          {
            "noteNumber": 41,
            "velocity": 0.7165354330708661,
            "startMs": 45253.82999999937,
            "endMs": 45476.28562499936
          },
          {
            "noteNumber": 39,
            "velocity": 0.7165354330708661,
            "startMs": 45635.18249999935,
            "endMs": 45762.29999999934
          },
          {
            "noteNumber": 51,
            "velocity": 0.7165354330708661,
            "startMs": 45889.417499999334,
            "endMs": 45937.08656249933
          },
          {
            "noteNumber": 24,
            "velocity": 0.7165354330708661,
            "startMs": 46016.53499999933,
            "endMs": 46175.43187499932
          },
          {
            "noteNumber": 36,
            "velocity": 0.7165354330708661,
            "startMs": 46270.76999999931,
            "endMs": 46413.777187499305
          },
          {
            "noteNumber": 39,
            "velocity": 0.7165354330708661,
            "startMs": 46525.0049999993,
            "endMs": 46636.23281249929
          },
          {
            "noteNumber": 29,
            "velocity": 0.7165354330708661,
            "startMs": 46779.239999999285,
            "endMs": 47123.516562499266
          },
          {
            "noteNumber": 41,
            "velocity": 0.7165354330708661,
            "startMs": 47287.70999999926,
            "endMs": 47446.60687499925
          },
          {
            "noteNumber": 29,
            "velocity": 0.7165354330708661,
            "startMs": 47923.29749999922,
            "endMs": 48039.821874999216
          },
          {
            "noteNumber": 36,
            "velocity": 0.7165354330708661,
            "startMs": 48050.414999999215,
            "endMs": 48193.42218749921
          },
          {
            "noteNumber": 39,
            "velocity": 0.7165354330708661,
            "startMs": 48304.6499999992,
            "endMs": 48447.65718749919
          },
          {
            "noteNumber": 41,
            "velocity": 0.7165354330708661,
            "startMs": 48558.88499999919,
            "endMs": 48701.89218749918
          },
          {
            "noteNumber": 25,
            "velocity": 0.7165354330708661,
            "startMs": 48813.11999999917,
            "endMs": 49199.76906249915
          },
          {
            "noteNumber": 37,
            "velocity": 0.7165354330708661,
            "startMs": 49321.589999999145,
            "endMs": 49581.12156249913
          },
          {
            "noteNumber": 27,
            "velocity": 0.7165354330708661,
            "startMs": 49957.17749999911,
            "endMs": 50057.812187499105
          },
          {
            "noteNumber": 39,
            "velocity": 0.7165354330708661,
            "startMs": 50084.2949999991,
            "endMs": 50237.895312499095
          },
          {
            "noteNumber": 36,
            "velocity": 0.7165354330708661,
            "startMs": 50338.52999999909,
            "endMs": 50502.72343749908
          },
          {
            "noteNumber": 39,
            "velocity": 0.7165354330708661,
            "startMs": 50592.764999999075,
            "endMs": 50788.737812499065
          },
          {
            "noteNumber": 29,
            "velocity": 0.7165354330708661,
            "startMs": 50846.99999999906,
            "endMs": 51270.724999999045
          },
          {
            "noteNumber": 39,
            "velocity": 0.7165354330708661,
            "startMs": 51991.05749999901,
            "endMs": 52075.80249999901
          },
          {
            "noteNumber": 36,
            "velocity": 0.7165354330708661,
            "startMs": 52118.174999999006,
            "endMs": 52245.29249999901
          },
          {
            "noteNumber": 34,
            "velocity": 0.7165354330708661,
            "startMs": 52372.40999999901,
            "endMs": 52531.306874999005
          },
          {
            "noteNumber": 32,
            "velocity": 0.7165354330708661,
            "startMs": 52626.644999999,
            "endMs": 52780.24531249899
          },
          {
            "noteNumber": 29,
            "velocity": 0.7165354330708661,
            "startMs": 52880.879999998986,
            "endMs": 53267.529062498965
          },
          {
            "noteNumber": 41,
            "velocity": 0.7165354330708661,
            "startMs": 53389.34999999896,
            "endMs": 53611.805624998946
          },
          {
            "noteNumber": 39,
            "velocity": 0.7165354330708661,
            "startMs": 53770.70249999894,
            "endMs": 53897.81999999893
          },
          {
            "noteNumber": 51,
            "velocity": 0.7165354330708661,
            "startMs": 54024.93749999892,
            "endMs": 54072.60656249892
          },
          {
            "noteNumber": 24,
            "velocity": 0.7165354330708661,
            "startMs": 54152.054999998916,
            "endMs": 54310.95187499891
          },
          {
            "noteNumber": 36,
            "velocity": 0.7165354330708661,
            "startMs": 54406.2899999989,
            "endMs": 54549.297187498894
          },
          {
            "noteNumber": 39,
            "velocity": 0.7165354330708661,
            "startMs": 54660.52499999889,
            "endMs": 54771.75281249888
          },
          {
            "noteNumber": 29,
            "velocity": 0.7165354330708661,
            "startMs": 54914.759999998874,
            "endMs": 55259.036562498855
          },
          {
            "noteNumber": 41,
            "velocity": 0.7165354330708661,
            "startMs": 55423.229999998846,
            "endMs": 55582.12687499884
          },
          {
            "noteNumber": 29,
            "velocity": 0.7165354330708661,
            "startMs": 56058.81749999881,
            "endMs": 56175.341874998805
          },
          {
            "noteNumber": 36,
            "velocity": 0.7165354330708661,
            "startMs": 56185.934999998804,
            "endMs": 56328.9421874988
          },
          {
            "noteNumber": 39,
            "velocity": 0.7165354330708661,
            "startMs": 56440.16999999879,
            "endMs": 56583.17718749878
          },
          {
            "noteNumber": 41,
            "velocity": 0.7165354330708661,
            "startMs": 56694.40499999878,
            "endMs": 56837.41218749877
          },
          {
            "noteNumber": 25,
            "velocity": 0.7165354330708661,
            "startMs": 56948.63999999876,
            "endMs": 57335.28906249874
          },
          {
            "noteNumber": 37,
            "velocity": 0.7165354330708661,
            "startMs": 57457.109999998735,
            "endMs": 57716.64156249872
          },
          {
            "noteNumber": 27,
            "velocity": 0.7165354330708661,
            "startMs": 58092.6974999987,
            "endMs": 58193.332187498694
          },
          {
            "noteNumber": 39,
            "velocity": 0.7165354330708661,
            "startMs": 58219.81499999869,
            "endMs": 58373.415312498684
          },
          {
            "noteNumber": 36,
            "velocity": 0.7165354330708661,
            "startMs": 58474.04999999868,
            "endMs": 58638.24343749867
          },
          {
            "noteNumber": 39,
            "velocity": 0.7165354330708661,
            "startMs": 58728.284999998665,
            "endMs": 58924.257812498654
          },
          {
            "noteNumber": 29,
            "velocity": 0.7165354330708661,
            "startMs": 58982.51999999865,
            "endMs": 59406.244999998635
          },
          {
            "noteNumber": 39,
            "velocity": 0.7165354330708661,
            "startMs": 60126.5774999986,
            "endMs": 60211.3224999986
          },
          {
            "noteNumber": 36,
            "velocity": 0.7165354330708661,
            "startMs": 60253.694999998595,
            "endMs": 60380.812499998596
          },
          {
            "noteNumber": 34,
            "velocity": 0.7165354330708661,
            "startMs": 60507.929999998596,
            "endMs": 60666.826874998595
          },
          {
            "noteNumber": 32,
            "velocity": 0.7165354330708661,
            "startMs": 60762.16499999859,
            "endMs": 60915.76531249858
          },
          {
            "noteNumber": 29,
            "velocity": 0.7165354330708661,
            "startMs": 61016.399999998575,
            "endMs": 61403.049062498554
          },
          {
            "noteNumber": 41,
            "velocity": 0.7165354330708661,
            "startMs": 61524.86999999855,
            "endMs": 61747.325624998535
          },
          {
            "noteNumber": 39,
            "velocity": 0.7165354330708661,
            "startMs": 61906.22249999853,
            "endMs": 62033.33999999852
          },
          {
            "noteNumber": 51,
            "velocity": 0.7165354330708661,
            "startMs": 62160.45749999851,
            "endMs": 62208.12656249851
          },
          {
            "noteNumber": 24,
            "velocity": 0.7165354330708661,
            "startMs": 62287.574999998506,
            "endMs": 62446.4718749985
          },
          {
            "noteNumber": 36,
            "velocity": 0.7165354330708661,
            "startMs": 62541.80999999849,
            "endMs": 62684.817187498484
          },
          {
            "noteNumber": 39,
            "velocity": 0.7165354330708661,
            "startMs": 62796.04499999848,
            "endMs": 62907.27281249847
          },
          {
            "noteNumber": 29,
            "velocity": 0.7165354330708661,
            "startMs": 63050.27999999846,
            "endMs": 63394.556562498445
          },
          {
            "noteNumber": 41,
            "velocity": 0.7165354330708661,
            "startMs": 63558.749999998436,
            "endMs": 63717.64687499843
          },
          {
            "noteNumber": 29,
            "velocity": 0.7165354330708661,
            "startMs": 64194.3374999984,
            "endMs": 64310.861874998394
          },
          {
            "noteNumber": 36,
            "velocity": 0.7165354330708661,
            "startMs": 64321.454999998394,
            "endMs": 64464.462187498386
          },
          {
            "noteNumber": 39,
            "velocity": 0.7165354330708661,
            "startMs": 64575.68999999838,
            "endMs": 64718.69718749837
          },
          {
            "noteNumber": 41,
            "velocity": 0.7165354330708661,
            "startMs": 64829.924999998366,
            "endMs": 64972.93218749836
          },
          {
            "noteNumber": 25,
            "velocity": 0.7165354330708661,
            "startMs": 65084.15999999835,
            "endMs": 65470.80906249833
          },
          {
            "noteNumber": 37,
            "velocity": 0.7165354330708661,
            "startMs": 65592.62999999833,
            "endMs": 65852.16156249835
          },
          {
            "noteNumber": 27,
            "velocity": 0.7165354330708661,
            "startMs": 66228.2174999984,
            "endMs": 66328.85218749841
          },
          {
            "noteNumber": 39,
            "velocity": 0.7165354330708661,
            "startMs": 66355.33499999842,
            "endMs": 66508.93531249842
          },
          {
            "noteNumber": 36,
            "velocity": 0.7165354330708661,
            "startMs": 66609.56999999844,
            "endMs": 66773.76343749843
          },
          {
            "noteNumber": 39,
            "velocity": 0.7165354330708661,
            "startMs": 66863.80499999847,
            "endMs": 67059.77781249848
          },
          {
            "noteNumber": 29,
            "velocity": 0.7165354330708661,
            "startMs": 67118.03999999848,
            "endMs": 67541.76499999847
          },
          {
            "noteNumber": 39,
            "velocity": 0.7165354330708661,
            "startMs": 68262.0974999985,
            "endMs": 68346.84249999851
          },
          {
            "noteNumber": 36,
            "velocity": 0.7165354330708661,
            "startMs": 68389.21499999853,
            "endMs": 68516.33249999852
          },
          {
            "noteNumber": 34,
            "velocity": 0.7165354330708661,
            "startMs": 68643.44999999854,
            "endMs": 68802.34687499853
          },
          {
            "noteNumber": 32,
            "velocity": 0.7165354330708661,
            "startMs": 68897.68499999853,
            "endMs": 69051.28531249854
          },
          {
            "noteNumber": 29,
            "velocity": 0.7165354330708661,
            "startMs": 69151.91999999856,
            "endMs": 69538.56906249859
          },
          {
            "noteNumber": 41,
            "velocity": 0.7165354330708661,
            "startMs": 69660.38999999859,
            "endMs": 69882.84562499858
          },
          {
            "noteNumber": 39,
            "velocity": 0.7165354330708661,
            "startMs": 70041.7424999986,
            "endMs": 70168.8599999986
          },
          {
            "noteNumber": 51,
            "velocity": 0.7165354330708661,
            "startMs": 70295.97749999861,
            "endMs": 70343.64656249862
          },
          {
            "noteNumber": 24,
            "velocity": 0.7165354330708661,
            "startMs": 70423.09499999863,
            "endMs": 70581.99187499864
          },
          {
            "noteNumber": 36,
            "velocity": 0.7165354330708661,
            "startMs": 70677.32999999865,
            "endMs": 70820.33718749865
          },
          {
            "noteNumber": 39,
            "velocity": 0.7165354330708661,
            "startMs": 70931.56499999866,
            "endMs": 71042.79281249866
          },
          {
            "noteNumber": 29,
            "velocity": 0.7165354330708661,
            "startMs": 71185.79999999866,
            "endMs": 71572.44906249868
          },
          {
            "noteNumber": 41,
            "velocity": 0.7165354330708661,
            "startMs": 71694.2699999987,
            "endMs": 71916.7256249987
          },
          {
            "noteNumber": 39,
            "velocity": 0.7165354330708661,
            "startMs": 72075.62249999872,
            "endMs": 72202.73999999872
          },
          {
            "noteNumber": 51,
            "velocity": 0.7165354330708661,
            "startMs": 72329.85749999873,
            "endMs": 72377.52656249874
          },
          {
            "noteNumber": 24,
            "velocity": 0.7165354330708661,
            "startMs": 72456.97499999874,
            "endMs": 72615.87187499875
          },
          {
            "noteNumber": 36,
            "velocity": 0.7165354330708661,
            "startMs": 72711.20999999875,
            "endMs": 72854.21718749877
          },
          {
            "noteNumber": 39,
            "velocity": 0.7165354330708661,
            "startMs": 72965.44499999878,
            "endMs": 73076.67281249879
          },
          {
            "noteNumber": 29,
            "velocity": 0.8031496062992126,
            "startMs": 73219.67999999879,
            "endMs": 73283.2387499988
          },
          {
            "noteNumber": 29,
            "velocity": 0.7165354330708661,
            "startMs": 75253.5599999988,
            "endMs": 75640.2090624988
          },
          {
            "noteNumber": 41,
            "velocity": 0.7165354330708661,
            "startMs": 75762.0299999988,
            "endMs": 75984.4856249988
          },
          {
            "noteNumber": 39,
            "velocity": 0.7165354330708661,
            "startMs": 76143.3824999988,
            "endMs": 76270.4999999988
          },
          {
            "noteNumber": 51,
            "velocity": 0.7165354330708661,
            "startMs": 76397.6174999988,
            "endMs": 76445.2865624988
          },
          {
            "noteNumber": 24,
            "velocity": 0.7165354330708661,
            "startMs": 76524.73499999882,
            "endMs": 76683.63187499883
          },
          {
            "noteNumber": 36,
            "velocity": 0.7165354330708661,
            "startMs": 76778.96999999882,
            "endMs": 76921.97718749884
          },
          {
            "noteNumber": 39,
            "velocity": 0.7165354330708661,
            "startMs": 77033.20499999884,
            "endMs": 77144.43281249884
          },
          {
            "noteNumber": 29,
            "velocity": 0.7165354330708661,
            "startMs": 77287.43999999885,
            "endMs": 77631.71656249887
          },
          {
            "noteNumber": 41,
            "velocity": 0.7165354330708661,
            "startMs": 77795.90999999887,
            "endMs": 77954.80687499887
          },
          {
            "noteNumber": 29,
            "velocity": 0.7165354330708661,
            "startMs": 78431.49749999886,
            "endMs": 78548.02187499886
          },
          {
            "noteNumber": 36,
            "velocity": 0.7165354330708661,
            "startMs": 78558.61499999886,
            "endMs": 78701.62218749886
          },
          {
            "noteNumber": 39,
            "velocity": 0.7165354330708661,
            "startMs": 78812.84999999886,
            "endMs": 78955.85718749886
          },
          {
            "noteNumber": 41,
            "velocity": 0.7165354330708661,
            "startMs": 79067.08499999886,
            "endMs": 79210.09218749887
          },
          {
            "noteNumber": 25,
            "velocity": 0.7165354330708661,
            "startMs": 79321.31999999887,
            "endMs": 79707.96906249887
          },
          {
            "noteNumber": 37,
            "velocity": 0.7165354330708661,
            "startMs": 79829.78999999887,
            "endMs": 80089.3215624989
          },
          {
            "noteNumber": 27,
            "velocity": 0.7165354330708661,
            "startMs": 80465.37749999893,
            "endMs": 80566.01218749893
          },
          {
            "noteNumber": 39,
            "velocity": 0.7165354330708661,
            "startMs": 80592.49499999893,
            "endMs": 80746.09531249893
          },
          {
            "noteNumber": 36,
            "velocity": 0.7165354330708661,
            "startMs": 80846.72999999895,
            "endMs": 81010.92343749895
          },
          {
            "noteNumber": 39,
            "velocity": 0.7165354330708661,
            "startMs": 81100.96499999896,
            "endMs": 81296.93781249896
          },
          {
            "noteNumber": 29,
            "velocity": 0.7165354330708661,
            "startMs": 81355.19999999896,
            "endMs": 81778.92499999894
          },
          {
            "noteNumber": 39,
            "velocity": 0.7165354330708661,
            "startMs": 82499.25749999894,
            "endMs": 82584.00249999894
          },
          {
            "noteNumber": 36,
            "velocity": 0.7165354330708661,
            "startMs": 82626.37499999895,
            "endMs": 82753.49249999896
          },
          {
            "noteNumber": 34,
            "velocity": 0.7165354330708661,
            "startMs": 82880.60999999895,
            "endMs": 83039.50687499896
          },
          {
            "noteNumber": 32,
            "velocity": 0.7165354330708661,
            "startMs": 83134.84499999897,
            "endMs": 83288.44531249898
          },
          {
            "noteNumber": 29,
            "velocity": 0.7165354330708661,
            "startMs": 83389.079999999,
            "endMs": 83775.72906249901
          },
          {
            "noteNumber": 41,
            "velocity": 0.7165354330708661,
            "startMs": 83897.54999999901,
            "endMs": 84120.00562499902
          },
          {
            "noteNumber": 39,
            "velocity": 0.7165354330708661,
            "startMs": 84278.90249999902,
            "endMs": 84406.01999999901
          },
          {
            "noteNumber": 51,
            "velocity": 0.7165354330708661,
            "startMs": 84533.13749999901,
            "endMs": 84580.80656249901
          },
          {
            "noteNumber": 24,
            "velocity": 0.7165354330708661,
            "startMs": 84660.25499999903,
            "endMs": 84819.15187499902
          },
          {
            "noteNumber": 36,
            "velocity": 0.7165354330708661,
            "startMs": 84914.48999999902,
            "endMs": 85057.49718749903
          },
          {
            "noteNumber": 39,
            "velocity": 0.7165354330708661,
            "startMs": 85168.72499999905,
            "endMs": 85279.95281249905
          },
          {
            "noteNumber": 29,
            "velocity": 0.7165354330708661,
            "startMs": 85422.95999999906,
            "endMs": 85767.23656249906
          },
          {
            "noteNumber": 41,
            "velocity": 0.7165354330708661,
            "startMs": 85931.42999999906,
            "endMs": 86090.32687499907
          },
          {
            "noteNumber": 29,
            "velocity": 0.7165354330708661,
            "startMs": 86567.01749999906,
            "endMs": 86683.54187499906
          },
          {
            "noteNumber": 36,
            "velocity": 0.7165354330708661,
            "startMs": 86694.13499999906,
            "endMs": 86837.14218749906
          },
          {
            "noteNumber": 39,
            "velocity": 0.7165354330708661,
            "startMs": 86948.36999999908,
            "endMs": 87091.37718749908
          },
          {
            "noteNumber": 41,
            "velocity": 0.7165354330708661,
            "startMs": 87202.6049999991,
            "endMs": 87345.6121874991
          },
          {
            "noteNumber": 25,
            "velocity": 0.7165354330708661,
            "startMs": 87456.83999999911,
            "endMs": 87843.48906249912
          },
          {
            "noteNumber": 37,
            "velocity": 0.7165354330708661,
            "startMs": 87965.30999999912,
            "endMs": 88224.84156249912
          },
          {
            "noteNumber": 27,
            "velocity": 0.7165354330708661,
            "startMs": 88600.89749999912,
            "endMs": 88701.53218749912
          },
          {
            "noteNumber": 39,
            "velocity": 0.7165354330708661,
            "startMs": 88728.01499999913,
            "endMs": 88881.61531249914
          },
          {
            "noteNumber": 36,
            "velocity": 0.7165354330708661,
            "startMs": 88982.24999999914,
            "endMs": 89146.44343749914
          },
          {
            "noteNumber": 39,
            "velocity": 0.7165354330708661,
            "startMs": 89236.48499999916,
            "endMs": 89432.45781249917
          },
          {
            "noteNumber": 29,
            "velocity": 0.7165354330708661,
            "startMs": 89490.71999999919,
            "endMs": 89914.44499999919
          },
          {
            "noteNumber": 39,
            "velocity": 0.7165354330708661,
            "startMs": 90634.77749999921,
            "endMs": 90719.5224999992
          },
          {
            "noteNumber": 36,
            "velocity": 0.7165354330708661,
            "startMs": 90761.8949999992,
            "endMs": 90889.01249999921
          },
          {
            "noteNumber": 34,
            "velocity": 0.7165354330708661,
            "startMs": 91016.1299999992,
            "endMs": 91175.0268749992
          },
          {
            "noteNumber": 32,
            "velocity": 0.7165354330708661,
            "startMs": 91270.36499999919,
            "endMs": 91423.96531249919
          },
          {
            "noteNumber": 29,
            "velocity": 0.7165354330708661,
            "startMs": 91524.5999999992,
            "endMs": 91911.24906249922
          },
          {
            "noteNumber": 41,
            "velocity": 0.7165354330708661,
            "startMs": 92033.06999999924,
            "endMs": 92255.52562499922
          },
          {
            "noteNumber": 39,
            "velocity": 0.7165354330708661,
            "startMs": 92414.42249999923,
            "endMs": 92541.53999999922
          },
          {
            "noteNumber": 51,
            "velocity": 0.7165354330708661,
            "startMs": 92668.65749999922,
            "endMs": 92716.32656249922
          },
          {
            "noteNumber": 24,
            "velocity": 0.7165354330708661,
            "startMs": 92795.77499999924,
            "endMs": 92954.67187499924
          },
          {
            "noteNumber": 36,
            "velocity": 0.7165354330708661,
            "startMs": 93050.00999999924,
            "endMs": 93193.01718749925
          },
          {
            "noteNumber": 39,
            "velocity": 0.7165354330708661,
            "startMs": 93304.24499999925,
            "endMs": 93415.47281249925
          },
          {
            "noteNumber": 29,
            "velocity": 0.7165354330708661,
            "startMs": 93558.47999999927,
            "endMs": 93902.75656249926
          },
          {
            "noteNumber": 41,
            "velocity": 0.7165354330708661,
            "startMs": 94066.94999999925,
            "endMs": 94225.84687499926
          },
          {
            "noteNumber": 29,
            "velocity": 0.7165354330708661,
            "startMs": 94702.5374999993,
            "endMs": 94819.0618749993
          },
          {
            "noteNumber": 36,
            "velocity": 0.7165354330708661,
            "startMs": 94829.6549999993,
            "endMs": 94972.66218749931
          },
          {
            "noteNumber": 39,
            "velocity": 0.7165354330708661,
            "startMs": 95083.88999999932,
            "endMs": 95226.89718749933
          },
          {
            "noteNumber": 41,
            "velocity": 0.7165354330708661,
            "startMs": 95338.12499999935,
            "endMs": 95481.13218749936
          },
          {
            "noteNumber": 25,
            "velocity": 0.7165354330708661,
            "startMs": 95592.35999999936,
            "endMs": 95979.00906249939
          },
          {
            "noteNumber": 37,
            "velocity": 0.7165354330708661,
            "startMs": 96100.8299999994,
            "endMs": 96360.36156249943
          },
          {
            "noteNumber": 27,
            "velocity": 0.7165354330708661,
            "startMs": 96736.41749999941,
            "endMs": 96837.05218749943
          },
          {
            "noteNumber": 39,
            "velocity": 0.7165354330708661,
            "startMs": 96863.53499999944,
            "endMs": 97017.13531249943
          },
          {
            "noteNumber": 36,
            "velocity": 0.7165354330708661,
            "startMs": 97117.76999999944,
            "endMs": 97281.96343749943
          },
          {
            "noteNumber": 39,
            "velocity": 0.7165354330708661,
            "startMs": 97372.00499999945,
            "endMs": 97567.97781249945
          },
          {
            "noteNumber": 29,
            "velocity": 0.7165354330708661,
            "startMs": 97626.23999999945,
            "endMs": 98049.96499999944
          },
          {
            "noteNumber": 39,
            "velocity": 0.7165354330708661,
            "startMs": 98770.29749999946,
            "endMs": 98855.04249999947
          },
          {
            "noteNumber": 36,
            "velocity": 0.7165354330708661,
            "startMs": 98897.41499999947,
            "endMs": 99024.53249999948
          },
          {
            "noteNumber": 34,
            "velocity": 0.7165354330708661,
            "startMs": 99151.64999999948,
            "endMs": 99310.5468749995
          },
          {
            "noteNumber": 32,
            "velocity": 0.7165354330708661,
            "startMs": 99405.8849999995,
            "endMs": 99559.48531249951
          },
          {
            "noteNumber": 29,
            "velocity": 0.7165354330708661,
            "startMs": 99660.11999999952,
            "endMs": 100046.76906249952
          },
          {
            "noteNumber": 41,
            "velocity": 0.7165354330708661,
            "startMs": 100168.58999999952,
            "endMs": 100391.04562499952
          },
          {
            "noteNumber": 39,
            "velocity": 0.7165354330708661,
            "startMs": 100549.94249999951,
            "endMs": 100677.0599999995
          },
          {
            "noteNumber": 51,
            "velocity": 0.7165354330708661,
            "startMs": 100804.1774999995,
            "endMs": 100851.8465624995
          },
          {
            "noteNumber": 24,
            "velocity": 0.7165354330708661,
            "startMs": 100931.2949999995,
            "endMs": 101090.19187499952
          },
          {
            "noteNumber": 36,
            "velocity": 0.7165354330708661,
            "startMs": 101185.52999999952,
            "endMs": 101328.53718749953
          },
          {
            "noteNumber": 39,
            "velocity": 0.7165354330708661,
            "startMs": 101439.76499999955,
            "endMs": 101550.99281249955
          },
          {
            "noteNumber": 29,
            "velocity": 0.7165354330708661,
            "startMs": 101693.99999999955,
            "endMs": 102038.27656249955
          },
          {
            "noteNumber": 41,
            "velocity": 0.7165354330708661,
            "startMs": 102202.46999999956,
            "endMs": 102361.36687499957
          },
          {
            "noteNumber": 29,
            "velocity": 0.7165354330708661,
            "startMs": 102838.05749999959,
            "endMs": 102954.5818749996
          },
          {
            "noteNumber": 36,
            "velocity": 0.7165354330708661,
            "startMs": 102965.1749999996,
            "endMs": 103108.18218749961
          },
          {
            "noteNumber": 39,
            "velocity": 0.7165354330708661,
            "startMs": 103219.40999999961,
            "endMs": 103362.41718749962
          },
          {
            "noteNumber": 41,
            "velocity": 0.7165354330708661,
            "startMs": 103473.64499999963,
            "endMs": 103616.65218749963
          },
          {
            "noteNumber": 25,
            "velocity": 0.7165354330708661,
            "startMs": 103727.87999999963,
            "endMs": 104114.52906249963
          },
          {
            "noteNumber": 37,
            "velocity": 0.7165354330708661,
            "startMs": 104236.34999999963,
            "endMs": 104495.88156249964
          },
          {
            "noteNumber": 27,
            "velocity": 0.7165354330708661,
            "startMs": 104871.93749999967,
            "endMs": 104972.57218749968
          },
          {
            "noteNumber": 39,
            "velocity": 0.7165354330708661,
            "startMs": 104999.05499999969,
            "endMs": 105152.65531249969
          },
          {
            "noteNumber": 36,
            "velocity": 0.7165354330708661,
            "startMs": 105253.2899999997,
            "endMs": 105417.4834374997
          },
          {
            "noteNumber": 39,
            "velocity": 0.7165354330708661,
            "startMs": 105507.5249999997,
            "endMs": 105703.4978124997
          },
          {
            "noteNumber": 29,
            "velocity": 0.7165354330708661,
            "startMs": 105761.7599999997,
            "endMs": 106185.48499999971
          },
          {
            "noteNumber": 44,
            "velocity": 0.7165354330708661,
            "startMs": 106905.81749999971,
            "endMs": 106964.07968749972
          },
          {
            "noteNumber": 39,
            "velocity": 0.7165354330708661,
            "startMs": 107032.93499999972,
            "endMs": 107165.34906249972
          },
          {
            "noteNumber": 41,
            "velocity": 0.7165354330708661,
            "startMs": 107287.16999999972,
            "endMs": 107356.02531249973
          },
          {
            "noteNumber": 43,
            "velocity": 0.7165354330708661,
            "startMs": 107541.40499999974,
            "endMs": 107620.85343749974
          },
          {
            "noteNumber": 44,
            "velocity": 0.7165354330708661,
            "startMs": 107795.63999999974,
            "endMs": 107901.57124999976
          },
          {
            "noteNumber": 44,
            "velocity": 0.7165354330708661,
            "startMs": 108939.6974999998,
            "endMs": 108992.6631249998
          },
          {
            "noteNumber": 39,
            "velocity": 0.7165354330708661,
            "startMs": 109066.81499999981,
            "endMs": 109225.7118749998
          },
          {
            "noteNumber": 44,
            "velocity": 0.7165354330708661,
            "startMs": 109321.04999999981,
            "endMs": 109411.09156249982
          },
          {
            "noteNumber": 39,
            "velocity": 0.7165354330708661,
            "startMs": 109575.28499999981,
            "endMs": 109702.40249999981
          },
          {
            "noteNumber": 41,
            "velocity": 0.7165354330708661,
            "startMs": 109829.5199999998,
            "endMs": 109924.85812499981
          },
          {
            "noteNumber": 41,
            "velocity": 0.7165354330708661,
            "startMs": 110973.57749999981,
            "endMs": 111042.43281249981
          },
          {
            "noteNumber": 39,
            "velocity": 0.7165354330708661,
            "startMs": 111100.69499999983,
            "endMs": 111211.92281249983
          },
          {
            "noteNumber": 41,
            "velocity": 0.7165354330708661,
            "startMs": 111354.92999999986,
            "endMs": 111439.67499999987
          },
          {
            "noteNumber": 39,
            "velocity": 0.7165354330708661,
            "startMs": 111609.16499999989,
            "endMs": 111730.98593749989
          },
          {
            "noteNumber": 42,
            "velocity": 0.7165354330708661,
            "startMs": 111863.3999999999,
            "endMs": 111969.33124999992
          },
          {
            "noteNumber": 39,
            "velocity": 0.7165354330708661,
            "startMs": 113134.57499999992,
            "endMs": 113245.80281249993
          },
          {
            "noteNumber": 42,
            "velocity": 0.7165354330708661,
            "startMs": 113134.57499999992,
            "endMs": 113208.72687499992
          },
          {
            "noteNumber": 42,
            "velocity": 0.7165354330708661,
            "startMs": 113388.80999999995,
            "endMs": 113473.55499999998
          },
          {
            "noteNumber": 44,
            "velocity": 0.7165354330708661,
            "startMs": 113643.04499999998,
            "endMs": 113717.196875
          },
          {
            "noteNumber": 39,
            "velocity": 0.7165354330708661,
            "startMs": 113897.28000000001,
            "endMs": 114045.58375
          },
          {
            "noteNumber": 44,
            "velocity": 0.7165354330708661,
            "startMs": 115041.33750000002,
            "endMs": 115104.89625000003
          },
          {
            "noteNumber": 39,
            "velocity": 0.7165354330708661,
            "startMs": 115168.45500000005,
            "endMs": 115279.68281250006
          },
          {
            "noteNumber": 41,
            "velocity": 0.7165354330708661,
            "startMs": 115422.69000000008,
            "endMs": 115491.5453125001
          },
          {
            "noteNumber": 43,
            "velocity": 0.7165354330708661,
            "startMs": 115676.92500000009,
            "endMs": 115745.7803125001
          },
          {
            "noteNumber": 44,
            "velocity": 0.7165354330708661,
            "startMs": 115931.1600000001,
            "endMs": 116010.60843750011
          },
          {
            "noteNumber": 44,
            "velocity": 0.7165354330708661,
            "startMs": 117075.2175000002,
            "endMs": 117138.7762500002
          },
          {
            "noteNumber": 39,
            "velocity": 0.7165354330708661,
            "startMs": 117202.33500000021,
            "endMs": 117313.56281250021
          },
          {
            "noteNumber": 44,
            "velocity": 0.7165354330708661,
            "startMs": 117456.57000000024,
            "endMs": 117536.01843750024
          },
          {
            "noteNumber": 39,
            "velocity": 0.7165354330708661,
            "startMs": 117710.80500000027,
            "endMs": 117806.14312500028
          },
          {
            "noteNumber": 41,
            "velocity": 0.7165354330708661,
            "startMs": 117965.04000000027,
            "endMs": 118039.19187500027
          },
          {
            "noteNumber": 41,
            "velocity": 0.7165354330708661,
            "startMs": 119109.09750000032,
            "endMs": 119172.65625000032
          },
          {
            "noteNumber": 39,
            "velocity": 0.7165354330708661,
            "startMs": 119236.21500000035,
            "endMs": 119342.14625000034
          },
          {
            "noteNumber": 41,
            "velocity": 0.7165354330708661,
            "startMs": 119490.45000000038,
            "endMs": 119559.3053125004
          },
          {
            "noteNumber": 39,
            "velocity": 0.7165354330708661,
            "startMs": 119744.68500000042,
            "endMs": 119850.61625000043
          },
          {
            "noteNumber": 42,
            "velocity": 0.7165354330708661,
            "startMs": 119998.92000000043,
            "endMs": 120083.66500000043
          },
          {
            "noteNumber": 42,
            "velocity": 0.7165354330708661,
            "startMs": 121142.97750000049,
            "endMs": 121211.83281250049
          },
          {
            "noteNumber": 39,
            "velocity": 0.7165354330708661,
            "startMs": 121270.09500000051,
            "endMs": 121370.72968750051
          },
          {
            "noteNumber": 42,
            "velocity": 0.7165354330708661,
            "startMs": 121524.33000000054,
            "endMs": 121587.88875000054
          },
          {
            "noteNumber": 44,
            "velocity": 0.7165354330708661,
            "startMs": 121778.56500000057,
            "endMs": 121842.12375000057
          },
          {
            "noteNumber": 39,
            "velocity": 0.7165354330708661,
            "startMs": 122032.80000000057,
            "endMs": 122128.1381250006
          },
          {
            "noteNumber": 44,
            "velocity": 0.7165354330708661,
            "startMs": 123176.85750000064,
            "endMs": 123240.41625000065
          },
          {
            "noteNumber": 39,
            "velocity": 0.7165354330708661,
            "startMs": 123303.97500000066,
            "endMs": 123415.20281250066
          },
          {
            "noteNumber": 41,
            "velocity": 0.7165354330708661,
            "startMs": 123558.21000000069,
            "endMs": 123632.3618750007
          },
          {
            "noteNumber": 43,
            "velocity": 0.7165354330708661,
            "startMs": 123812.44500000072,
            "endMs": 123881.30031250072
          },
          {
            "noteNumber": 44,
            "velocity": 0.7165354330708661,
            "startMs": 124066.68000000072,
            "endMs": 124140.83187500073
          },
          {
            "noteNumber": 44,
            "velocity": 0.7165354330708661,
            "startMs": 125210.7375000008,
            "endMs": 125290.18593750082
          },
          {
            "noteNumber": 39,
            "velocity": 0.7165354330708661,
            "startMs": 125337.85500000083,
            "endMs": 125449.08281250083
          },
          {
            "noteNumber": 44,
            "velocity": 0.7165354330708661,
            "startMs": 125592.09000000086,
            "endMs": 125687.42812500085
          },
          {
            "noteNumber": 39,
            "velocity": 0.7165354330708661,
            "startMs": 125846.32500000087,
            "endMs": 125978.73906250088
          },
          {
            "noteNumber": 41,
            "velocity": 0.7165354330708661,
            "startMs": 126100.56000000089,
            "endMs": 126217.0843750009
          },
          {
            "noteNumber": 41,
            "velocity": 0.7165354330708661,
            "startMs": 127244.61750000095,
            "endMs": 127313.47281250096
          },
          {
            "noteNumber": 39,
            "velocity": 0.7165354330708661,
            "startMs": 127371.73500000098,
            "endMs": 127472.36968750098
          },
          {
            "noteNumber": 41,
            "velocity": 0.7165354330708661,
            "startMs": 127625.970000001,
            "endMs": 127721.30812500101
          },
          {
            "noteNumber": 39,
            "velocity": 0.7165354330708661,
            "startMs": 127880.20500000103,
            "endMs": 128039.10187500106
          },
          {
            "noteNumber": 42,
            "velocity": 0.7165354330708661,
            "startMs": 128134.44000000106,
            "endMs": 128256.26093750108
          },
          {
            "noteNumber": 42,
            "velocity": 0.7165354330708661,
            "startMs": 129278.49750000118,
            "endMs": 129352.64937500119
          },
          {
            "noteNumber": 39,
            "velocity": 0.7165354330708661,
            "startMs": 129405.61500000118,
            "endMs": 129522.13937500118
          },
          {
            "noteNumber": 42,
            "velocity": 0.7165354330708661,
            "startMs": 129659.85000000118,
            "endMs": 129734.0018750012
          },
          {
            "noteNumber": 44,
            "velocity": 0.7165354330708661,
            "startMs": 129914.08500000121,
            "endMs": 129993.53343750122
          },
          {
            "noteNumber": 39,
            "velocity": 0.7165354330708661,
            "startMs": 130168.32000000123,
            "endMs": 130316.62375000124
          },
          {
            "noteNumber": 44,
            "velocity": 0.7165354330708661,
            "startMs": 131312.3775000013,
            "endMs": 131375.9362500013
          },
          {
            "noteNumber": 39,
            "velocity": 0.7165354330708661,
            "startMs": 131439.49500000133,
            "endMs": 131566.6125000013
          },
          {
            "noteNumber": 41,
            "velocity": 0.7165354330708661,
            "startMs": 131693.7300000013,
            "endMs": 131762.5853125013
          },
          {
            "noteNumber": 43,
            "velocity": 0.7165354330708661,
            "startMs": 131947.9650000013,
            "endMs": 132016.8203125013
          },
          {
            "noteNumber": 44,
            "velocity": 0.7165354330708661,
            "startMs": 132202.20000000132,
            "endMs": 132276.35187500133
          },
          {
            "noteNumber": 44,
            "velocity": 0.7165354330708661,
            "startMs": 133346.25750000146,
            "endMs": 133415.11281250147
          },
          {
            "noteNumber": 39,
            "velocity": 0.7165354330708661,
            "startMs": 133473.37500000148,
            "endMs": 133579.30625000148
          },
          {
            "noteNumber": 44,
            "velocity": 0.7165354330708661,
            "startMs": 133727.61000000153,
            "endMs": 133796.46531250156
          },
          {
            "noteNumber": 39,
            "velocity": 0.7165354330708661,
            "startMs": 133981.8450000016,
            "endMs": 134066.59000000163
          },
          {
            "noteNumber": 41,
            "velocity": 0.7165354330708661,
            "startMs": 134236.08000000165,
            "endMs": 134315.52843750163
          },
          {
            "noteNumber": 41,
            "velocity": 0.7165354330708661,
            "startMs": 135380.13750000176,
            "endMs": 135454.28937500177
          },
          {
            "noteNumber": 39,
            "velocity": 0.7165354330708661,
            "startMs": 135507.25500000178,
            "endMs": 135623.77937500182
          },
          {
            "noteNumber": 41,
            "velocity": 0.7165354330708661,
            "startMs": 135761.49000000185,
            "endMs": 135840.93843750187
          },
          {
            "noteNumber": 39,
            "velocity": 0.7165354330708661,
            "startMs": 136015.7250000019,
            "endMs": 136116.3596875019
          },
          {
            "noteNumber": 42,
            "velocity": 0.7165354330708661,
            "startMs": 136269.9600000019,
            "endMs": 136354.70500000194
          },
          {
            "noteNumber": 42,
            "velocity": 0.7165354330708661,
            "startMs": 137414.01750000208,
            "endMs": 137482.8728125021
          },
          {
            "noteNumber": 39,
            "velocity": 0.7165354330708661,
            "startMs": 137541.13500000213,
            "endMs": 137673.54906250216
          },
          {
            "noteNumber": 42,
            "velocity": 0.7165354330708661,
            "startMs": 137795.3700000022,
            "endMs": 137858.9287500022
          },
          {
            "noteNumber": 44,
            "velocity": 0.7165354330708661,
            "startMs": 138049.6050000022,
            "endMs": 138107.86718750218
          },
          {
            "noteNumber": 39,
            "velocity": 0.7165354330708661,
            "startMs": 138303.84000000218,
            "endMs": 138420.36437500222
          },
          {
            "noteNumber": 39,
            "velocity": 0.7165354330708661,
            "startMs": 138685.19250000225,
            "endMs": 138807.01343750226
          },
          {
            "noteNumber": 39,
            "velocity": 0.7165354330708661,
            "startMs": 139066.54500000225,
            "endMs": 139214.84875000227
          },
          {
            "noteNumber": 39,
            "velocity": 0.7165354330708661,
            "startMs": 140337.7200000024,
            "endMs": 140454.24437500242
          },
          {
            "noteNumber": 39,
            "velocity": 0.7165354330708661,
            "startMs": 140719.07250000242,
            "endMs": 140825.00375000245
          },
          {
            "noteNumber": 39,
            "velocity": 0.7165354330708661,
            "startMs": 141100.42500000246,
            "endMs": 141222.2459375025
          },
          {
            "noteNumber": 29,
            "velocity": 0.7165354330708661,
            "startMs": 142371.6000000026,
            "endMs": 142758.24906250264
          },
          {
            "noteNumber": 41,
            "velocity": 0.7165354330708661,
            "startMs": 142880.07000000263,
            "endMs": 143102.52562500266
          },
          {
            "noteNumber": 39,
            "velocity": 0.7165354330708661,
            "startMs": 143261.42250000266,
            "endMs": 143388.5400000027
          },
          {
            "noteNumber": 51,
            "velocity": 0.7165354330708661,
            "startMs": 143515.6575000027,
            "endMs": 143563.3265625027
          },
          {
            "noteNumber": 24,
            "velocity": 0.7165354330708661,
            "startMs": 143642.77500000273,
            "endMs": 143801.67187500276
          },
          {
            "noteNumber": 36,
            "velocity": 0.7165354330708661,
            "startMs": 143897.01000000283,
            "endMs": 144040.01718750282
          },
          {
            "noteNumber": 39,
            "velocity": 0.7165354330708661,
            "startMs": 144151.24500000285,
            "endMs": 144262.47281250288
          },
          {
            "noteNumber": 29,
            "velocity": 0.7165354330708661,
            "startMs": 144405.48000000286,
            "endMs": 144749.75656250285
          },
          {
            "noteNumber": 41,
            "velocity": 0.7165354330708661,
            "startMs": 144913.95000000283,
            "endMs": 145072.84687500287
          },
          {
            "noteNumber": 29,
            "velocity": 0.7165354330708661,
            "startMs": 145549.53750000292,
            "endMs": 145666.06187500295
          },
          {
            "noteNumber": 36,
            "velocity": 0.7165354330708661,
            "startMs": 145676.65500000297,
            "endMs": 145819.66218750298
          },
          {
            "noteNumber": 39,
            "velocity": 0.7165354330708661,
            "startMs": 145930.890000003,
            "endMs": 146073.89718750303
          },
          {
            "noteNumber": 41,
            "velocity": 0.7165354330708661,
            "startMs": 146185.12500000303,
            "endMs": 146328.132187503
          },
          {
            "noteNumber": 25,
            "velocity": 0.7165354330708661,
            "startMs": 146439.36000000304,
            "endMs": 146826.00906250312
          },
          {
            "noteNumber": 37,
            "velocity": 0.7165354330708661,
            "startMs": 146947.8300000031,
            "endMs": 147207.36156250315
          },
          {
            "noteNumber": 27,
            "velocity": 0.7165354330708661,
            "startMs": 147583.41750000318,
            "endMs": 147684.0521875032
          },
          {
            "noteNumber": 39,
            "velocity": 0.7165354330708661,
            "startMs": 147710.5350000032,
            "endMs": 147864.13531250323
          },
          {
            "noteNumber": 36,
            "velocity": 0.7165354330708661,
            "startMs": 147964.77000000328,
            "endMs": 148128.96343750326
          },
          {
            "noteNumber": 39,
            "velocity": 0.7165354330708661,
            "startMs": 148219.00500000332,
            "endMs": 148414.97781250338
          },
          {
            "noteNumber": 29,
            "velocity": 0.7165354330708661,
            "startMs": 148473.2400000034,
            "endMs": 148896.96500000346
          },
          {
            "noteNumber": 39,
            "velocity": 0.7165354330708661,
            "startMs": 149617.29750000354,
            "endMs": 149702.04250000353
          },
          {
            "noteNumber": 36,
            "velocity": 0.7165354330708661,
            "startMs": 149744.41500000353,
            "endMs": 149871.53250000355
          },
          {
            "noteNumber": 34,
            "velocity": 0.7165354330708661,
            "startMs": 149998.65000000357,
            "endMs": 150157.54687500358
          },
          {
            "noteNumber": 32,
            "velocity": 0.7165354330708661,
            "startMs": 150252.8850000036,
            "endMs": 150406.4853125036
          },
          {
            "noteNumber": 29,
            "velocity": 0.7165354330708661,
            "startMs": 150507.12000000358,
            "endMs": 150893.76906250365
          },
          {
            "noteNumber": 41,
            "velocity": 0.7165354330708661,
            "startMs": 151015.59000000363,
            "endMs": 151238.04562500367
          },
          {
            "noteNumber": 39,
            "velocity": 0.7165354330708661,
            "startMs": 151396.9425000037,
            "endMs": 151524.0600000037
          },
          {
            "noteNumber": 51,
            "velocity": 0.7165354330708661,
            "startMs": 151651.1775000037,
            "endMs": 151698.8465625037
          },
          {
            "noteNumber": 24,
            "velocity": 0.7165354330708661,
            "startMs": 151778.2950000037,
            "endMs": 151937.19187500371
          },
          {
            "noteNumber": 36,
            "velocity": 0.7165354330708661,
            "startMs": 152032.53000000375,
            "endMs": 152175.5371875038
          },
          {
            "noteNumber": 39,
            "velocity": 0.7165354330708661,
            "startMs": 152286.7650000038,
            "endMs": 152397.99281250383
          },
          {
            "noteNumber": 29,
            "velocity": 0.7165354330708661,
            "startMs": 152541.0000000038,
            "endMs": 152885.27656250383
          },
          {
            "noteNumber": 41,
            "velocity": 0.7165354330708661,
            "startMs": 153049.4700000038,
            "endMs": 153208.36687500385
          },
          {
            "noteNumber": 29,
            "velocity": 0.7165354330708661,
            "startMs": 153685.05750000387,
            "endMs": 153801.58187500387
          },
          {
            "noteNumber": 36,
            "velocity": 0.7165354330708661,
            "startMs": 153812.1750000039,
            "endMs": 153955.18218750393
          },
          {
            "noteNumber": 39,
            "velocity": 0.7165354330708661,
            "startMs": 154066.41000000396,
            "endMs": 154209.41718750395
          },
          {
            "noteNumber": 41,
            "velocity": 0.7165354330708661,
            "startMs": 154320.64500000395,
            "endMs": 154463.65218750396
          },
          {
            "noteNumber": 25,
            "velocity": 0.7165354330708661,
            "startMs": 154574.88000000396,
            "endMs": 154961.529062504
          },
          {
            "noteNumber": 37,
            "velocity": 0.7165354330708661,
            "startMs": 155083.350000004,
            "endMs": 155342.88156250404
          },
          {
            "noteNumber": 27,
            "velocity": 0.7165354330708661,
            "startMs": 155718.93750000405,
            "endMs": 155819.57218750406
          },
          {
            "noteNumber": 39,
            "velocity": 0.7165354330708661,
            "startMs": 155846.05500000407,
            "endMs": 155999.6553125041
          },
          {
            "noteNumber": 36,
            "velocity": 0.7165354330708661,
            "startMs": 156100.2900000041,
            "endMs": 156264.48343750412
          },
          {
            "noteNumber": 39,
            "velocity": 0.7165354330708661,
            "startMs": 156354.52500000416,
            "endMs": 156550.49781250418
          },
          {
            "noteNumber": 29,
            "velocity": 0.7165354330708661,
            "startMs": 156608.76000000417,
            "endMs": 157032.48500000426
          },
          {
            "noteNumber": 39,
            "velocity": 0.7165354330708661,
            "startMs": 157752.81750000425,
            "endMs": 157837.56250000422
          },
          {
            "noteNumber": 36,
            "velocity": 0.7165354330708661,
            "startMs": 157879.93500000422,
            "endMs": 158007.0525000042
          },
          {
            "noteNumber": 34,
            "velocity": 0.7165354330708661,
            "startMs": 158134.1700000042,
            "endMs": 158293.06687500424
          },
          {
            "noteNumber": 32,
            "velocity": 0.7165354330708661,
            "startMs": 158388.40500000428,
            "endMs": 158542.00531250428
          },
          {
            "noteNumber": 25,
            "velocity": 0.7165354330708661,
            "startMs": 158642.64000000426,
            "endMs": 159029.2890625043
          },
          {
            "noteNumber": 37,
            "velocity": 0.7165354330708661,
            "startMs": 159151.1100000043,
            "endMs": 159410.64156250432
          },
          {
            "noteNumber": 27,
            "velocity": 0.7165354330708661,
            "startMs": 159786.69750000432,
            "endMs": 159887.3321875043
          },
          {
            "noteNumber": 39,
            "velocity": 0.7165354330708661,
            "startMs": 159913.8150000043,
            "endMs": 160067.4153125043
          },
          {
            "noteNumber": 36,
            "velocity": 0.7165354330708661,
            "startMs": 160168.05000000435,
            "endMs": 160332.24343750437
          },
          {
            "noteNumber": 39,
            "velocity": 0.7165354330708661,
            "startMs": 160422.2850000044,
            "endMs": 160618.25781250442
          },
          {
            "noteNumber": 29,
            "velocity": 0.7165354330708661,
            "startMs": 160676.5200000044,
            "endMs": 161100.2450000045
          },
          {
            "noteNumber": 39,
            "velocity": 0.7165354330708661,
            "startMs": 161820.5775000045,
            "endMs": 161905.32250000446
          },
          {
            "noteNumber": 36,
            "velocity": 0.7165354330708661,
            "startMs": 161947.69500000446,
            "endMs": 162074.81250000445
          },
          {
            "noteNumber": 34,
            "velocity": 0.7165354330708661,
            "startMs": 162201.93000000445,
            "endMs": 162360.82687500448
          },
          {
            "noteNumber": 32,
            "velocity": 0.7165354330708661,
            "startMs": 162456.16500000452,
            "endMs": 162609.76531250452
          },
          {
            "noteNumber": 29,
            "velocity": 0.7165354330708661,
            "startMs": 162710.4000000045,
            "endMs": 163097.04906250452
          },
          {
            "noteNumber": 41,
            "velocity": 0.7165354330708661,
            "startMs": 163218.8700000045,
            "endMs": 163441.3256250045
          },
          {
            "noteNumber": 39,
            "velocity": 0.7165354330708661,
            "startMs": 163600.22250000454,
            "endMs": 163727.34000000454
          },
          {
            "noteNumber": 51,
            "velocity": 0.7165354330708661,
            "startMs": 163854.45750000453,
            "endMs": 163902.12656250453
          },
          {
            "noteNumber": 24,
            "velocity": 0.7165354330708661,
            "startMs": 163981.57500000452,
            "endMs": 164140.47187500453
          },
          {
            "noteNumber": 36,
            "velocity": 0.7165354330708661,
            "startMs": 164235.81000000454,
            "endMs": 164378.81718750452
          },
          {
            "noteNumber": 39,
            "velocity": 0.7165354330708661,
            "startMs": 164490.04500000452,
            "endMs": 164601.27281250453
          },
          {
            "noteNumber": 29,
            "velocity": 0.7165354330708661,
            "startMs": 164744.28000000454,
            "endMs": 165088.55656250453
          },
          {
            "noteNumber": 41,
            "velocity": 0.7165354330708661,
            "startMs": 165252.75000000454,
            "endMs": 165411.64687500455
          },
          {
            "noteNumber": 29,
            "velocity": 0.7165354330708661,
            "startMs": 165888.33750000453,
            "endMs": 166004.86187500454
          },
          {
            "noteNumber": 36,
            "velocity": 0.7165354330708661,
            "startMs": 166015.45500000456,
            "endMs": 166158.46218750454
          },
          {
            "noteNumber": 39,
            "velocity": 0.7165354330708661,
            "startMs": 166269.69000000454,
            "endMs": 166412.69718750453
          },
          {
            "noteNumber": 41,
            "velocity": 0.7165354330708661,
            "startMs": 166523.92500000453,
            "endMs": 166666.9321875045
          },
          {
            "noteNumber": 25,
            "velocity": 0.7165354330708661,
            "startMs": 166778.16000000451,
            "endMs": 167164.80906250453
          },
          {
            "noteNumber": 37,
            "velocity": 0.7165354330708661,
            "startMs": 167286.63000000454,
            "endMs": 167546.16156250454
          },
          {
            "noteNumber": 27,
            "velocity": 0.7165354330708661,
            "startMs": 167922.21750000454,
            "endMs": 168022.85218750453
          },
          {
            "noteNumber": 39,
            "velocity": 0.7165354330708661,
            "startMs": 168049.33500000453,
            "endMs": 168202.93531250453
          },
          {
            "noteNumber": 36,
            "velocity": 0.7165354330708661,
            "startMs": 168303.57000000452,
            "endMs": 168467.7634375045
          },
          {
            "noteNumber": 39,
            "velocity": 0.7165354330708661,
            "startMs": 168557.8050000045,
            "endMs": 168753.7778125045
          },
          {
            "noteNumber": 29,
            "velocity": 0.7165354330708661,
            "startMs": 168812.0400000045,
            "endMs": 169235.76500000447
          },
          {
            "noteNumber": 39,
            "velocity": 0.7165354330708661,
            "startMs": 169956.09750000443,
            "endMs": 170040.8425000044
          },
          {
            "noteNumber": 36,
            "velocity": 0.7165354330708661,
            "startMs": 170083.2150000044,
            "endMs": 170210.33250000436
          },
          {
            "noteNumber": 34,
            "velocity": 0.7165354330708661,
            "startMs": 170337.45000000435,
            "endMs": 170496.34687500435
          },
          {
            "noteNumber": 32,
            "velocity": 0.7165354330708661,
            "startMs": 170591.68500000436,
            "endMs": 170745.28531250436
          },
          {
            "noteNumber": 29,
            "velocity": 0.7165354330708661,
            "startMs": 170845.92000000435,
            "endMs": 171232.56906250436
          },
          {
            "noteNumber": 41,
            "velocity": 0.7165354330708661,
            "startMs": 171354.39000000435,
            "endMs": 171576.84562500435
          },
          {
            "noteNumber": 39,
            "velocity": 0.7165354330708661,
            "startMs": 171735.7425000044,
            "endMs": 171862.86000000438
          },
          {
            "noteNumber": 51,
            "velocity": 0.7165354330708661,
            "startMs": 171989.97750000437,
            "endMs": 172037.64656250438
          },
          {
            "noteNumber": 24,
            "velocity": 0.7165354330708661,
            "startMs": 172117.09500000437,
            "endMs": 172275.99187500437
          },
          {
            "noteNumber": 36,
            "velocity": 0.7165354330708661,
            "startMs": 172371.33000000438,
            "endMs": 172514.33718750437
          },
          {
            "noteNumber": 39,
            "velocity": 0.7165354330708661,
            "startMs": 172625.56500000437,
            "endMs": 172736.79281250437
          },
          {
            "noteNumber": 29,
            "velocity": 0.7165354330708661,
            "startMs": 172879.80000000438,
            "endMs": 173224.07656250437
          },
          {
            "noteNumber": 41,
            "velocity": 0.7165354330708661,
            "startMs": 173388.27000000438,
            "endMs": 173547.1668750044
          },
          {
            "noteNumber": 29,
            "velocity": 0.7165354330708661,
            "startMs": 174023.85750000438,
            "endMs": 174140.3818750044
          },
          {
            "noteNumber": 36,
            "velocity": 0.7165354330708661,
            "startMs": 174150.9750000044,
            "endMs": 174293.98218750439
          },
          {
            "noteNumber": 39,
            "velocity": 0.7165354330708661,
            "startMs": 174405.2100000044,
            "endMs": 174548.21718750437
          },
          {
            "noteNumber": 41,
            "velocity": 0.7165354330708661,
            "startMs": 174659.44500000437,
            "endMs": 174802.45218750436
          },
          {
            "noteNumber": 25,
            "velocity": 0.7165354330708661,
            "startMs": 174913.68000000436,
            "endMs": 175300.32906250437
          },
          {
            "noteNumber": 37,
            "velocity": 0.7165354330708661,
            "startMs": 175422.1500000044,
            "endMs": 175681.68156250438
          },
          {
            "noteNumber": 27,
            "velocity": 0.7165354330708661,
            "startMs": 176057.73750000438,
            "endMs": 176158.37218750437
          },
          {
            "noteNumber": 39,
            "velocity": 0.7165354330708661,
            "startMs": 176184.85500000438,
            "endMs": 176338.45531250437
          },
          {
            "noteNumber": 36,
            "velocity": 0.7165354330708661,
            "startMs": 176439.09000000436,
            "endMs": 176603.28343750435
          },
          {
            "noteNumber": 39,
            "velocity": 0.7165354330708661,
            "startMs": 176693.32500000435,
            "endMs": 176889.29781250434
          },
          {
            "noteNumber": 29,
            "velocity": 0.7165354330708661,
            "startMs": 176947.56000000433,
            "endMs": 177371.2850000043
          },
          {
            "noteNumber": 39,
            "velocity": 0.7165354330708661,
            "startMs": 178091.61750000427,
            "endMs": 178176.36250000424
          },
          {
            "noteNumber": 36,
            "velocity": 0.7165354330708661,
            "startMs": 178218.73500000424,
            "endMs": 178345.85250000423
          },
          {
            "noteNumber": 34,
            "velocity": 0.7165354330708661,
            "startMs": 178472.97000000422,
            "endMs": 178631.86687500423
          },
          {
            "noteNumber": 32,
            "velocity": 0.7165354330708661,
            "startMs": 178727.20500000424,
            "endMs": 178880.80531250424
          }
        ],
        "durationMs": 178880.80531250424,
        "eventCount": 886,
        "events": [
          {
            "type": "noteOn",
            "timeMs": 20338.800000000017,
            "noteNumber": 29,
            "velocity": 0.7165354330708661
          },
          {
            "type": "noteOff",
            "timeMs": 20725.449062500018,
            "noteNumber": 29,
            "velocity": 0
          },
          {
            "type": "noteOn",
            "timeMs": 20847.27000000002,
            "noteNumber": 41,
            "velocity": 0.7165354330708661
          },
          {
            "type": "noteOff",
            "timeMs": 21069.725625000017,
            "noteNumber": 41,
            "velocity": 0
          },
          {
            "type": "noteOn",
            "timeMs": 21228.622500000016,
            "noteNumber": 39,
            "velocity": 0.7165354330708661
          },
          {
            "type": "noteOff",
            "timeMs": 21355.740000000016,
            "noteNumber": 39,
            "velocity": 0
          },
          {
            "type": "noteOn",
            "timeMs": 21482.857500000016,
            "noteNumber": 51,
            "velocity": 0.7165354330708661
          },
          {
            "type": "noteOff",
            "timeMs": 21530.526562500017,
            "noteNumber": 51,
            "velocity": 0
          },
          {
            "type": "noteOn",
            "timeMs": 21609.975000000017,
            "noteNumber": 24,
            "velocity": 0.7165354330708661
          },
          {
            "type": "noteOff",
            "timeMs": 21768.871875000015,
            "noteNumber": 24,
            "velocity": 0
          },
          {
            "type": "noteOn",
            "timeMs": 21864.210000000014,
            "noteNumber": 36,
            "velocity": 0.7165354330708661
          },
          {
            "type": "noteOff",
            "timeMs": 22007.217187500013,
            "noteNumber": 36,
            "velocity": 0
          },
          {
            "type": "noteOn",
            "timeMs": 22118.445000000014,
            "noteNumber": 39,
            "velocity": 0.7165354330708661
          },
          {
            "type": "noteOff",
            "timeMs": 22229.672812500015,
            "noteNumber": 39,
            "velocity": 0
          },
          {
            "type": "noteOn",
            "timeMs": 22372.680000000015,
            "noteNumber": 29,
            "velocity": 0.7165354330708661
          },
          {
            "type": "noteOff",
            "timeMs": 22716.956562500014,
            "noteNumber": 29,
            "velocity": 0
          },
          {
            "type": "noteOn",
            "timeMs": 22881.150000000016,
            "noteNumber": 41,
            "velocity": 0.7165354330708661
          },
          {
            "type": "noteOff",
            "timeMs": 23040.046875000015,
            "noteNumber": 41,
            "velocity": 0
          },
          {
            "type": "noteOn",
            "timeMs": 23516.737500000014,
            "noteNumber": 29,
            "velocity": 0.7165354330708661
          },
          {
            "type": "noteOff",
            "timeMs": 23633.261875000015,
            "noteNumber": 29,
            "velocity": 0
          },
          {
            "type": "noteOn",
            "timeMs": 23643.855000000014,
            "noteNumber": 36,
            "velocity": 0.7165354330708661
          },
          {
            "type": "noteOff",
            "timeMs": 23786.862187500014,
            "noteNumber": 36,
            "velocity": 0
          },
          {
            "type": "noteOn",
            "timeMs": 23898.090000000015,
            "noteNumber": 39,
            "velocity": 0.7165354330708661
          },
          {
            "type": "noteOff",
            "timeMs": 24041.097187500014,
            "noteNumber": 39,
            "velocity": 0
          },
          {
            "type": "noteOn",
            "timeMs": 24152.325000000015,
            "noteNumber": 41,
            "velocity": 0.7165354330708661
          },
          {
            "type": "noteOff",
            "timeMs": 24295.332187500015,
            "noteNumber": 41,
            "velocity": 0
          },
          {
            "type": "noteOn",
            "timeMs": 24406.560000000016,
            "noteNumber": 25,
            "velocity": 0.7165354330708661
          },
          {
            "type": "noteOff",
            "timeMs": 24793.209062500016,
            "noteNumber": 25,
            "velocity": 0
          },
          {
            "type": "noteOn",
            "timeMs": 24915.030000000017,
            "noteNumber": 37,
            "velocity": 0.7165354330708661
          },
          {
            "type": "noteOff",
            "timeMs": 25174.561562500017,
            "noteNumber": 37,
            "velocity": 0
          },
          {
            "type": "noteOn",
            "timeMs": 25550.61750000002,
            "noteNumber": 27,
            "velocity": 0.7165354330708661
          },
          {
            "type": "noteOff",
            "timeMs": 25651.25218750002,
            "noteNumber": 27,
            "velocity": 0
          },
          {
            "type": "noteOn",
            "timeMs": 25677.73500000002,
            "noteNumber": 39,
            "velocity": 0.7165354330708661
          },
          {
            "type": "noteOff",
            "timeMs": 25831.335312500018,
            "noteNumber": 39,
            "velocity": 0
          },
          {
            "type": "noteOn",
            "timeMs": 25931.97000000002,
            "noteNumber": 36,
            "velocity": 0.7165354330708661
          },
          {
            "type": "noteOff",
            "timeMs": 26096.16343750002,
            "noteNumber": 36,
            "velocity": 0
          },
          {
            "type": "noteOn",
            "timeMs": 26186.20500000002,
            "noteNumber": 39,
            "velocity": 0.7165354330708661
          },
          {
            "type": "noteOff",
            "timeMs": 26382.17781250002,
            "noteNumber": 39,
            "velocity": 0
          },
          {
            "type": "noteOn",
            "timeMs": 26440.44000000002,
            "noteNumber": 29,
            "velocity": 0.7165354330708661
          },
          {
            "type": "noteOff",
            "timeMs": 26864.165000000023,
            "noteNumber": 29,
            "velocity": 0
          },
          {
            "type": "noteOn",
            "timeMs": 27584.497500000023,
            "noteNumber": 39,
            "velocity": 0.7165354330708661
          },
          {
            "type": "noteOff",
            "timeMs": 27669.242500000022,
            "noteNumber": 39,
            "velocity": 0
          },
          {
            "type": "noteOn",
            "timeMs": 27711.615000000023,
            "noteNumber": 36,
            "velocity": 0.7165354330708661
          },
          {
            "type": "noteOff",
            "timeMs": 27838.732500000024,
            "noteNumber": 36,
            "velocity": 0
          },
          {
            "type": "noteOn",
            "timeMs": 27965.850000000024,
            "noteNumber": 34,
            "velocity": 0.7165354330708661
          },
          {
            "type": "noteOff",
            "timeMs": 28124.746875000023,
            "noteNumber": 34,
            "velocity": 0
          },
          {
            "type": "noteOn",
            "timeMs": 28220.08500000002,
            "noteNumber": 32,
            "velocity": 0.7165354330708661
          },
          {
            "type": "noteOff",
            "timeMs": 28373.68531250002,
            "noteNumber": 32,
            "velocity": 0
          },
          {
            "type": "noteOn",
            "timeMs": 28474.32000000002,
            "noteNumber": 29,
            "velocity": 0.7165354330708661
          },
          {
            "type": "noteOff",
            "timeMs": 28860.969062500022,
            "noteNumber": 29,
            "velocity": 0
          },
          {
            "type": "noteOn",
            "timeMs": 28982.790000000023,
            "noteNumber": 41,
            "velocity": 0.7165354330708661
          },
          {
            "type": "noteOff",
            "timeMs": 29205.24562500002,
            "noteNumber": 41,
            "velocity": 0
          },
          {
            "type": "noteOn",
            "timeMs": 29364.14250000002,
            "noteNumber": 39,
            "velocity": 0.7165354330708661
          },
          {
            "type": "noteOff",
            "timeMs": 29491.26000000002,
            "noteNumber": 39,
            "velocity": 0
          },
          {
            "type": "noteOn",
            "timeMs": 29618.37750000002,
            "noteNumber": 51,
            "velocity": 0.7165354330708661
          },
          {
            "type": "noteOff",
            "timeMs": 29666.04656250002,
            "noteNumber": 51,
            "velocity": 0
          },
          {
            "type": "noteOn",
            "timeMs": 29745.49500000002,
            "noteNumber": 24,
            "velocity": 0.7165354330708661
          },
          {
            "type": "noteOff",
            "timeMs": 29904.39187500002,
            "noteNumber": 24,
            "velocity": 0
          },
          {
            "type": "noteOn",
            "timeMs": 29999.730000000018,
            "noteNumber": 36,
            "velocity": 0.7165354330708661
          },
          {
            "type": "noteOff",
            "timeMs": 30142.737187500017,
            "noteNumber": 36,
            "velocity": 0
          },
          {
            "type": "noteOn",
            "timeMs": 30253.96500000002,
            "noteNumber": 39,
            "velocity": 0.7165354330708661
          },
          {
            "type": "noteOff",
            "timeMs": 30365.19281250002,
            "noteNumber": 39,
            "velocity": 0
          },
          {
            "type": "noteOn",
            "timeMs": 30508.20000000002,
            "noteNumber": 29,
            "velocity": 0.7165354330708661
          },
          {
            "type": "noteOff",
            "timeMs": 30852.47656250002,
            "noteNumber": 29,
            "velocity": 0
          },
          {
            "type": "noteOn",
            "timeMs": 31016.67000000002,
            "noteNumber": 41,
            "velocity": 0.7165354330708661
          },
          {
            "type": "noteOff",
            "timeMs": 31175.56687500002,
            "noteNumber": 41,
            "velocity": 0
          },
          {
            "type": "noteOn",
            "timeMs": 31652.257500000018,
            "noteNumber": 29,
            "velocity": 0.7165354330708661
          },
          {
            "type": "noteOff",
            "timeMs": 31768.78187500002,
            "noteNumber": 29,
            "velocity": 0
          },
          {
            "type": "noteOn",
            "timeMs": 31779.37500000002,
            "noteNumber": 36,
            "velocity": 0.7165354330708661
          },
          {
            "type": "noteOff",
            "timeMs": 31922.382187500018,
            "noteNumber": 36,
            "velocity": 0
          },
          {
            "type": "noteOn",
            "timeMs": 32033.610000000015,
            "noteNumber": 39,
            "velocity": 0.7165354330708661
          },
          {
            "type": "noteOff",
            "timeMs": 32176.617187500015,
            "noteNumber": 39,
            "velocity": 0
          },
          {
            "type": "noteOn",
            "timeMs": 32287.845000000016,
            "noteNumber": 41,
            "velocity": 0.7165354330708661
          },
          {
            "type": "noteOff",
            "timeMs": 32430.852187500015,
            "noteNumber": 41,
            "velocity": 0
          },
          {
            "type": "noteOn",
            "timeMs": 32542.080000000016,
            "noteNumber": 25,
            "velocity": 0.7165354330708661
          },
          {
            "type": "noteOff",
            "timeMs": 32928.72906250001,
            "noteNumber": 25,
            "velocity": 0
          },
          {
            "type": "noteOn",
            "timeMs": 33050.55,
            "noteNumber": 37,
            "velocity": 0.7165354330708661
          },
          {
            "type": "noteOff",
            "timeMs": 33310.08156249999,
            "noteNumber": 37,
            "velocity": 0
          },
          {
            "type": "noteOn",
            "timeMs": 33686.13749999997,
            "noteNumber": 27,
            "velocity": 0.7165354330708661
          },
          {
            "type": "noteOff",
            "timeMs": 33786.77218749996,
            "noteNumber": 27,
            "velocity": 0
          },
          {
            "type": "noteOn",
            "timeMs": 33813.25499999996,
            "noteNumber": 39,
            "velocity": 0.7165354330708661
          },
          {
            "type": "noteOff",
            "timeMs": 33966.85531249995,
            "noteNumber": 39,
            "velocity": 0
          },
          {
            "type": "noteOn",
            "timeMs": 34067.48999999995,
            "noteNumber": 36,
            "velocity": 0.7165354330708661
          },
          {
            "type": "noteOff",
            "timeMs": 34231.68343749994,
            "noteNumber": 36,
            "velocity": 0
          },
          {
            "type": "noteOn",
            "timeMs": 34321.72499999993,
            "noteNumber": 39,
            "velocity": 0.7165354330708661
          },
          {
            "type": "noteOff",
            "timeMs": 34517.69781249992,
            "noteNumber": 39,
            "velocity": 0
          },
          {
            "type": "noteOn",
            "timeMs": 34575.95999999992,
            "noteNumber": 29,
            "velocity": 0.7165354330708661
          },
          {
            "type": "noteOff",
            "timeMs": 34999.684999999896,
            "noteNumber": 29,
            "velocity": 0
          },
          {
            "type": "noteOn",
            "timeMs": 35720.017499999856,
            "noteNumber": 39,
            "velocity": 0.7165354330708661
          },
          {
            "type": "noteOff",
            "timeMs": 35804.76249999985,
            "noteNumber": 39,
            "velocity": 0
          },
          {
            "type": "noteOn",
            "timeMs": 35847.13499999985,
            "noteNumber": 36,
            "velocity": 0.7165354330708661
          },
          {
            "type": "noteOff",
            "timeMs": 35974.25249999984,
            "noteNumber": 36,
            "velocity": 0
          },
          {
            "type": "noteOn",
            "timeMs": 36101.369999999835,
            "noteNumber": 34,
            "velocity": 0.7165354330708661
          },
          {
            "type": "noteOff",
            "timeMs": 36260.26687499983,
            "noteNumber": 34,
            "velocity": 0
          },
          {
            "type": "noteOn",
            "timeMs": 36355.60499999982,
            "noteNumber": 32,
            "velocity": 0.7165354330708661
          },
          {
            "type": "noteOff",
            "timeMs": 36509.20531249981,
            "noteNumber": 32,
            "velocity": 0
          },
          {
            "type": "noteOn",
            "timeMs": 36609.83999999981,
            "noteNumber": 29,
            "velocity": 0.7165354330708661
          },
          {
            "type": "noteOff",
            "timeMs": 36996.489062499786,
            "noteNumber": 29,
            "velocity": 0
          },
          {
            "type": "noteOn",
            "timeMs": 37118.30999999978,
            "noteNumber": 41,
            "velocity": 0.7165354330708661
          },
          {
            "type": "noteOff",
            "timeMs": 37340.76562499977,
            "noteNumber": 41,
            "velocity": 0
          },
          {
            "type": "noteOn",
            "timeMs": 37499.66249999976,
            "noteNumber": 39,
            "velocity": 0.7165354330708661
          },
          {
            "type": "noteOff",
            "timeMs": 37626.77999999975,
            "noteNumber": 39,
            "velocity": 0
          },
          {
            "type": "noteOn",
            "timeMs": 37753.897499999744,
            "noteNumber": 51,
            "velocity": 0.7165354330708661
          },
          {
            "type": "noteOff",
            "timeMs": 37801.56656249974,
            "noteNumber": 51,
            "velocity": 0
          },
          {
            "type": "noteOn",
            "timeMs": 37881.01499999974,
            "noteNumber": 24,
            "velocity": 0.7165354330708661
          },
          {
            "type": "noteOff",
            "timeMs": 38039.91187499973,
            "noteNumber": 24,
            "velocity": 0
          },
          {
            "type": "noteOn",
            "timeMs": 38135.24999999972,
            "noteNumber": 36,
            "velocity": 0.7165354330708661
          },
          {
            "type": "noteOff",
            "timeMs": 38278.257187499716,
            "noteNumber": 36,
            "velocity": 0
          },
          {
            "type": "noteOn",
            "timeMs": 38389.48499999971,
            "noteNumber": 39,
            "velocity": 0.7165354330708661
          },
          {
            "type": "noteOff",
            "timeMs": 38500.7128124997,
            "noteNumber": 39,
            "velocity": 0
          },
          {
            "type": "noteOn",
            "timeMs": 38643.719999999696,
            "noteNumber": 29,
            "velocity": 0.7165354330708661
          },
          {
            "type": "noteOff",
            "timeMs": 38987.99656249968,
            "noteNumber": 29,
            "velocity": 0
          },
          {
            "type": "noteOn",
            "timeMs": 39152.18999999967,
            "noteNumber": 41,
            "velocity": 0.7165354330708661
          },
          {
            "type": "noteOff",
            "timeMs": 39311.08687499966,
            "noteNumber": 41,
            "velocity": 0
          },
          {
            "type": "noteOn",
            "timeMs": 39787.77749999963,
            "noteNumber": 29,
            "velocity": 0.7165354330708661
          },
          {
            "type": "noteOff",
            "timeMs": 39904.301874999626,
            "noteNumber": 29,
            "velocity": 0
          },
          {
            "type": "noteOn",
            "timeMs": 39914.894999999626,
            "noteNumber": 36,
            "velocity": 0.7165354330708661
          },
          {
            "type": "noteOff",
            "timeMs": 40057.90218749962,
            "noteNumber": 36,
            "velocity": 0
          },
          {
            "type": "noteOn",
            "timeMs": 40169.12999999961,
            "noteNumber": 39,
            "velocity": 0.7165354330708661
          },
          {
            "type": "noteOff",
            "timeMs": 40312.137187499604,
            "noteNumber": 39,
            "velocity": 0
          },
          {
            "type": "noteOn",
            "timeMs": 40423.3649999996,
            "noteNumber": 41,
            "velocity": 0.7165354330708661
          },
          {
            "type": "noteOff",
            "timeMs": 40566.37218749959,
            "noteNumber": 41,
            "velocity": 0
          },
          {
            "type": "noteOn",
            "timeMs": 40677.599999999584,
            "noteNumber": 25,
            "velocity": 0.7165354330708661
          },
          {
            "type": "noteOff",
            "timeMs": 41064.24906249956,
            "noteNumber": 25,
            "velocity": 0
          },
          {
            "type": "noteOn",
            "timeMs": 41186.069999999556,
            "noteNumber": 37,
            "velocity": 0.7165354330708661
          },
          {
            "type": "noteOff",
            "timeMs": 41445.60156249954,
            "noteNumber": 37,
            "velocity": 0
          },
          {
            "type": "noteOn",
            "timeMs": 41821.65749999952,
            "noteNumber": 27,
            "velocity": 0.7165354330708661
          },
          {
            "type": "noteOff",
            "timeMs": 41922.292187499515,
            "noteNumber": 27,
            "velocity": 0
          },
          {
            "type": "noteOn",
            "timeMs": 41948.774999999514,
            "noteNumber": 39,
            "velocity": 0.7165354330708661
          },
          {
            "type": "noteOff",
            "timeMs": 42102.375312499506,
            "noteNumber": 39,
            "velocity": 0
          },
          {
            "type": "noteOn",
            "timeMs": 42203.0099999995,
            "noteNumber": 36,
            "velocity": 0.7165354330708661
          },
          {
            "type": "noteOff",
            "timeMs": 42367.20343749949,
            "noteNumber": 36,
            "velocity": 0
          },
          {
            "type": "noteOn",
            "timeMs": 42457.244999999486,
            "noteNumber": 39,
            "velocity": 0.7165354330708661
          },
          {
            "type": "noteOff",
            "timeMs": 42653.217812499475,
            "noteNumber": 39,
            "velocity": 0
          },
          {
            "type": "noteOn",
            "timeMs": 42711.47999999947,
            "noteNumber": 29,
            "velocity": 0.7165354330708661
          },
          {
            "type": "noteOff",
            "timeMs": 43135.204999999456,
            "noteNumber": 29,
            "velocity": 0
          },
          {
            "type": "noteOn",
            "timeMs": 43855.537499999424,
            "noteNumber": 39,
            "velocity": 0.7165354330708661
          },
          {
            "type": "noteOff",
            "timeMs": 43940.28249999942,
            "noteNumber": 39,
            "velocity": 0
          },
          {
            "type": "noteOn",
            "timeMs": 43982.65499999942,
            "noteNumber": 36,
            "velocity": 0.7165354330708661
          },
          {
            "type": "noteOff",
            "timeMs": 44109.77249999942,
            "noteNumber": 36,
            "velocity": 0
          },
          {
            "type": "noteOn",
            "timeMs": 44236.88999999942,
            "noteNumber": 34,
            "velocity": 0.7165354330708661
          },
          {
            "type": "noteOff",
            "timeMs": 44395.786874999416,
            "noteNumber": 34,
            "velocity": 0
          },
          {
            "type": "noteOn",
            "timeMs": 44491.12499999941,
            "noteNumber": 32,
            "velocity": 0.7165354330708661
          },
          {
            "type": "noteOff",
            "timeMs": 44644.7253124994,
            "noteNumber": 32,
            "velocity": 0
          },
          {
            "type": "noteOn",
            "timeMs": 44745.3599999994,
            "noteNumber": 29,
            "velocity": 0.7165354330708661
          },
          {
            "type": "noteOff",
            "timeMs": 45132.009062499375,
            "noteNumber": 29,
            "velocity": 0
          },
          {
            "type": "noteOn",
            "timeMs": 45253.82999999937,
            "noteNumber": 41,
            "velocity": 0.7165354330708661
          },
          {
            "type": "noteOff",
            "timeMs": 45476.28562499936,
            "noteNumber": 41,
            "velocity": 0
          },
          {
            "type": "noteOn",
            "timeMs": 45635.18249999935,
            "noteNumber": 39,
            "velocity": 0.7165354330708661
          },
          {
            "type": "noteOff",
            "timeMs": 45762.29999999934,
            "noteNumber": 39,
            "velocity": 0
          },
          {
            "type": "noteOn",
            "timeMs": 45889.417499999334,
            "noteNumber": 51,
            "velocity": 0.7165354330708661
          },
          {
            "type": "noteOff",
            "timeMs": 45937.08656249933,
            "noteNumber": 51,
            "velocity": 0
          },
          {
            "type": "noteOn",
            "timeMs": 46016.53499999933,
            "noteNumber": 24,
            "velocity": 0.7165354330708661
          },
          {
            "type": "noteOff",
            "timeMs": 46175.43187499932,
            "noteNumber": 24,
            "velocity": 0
          },
          {
            "type": "noteOn",
            "timeMs": 46270.76999999931,
            "noteNumber": 36,
            "velocity": 0.7165354330708661
          },
          {
            "type": "noteOff",
            "timeMs": 46413.777187499305,
            "noteNumber": 36,
            "velocity": 0
          },
          {
            "type": "noteOn",
            "timeMs": 46525.0049999993,
            "noteNumber": 39,
            "velocity": 0.7165354330708661
          },
          {
            "type": "noteOff",
            "timeMs": 46636.23281249929,
            "noteNumber": 39,
            "velocity": 0
          },
          {
            "type": "noteOn",
            "timeMs": 46779.239999999285,
            "noteNumber": 29,
            "velocity": 0.7165354330708661
          },
          {
            "type": "noteOff",
            "timeMs": 47123.516562499266,
            "noteNumber": 29,
            "velocity": 0
          },
          {
            "type": "noteOn",
            "timeMs": 47287.70999999926,
            "noteNumber": 41,
            "velocity": 0.7165354330708661
          },
          {
            "type": "noteOff",
            "timeMs": 47446.60687499925,
            "noteNumber": 41,
            "velocity": 0
          },
          {
            "type": "noteOn",
            "timeMs": 47923.29749999922,
            "noteNumber": 29,
            "velocity": 0.7165354330708661
          },
          {
            "type": "noteOff",
            "timeMs": 48039.821874999216,
            "noteNumber": 29,
            "velocity": 0
          },
          {
            "type": "noteOn",
            "timeMs": 48050.414999999215,
            "noteNumber": 36,
            "velocity": 0.7165354330708661
          },
          {
            "type": "noteOff",
            "timeMs": 48193.42218749921,
            "noteNumber": 36,
            "velocity": 0
          },
          {
            "type": "noteOn",
            "timeMs": 48304.6499999992,
            "noteNumber": 39,
            "velocity": 0.7165354330708661
          },
          {
            "type": "noteOff",
            "timeMs": 48447.65718749919,
            "noteNumber": 39,
            "velocity": 0
          },
          {
            "type": "noteOn",
            "timeMs": 48558.88499999919,
            "noteNumber": 41,
            "velocity": 0.7165354330708661
          },
          {
            "type": "noteOff",
            "timeMs": 48701.89218749918,
            "noteNumber": 41,
            "velocity": 0
          },
          {
            "type": "noteOn",
            "timeMs": 48813.11999999917,
            "noteNumber": 25,
            "velocity": 0.7165354330708661
          },
          {
            "type": "noteOff",
            "timeMs": 49199.76906249915,
            "noteNumber": 25,
            "velocity": 0
          },
          {
            "type": "noteOn",
            "timeMs": 49321.589999999145,
            "noteNumber": 37,
            "velocity": 0.7165354330708661
          },
          {
            "type": "noteOff",
            "timeMs": 49581.12156249913,
            "noteNumber": 37,
            "velocity": 0
          },
          {
            "type": "noteOn",
            "timeMs": 49957.17749999911,
            "noteNumber": 27,
            "velocity": 0.7165354330708661
          },
          {
            "type": "noteOff",
            "timeMs": 50057.812187499105,
            "noteNumber": 27,
            "velocity": 0
          },
          {
            "type": "noteOn",
            "timeMs": 50084.2949999991,
            "noteNumber": 39,
            "velocity": 0.7165354330708661
          },
          {
            "type": "noteOff",
            "timeMs": 50237.895312499095,
            "noteNumber": 39,
            "velocity": 0
          },
          {
            "type": "noteOn",
            "timeMs": 50338.52999999909,
            "noteNumber": 36,
            "velocity": 0.7165354330708661
          },
          {
            "type": "noteOff",
            "timeMs": 50502.72343749908,
            "noteNumber": 36,
            "velocity": 0
          },
          {
            "type": "noteOn",
            "timeMs": 50592.764999999075,
            "noteNumber": 39,
            "velocity": 0.7165354330708661
          },
          {
            "type": "noteOff",
            "timeMs": 50788.737812499065,
            "noteNumber": 39,
            "velocity": 0
          },
          {
            "type": "noteOn",
            "timeMs": 50846.99999999906,
            "noteNumber": 29,
            "velocity": 0.7165354330708661
          },
          {
            "type": "noteOff",
            "timeMs": 51270.724999999045,
            "noteNumber": 29,
            "velocity": 0
          },
          {
            "type": "noteOn",
            "timeMs": 51991.05749999901,
            "noteNumber": 39,
            "velocity": 0.7165354330708661
          },
          {
            "type": "noteOff",
            "timeMs": 52075.80249999901,
            "noteNumber": 39,
            "velocity": 0
          },
          {
            "type": "noteOn",
            "timeMs": 52118.174999999006,
            "noteNumber": 36,
            "velocity": 0.7165354330708661
          },
          {
            "type": "noteOff",
            "timeMs": 52245.29249999901,
            "noteNumber": 36,
            "velocity": 0
          },
          {
            "type": "noteOn",
            "timeMs": 52372.40999999901,
            "noteNumber": 34,
            "velocity": 0.7165354330708661
          },
          {
            "type": "noteOff",
            "timeMs": 52531.306874999005,
            "noteNumber": 34,
            "velocity": 0
          },
          {
            "type": "noteOn",
            "timeMs": 52626.644999999,
            "noteNumber": 32,
            "velocity": 0.7165354330708661
          },
          {
            "type": "noteOff",
            "timeMs": 52780.24531249899,
            "noteNumber": 32,
            "velocity": 0
          },
          {
            "type": "noteOn",
            "timeMs": 52880.879999998986,
            "noteNumber": 29,
            "velocity": 0.7165354330708661
          },
          {
            "type": "noteOff",
            "timeMs": 53267.529062498965,
            "noteNumber": 29,
            "velocity": 0
          },
          {
            "type": "noteOn",
            "timeMs": 53389.34999999896,
            "noteNumber": 41,
            "velocity": 0.7165354330708661
          },
          {
            "type": "noteOff",
            "timeMs": 53611.805624998946,
            "noteNumber": 41,
            "velocity": 0
          },
          {
            "type": "noteOn",
            "timeMs": 53770.70249999894,
            "noteNumber": 39,
            "velocity": 0.7165354330708661
          },
          {
            "type": "noteOff",
            "timeMs": 53897.81999999893,
            "noteNumber": 39,
            "velocity": 0
          },
          {
            "type": "noteOn",
            "timeMs": 54024.93749999892,
            "noteNumber": 51,
            "velocity": 0.7165354330708661
          },
          {
            "type": "noteOff",
            "timeMs": 54072.60656249892,
            "noteNumber": 51,
            "velocity": 0
          },
          {
            "type": "noteOn",
            "timeMs": 54152.054999998916,
            "noteNumber": 24,
            "velocity": 0.7165354330708661
          },
          {
            "type": "noteOff",
            "timeMs": 54310.95187499891,
            "noteNumber": 24,
            "velocity": 0
          },
          {
            "type": "noteOn",
            "timeMs": 54406.2899999989,
            "noteNumber": 36,
            "velocity": 0.7165354330708661
          },
          {
            "type": "noteOff",
            "timeMs": 54549.297187498894,
            "noteNumber": 36,
            "velocity": 0
          },
          {
            "type": "noteOn",
            "timeMs": 54660.52499999889,
            "noteNumber": 39,
            "velocity": 0.7165354330708661
          },
          {
            "type": "noteOff",
            "timeMs": 54771.75281249888,
            "noteNumber": 39,
            "velocity": 0
          },
          {
            "type": "noteOn",
            "timeMs": 54914.759999998874,
            "noteNumber": 29,
            "velocity": 0.7165354330708661
          },
          {
            "type": "noteOff",
            "timeMs": 55259.036562498855,
            "noteNumber": 29,
            "velocity": 0
          },
          {
            "type": "noteOn",
            "timeMs": 55423.229999998846,
            "noteNumber": 41,
            "velocity": 0.7165354330708661
          },
          {
            "type": "noteOff",
            "timeMs": 55582.12687499884,
            "noteNumber": 41,
            "velocity": 0
          },
          {
            "type": "noteOn",
            "timeMs": 56058.81749999881,
            "noteNumber": 29,
            "velocity": 0.7165354330708661
          },
          {
            "type": "noteOff",
            "timeMs": 56175.341874998805,
            "noteNumber": 29,
            "velocity": 0
          },
          {
            "type": "noteOn",
            "timeMs": 56185.934999998804,
            "noteNumber": 36,
            "velocity": 0.7165354330708661
          },
          {
            "type": "noteOff",
            "timeMs": 56328.9421874988,
            "noteNumber": 36,
            "velocity": 0
          },
          {
            "type": "noteOn",
            "timeMs": 56440.16999999879,
            "noteNumber": 39,
            "velocity": 0.7165354330708661
          },
          {
            "type": "noteOff",
            "timeMs": 56583.17718749878,
            "noteNumber": 39,
            "velocity": 0
          },
          {
            "type": "noteOn",
            "timeMs": 56694.40499999878,
            "noteNumber": 41,
            "velocity": 0.7165354330708661
          },
          {
            "type": "noteOff",
            "timeMs": 56837.41218749877,
            "noteNumber": 41,
            "velocity": 0
          },
          {
            "type": "noteOn",
            "timeMs": 56948.63999999876,
            "noteNumber": 25,
            "velocity": 0.7165354330708661
          },
          {
            "type": "noteOff",
            "timeMs": 57335.28906249874,
            "noteNumber": 25,
            "velocity": 0
          },
          {
            "type": "noteOn",
            "timeMs": 57457.109999998735,
            "noteNumber": 37,
            "velocity": 0.7165354330708661
          },
          {
            "type": "noteOff",
            "timeMs": 57716.64156249872,
            "noteNumber": 37,
            "velocity": 0
          },
          {
            "type": "noteOn",
            "timeMs": 58092.6974999987,
            "noteNumber": 27,
            "velocity": 0.7165354330708661
          },
          {
            "type": "noteOff",
            "timeMs": 58193.332187498694,
            "noteNumber": 27,
            "velocity": 0
          },
          {
            "type": "noteOn",
            "timeMs": 58219.81499999869,
            "noteNumber": 39,
            "velocity": 0.7165354330708661
          },
          {
            "type": "noteOff",
            "timeMs": 58373.415312498684,
            "noteNumber": 39,
            "velocity": 0
          },
          {
            "type": "noteOn",
            "timeMs": 58474.04999999868,
            "noteNumber": 36,
            "velocity": 0.7165354330708661
          },
          {
            "type": "noteOff",
            "timeMs": 58638.24343749867,
            "noteNumber": 36,
            "velocity": 0
          },
          {
            "type": "noteOn",
            "timeMs": 58728.284999998665,
            "noteNumber": 39,
            "velocity": 0.7165354330708661
          },
          {
            "type": "noteOff",
            "timeMs": 58924.257812498654,
            "noteNumber": 39,
            "velocity": 0
          },
          {
            "type": "noteOn",
            "timeMs": 58982.51999999865,
            "noteNumber": 29,
            "velocity": 0.7165354330708661
          },
          {
            "type": "noteOff",
            "timeMs": 59406.244999998635,
            "noteNumber": 29,
            "velocity": 0
          },
          {
            "type": "noteOn",
            "timeMs": 60126.5774999986,
            "noteNumber": 39,
            "velocity": 0.7165354330708661
          },
          {
            "type": "noteOff",
            "timeMs": 60211.3224999986,
            "noteNumber": 39,
            "velocity": 0
          },
          {
            "type": "noteOn",
            "timeMs": 60253.694999998595,
            "noteNumber": 36,
            "velocity": 0.7165354330708661
          },
          {
            "type": "noteOff",
            "timeMs": 60380.812499998596,
            "noteNumber": 36,
            "velocity": 0
          },
          {
            "type": "noteOn",
            "timeMs": 60507.929999998596,
            "noteNumber": 34,
            "velocity": 0.7165354330708661
          },
          {
            "type": "noteOff",
            "timeMs": 60666.826874998595,
            "noteNumber": 34,
            "velocity": 0
          },
          {
            "type": "noteOn",
            "timeMs": 60762.16499999859,
            "noteNumber": 32,
            "velocity": 0.7165354330708661
          },
          {
            "type": "noteOff",
            "timeMs": 60915.76531249858,
            "noteNumber": 32,
            "velocity": 0
          },
          {
            "type": "noteOn",
            "timeMs": 61016.399999998575,
            "noteNumber": 29,
            "velocity": 0.7165354330708661
          },
          {
            "type": "noteOff",
            "timeMs": 61403.049062498554,
            "noteNumber": 29,
            "velocity": 0
          },
          {
            "type": "noteOn",
            "timeMs": 61524.86999999855,
            "noteNumber": 41,
            "velocity": 0.7165354330708661
          },
          {
            "type": "noteOff",
            "timeMs": 61747.325624998535,
            "noteNumber": 41,
            "velocity": 0
          },
          {
            "type": "noteOn",
            "timeMs": 61906.22249999853,
            "noteNumber": 39,
            "velocity": 0.7165354330708661
          },
          {
            "type": "noteOff",
            "timeMs": 62033.33999999852,
            "noteNumber": 39,
            "velocity": 0
          },
          {
            "type": "noteOn",
            "timeMs": 62160.45749999851,
            "noteNumber": 51,
            "velocity": 0.7165354330708661
          },
          {
            "type": "noteOff",
            "timeMs": 62208.12656249851,
            "noteNumber": 51,
            "velocity": 0
          },
          {
            "type": "noteOn",
            "timeMs": 62287.574999998506,
            "noteNumber": 24,
            "velocity": 0.7165354330708661
          },
          {
            "type": "noteOff",
            "timeMs": 62446.4718749985,
            "noteNumber": 24,
            "velocity": 0
          },
          {
            "type": "noteOn",
            "timeMs": 62541.80999999849,
            "noteNumber": 36,
            "velocity": 0.7165354330708661
          },
          {
            "type": "noteOff",
            "timeMs": 62684.817187498484,
            "noteNumber": 36,
            "velocity": 0
          },
          {
            "type": "noteOn",
            "timeMs": 62796.04499999848,
            "noteNumber": 39,
            "velocity": 0.7165354330708661
          },
          {
            "type": "noteOff",
            "timeMs": 62907.27281249847,
            "noteNumber": 39,
            "velocity": 0
          },
          {
            "type": "noteOn",
            "timeMs": 63050.27999999846,
            "noteNumber": 29,
            "velocity": 0.7165354330708661
          },
          {
            "type": "noteOff",
            "timeMs": 63394.556562498445,
            "noteNumber": 29,
            "velocity": 0
          },
          {
            "type": "noteOn",
            "timeMs": 63558.749999998436,
            "noteNumber": 41,
            "velocity": 0.7165354330708661
          },
          {
            "type": "noteOff",
            "timeMs": 63717.64687499843,
            "noteNumber": 41,
            "velocity": 0
          },
          {
            "type": "noteOn",
            "timeMs": 64194.3374999984,
            "noteNumber": 29,
            "velocity": 0.7165354330708661
          },
          {
            "type": "noteOff",
            "timeMs": 64310.861874998394,
            "noteNumber": 29,
            "velocity": 0
          },
          {
            "type": "noteOn",
            "timeMs": 64321.454999998394,
            "noteNumber": 36,
            "velocity": 0.7165354330708661
          },
          {
            "type": "noteOff",
            "timeMs": 64464.462187498386,
            "noteNumber": 36,
            "velocity": 0
          },
          {
            "type": "noteOn",
            "timeMs": 64575.68999999838,
            "noteNumber": 39,
            "velocity": 0.7165354330708661
          },
          {
            "type": "noteOff",
            "timeMs": 64718.69718749837,
            "noteNumber": 39,
            "velocity": 0
          },
          {
            "type": "noteOn",
            "timeMs": 64829.924999998366,
            "noteNumber": 41,
            "velocity": 0.7165354330708661
          },
          {
            "type": "noteOff",
            "timeMs": 64972.93218749836,
            "noteNumber": 41,
            "velocity": 0
          },
          {
            "type": "noteOn",
            "timeMs": 65084.15999999835,
            "noteNumber": 25,
            "velocity": 0.7165354330708661
          },
          {
            "type": "noteOff",
            "timeMs": 65470.80906249833,
            "noteNumber": 25,
            "velocity": 0
          },
          {
            "type": "noteOn",
            "timeMs": 65592.62999999833,
            "noteNumber": 37,
            "velocity": 0.7165354330708661
          },
          {
            "type": "noteOff",
            "timeMs": 65852.16156249835,
            "noteNumber": 37,
            "velocity": 0
          },
          {
            "type": "noteOn",
            "timeMs": 66228.2174999984,
            "noteNumber": 27,
            "velocity": 0.7165354330708661
          },
          {
            "type": "noteOff",
            "timeMs": 66328.85218749841,
            "noteNumber": 27,
            "velocity": 0
          },
          {
            "type": "noteOn",
            "timeMs": 66355.33499999842,
            "noteNumber": 39,
            "velocity": 0.7165354330708661
          },
          {
            "type": "noteOff",
            "timeMs": 66508.93531249842,
            "noteNumber": 39,
            "velocity": 0
          },
          {
            "type": "noteOn",
            "timeMs": 66609.56999999844,
            "noteNumber": 36,
            "velocity": 0.7165354330708661
          },
          {
            "type": "noteOff",
            "timeMs": 66773.76343749843,
            "noteNumber": 36,
            "velocity": 0
          },
          {
            "type": "noteOn",
            "timeMs": 66863.80499999847,
            "noteNumber": 39,
            "velocity": 0.7165354330708661
          },
          {
            "type": "noteOff",
            "timeMs": 67059.77781249848,
            "noteNumber": 39,
            "velocity": 0
          },
          {
            "type": "noteOn",
            "timeMs": 67118.03999999848,
            "noteNumber": 29,
            "velocity": 0.7165354330708661
          },
          {
            "type": "noteOff",
            "timeMs": 67541.76499999847,
            "noteNumber": 29,
            "velocity": 0
          },
          {
            "type": "noteOn",
            "timeMs": 68262.0974999985,
            "noteNumber": 39,
            "velocity": 0.7165354330708661
          },
          {
            "type": "noteOff",
            "timeMs": 68346.84249999851,
            "noteNumber": 39,
            "velocity": 0
          },
          {
            "type": "noteOn",
            "timeMs": 68389.21499999853,
            "noteNumber": 36,
            "velocity": 0.7165354330708661
          },
          {
            "type": "noteOff",
            "timeMs": 68516.33249999852,
            "noteNumber": 36,
            "velocity": 0
          },
          {
            "type": "noteOn",
            "timeMs": 68643.44999999854,
            "noteNumber": 34,
            "velocity": 0.7165354330708661
          },
          {
            "type": "noteOff",
            "timeMs": 68802.34687499853,
            "noteNumber": 34,
            "velocity": 0
          },
          {
            "type": "noteOn",
            "timeMs": 68897.68499999853,
            "noteNumber": 32,
            "velocity": 0.7165354330708661
          },
          {
            "type": "noteOff",
            "timeMs": 69051.28531249854,
            "noteNumber": 32,
            "velocity": 0
          },
          {
            "type": "noteOn",
            "timeMs": 69151.91999999856,
            "noteNumber": 29,
            "velocity": 0.7165354330708661
          },
          {
            "type": "noteOff",
            "timeMs": 69538.56906249859,
            "noteNumber": 29,
            "velocity": 0
          },
          {
            "type": "noteOn",
            "timeMs": 69660.38999999859,
            "noteNumber": 41,
            "velocity": 0.7165354330708661
          },
          {
            "type": "noteOff",
            "timeMs": 69882.84562499858,
            "noteNumber": 41,
            "velocity": 0
          },
          {
            "type": "noteOn",
            "timeMs": 70041.7424999986,
            "noteNumber": 39,
            "velocity": 0.7165354330708661
          },
          {
            "type": "noteOff",
            "timeMs": 70168.8599999986,
            "noteNumber": 39,
            "velocity": 0
          },
          {
            "type": "noteOn",
            "timeMs": 70295.97749999861,
            "noteNumber": 51,
            "velocity": 0.7165354330708661
          },
          {
            "type": "noteOff",
            "timeMs": 70343.64656249862,
            "noteNumber": 51,
            "velocity": 0
          },
          {
            "type": "noteOn",
            "timeMs": 70423.09499999863,
            "noteNumber": 24,
            "velocity": 0.7165354330708661
          },
          {
            "type": "noteOff",
            "timeMs": 70581.99187499864,
            "noteNumber": 24,
            "velocity": 0
          },
          {
            "type": "noteOn",
            "timeMs": 70677.32999999865,
            "noteNumber": 36,
            "velocity": 0.7165354330708661
          },
          {
            "type": "noteOff",
            "timeMs": 70820.33718749865,
            "noteNumber": 36,
            "velocity": 0
          },
          {
            "type": "noteOn",
            "timeMs": 70931.56499999866,
            "noteNumber": 39,
            "velocity": 0.7165354330708661
          },
          {
            "type": "noteOff",
            "timeMs": 71042.79281249866,
            "noteNumber": 39,
            "velocity": 0
          },
          {
            "type": "noteOn",
            "timeMs": 71185.79999999866,
            "noteNumber": 29,
            "velocity": 0.7165354330708661
          },
          {
            "type": "noteOff",
            "timeMs": 71572.44906249868,
            "noteNumber": 29,
            "velocity": 0
          },
          {
            "type": "noteOn",
            "timeMs": 71694.2699999987,
            "noteNumber": 41,
            "velocity": 0.7165354330708661
          },
          {
            "type": "noteOff",
            "timeMs": 71916.7256249987,
            "noteNumber": 41,
            "velocity": 0
          },
          {
            "type": "noteOn",
            "timeMs": 72075.62249999872,
            "noteNumber": 39,
            "velocity": 0.7165354330708661
          },
          {
            "type": "noteOff",
            "timeMs": 72202.73999999872,
            "noteNumber": 39,
            "velocity": 0
          },
          {
            "type": "noteOn",
            "timeMs": 72329.85749999873,
            "noteNumber": 51,
            "velocity": 0.7165354330708661
          },
          {
            "type": "noteOff",
            "timeMs": 72377.52656249874,
            "noteNumber": 51,
            "velocity": 0
          },
          {
            "type": "noteOn",
            "timeMs": 72456.97499999874,
            "noteNumber": 24,
            "velocity": 0.7165354330708661
          },
          {
            "type": "noteOff",
            "timeMs": 72615.87187499875,
            "noteNumber": 24,
            "velocity": 0
          },
          {
            "type": "noteOn",
            "timeMs": 72711.20999999875,
            "noteNumber": 36,
            "velocity": 0.7165354330708661
          },
          {
            "type": "noteOff",
            "timeMs": 72854.21718749877,
            "noteNumber": 36,
            "velocity": 0
          },
          {
            "type": "noteOn",
            "timeMs": 72965.44499999878,
            "noteNumber": 39,
            "velocity": 0.7165354330708661
          },
          {
            "type": "noteOff",
            "timeMs": 73076.67281249879,
            "noteNumber": 39,
            "velocity": 0
          },
          {
            "type": "noteOn",
            "timeMs": 73219.67999999879,
            "noteNumber": 29,
            "velocity": 0.8031496062992126
          },
          {
            "type": "noteOff",
            "timeMs": 73283.2387499988,
            "noteNumber": 29,
            "velocity": 0
          },
          {
            "type": "noteOn",
            "timeMs": 75253.5599999988,
            "noteNumber": 29,
            "velocity": 0.7165354330708661
          },
          {
            "type": "noteOff",
            "timeMs": 75640.2090624988,
            "noteNumber": 29,
            "velocity": 0
          },
          {
            "type": "noteOn",
            "timeMs": 75762.0299999988,
            "noteNumber": 41,
            "velocity": 0.7165354330708661
          },
          {
            "type": "noteOff",
            "timeMs": 75984.4856249988,
            "noteNumber": 41,
            "velocity": 0
          },
          {
            "type": "noteOn",
            "timeMs": 76143.3824999988,
            "noteNumber": 39,
            "velocity": 0.7165354330708661
          },
          {
            "type": "noteOff",
            "timeMs": 76270.4999999988,
            "noteNumber": 39,
            "velocity": 0
          },
          {
            "type": "noteOn",
            "timeMs": 76397.6174999988,
            "noteNumber": 51,
            "velocity": 0.7165354330708661
          },
          {
            "type": "noteOff",
            "timeMs": 76445.2865624988,
            "noteNumber": 51,
            "velocity": 0
          },
          {
            "type": "noteOn",
            "timeMs": 76524.73499999882,
            "noteNumber": 24,
            "velocity": 0.7165354330708661
          },
          {
            "type": "noteOff",
            "timeMs": 76683.63187499883,
            "noteNumber": 24,
            "velocity": 0
          },
          {
            "type": "noteOn",
            "timeMs": 76778.96999999882,
            "noteNumber": 36,
            "velocity": 0.7165354330708661
          },
          {
            "type": "noteOff",
            "timeMs": 76921.97718749884,
            "noteNumber": 36,
            "velocity": 0
          },
          {
            "type": "noteOn",
            "timeMs": 77033.20499999884,
            "noteNumber": 39,
            "velocity": 0.7165354330708661
          },
          {
            "type": "noteOff",
            "timeMs": 77144.43281249884,
            "noteNumber": 39,
            "velocity": 0
          },
          {
            "type": "noteOn",
            "timeMs": 77287.43999999885,
            "noteNumber": 29,
            "velocity": 0.7165354330708661
          },
          {
            "type": "noteOff",
            "timeMs": 77631.71656249887,
            "noteNumber": 29,
            "velocity": 0
          },
          {
            "type": "noteOn",
            "timeMs": 77795.90999999887,
            "noteNumber": 41,
            "velocity": 0.7165354330708661
          },
          {
            "type": "noteOff",
            "timeMs": 77954.80687499887,
            "noteNumber": 41,
            "velocity": 0
          },
          {
            "type": "noteOn",
            "timeMs": 78431.49749999886,
            "noteNumber": 29,
            "velocity": 0.7165354330708661
          },
          {
            "type": "noteOff",
            "timeMs": 78548.02187499886,
            "noteNumber": 29,
            "velocity": 0
          },
          {
            "type": "noteOn",
            "timeMs": 78558.61499999886,
            "noteNumber": 36,
            "velocity": 0.7165354330708661
          },
          {
            "type": "noteOff",
            "timeMs": 78701.62218749886,
            "noteNumber": 36,
            "velocity": 0
          },
          {
            "type": "noteOn",
            "timeMs": 78812.84999999886,
            "noteNumber": 39,
            "velocity": 0.7165354330708661
          },
          {
            "type": "noteOff",
            "timeMs": 78955.85718749886,
            "noteNumber": 39,
            "velocity": 0
          },
          {
            "type": "noteOn",
            "timeMs": 79067.08499999886,
            "noteNumber": 41,
            "velocity": 0.7165354330708661
          },
          {
            "type": "noteOff",
            "timeMs": 79210.09218749887,
            "noteNumber": 41,
            "velocity": 0
          },
          {
            "type": "noteOn",
            "timeMs": 79321.31999999887,
            "noteNumber": 25,
            "velocity": 0.7165354330708661
          },
          {
            "type": "noteOff",
            "timeMs": 79707.96906249887,
            "noteNumber": 25,
            "velocity": 0
          },
          {
            "type": "noteOn",
            "timeMs": 79829.78999999887,
            "noteNumber": 37,
            "velocity": 0.7165354330708661
          },
          {
            "type": "noteOff",
            "timeMs": 80089.3215624989,
            "noteNumber": 37,
            "velocity": 0
          },
          {
            "type": "noteOn",
            "timeMs": 80465.37749999893,
            "noteNumber": 27,
            "velocity": 0.7165354330708661
          },
          {
            "type": "noteOff",
            "timeMs": 80566.01218749893,
            "noteNumber": 27,
            "velocity": 0
          },
          {
            "type": "noteOn",
            "timeMs": 80592.49499999893,
            "noteNumber": 39,
            "velocity": 0.7165354330708661
          },
          {
            "type": "noteOff",
            "timeMs": 80746.09531249893,
            "noteNumber": 39,
            "velocity": 0
          },
          {
            "type": "noteOn",
            "timeMs": 80846.72999999895,
            "noteNumber": 36,
            "velocity": 0.7165354330708661
          },
          {
            "type": "noteOff",
            "timeMs": 81010.92343749895,
            "noteNumber": 36,
            "velocity": 0
          },
          {
            "type": "noteOn",
            "timeMs": 81100.96499999896,
            "noteNumber": 39,
            "velocity": 0.7165354330708661
          },
          {
            "type": "noteOff",
            "timeMs": 81296.93781249896,
            "noteNumber": 39,
            "velocity": 0
          },
          {
            "type": "noteOn",
            "timeMs": 81355.19999999896,
            "noteNumber": 29,
            "velocity": 0.7165354330708661
          },
          {
            "type": "noteOff",
            "timeMs": 81778.92499999894,
            "noteNumber": 29,
            "velocity": 0
          },
          {
            "type": "noteOn",
            "timeMs": 82499.25749999894,
            "noteNumber": 39,
            "velocity": 0.7165354330708661
          },
          {
            "type": "noteOff",
            "timeMs": 82584.00249999894,
            "noteNumber": 39,
            "velocity": 0
          },
          {
            "type": "noteOn",
            "timeMs": 82626.37499999895,
            "noteNumber": 36,
            "velocity": 0.7165354330708661
          },
          {
            "type": "noteOff",
            "timeMs": 82753.49249999896,
            "noteNumber": 36,
            "velocity": 0
          },
          {
            "type": "noteOn",
            "timeMs": 82880.60999999895,
            "noteNumber": 34,
            "velocity": 0.7165354330708661
          },
          {
            "type": "noteOff",
            "timeMs": 83039.50687499896,
            "noteNumber": 34,
            "velocity": 0
          },
          {
            "type": "noteOn",
            "timeMs": 83134.84499999897,
            "noteNumber": 32,
            "velocity": 0.7165354330708661
          },
          {
            "type": "noteOff",
            "timeMs": 83288.44531249898,
            "noteNumber": 32,
            "velocity": 0
          },
          {
            "type": "noteOn",
            "timeMs": 83389.079999999,
            "noteNumber": 29,
            "velocity": 0.7165354330708661
          },
          {
            "type": "noteOff",
            "timeMs": 83775.72906249901,
            "noteNumber": 29,
            "velocity": 0
          },
          {
            "type": "noteOn",
            "timeMs": 83897.54999999901,
            "noteNumber": 41,
            "velocity": 0.7165354330708661
          },
          {
            "type": "noteOff",
            "timeMs": 84120.00562499902,
            "noteNumber": 41,
            "velocity": 0
          },
          {
            "type": "noteOn",
            "timeMs": 84278.90249999902,
            "noteNumber": 39,
            "velocity": 0.7165354330708661
          },
          {
            "type": "noteOff",
            "timeMs": 84406.01999999901,
            "noteNumber": 39,
            "velocity": 0
          },
          {
            "type": "noteOn",
            "timeMs": 84533.13749999901,
            "noteNumber": 51,
            "velocity": 0.7165354330708661
          },
          {
            "type": "noteOff",
            "timeMs": 84580.80656249901,
            "noteNumber": 51,
            "velocity": 0
          },
          {
            "type": "noteOn",
            "timeMs": 84660.25499999903,
            "noteNumber": 24,
            "velocity": 0.7165354330708661
          },
          {
            "type": "noteOff",
            "timeMs": 84819.15187499902,
            "noteNumber": 24,
            "velocity": 0
          },
          {
            "type": "noteOn",
            "timeMs": 84914.48999999902,
            "noteNumber": 36,
            "velocity": 0.7165354330708661
          },
          {
            "type": "noteOff",
            "timeMs": 85057.49718749903,
            "noteNumber": 36,
            "velocity": 0
          },
          {
            "type": "noteOn",
            "timeMs": 85168.72499999905,
            "noteNumber": 39,
            "velocity": 0.7165354330708661
          },
          {
            "type": "noteOff",
            "timeMs": 85279.95281249905,
            "noteNumber": 39,
            "velocity": 0
          },
          {
            "type": "noteOn",
            "timeMs": 85422.95999999906,
            "noteNumber": 29,
            "velocity": 0.7165354330708661
          },
          {
            "type": "noteOff",
            "timeMs": 85767.23656249906,
            "noteNumber": 29,
            "velocity": 0
          },
          {
            "type": "noteOn",
            "timeMs": 85931.42999999906,
            "noteNumber": 41,
            "velocity": 0.7165354330708661
          },
          {
            "type": "noteOff",
            "timeMs": 86090.32687499907,
            "noteNumber": 41,
            "velocity": 0
          },
          {
            "type": "noteOn",
            "timeMs": 86567.01749999906,
            "noteNumber": 29,
            "velocity": 0.7165354330708661
          },
          {
            "type": "noteOff",
            "timeMs": 86683.54187499906,
            "noteNumber": 29,
            "velocity": 0
          },
          {
            "type": "noteOn",
            "timeMs": 86694.13499999906,
            "noteNumber": 36,
            "velocity": 0.7165354330708661
          },
          {
            "type": "noteOff",
            "timeMs": 86837.14218749906,
            "noteNumber": 36,
            "velocity": 0
          },
          {
            "type": "noteOn",
            "timeMs": 86948.36999999908,
            "noteNumber": 39,
            "velocity": 0.7165354330708661
          },
          {
            "type": "noteOff",
            "timeMs": 87091.37718749908,
            "noteNumber": 39,
            "velocity": 0
          },
          {
            "type": "noteOn",
            "timeMs": 87202.6049999991,
            "noteNumber": 41,
            "velocity": 0.7165354330708661
          },
          {
            "type": "noteOff",
            "timeMs": 87345.6121874991,
            "noteNumber": 41,
            "velocity": 0
          },
          {
            "type": "noteOn",
            "timeMs": 87456.83999999911,
            "noteNumber": 25,
            "velocity": 0.7165354330708661
          },
          {
            "type": "noteOff",
            "timeMs": 87843.48906249912,
            "noteNumber": 25,
            "velocity": 0
          },
          {
            "type": "noteOn",
            "timeMs": 87965.30999999912,
            "noteNumber": 37,
            "velocity": 0.7165354330708661
          },
          {
            "type": "noteOff",
            "timeMs": 88224.84156249912,
            "noteNumber": 37,
            "velocity": 0
          },
          {
            "type": "noteOn",
            "timeMs": 88600.89749999912,
            "noteNumber": 27,
            "velocity": 0.7165354330708661
          },
          {
            "type": "noteOff",
            "timeMs": 88701.53218749912,
            "noteNumber": 27,
            "velocity": 0
          },
          {
            "type": "noteOn",
            "timeMs": 88728.01499999913,
            "noteNumber": 39,
            "velocity": 0.7165354330708661
          },
          {
            "type": "noteOff",
            "timeMs": 88881.61531249914,
            "noteNumber": 39,
            "velocity": 0
          },
          {
            "type": "noteOn",
            "timeMs": 88982.24999999914,
            "noteNumber": 36,
            "velocity": 0.7165354330708661
          },
          {
            "type": "noteOff",
            "timeMs": 89146.44343749914,
            "noteNumber": 36,
            "velocity": 0
          },
          {
            "type": "noteOn",
            "timeMs": 89236.48499999916,
            "noteNumber": 39,
            "velocity": 0.7165354330708661
          },
          {
            "type": "noteOff",
            "timeMs": 89432.45781249917,
            "noteNumber": 39,
            "velocity": 0
          },
          {
            "type": "noteOn",
            "timeMs": 89490.71999999919,
            "noteNumber": 29,
            "velocity": 0.7165354330708661
          },
          {
            "type": "noteOff",
            "timeMs": 89914.44499999919,
            "noteNumber": 29,
            "velocity": 0
          },
          {
            "type": "noteOn",
            "timeMs": 90634.77749999921,
            "noteNumber": 39,
            "velocity": 0.7165354330708661
          },
          {
            "type": "noteOff",
            "timeMs": 90719.5224999992,
            "noteNumber": 39,
            "velocity": 0
          },
          {
            "type": "noteOn",
            "timeMs": 90761.8949999992,
            "noteNumber": 36,
            "velocity": 0.7165354330708661
          },
          {
            "type": "noteOff",
            "timeMs": 90889.01249999921,
            "noteNumber": 36,
            "velocity": 0
          },
          {
            "type": "noteOn",
            "timeMs": 91016.1299999992,
            "noteNumber": 34,
            "velocity": 0.7165354330708661
          },
          {
            "type": "noteOff",
            "timeMs": 91175.0268749992,
            "noteNumber": 34,
            "velocity": 0
          },
          {
            "type": "noteOn",
            "timeMs": 91270.36499999919,
            "noteNumber": 32,
            "velocity": 0.7165354330708661
          },
          {
            "type": "noteOff",
            "timeMs": 91423.96531249919,
            "noteNumber": 32,
            "velocity": 0
          },
          {
            "type": "noteOn",
            "timeMs": 91524.5999999992,
            "noteNumber": 29,
            "velocity": 0.7165354330708661
          },
          {
            "type": "noteOff",
            "timeMs": 91911.24906249922,
            "noteNumber": 29,
            "velocity": 0
          },
          {
            "type": "noteOn",
            "timeMs": 92033.06999999924,
            "noteNumber": 41,
            "velocity": 0.7165354330708661
          },
          {
            "type": "noteOff",
            "timeMs": 92255.52562499922,
            "noteNumber": 41,
            "velocity": 0
          },
          {
            "type": "noteOn",
            "timeMs": 92414.42249999923,
            "noteNumber": 39,
            "velocity": 0.7165354330708661
          },
          {
            "type": "noteOff",
            "timeMs": 92541.53999999922,
            "noteNumber": 39,
            "velocity": 0
          },
          {
            "type": "noteOn",
            "timeMs": 92668.65749999922,
            "noteNumber": 51,
            "velocity": 0.7165354330708661
          },
          {
            "type": "noteOff",
            "timeMs": 92716.32656249922,
            "noteNumber": 51,
            "velocity": 0
          },
          {
            "type": "noteOn",
            "timeMs": 92795.77499999924,
            "noteNumber": 24,
            "velocity": 0.7165354330708661
          },
          {
            "type": "noteOff",
            "timeMs": 92954.67187499924,
            "noteNumber": 24,
            "velocity": 0
          },
          {
            "type": "noteOn",
            "timeMs": 93050.00999999924,
            "noteNumber": 36,
            "velocity": 0.7165354330708661
          },
          {
            "type": "noteOff",
            "timeMs": 93193.01718749925,
            "noteNumber": 36,
            "velocity": 0
          },
          {
            "type": "noteOn",
            "timeMs": 93304.24499999925,
            "noteNumber": 39,
            "velocity": 0.7165354330708661
          },
          {
            "type": "noteOff",
            "timeMs": 93415.47281249925,
            "noteNumber": 39,
            "velocity": 0
          },
          {
            "type": "noteOn",
            "timeMs": 93558.47999999927,
            "noteNumber": 29,
            "velocity": 0.7165354330708661
          },
          {
            "type": "noteOff",
            "timeMs": 93902.75656249926,
            "noteNumber": 29,
            "velocity": 0
          },
          {
            "type": "noteOn",
            "timeMs": 94066.94999999925,
            "noteNumber": 41,
            "velocity": 0.7165354330708661
          },
          {
            "type": "noteOff",
            "timeMs": 94225.84687499926,
            "noteNumber": 41,
            "velocity": 0
          },
          {
            "type": "noteOn",
            "timeMs": 94702.5374999993,
            "noteNumber": 29,
            "velocity": 0.7165354330708661
          },
          {
            "type": "noteOff",
            "timeMs": 94819.0618749993,
            "noteNumber": 29,
            "velocity": 0
          },
          {
            "type": "noteOn",
            "timeMs": 94829.6549999993,
            "noteNumber": 36,
            "velocity": 0.7165354330708661
          },
          {
            "type": "noteOff",
            "timeMs": 94972.66218749931,
            "noteNumber": 36,
            "velocity": 0
          },
          {
            "type": "noteOn",
            "timeMs": 95083.88999999932,
            "noteNumber": 39,
            "velocity": 0.7165354330708661
          },
          {
            "type": "noteOff",
            "timeMs": 95226.89718749933,
            "noteNumber": 39,
            "velocity": 0
          },
          {
            "type": "noteOn",
            "timeMs": 95338.12499999935,
            "noteNumber": 41,
            "velocity": 0.7165354330708661
          },
          {
            "type": "noteOff",
            "timeMs": 95481.13218749936,
            "noteNumber": 41,
            "velocity": 0
          },
          {
            "type": "noteOn",
            "timeMs": 95592.35999999936,
            "noteNumber": 25,
            "velocity": 0.7165354330708661
          },
          {
            "type": "noteOff",
            "timeMs": 95979.00906249939,
            "noteNumber": 25,
            "velocity": 0
          },
          {
            "type": "noteOn",
            "timeMs": 96100.8299999994,
            "noteNumber": 37,
            "velocity": 0.7165354330708661
          },
          {
            "type": "noteOff",
            "timeMs": 96360.36156249943,
            "noteNumber": 37,
            "velocity": 0
          },
          {
            "type": "noteOn",
            "timeMs": 96736.41749999941,
            "noteNumber": 27,
            "velocity": 0.7165354330708661
          },
          {
            "type": "noteOff",
            "timeMs": 96837.05218749943,
            "noteNumber": 27,
            "velocity": 0
          },
          {
            "type": "noteOn",
            "timeMs": 96863.53499999944,
            "noteNumber": 39,
            "velocity": 0.7165354330708661
          },
          {
            "type": "noteOff",
            "timeMs": 97017.13531249943,
            "noteNumber": 39,
            "velocity": 0
          },
          {
            "type": "noteOn",
            "timeMs": 97117.76999999944,
            "noteNumber": 36,
            "velocity": 0.7165354330708661
          },
          {
            "type": "noteOff",
            "timeMs": 97281.96343749943,
            "noteNumber": 36,
            "velocity": 0
          },
          {
            "type": "noteOn",
            "timeMs": 97372.00499999945,
            "noteNumber": 39,
            "velocity": 0.7165354330708661
          },
          {
            "type": "noteOff",
            "timeMs": 97567.97781249945,
            "noteNumber": 39,
            "velocity": 0
          },
          {
            "type": "noteOn",
            "timeMs": 97626.23999999945,
            "noteNumber": 29,
            "velocity": 0.7165354330708661
          },
          {
            "type": "noteOff",
            "timeMs": 98049.96499999944,
            "noteNumber": 29,
            "velocity": 0
          },
          {
            "type": "noteOn",
            "timeMs": 98770.29749999946,
            "noteNumber": 39,
            "velocity": 0.7165354330708661
          },
          {
            "type": "noteOff",
            "timeMs": 98855.04249999947,
            "noteNumber": 39,
            "velocity": 0
          },
          {
            "type": "noteOn",
            "timeMs": 98897.41499999947,
            "noteNumber": 36,
            "velocity": 0.7165354330708661
          },
          {
            "type": "noteOff",
            "timeMs": 99024.53249999948,
            "noteNumber": 36,
            "velocity": 0
          },
          {
            "type": "noteOn",
            "timeMs": 99151.64999999948,
            "noteNumber": 34,
            "velocity": 0.7165354330708661
          },
          {
            "type": "noteOff",
            "timeMs": 99310.5468749995,
            "noteNumber": 34,
            "velocity": 0
          },
          {
            "type": "noteOn",
            "timeMs": 99405.8849999995,
            "noteNumber": 32,
            "velocity": 0.7165354330708661
          },
          {
            "type": "noteOff",
            "timeMs": 99559.48531249951,
            "noteNumber": 32,
            "velocity": 0
          },
          {
            "type": "noteOn",
            "timeMs": 99660.11999999952,
            "noteNumber": 29,
            "velocity": 0.7165354330708661
          },
          {
            "type": "noteOff",
            "timeMs": 100046.76906249952,
            "noteNumber": 29,
            "velocity": 0
          },
          {
            "type": "noteOn",
            "timeMs": 100168.58999999952,
            "noteNumber": 41,
            "velocity": 0.7165354330708661
          },
          {
            "type": "noteOff",
            "timeMs": 100391.04562499952,
            "noteNumber": 41,
            "velocity": 0
          },
          {
            "type": "noteOn",
            "timeMs": 100549.94249999951,
            "noteNumber": 39,
            "velocity": 0.7165354330708661
          },
          {
            "type": "noteOff",
            "timeMs": 100677.0599999995,
            "noteNumber": 39,
            "velocity": 0
          },
          {
            "type": "noteOn",
            "timeMs": 100804.1774999995,
            "noteNumber": 51,
            "velocity": 0.7165354330708661
          },
          {
            "type": "noteOff",
            "timeMs": 100851.8465624995,
            "noteNumber": 51,
            "velocity": 0
          },
          {
            "type": "noteOn",
            "timeMs": 100931.2949999995,
            "noteNumber": 24,
            "velocity": 0.7165354330708661
          },
          {
            "type": "noteOff",
            "timeMs": 101090.19187499952,
            "noteNumber": 24,
            "velocity": 0
          },
          {
            "type": "noteOn",
            "timeMs": 101185.52999999952,
            "noteNumber": 36,
            "velocity": 0.7165354330708661
          },
          {
            "type": "noteOff",
            "timeMs": 101328.53718749953,
            "noteNumber": 36,
            "velocity": 0
          },
          {
            "type": "noteOn",
            "timeMs": 101439.76499999955,
            "noteNumber": 39,
            "velocity": 0.7165354330708661
          },
          {
            "type": "noteOff",
            "timeMs": 101550.99281249955,
            "noteNumber": 39,
            "velocity": 0
          },
          {
            "type": "noteOn",
            "timeMs": 101693.99999999955,
            "noteNumber": 29,
            "velocity": 0.7165354330708661
          },
          {
            "type": "noteOff",
            "timeMs": 102038.27656249955,
            "noteNumber": 29,
            "velocity": 0
          },
          {
            "type": "noteOn",
            "timeMs": 102202.46999999956,
            "noteNumber": 41,
            "velocity": 0.7165354330708661
          },
          {
            "type": "noteOff",
            "timeMs": 102361.36687499957,
            "noteNumber": 41,
            "velocity": 0
          },
          {
            "type": "noteOn",
            "timeMs": 102838.05749999959,
            "noteNumber": 29,
            "velocity": 0.7165354330708661
          },
          {
            "type": "noteOff",
            "timeMs": 102954.5818749996,
            "noteNumber": 29,
            "velocity": 0
          },
          {
            "type": "noteOn",
            "timeMs": 102965.1749999996,
            "noteNumber": 36,
            "velocity": 0.7165354330708661
          },
          {
            "type": "noteOff",
            "timeMs": 103108.18218749961,
            "noteNumber": 36,
            "velocity": 0
          },
          {
            "type": "noteOn",
            "timeMs": 103219.40999999961,
            "noteNumber": 39,
            "velocity": 0.7165354330708661
          },
          {
            "type": "noteOff",
            "timeMs": 103362.41718749962,
            "noteNumber": 39,
            "velocity": 0
          },
          {
            "type": "noteOn",
            "timeMs": 103473.64499999963,
            "noteNumber": 41,
            "velocity": 0.7165354330708661
          },
          {
            "type": "noteOff",
            "timeMs": 103616.65218749963,
            "noteNumber": 41,
            "velocity": 0
          },
          {
            "type": "noteOn",
            "timeMs": 103727.87999999963,
            "noteNumber": 25,
            "velocity": 0.7165354330708661
          },
          {
            "type": "noteOff",
            "timeMs": 104114.52906249963,
            "noteNumber": 25,
            "velocity": 0
          },
          {
            "type": "noteOn",
            "timeMs": 104236.34999999963,
            "noteNumber": 37,
            "velocity": 0.7165354330708661
          },
          {
            "type": "noteOff",
            "timeMs": 104495.88156249964,
            "noteNumber": 37,
            "velocity": 0
          },
          {
            "type": "noteOn",
            "timeMs": 104871.93749999967,
            "noteNumber": 27,
            "velocity": 0.7165354330708661
          },
          {
            "type": "noteOff",
            "timeMs": 104972.57218749968,
            "noteNumber": 27,
            "velocity": 0
          },
          {
            "type": "noteOn",
            "timeMs": 104999.05499999969,
            "noteNumber": 39,
            "velocity": 0.7165354330708661
          },
          {
            "type": "noteOff",
            "timeMs": 105152.65531249969,
            "noteNumber": 39,
            "velocity": 0
          },
          {
            "type": "noteOn",
            "timeMs": 105253.2899999997,
            "noteNumber": 36,
            "velocity": 0.7165354330708661
          },
          {
            "type": "noteOff",
            "timeMs": 105417.4834374997,
            "noteNumber": 36,
            "velocity": 0
          },
          {
            "type": "noteOn",
            "timeMs": 105507.5249999997,
            "noteNumber": 39,
            "velocity": 0.7165354330708661
          },
          {
            "type": "noteOff",
            "timeMs": 105703.4978124997,
            "noteNumber": 39,
            "velocity": 0
          },
          {
            "type": "noteOn",
            "timeMs": 105761.7599999997,
            "noteNumber": 29,
            "velocity": 0.7165354330708661
          },
          {
            "type": "noteOff",
            "timeMs": 106185.48499999971,
            "noteNumber": 29,
            "velocity": 0
          },
          {
            "type": "noteOn",
            "timeMs": 106905.81749999971,
            "noteNumber": 44,
            "velocity": 0.7165354330708661
          },
          {
            "type": "noteOff",
            "timeMs": 106964.07968749972,
            "noteNumber": 44,
            "velocity": 0
          },
          {
            "type": "noteOn",
            "timeMs": 107032.93499999972,
            "noteNumber": 39,
            "velocity": 0.7165354330708661
          },
          {
            "type": "noteOff",
            "timeMs": 107165.34906249972,
            "noteNumber": 39,
            "velocity": 0
          },
          {
            "type": "noteOn",
            "timeMs": 107287.16999999972,
            "noteNumber": 41,
            "velocity": 0.7165354330708661
          },
          {
            "type": "noteOff",
            "timeMs": 107356.02531249973,
            "noteNumber": 41,
            "velocity": 0
          },
          {
            "type": "noteOn",
            "timeMs": 107541.40499999974,
            "noteNumber": 43,
            "velocity": 0.7165354330708661
          },
          {
            "type": "noteOff",
            "timeMs": 107620.85343749974,
            "noteNumber": 43,
            "velocity": 0
          },
          {
            "type": "noteOn",
            "timeMs": 107795.63999999974,
            "noteNumber": 44,
            "velocity": 0.7165354330708661
          },
          {
            "type": "noteOff",
            "timeMs": 107901.57124999976,
            "noteNumber": 44,
            "velocity": 0
          },
          {
            "type": "noteOn",
            "timeMs": 108939.6974999998,
            "noteNumber": 44,
            "velocity": 0.7165354330708661
          },
          {
            "type": "noteOff",
            "timeMs": 108992.6631249998,
            "noteNumber": 44,
            "velocity": 0
          },
          {
            "type": "noteOn",
            "timeMs": 109066.81499999981,
            "noteNumber": 39,
            "velocity": 0.7165354330708661
          },
          {
            "type": "noteOff",
            "timeMs": 109225.7118749998,
            "noteNumber": 39,
            "velocity": 0
          },
          {
            "type": "noteOn",
            "timeMs": 109321.04999999981,
            "noteNumber": 44,
            "velocity": 0.7165354330708661
          },
          {
            "type": "noteOff",
            "timeMs": 109411.09156249982,
            "noteNumber": 44,
            "velocity": 0
          },
          {
            "type": "noteOn",
            "timeMs": 109575.28499999981,
            "noteNumber": 39,
            "velocity": 0.7165354330708661
          },
          {
            "type": "noteOff",
            "timeMs": 109702.40249999981,
            "noteNumber": 39,
            "velocity": 0
          },
          {
            "type": "noteOn",
            "timeMs": 109829.5199999998,
            "noteNumber": 41,
            "velocity": 0.7165354330708661
          },
          {
            "type": "noteOff",
            "timeMs": 109924.85812499981,
            "noteNumber": 41,
            "velocity": 0
          },
          {
            "type": "noteOn",
            "timeMs": 110973.57749999981,
            "noteNumber": 41,
            "velocity": 0.7165354330708661
          },
          {
            "type": "noteOff",
            "timeMs": 111042.43281249981,
            "noteNumber": 41,
            "velocity": 0
          },
          {
            "type": "noteOn",
            "timeMs": 111100.69499999983,
            "noteNumber": 39,
            "velocity": 0.7165354330708661
          },
          {
            "type": "noteOff",
            "timeMs": 111211.92281249983,
            "noteNumber": 39,
            "velocity": 0
          },
          {
            "type": "noteOn",
            "timeMs": 111354.92999999986,
            "noteNumber": 41,
            "velocity": 0.7165354330708661
          },
          {
            "type": "noteOff",
            "timeMs": 111439.67499999987,
            "noteNumber": 41,
            "velocity": 0
          },
          {
            "type": "noteOn",
            "timeMs": 111609.16499999989,
            "noteNumber": 39,
            "velocity": 0.7165354330708661
          },
          {
            "type": "noteOff",
            "timeMs": 111730.98593749989,
            "noteNumber": 39,
            "velocity": 0
          },
          {
            "type": "noteOn",
            "timeMs": 111863.3999999999,
            "noteNumber": 42,
            "velocity": 0.7165354330708661
          },
          {
            "type": "noteOff",
            "timeMs": 111969.33124999992,
            "noteNumber": 42,
            "velocity": 0
          },
          {
            "type": "noteOn",
            "timeMs": 113134.57499999992,
            "noteNumber": 39,
            "velocity": 0.7165354330708661
          },
          {
            "type": "noteOn",
            "timeMs": 113134.57499999992,
            "noteNumber": 42,
            "velocity": 0.7165354330708661
          },
          {
            "type": "noteOff",
            "timeMs": 113208.72687499992,
            "noteNumber": 42,
            "velocity": 0
          },
          {
            "type": "noteOff",
            "timeMs": 113245.80281249993,
            "noteNumber": 39,
            "velocity": 0
          },
          {
            "type": "noteOn",
            "timeMs": 113388.80999999995,
            "noteNumber": 42,
            "velocity": 0.7165354330708661
          },
          {
            "type": "noteOff",
            "timeMs": 113473.55499999998,
            "noteNumber": 42,
            "velocity": 0
          },
          {
            "type": "noteOn",
            "timeMs": 113643.04499999998,
            "noteNumber": 44,
            "velocity": 0.7165354330708661
          },
          {
            "type": "noteOff",
            "timeMs": 113717.196875,
            "noteNumber": 44,
            "velocity": 0
          },
          {
            "type": "noteOn",
            "timeMs": 113897.28000000001,
            "noteNumber": 39,
            "velocity": 0.7165354330708661
          },
          {
            "type": "noteOff",
            "timeMs": 114045.58375,
            "noteNumber": 39,
            "velocity": 0
          },
          {
            "type": "noteOn",
            "timeMs": 115041.33750000002,
            "noteNumber": 44,
            "velocity": 0.7165354330708661
          },
          {
            "type": "noteOff",
            "timeMs": 115104.89625000003,
            "noteNumber": 44,
            "velocity": 0
          },
          {
            "type": "noteOn",
            "timeMs": 115168.45500000005,
            "noteNumber": 39,
            "velocity": 0.7165354330708661
          },
          {
            "type": "noteOff",
            "timeMs": 115279.68281250006,
            "noteNumber": 39,
            "velocity": 0
          },
          {
            "type": "noteOn",
            "timeMs": 115422.69000000008,
            "noteNumber": 41,
            "velocity": 0.7165354330708661
          },
          {
            "type": "noteOff",
            "timeMs": 115491.5453125001,
            "noteNumber": 41,
            "velocity": 0
          },
          {
            "type": "noteOn",
            "timeMs": 115676.92500000009,
            "noteNumber": 43,
            "velocity": 0.7165354330708661
          },
          {
            "type": "noteOff",
            "timeMs": 115745.7803125001,
            "noteNumber": 43,
            "velocity": 0
          },
          {
            "type": "noteOn",
            "timeMs": 115931.1600000001,
            "noteNumber": 44,
            "velocity": 0.7165354330708661
          },
          {
            "type": "noteOff",
            "timeMs": 116010.60843750011,
            "noteNumber": 44,
            "velocity": 0
          },
          {
            "type": "noteOn",
            "timeMs": 117075.2175000002,
            "noteNumber": 44,
            "velocity": 0.7165354330708661
          },
          {
            "type": "noteOff",
            "timeMs": 117138.7762500002,
            "noteNumber": 44,
            "velocity": 0
          },
          {
            "type": "noteOn",
            "timeMs": 117202.33500000021,
            "noteNumber": 39,
            "velocity": 0.7165354330708661
          },
          {
            "type": "noteOff",
            "timeMs": 117313.56281250021,
            "noteNumber": 39,
            "velocity": 0
          },
          {
            "type": "noteOn",
            "timeMs": 117456.57000000024,
            "noteNumber": 44,
            "velocity": 0.7165354330708661
          },
          {
            "type": "noteOff",
            "timeMs": 117536.01843750024,
            "noteNumber": 44,
            "velocity": 0
          },
          {
            "type": "noteOn",
            "timeMs": 117710.80500000027,
            "noteNumber": 39,
            "velocity": 0.7165354330708661
          },
          {
            "type": "noteOff",
            "timeMs": 117806.14312500028,
            "noteNumber": 39,
            "velocity": 0
          },
          {
            "type": "noteOn",
            "timeMs": 117965.04000000027,
            "noteNumber": 41,
            "velocity": 0.7165354330708661
          },
          {
            "type": "noteOff",
            "timeMs": 118039.19187500027,
            "noteNumber": 41,
            "velocity": 0
          },
          {
            "type": "noteOn",
            "timeMs": 119109.09750000032,
            "noteNumber": 41,
            "velocity": 0.7165354330708661
          },
          {
            "type": "noteOff",
            "timeMs": 119172.65625000032,
            "noteNumber": 41,
            "velocity": 0
          },
          {
            "type": "noteOn",
            "timeMs": 119236.21500000035,
            "noteNumber": 39,
            "velocity": 0.7165354330708661
          },
          {
            "type": "noteOff",
            "timeMs": 119342.14625000034,
            "noteNumber": 39,
            "velocity": 0
          },
          {
            "type": "noteOn",
            "timeMs": 119490.45000000038,
            "noteNumber": 41,
            "velocity": 0.7165354330708661
          },
          {
            "type": "noteOff",
            "timeMs": 119559.3053125004,
            "noteNumber": 41,
            "velocity": 0
          },
          {
            "type": "noteOn",
            "timeMs": 119744.68500000042,
            "noteNumber": 39,
            "velocity": 0.7165354330708661
          },
          {
            "type": "noteOff",
            "timeMs": 119850.61625000043,
            "noteNumber": 39,
            "velocity": 0
          },
          {
            "type": "noteOn",
            "timeMs": 119998.92000000043,
            "noteNumber": 42,
            "velocity": 0.7165354330708661
          },
          {
            "type": "noteOff",
            "timeMs": 120083.66500000043,
            "noteNumber": 42,
            "velocity": 0
          },
          {
            "type": "noteOn",
            "timeMs": 121142.97750000049,
            "noteNumber": 42,
            "velocity": 0.7165354330708661
          },
          {
            "type": "noteOff",
            "timeMs": 121211.83281250049,
            "noteNumber": 42,
            "velocity": 0
          },
          {
            "type": "noteOn",
            "timeMs": 121270.09500000051,
            "noteNumber": 39,
            "velocity": 0.7165354330708661
          },
          {
            "type": "noteOff",
            "timeMs": 121370.72968750051,
            "noteNumber": 39,
            "velocity": 0
          },
          {
            "type": "noteOn",
            "timeMs": 121524.33000000054,
            "noteNumber": 42,
            "velocity": 0.7165354330708661
          },
          {
            "type": "noteOff",
            "timeMs": 121587.88875000054,
            "noteNumber": 42,
            "velocity": 0
          },
          {
            "type": "noteOn",
            "timeMs": 121778.56500000057,
            "noteNumber": 44,
            "velocity": 0.7165354330708661
          },
          {
            "type": "noteOff",
            "timeMs": 121842.12375000057,
            "noteNumber": 44,
            "velocity": 0
          },
          {
            "type": "noteOn",
            "timeMs": 122032.80000000057,
            "noteNumber": 39,
            "velocity": 0.7165354330708661
          },
          {
            "type": "noteOff",
            "timeMs": 122128.1381250006,
            "noteNumber": 39,
            "velocity": 0
          },
          {
            "type": "noteOn",
            "timeMs": 123176.85750000064,
            "noteNumber": 44,
            "velocity": 0.7165354330708661
          },
          {
            "type": "noteOff",
            "timeMs": 123240.41625000065,
            "noteNumber": 44,
            "velocity": 0
          },
          {
            "type": "noteOn",
            "timeMs": 123303.97500000066,
            "noteNumber": 39,
            "velocity": 0.7165354330708661
          },
          {
            "type": "noteOff",
            "timeMs": 123415.20281250066,
            "noteNumber": 39,
            "velocity": 0
          },
          {
            "type": "noteOn",
            "timeMs": 123558.21000000069,
            "noteNumber": 41,
            "velocity": 0.7165354330708661
          },
          {
            "type": "noteOff",
            "timeMs": 123632.3618750007,
            "noteNumber": 41,
            "velocity": 0
          },
          {
            "type": "noteOn",
            "timeMs": 123812.44500000072,
            "noteNumber": 43,
            "velocity": 0.7165354330708661
          },
          {
            "type": "noteOff",
            "timeMs": 123881.30031250072,
            "noteNumber": 43,
            "velocity": 0
          },
          {
            "type": "noteOn",
            "timeMs": 124066.68000000072,
            "noteNumber": 44,
            "velocity": 0.7165354330708661
          },
          {
            "type": "noteOff",
            "timeMs": 124140.83187500073,
            "noteNumber": 44,
            "velocity": 0
          },
          {
            "type": "noteOn",
            "timeMs": 125210.7375000008,
            "noteNumber": 44,
            "velocity": 0.7165354330708661
          },
          {
            "type": "noteOff",
            "timeMs": 125290.18593750082,
            "noteNumber": 44,
            "velocity": 0
          },
          {
            "type": "noteOn",
            "timeMs": 125337.85500000083,
            "noteNumber": 39,
            "velocity": 0.7165354330708661
          },
          {
            "type": "noteOff",
            "timeMs": 125449.08281250083,
            "noteNumber": 39,
            "velocity": 0
          },
          {
            "type": "noteOn",
            "timeMs": 125592.09000000086,
            "noteNumber": 44,
            "velocity": 0.7165354330708661
          },
          {
            "type": "noteOff",
            "timeMs": 125687.42812500085,
            "noteNumber": 44,
            "velocity": 0
          },
          {
            "type": "noteOn",
            "timeMs": 125846.32500000087,
            "noteNumber": 39,
            "velocity": 0.7165354330708661
          },
          {
            "type": "noteOff",
            "timeMs": 125978.73906250088,
            "noteNumber": 39,
            "velocity": 0
          },
          {
            "type": "noteOn",
            "timeMs": 126100.56000000089,
            "noteNumber": 41,
            "velocity": 0.7165354330708661
          },
          {
            "type": "noteOff",
            "timeMs": 126217.0843750009,
            "noteNumber": 41,
            "velocity": 0
          },
          {
            "type": "noteOn",
            "timeMs": 127244.61750000095,
            "noteNumber": 41,
            "velocity": 0.7165354330708661
          },
          {
            "type": "noteOff",
            "timeMs": 127313.47281250096,
            "noteNumber": 41,
            "velocity": 0
          },
          {
            "type": "noteOn",
            "timeMs": 127371.73500000098,
            "noteNumber": 39,
            "velocity": 0.7165354330708661
          },
          {
            "type": "noteOff",
            "timeMs": 127472.36968750098,
            "noteNumber": 39,
            "velocity": 0
          },
          {
            "type": "noteOn",
            "timeMs": 127625.970000001,
            "noteNumber": 41,
            "velocity": 0.7165354330708661
          },
          {
            "type": "noteOff",
            "timeMs": 127721.30812500101,
            "noteNumber": 41,
            "velocity": 0
          },
          {
            "type": "noteOn",
            "timeMs": 127880.20500000103,
            "noteNumber": 39,
            "velocity": 0.7165354330708661
          },
          {
            "type": "noteOff",
            "timeMs": 128039.10187500106,
            "noteNumber": 39,
            "velocity": 0
          },
          {
            "type": "noteOn",
            "timeMs": 128134.44000000106,
            "noteNumber": 42,
            "velocity": 0.7165354330708661
          },
          {
            "type": "noteOff",
            "timeMs": 128256.26093750108,
            "noteNumber": 42,
            "velocity": 0
          },
          {
            "type": "noteOn",
            "timeMs": 129278.49750000118,
            "noteNumber": 42,
            "velocity": 0.7165354330708661
          },
          {
            "type": "noteOff",
            "timeMs": 129352.64937500119,
            "noteNumber": 42,
            "velocity": 0
          },
          {
            "type": "noteOn",
            "timeMs": 129405.61500000118,
            "noteNumber": 39,
            "velocity": 0.7165354330708661
          },
          {
            "type": "noteOff",
            "timeMs": 129522.13937500118,
            "noteNumber": 39,
            "velocity": 0
          },
          {
            "type": "noteOn",
            "timeMs": 129659.85000000118,
            "noteNumber": 42,
            "velocity": 0.7165354330708661
          },
          {
            "type": "noteOff",
            "timeMs": 129734.0018750012,
            "noteNumber": 42,
            "velocity": 0
          },
          {
            "type": "noteOn",
            "timeMs": 129914.08500000121,
            "noteNumber": 44,
            "velocity": 0.7165354330708661
          },
          {
            "type": "noteOff",
            "timeMs": 129993.53343750122,
            "noteNumber": 44,
            "velocity": 0
          },
          {
            "type": "noteOn",
            "timeMs": 130168.32000000123,
            "noteNumber": 39,
            "velocity": 0.7165354330708661
          },
          {
            "type": "noteOff",
            "timeMs": 130316.62375000124,
            "noteNumber": 39,
            "velocity": 0
          },
          {
            "type": "noteOn",
            "timeMs": 131312.3775000013,
            "noteNumber": 44,
            "velocity": 0.7165354330708661
          },
          {
            "type": "noteOff",
            "timeMs": 131375.9362500013,
            "noteNumber": 44,
            "velocity": 0
          },
          {
            "type": "noteOn",
            "timeMs": 131439.49500000133,
            "noteNumber": 39,
            "velocity": 0.7165354330708661
          },
          {
            "type": "noteOff",
            "timeMs": 131566.6125000013,
            "noteNumber": 39,
            "velocity": 0
          },
          {
            "type": "noteOn",
            "timeMs": 131693.7300000013,
            "noteNumber": 41,
            "velocity": 0.7165354330708661
          },
          {
            "type": "noteOff",
            "timeMs": 131762.5853125013,
            "noteNumber": 41,
            "velocity": 0
          },
          {
            "type": "noteOn",
            "timeMs": 131947.9650000013,
            "noteNumber": 43,
            "velocity": 0.7165354330708661
          },
          {
            "type": "noteOff",
            "timeMs": 132016.8203125013,
            "noteNumber": 43,
            "velocity": 0
          },
          {
            "type": "noteOn",
            "timeMs": 132202.20000000132,
            "noteNumber": 44,
            "velocity": 0.7165354330708661
          },
          {
            "type": "noteOff",
            "timeMs": 132276.35187500133,
            "noteNumber": 44,
            "velocity": 0
          },
          {
            "type": "noteOn",
            "timeMs": 133346.25750000146,
            "noteNumber": 44,
            "velocity": 0.7165354330708661
          },
          {
            "type": "noteOff",
            "timeMs": 133415.11281250147,
            "noteNumber": 44,
            "velocity": 0
          },
          {
            "type": "noteOn",
            "timeMs": 133473.37500000148,
            "noteNumber": 39,
            "velocity": 0.7165354330708661
          },
          {
            "type": "noteOff",
            "timeMs": 133579.30625000148,
            "noteNumber": 39,
            "velocity": 0
          },
          {
            "type": "noteOn",
            "timeMs": 133727.61000000153,
            "noteNumber": 44,
            "velocity": 0.7165354330708661
          },
          {
            "type": "noteOff",
            "timeMs": 133796.46531250156,
            "noteNumber": 44,
            "velocity": 0
          },
          {
            "type": "noteOn",
            "timeMs": 133981.8450000016,
            "noteNumber": 39,
            "velocity": 0.7165354330708661
          },
          {
            "type": "noteOff",
            "timeMs": 134066.59000000163,
            "noteNumber": 39,
            "velocity": 0
          },
          {
            "type": "noteOn",
            "timeMs": 134236.08000000165,
            "noteNumber": 41,
            "velocity": 0.7165354330708661
          },
          {
            "type": "noteOff",
            "timeMs": 134315.52843750163,
            "noteNumber": 41,
            "velocity": 0
          },
          {
            "type": "noteOn",
            "timeMs": 135380.13750000176,
            "noteNumber": 41,
            "velocity": 0.7165354330708661
          },
          {
            "type": "noteOff",
            "timeMs": 135454.28937500177,
            "noteNumber": 41,
            "velocity": 0
          },
          {
            "type": "noteOn",
            "timeMs": 135507.25500000178,
            "noteNumber": 39,
            "velocity": 0.7165354330708661
          },
          {
            "type": "noteOff",
            "timeMs": 135623.77937500182,
            "noteNumber": 39,
            "velocity": 0
          },
          {
            "type": "noteOn",
            "timeMs": 135761.49000000185,
            "noteNumber": 41,
            "velocity": 0.7165354330708661
          },
          {
            "type": "noteOff",
            "timeMs": 135840.93843750187,
            "noteNumber": 41,
            "velocity": 0
          },
          {
            "type": "noteOn",
            "timeMs": 136015.7250000019,
            "noteNumber": 39,
            "velocity": 0.7165354330708661
          },
          {
            "type": "noteOff",
            "timeMs": 136116.3596875019,
            "noteNumber": 39,
            "velocity": 0
          },
          {
            "type": "noteOn",
            "timeMs": 136269.9600000019,
            "noteNumber": 42,
            "velocity": 0.7165354330708661
          },
          {
            "type": "noteOff",
            "timeMs": 136354.70500000194,
            "noteNumber": 42,
            "velocity": 0
          },
          {
            "type": "noteOn",
            "timeMs": 137414.01750000208,
            "noteNumber": 42,
            "velocity": 0.7165354330708661
          },
          {
            "type": "noteOff",
            "timeMs": 137482.8728125021,
            "noteNumber": 42,
            "velocity": 0
          },
          {
            "type": "noteOn",
            "timeMs": 137541.13500000213,
            "noteNumber": 39,
            "velocity": 0.7165354330708661
          },
          {
            "type": "noteOff",
            "timeMs": 137673.54906250216,
            "noteNumber": 39,
            "velocity": 0
          },
          {
            "type": "noteOn",
            "timeMs": 137795.3700000022,
            "noteNumber": 42,
            "velocity": 0.7165354330708661
          },
          {
            "type": "noteOff",
            "timeMs": 137858.9287500022,
            "noteNumber": 42,
            "velocity": 0
          },
          {
            "type": "noteOn",
            "timeMs": 138049.6050000022,
            "noteNumber": 44,
            "velocity": 0.7165354330708661
          },
          {
            "type": "noteOff",
            "timeMs": 138107.86718750218,
            "noteNumber": 44,
            "velocity": 0
          },
          {
            "type": "noteOn",
            "timeMs": 138303.84000000218,
            "noteNumber": 39,
            "velocity": 0.7165354330708661
          },
          {
            "type": "noteOff",
            "timeMs": 138420.36437500222,
            "noteNumber": 39,
            "velocity": 0
          },
          {
            "type": "noteOn",
            "timeMs": 138685.19250000225,
            "noteNumber": 39,
            "velocity": 0.7165354330708661
          },
          {
            "type": "noteOff",
            "timeMs": 138807.01343750226,
            "noteNumber": 39,
            "velocity": 0
          },
          {
            "type": "noteOn",
            "timeMs": 139066.54500000225,
            "noteNumber": 39,
            "velocity": 0.7165354330708661
          },
          {
            "type": "noteOff",
            "timeMs": 139214.84875000227,
            "noteNumber": 39,
            "velocity": 0
          },
          {
            "type": "noteOn",
            "timeMs": 140337.7200000024,
            "noteNumber": 39,
            "velocity": 0.7165354330708661
          },
          {
            "type": "noteOff",
            "timeMs": 140454.24437500242,
            "noteNumber": 39,
            "velocity": 0
          },
          {
            "type": "noteOn",
            "timeMs": 140719.07250000242,
            "noteNumber": 39,
            "velocity": 0.7165354330708661
          },
          {
            "type": "noteOff",
            "timeMs": 140825.00375000245,
            "noteNumber": 39,
            "velocity": 0
          },
          {
            "type": "noteOn",
            "timeMs": 141100.42500000246,
            "noteNumber": 39,
            "velocity": 0.7165354330708661
          },
          {
            "type": "noteOff",
            "timeMs": 141222.2459375025,
            "noteNumber": 39,
            "velocity": 0
          },
          {
            "type": "noteOn",
            "timeMs": 142371.6000000026,
            "noteNumber": 29,
            "velocity": 0.7165354330708661
          },
          {
            "type": "noteOff",
            "timeMs": 142758.24906250264,
            "noteNumber": 29,
            "velocity": 0
          },
          {
            "type": "noteOn",
            "timeMs": 142880.07000000263,
            "noteNumber": 41,
            "velocity": 0.7165354330708661
          },
          {
            "type": "noteOff",
            "timeMs": 143102.52562500266,
            "noteNumber": 41,
            "velocity": 0
          },
          {
            "type": "noteOn",
            "timeMs": 143261.42250000266,
            "noteNumber": 39,
            "velocity": 0.7165354330708661
          },
          {
            "type": "noteOff",
            "timeMs": 143388.5400000027,
            "noteNumber": 39,
            "velocity": 0
          },
          {
            "type": "noteOn",
            "timeMs": 143515.6575000027,
            "noteNumber": 51,
            "velocity": 0.7165354330708661
          },
          {
            "type": "noteOff",
            "timeMs": 143563.3265625027,
            "noteNumber": 51,
            "velocity": 0
          },
          {
            "type": "noteOn",
            "timeMs": 143642.77500000273,
            "noteNumber": 24,
            "velocity": 0.7165354330708661
          },
          {
            "type": "noteOff",
            "timeMs": 143801.67187500276,
            "noteNumber": 24,
            "velocity": 0
          },
          {
            "type": "noteOn",
            "timeMs": 143897.01000000283,
            "noteNumber": 36,
            "velocity": 0.7165354330708661
          },
          {
            "type": "noteOff",
            "timeMs": 144040.01718750282,
            "noteNumber": 36,
            "velocity": 0
          },
          {
            "type": "noteOn",
            "timeMs": 144151.24500000285,
            "noteNumber": 39,
            "velocity": 0.7165354330708661
          },
          {
            "type": "noteOff",
            "timeMs": 144262.47281250288,
            "noteNumber": 39,
            "velocity": 0
          },
          {
            "type": "noteOn",
            "timeMs": 144405.48000000286,
            "noteNumber": 29,
            "velocity": 0.7165354330708661
          },
          {
            "type": "noteOff",
            "timeMs": 144749.75656250285,
            "noteNumber": 29,
            "velocity": 0
          },
          {
            "type": "noteOn",
            "timeMs": 144913.95000000283,
            "noteNumber": 41,
            "velocity": 0.7165354330708661
          },
          {
            "type": "noteOff",
            "timeMs": 145072.84687500287,
            "noteNumber": 41,
            "velocity": 0
          },
          {
            "type": "noteOn",
            "timeMs": 145549.53750000292,
            "noteNumber": 29,
            "velocity": 0.7165354330708661
          },
          {
            "type": "noteOff",
            "timeMs": 145666.06187500295,
            "noteNumber": 29,
            "velocity": 0
          },
          {
            "type": "noteOn",
            "timeMs": 145676.65500000297,
            "noteNumber": 36,
            "velocity": 0.7165354330708661
          },
          {
            "type": "noteOff",
            "timeMs": 145819.66218750298,
            "noteNumber": 36,
            "velocity": 0
          },
          {
            "type": "noteOn",
            "timeMs": 145930.890000003,
            "noteNumber": 39,
            "velocity": 0.7165354330708661
          },
          {
            "type": "noteOff",
            "timeMs": 146073.89718750303,
            "noteNumber": 39,
            "velocity": 0
          },
          {
            "type": "noteOn",
            "timeMs": 146185.12500000303,
            "noteNumber": 41,
            "velocity": 0.7165354330708661
          },
          {
            "type": "noteOff",
            "timeMs": 146328.132187503,
            "noteNumber": 41,
            "velocity": 0
          },
          {
            "type": "noteOn",
            "timeMs": 146439.36000000304,
            "noteNumber": 25,
            "velocity": 0.7165354330708661
          },
          {
            "type": "noteOff",
            "timeMs": 146826.00906250312,
            "noteNumber": 25,
            "velocity": 0
          },
          {
            "type": "noteOn",
            "timeMs": 146947.8300000031,
            "noteNumber": 37,
            "velocity": 0.7165354330708661
          },
          {
            "type": "noteOff",
            "timeMs": 147207.36156250315,
            "noteNumber": 37,
            "velocity": 0
          },
          {
            "type": "noteOn",
            "timeMs": 147583.41750000318,
            "noteNumber": 27,
            "velocity": 0.7165354330708661
          },
          {
            "type": "noteOff",
            "timeMs": 147684.0521875032,
            "noteNumber": 27,
            "velocity": 0
          },
          {
            "type": "noteOn",
            "timeMs": 147710.5350000032,
            "noteNumber": 39,
            "velocity": 0.7165354330708661
          },
          {
            "type": "noteOff",
            "timeMs": 147864.13531250323,
            "noteNumber": 39,
            "velocity": 0
          },
          {
            "type": "noteOn",
            "timeMs": 147964.77000000328,
            "noteNumber": 36,
            "velocity": 0.7165354330708661
          },
          {
            "type": "noteOff",
            "timeMs": 148128.96343750326,
            "noteNumber": 36,
            "velocity": 0
          },
          {
            "type": "noteOn",
            "timeMs": 148219.00500000332,
            "noteNumber": 39,
            "velocity": 0.7165354330708661
          },
          {
            "type": "noteOff",
            "timeMs": 148414.97781250338,
            "noteNumber": 39,
            "velocity": 0
          },
          {
            "type": "noteOn",
            "timeMs": 148473.2400000034,
            "noteNumber": 29,
            "velocity": 0.7165354330708661
          },
          {
            "type": "noteOff",
            "timeMs": 148896.96500000346,
            "noteNumber": 29,
            "velocity": 0
          },
          {
            "type": "noteOn",
            "timeMs": 149617.29750000354,
            "noteNumber": 39,
            "velocity": 0.7165354330708661
          },
          {
            "type": "noteOff",
            "timeMs": 149702.04250000353,
            "noteNumber": 39,
            "velocity": 0
          },
          {
            "type": "noteOn",
            "timeMs": 149744.41500000353,
            "noteNumber": 36,
            "velocity": 0.7165354330708661
          },
          {
            "type": "noteOff",
            "timeMs": 149871.53250000355,
            "noteNumber": 36,
            "velocity": 0
          },
          {
            "type": "noteOn",
            "timeMs": 149998.65000000357,
            "noteNumber": 34,
            "velocity": 0.7165354330708661
          },
          {
            "type": "noteOff",
            "timeMs": 150157.54687500358,
            "noteNumber": 34,
            "velocity": 0
          },
          {
            "type": "noteOn",
            "timeMs": 150252.8850000036,
            "noteNumber": 32,
            "velocity": 0.7165354330708661
          },
          {
            "type": "noteOff",
            "timeMs": 150406.4853125036,
            "noteNumber": 32,
            "velocity": 0
          },
          {
            "type": "noteOn",
            "timeMs": 150507.12000000358,
            "noteNumber": 29,
            "velocity": 0.7165354330708661
          },
          {
            "type": "noteOff",
            "timeMs": 150893.76906250365,
            "noteNumber": 29,
            "velocity": 0
          },
          {
            "type": "noteOn",
            "timeMs": 151015.59000000363,
            "noteNumber": 41,
            "velocity": 0.7165354330708661
          },
          {
            "type": "noteOff",
            "timeMs": 151238.04562500367,
            "noteNumber": 41,
            "velocity": 0
          },
          {
            "type": "noteOn",
            "timeMs": 151396.9425000037,
            "noteNumber": 39,
            "velocity": 0.7165354330708661
          },
          {
            "type": "noteOff",
            "timeMs": 151524.0600000037,
            "noteNumber": 39,
            "velocity": 0
          },
          {
            "type": "noteOn",
            "timeMs": 151651.1775000037,
            "noteNumber": 51,
            "velocity": 0.7165354330708661
          },
          {
            "type": "noteOff",
            "timeMs": 151698.8465625037,
            "noteNumber": 51,
            "velocity": 0
          },
          {
            "type": "noteOn",
            "timeMs": 151778.2950000037,
            "noteNumber": 24,
            "velocity": 0.7165354330708661
          },
          {
            "type": "noteOff",
            "timeMs": 151937.19187500371,
            "noteNumber": 24,
            "velocity": 0
          },
          {
            "type": "noteOn",
            "timeMs": 152032.53000000375,
            "noteNumber": 36,
            "velocity": 0.7165354330708661
          },
          {
            "type": "noteOff",
            "timeMs": 152175.5371875038,
            "noteNumber": 36,
            "velocity": 0
          },
          {
            "type": "noteOn",
            "timeMs": 152286.7650000038,
            "noteNumber": 39,
            "velocity": 0.7165354330708661
          },
          {
            "type": "noteOff",
            "timeMs": 152397.99281250383,
            "noteNumber": 39,
            "velocity": 0
          },
          {
            "type": "noteOn",
            "timeMs": 152541.0000000038,
            "noteNumber": 29,
            "velocity": 0.7165354330708661
          },
          {
            "type": "noteOff",
            "timeMs": 152885.27656250383,
            "noteNumber": 29,
            "velocity": 0
          },
          {
            "type": "noteOn",
            "timeMs": 153049.4700000038,
            "noteNumber": 41,
            "velocity": 0.7165354330708661
          },
          {
            "type": "noteOff",
            "timeMs": 153208.36687500385,
            "noteNumber": 41,
            "velocity": 0
          },
          {
            "type": "noteOn",
            "timeMs": 153685.05750000387,
            "noteNumber": 29,
            "velocity": 0.7165354330708661
          },
          {
            "type": "noteOff",
            "timeMs": 153801.58187500387,
            "noteNumber": 29,
            "velocity": 0
          },
          {
            "type": "noteOn",
            "timeMs": 153812.1750000039,
            "noteNumber": 36,
            "velocity": 0.7165354330708661
          },
          {
            "type": "noteOff",
            "timeMs": 153955.18218750393,
            "noteNumber": 36,
            "velocity": 0
          },
          {
            "type": "noteOn",
            "timeMs": 154066.41000000396,
            "noteNumber": 39,
            "velocity": 0.7165354330708661
          },
          {
            "type": "noteOff",
            "timeMs": 154209.41718750395,
            "noteNumber": 39,
            "velocity": 0
          },
          {
            "type": "noteOn",
            "timeMs": 154320.64500000395,
            "noteNumber": 41,
            "velocity": 0.7165354330708661
          },
          {
            "type": "noteOff",
            "timeMs": 154463.65218750396,
            "noteNumber": 41,
            "velocity": 0
          },
          {
            "type": "noteOn",
            "timeMs": 154574.88000000396,
            "noteNumber": 25,
            "velocity": 0.7165354330708661
          },
          {
            "type": "noteOff",
            "timeMs": 154961.529062504,
            "noteNumber": 25,
            "velocity": 0
          },
          {
            "type": "noteOn",
            "timeMs": 155083.350000004,
            "noteNumber": 37,
            "velocity": 0.7165354330708661
          },
          {
            "type": "noteOff",
            "timeMs": 155342.88156250404,
            "noteNumber": 37,
            "velocity": 0
          },
          {
            "type": "noteOn",
            "timeMs": 155718.93750000405,
            "noteNumber": 27,
            "velocity": 0.7165354330708661
          },
          {
            "type": "noteOff",
            "timeMs": 155819.57218750406,
            "noteNumber": 27,
            "velocity": 0
          },
          {
            "type": "noteOn",
            "timeMs": 155846.05500000407,
            "noteNumber": 39,
            "velocity": 0.7165354330708661
          },
          {
            "type": "noteOff",
            "timeMs": 155999.6553125041,
            "noteNumber": 39,
            "velocity": 0
          },
          {
            "type": "noteOn",
            "timeMs": 156100.2900000041,
            "noteNumber": 36,
            "velocity": 0.7165354330708661
          },
          {
            "type": "noteOff",
            "timeMs": 156264.48343750412,
            "noteNumber": 36,
            "velocity": 0
          },
          {
            "type": "noteOn",
            "timeMs": 156354.52500000416,
            "noteNumber": 39,
            "velocity": 0.7165354330708661
          },
          {
            "type": "noteOff",
            "timeMs": 156550.49781250418,
            "noteNumber": 39,
            "velocity": 0
          },
          {
            "type": "noteOn",
            "timeMs": 156608.76000000417,
            "noteNumber": 29,
            "velocity": 0.7165354330708661
          },
          {
            "type": "noteOff",
            "timeMs": 157032.48500000426,
            "noteNumber": 29,
            "velocity": 0
          },
          {
            "type": "noteOn",
            "timeMs": 157752.81750000425,
            "noteNumber": 39,
            "velocity": 0.7165354330708661
          },
          {
            "type": "noteOff",
            "timeMs": 157837.56250000422,
            "noteNumber": 39,
            "velocity": 0
          },
          {
            "type": "noteOn",
            "timeMs": 157879.93500000422,
            "noteNumber": 36,
            "velocity": 0.7165354330708661
          },
          {
            "type": "noteOff",
            "timeMs": 158007.0525000042,
            "noteNumber": 36,
            "velocity": 0
          },
          {
            "type": "noteOn",
            "timeMs": 158134.1700000042,
            "noteNumber": 34,
            "velocity": 0.7165354330708661
          },
          {
            "type": "noteOff",
            "timeMs": 158293.06687500424,
            "noteNumber": 34,
            "velocity": 0
          },
          {
            "type": "noteOn",
            "timeMs": 158388.40500000428,
            "noteNumber": 32,
            "velocity": 0.7165354330708661
          },
          {
            "type": "noteOff",
            "timeMs": 158542.00531250428,
            "noteNumber": 32,
            "velocity": 0
          },
          {
            "type": "noteOn",
            "timeMs": 158642.64000000426,
            "noteNumber": 25,
            "velocity": 0.7165354330708661
          },
          {
            "type": "noteOff",
            "timeMs": 159029.2890625043,
            "noteNumber": 25,
            "velocity": 0
          },
          {
            "type": "noteOn",
            "timeMs": 159151.1100000043,
            "noteNumber": 37,
            "velocity": 0.7165354330708661
          },
          {
            "type": "noteOff",
            "timeMs": 159410.64156250432,
            "noteNumber": 37,
            "velocity": 0
          },
          {
            "type": "noteOn",
            "timeMs": 159786.69750000432,
            "noteNumber": 27,
            "velocity": 0.7165354330708661
          },
          {
            "type": "noteOff",
            "timeMs": 159887.3321875043,
            "noteNumber": 27,
            "velocity": 0
          },
          {
            "type": "noteOn",
            "timeMs": 159913.8150000043,
            "noteNumber": 39,
            "velocity": 0.7165354330708661
          },
          {
            "type": "noteOff",
            "timeMs": 160067.4153125043,
            "noteNumber": 39,
            "velocity": 0
          },
          {
            "type": "noteOn",
            "timeMs": 160168.05000000435,
            "noteNumber": 36,
            "velocity": 0.7165354330708661
          },
          {
            "type": "noteOff",
            "timeMs": 160332.24343750437,
            "noteNumber": 36,
            "velocity": 0
          },
          {
            "type": "noteOn",
            "timeMs": 160422.2850000044,
            "noteNumber": 39,
            "velocity": 0.7165354330708661
          },
          {
            "type": "noteOff",
            "timeMs": 160618.25781250442,
            "noteNumber": 39,
            "velocity": 0
          },
          {
            "type": "noteOn",
            "timeMs": 160676.5200000044,
            "noteNumber": 29,
            "velocity": 0.7165354330708661
          },
          {
            "type": "noteOff",
            "timeMs": 161100.2450000045,
            "noteNumber": 29,
            "velocity": 0
          },
          {
            "type": "noteOn",
            "timeMs": 161820.5775000045,
            "noteNumber": 39,
            "velocity": 0.7165354330708661
          },
          {
            "type": "noteOff",
            "timeMs": 161905.32250000446,
            "noteNumber": 39,
            "velocity": 0
          },
          {
            "type": "noteOn",
            "timeMs": 161947.69500000446,
            "noteNumber": 36,
            "velocity": 0.7165354330708661
          },
          {
            "type": "noteOff",
            "timeMs": 162074.81250000445,
            "noteNumber": 36,
            "velocity": 0
          },
          {
            "type": "noteOn",
            "timeMs": 162201.93000000445,
            "noteNumber": 34,
            "velocity": 0.7165354330708661
          },
          {
            "type": "noteOff",
            "timeMs": 162360.82687500448,
            "noteNumber": 34,
            "velocity": 0
          },
          {
            "type": "noteOn",
            "timeMs": 162456.16500000452,
            "noteNumber": 32,
            "velocity": 0.7165354330708661
          },
          {
            "type": "noteOff",
            "timeMs": 162609.76531250452,
            "noteNumber": 32,
            "velocity": 0
          },
          {
            "type": "noteOn",
            "timeMs": 162710.4000000045,
            "noteNumber": 29,
            "velocity": 0.7165354330708661
          },
          {
            "type": "noteOff",
            "timeMs": 163097.04906250452,
            "noteNumber": 29,
            "velocity": 0
          },
          {
            "type": "noteOn",
            "timeMs": 163218.8700000045,
            "noteNumber": 41,
            "velocity": 0.7165354330708661
          },
          {
            "type": "noteOff",
            "timeMs": 163441.3256250045,
            "noteNumber": 41,
            "velocity": 0
          },
          {
            "type": "noteOn",
            "timeMs": 163600.22250000454,
            "noteNumber": 39,
            "velocity": 0.7165354330708661
          },
          {
            "type": "noteOff",
            "timeMs": 163727.34000000454,
            "noteNumber": 39,
            "velocity": 0
          },
          {
            "type": "noteOn",
            "timeMs": 163854.45750000453,
            "noteNumber": 51,
            "velocity": 0.7165354330708661
          },
          {
            "type": "noteOff",
            "timeMs": 163902.12656250453,
            "noteNumber": 51,
            "velocity": 0
          },
          {
            "type": "noteOn",
            "timeMs": 163981.57500000452,
            "noteNumber": 24,
            "velocity": 0.7165354330708661
          },
          {
            "type": "noteOff",
            "timeMs": 164140.47187500453,
            "noteNumber": 24,
            "velocity": 0
          },
          {
            "type": "noteOn",
            "timeMs": 164235.81000000454,
            "noteNumber": 36,
            "velocity": 0.7165354330708661
          },
          {
            "type": "noteOff",
            "timeMs": 164378.81718750452,
            "noteNumber": 36,
            "velocity": 0
          },
          {
            "type": "noteOn",
            "timeMs": 164490.04500000452,
            "noteNumber": 39,
            "velocity": 0.7165354330708661
          },
          {
            "type": "noteOff",
            "timeMs": 164601.27281250453,
            "noteNumber": 39,
            "velocity": 0
          },
          {
            "type": "noteOn",
            "timeMs": 164744.28000000454,
            "noteNumber": 29,
            "velocity": 0.7165354330708661
          },
          {
            "type": "noteOff",
            "timeMs": 165088.55656250453,
            "noteNumber": 29,
            "velocity": 0
          },
          {
            "type": "noteOn",
            "timeMs": 165252.75000000454,
            "noteNumber": 41,
            "velocity": 0.7165354330708661
          },
          {
            "type": "noteOff",
            "timeMs": 165411.64687500455,
            "noteNumber": 41,
            "velocity": 0
          },
          {
            "type": "noteOn",
            "timeMs": 165888.33750000453,
            "noteNumber": 29,
            "velocity": 0.7165354330708661
          },
          {
            "type": "noteOff",
            "timeMs": 166004.86187500454,
            "noteNumber": 29,
            "velocity": 0
          },
          {
            "type": "noteOn",
            "timeMs": 166015.45500000456,
            "noteNumber": 36,
            "velocity": 0.7165354330708661
          },
          {
            "type": "noteOff",
            "timeMs": 166158.46218750454,
            "noteNumber": 36,
            "velocity": 0
          },
          {
            "type": "noteOn",
            "timeMs": 166269.69000000454,
            "noteNumber": 39,
            "velocity": 0.7165354330708661
          },
          {
            "type": "noteOff",
            "timeMs": 166412.69718750453,
            "noteNumber": 39,
            "velocity": 0
          },
          {
            "type": "noteOn",
            "timeMs": 166523.92500000453,
            "noteNumber": 41,
            "velocity": 0.7165354330708661
          },
          {
            "type": "noteOff",
            "timeMs": 166666.9321875045,
            "noteNumber": 41,
            "velocity": 0
          },
          {
            "type": "noteOn",
            "timeMs": 166778.16000000451,
            "noteNumber": 25,
            "velocity": 0.7165354330708661
          },
          {
            "type": "noteOff",
            "timeMs": 167164.80906250453,
            "noteNumber": 25,
            "velocity": 0
          },
          {
            "type": "noteOn",
            "timeMs": 167286.63000000454,
            "noteNumber": 37,
            "velocity": 0.7165354330708661
          },
          {
            "type": "noteOff",
            "timeMs": 167546.16156250454,
            "noteNumber": 37,
            "velocity": 0
          },
          {
            "type": "noteOn",
            "timeMs": 167922.21750000454,
            "noteNumber": 27,
            "velocity": 0.7165354330708661
          },
          {
            "type": "noteOff",
            "timeMs": 168022.85218750453,
            "noteNumber": 27,
            "velocity": 0
          },
          {
            "type": "noteOn",
            "timeMs": 168049.33500000453,
            "noteNumber": 39,
            "velocity": 0.7165354330708661
          },
          {
            "type": "noteOff",
            "timeMs": 168202.93531250453,
            "noteNumber": 39,
            "velocity": 0
          },
          {
            "type": "noteOn",
            "timeMs": 168303.57000000452,
            "noteNumber": 36,
            "velocity": 0.7165354330708661
          },
          {
            "type": "noteOff",
            "timeMs": 168467.7634375045,
            "noteNumber": 36,
            "velocity": 0
          },
          {
            "type": "noteOn",
            "timeMs": 168557.8050000045,
            "noteNumber": 39,
            "velocity": 0.7165354330708661
          },
          {
            "type": "noteOff",
            "timeMs": 168753.7778125045,
            "noteNumber": 39,
            "velocity": 0
          },
          {
            "type": "noteOn",
            "timeMs": 168812.0400000045,
            "noteNumber": 29,
            "velocity": 0.7165354330708661
          },
          {
            "type": "noteOff",
            "timeMs": 169235.76500000447,
            "noteNumber": 29,
            "velocity": 0
          },
          {
            "type": "noteOn",
            "timeMs": 169956.09750000443,
            "noteNumber": 39,
            "velocity": 0.7165354330708661
          },
          {
            "type": "noteOff",
            "timeMs": 170040.8425000044,
            "noteNumber": 39,
            "velocity": 0
          },
          {
            "type": "noteOn",
            "timeMs": 170083.2150000044,
            "noteNumber": 36,
            "velocity": 0.7165354330708661
          },
          {
            "type": "noteOff",
            "timeMs": 170210.33250000436,
            "noteNumber": 36,
            "velocity": 0
          },
          {
            "type": "noteOn",
            "timeMs": 170337.45000000435,
            "noteNumber": 34,
            "velocity": 0.7165354330708661
          },
          {
            "type": "noteOff",
            "timeMs": 170496.34687500435,
            "noteNumber": 34,
            "velocity": 0
          },
          {
            "type": "noteOn",
            "timeMs": 170591.68500000436,
            "noteNumber": 32,
            "velocity": 0.7165354330708661
          },
          {
            "type": "noteOff",
            "timeMs": 170745.28531250436,
            "noteNumber": 32,
            "velocity": 0
          },
          {
            "type": "noteOn",
            "timeMs": 170845.92000000435,
            "noteNumber": 29,
            "velocity": 0.7165354330708661
          },
          {
            "type": "noteOff",
            "timeMs": 171232.56906250436,
            "noteNumber": 29,
            "velocity": 0
          },
          {
            "type": "noteOn",
            "timeMs": 171354.39000000435,
            "noteNumber": 41,
            "velocity": 0.7165354330708661
          },
          {
            "type": "noteOff",
            "timeMs": 171576.84562500435,
            "noteNumber": 41,
            "velocity": 0
          },
          {
            "type": "noteOn",
            "timeMs": 171735.7425000044,
            "noteNumber": 39,
            "velocity": 0.7165354330708661
          },
          {
            "type": "noteOff",
            "timeMs": 171862.86000000438,
            "noteNumber": 39,
            "velocity": 0
          },
          {
            "type": "noteOn",
            "timeMs": 171989.97750000437,
            "noteNumber": 51,
            "velocity": 0.7165354330708661
          },
          {
            "type": "noteOff",
            "timeMs": 172037.64656250438,
            "noteNumber": 51,
            "velocity": 0
          },
          {
            "type": "noteOn",
            "timeMs": 172117.09500000437,
            "noteNumber": 24,
            "velocity": 0.7165354330708661
          },
          {
            "type": "noteOff",
            "timeMs": 172275.99187500437,
            "noteNumber": 24,
            "velocity": 0
          },
          {
            "type": "noteOn",
            "timeMs": 172371.33000000438,
            "noteNumber": 36,
            "velocity": 0.7165354330708661
          },
          {
            "type": "noteOff",
            "timeMs": 172514.33718750437,
            "noteNumber": 36,
            "velocity": 0
          },
          {
            "type": "noteOn",
            "timeMs": 172625.56500000437,
            "noteNumber": 39,
            "velocity": 0.7165354330708661
          },
          {
            "type": "noteOff",
            "timeMs": 172736.79281250437,
            "noteNumber": 39,
            "velocity": 0
          },
          {
            "type": "noteOn",
            "timeMs": 172879.80000000438,
            "noteNumber": 29,
            "velocity": 0.7165354330708661
          },
          {
            "type": "noteOff",
            "timeMs": 173224.07656250437,
            "noteNumber": 29,
            "velocity": 0
          },
          {
            "type": "noteOn",
            "timeMs": 173388.27000000438,
            "noteNumber": 41,
            "velocity": 0.7165354330708661
          },
          {
            "type": "noteOff",
            "timeMs": 173547.1668750044,
            "noteNumber": 41,
            "velocity": 0
          },
          {
            "type": "noteOn",
            "timeMs": 174023.85750000438,
            "noteNumber": 29,
            "velocity": 0.7165354330708661
          },
          {
            "type": "noteOff",
            "timeMs": 174140.3818750044,
            "noteNumber": 29,
            "velocity": 0
          },
          {
            "type": "noteOn",
            "timeMs": 174150.9750000044,
            "noteNumber": 36,
            "velocity": 0.7165354330708661
          },
          {
            "type": "noteOff",
            "timeMs": 174293.98218750439,
            "noteNumber": 36,
            "velocity": 0
          },
          {
            "type": "noteOn",
            "timeMs": 174405.2100000044,
            "noteNumber": 39,
            "velocity": 0.7165354330708661
          },
          {
            "type": "noteOff",
            "timeMs": 174548.21718750437,
            "noteNumber": 39,
            "velocity": 0
          },
          {
            "type": "noteOn",
            "timeMs": 174659.44500000437,
            "noteNumber": 41,
            "velocity": 0.7165354330708661
          },
          {
            "type": "noteOff",
            "timeMs": 174802.45218750436,
            "noteNumber": 41,
            "velocity": 0
          },
          {
            "type": "noteOn",
            "timeMs": 174913.68000000436,
            "noteNumber": 25,
            "velocity": 0.7165354330708661
          },
          {
            "type": "noteOff",
            "timeMs": 175300.32906250437,
            "noteNumber": 25,
            "velocity": 0
          },
          {
            "type": "noteOn",
            "timeMs": 175422.1500000044,
            "noteNumber": 37,
            "velocity": 0.7165354330708661
          },
          {
            "type": "noteOff",
            "timeMs": 175681.68156250438,
            "noteNumber": 37,
            "velocity": 0
          },
          {
            "type": "noteOn",
            "timeMs": 176057.73750000438,
            "noteNumber": 27,
            "velocity": 0.7165354330708661
          },
          {
            "type": "noteOff",
            "timeMs": 176158.37218750437,
            "noteNumber": 27,
            "velocity": 0
          },
          {
            "type": "noteOn",
            "timeMs": 176184.85500000438,
            "noteNumber": 39,
            "velocity": 0.7165354330708661
          },
          {
            "type": "noteOff",
            "timeMs": 176338.45531250437,
            "noteNumber": 39,
            "velocity": 0
          },
          {
            "type": "noteOn",
            "timeMs": 176439.09000000436,
            "noteNumber": 36,
            "velocity": 0.7165354330708661
          },
          {
            "type": "noteOff",
            "timeMs": 176603.28343750435,
            "noteNumber": 36,
            "velocity": 0
          },
          {
            "type": "noteOn",
            "timeMs": 176693.32500000435,
            "noteNumber": 39,
            "velocity": 0.7165354330708661
          },
          {
            "type": "noteOff",
            "timeMs": 176889.29781250434,
            "noteNumber": 39,
            "velocity": 0
          },
          {
            "type": "noteOn",
            "timeMs": 176947.56000000433,
            "noteNumber": 29,
            "velocity": 0.7165354330708661
          },
          {
            "type": "noteOff",
            "timeMs": 177371.2850000043,
            "noteNumber": 29,
            "velocity": 0
          },
          {
            "type": "noteOn",
            "timeMs": 178091.61750000427,
            "noteNumber": 39,
            "velocity": 0.7165354330708661
          },
          {
            "type": "noteOff",
            "timeMs": 178176.36250000424,
            "noteNumber": 39,
            "velocity": 0
          },
          {
            "type": "noteOn",
            "timeMs": 178218.73500000424,
            "noteNumber": 36,
            "velocity": 0.7165354330708661
          },
          {
            "type": "noteOff",
            "timeMs": 178345.85250000423,
            "noteNumber": 36,
            "velocity": 0
          },
          {
            "type": "noteOn",
            "timeMs": 178472.97000000422,
            "noteNumber": 34,
            "velocity": 0.7165354330708661
          },
          {
            "type": "noteOff",
            "timeMs": 178631.86687500423,
            "noteNumber": 34,
            "velocity": 0
          },
          {
            "type": "noteOn",
            "timeMs": 178727.20500000424,
            "noteNumber": 32,
            "velocity": 0.7165354330708661
          },
          {
            "type": "noteOff",
            "timeMs": 178880.80531250424,
            "noteNumber": 32,
            "velocity": 0
          }
        ]
      },
      "mix": {
        "volume": 0.8,
        "mute": false
      },
      "modules": [
        {
          "id": "import-1-track-1-channel-1:module-1",
          "type": "envelope",
          "x": 171,
          "y": 51,
          "params": {
            "attack": 0.0010280162981264735,
            "decay": 2.7039583641088436,
            "sustain": 0.21,
            "release": 0.15848931924611143
          }
        },
        {
          "id": "import-1-track-1-channel-1:module-2",
          "type": "oscillator",
          "x": 597,
          "y": 36,
          "params": {
            "frequency": 440,
            "amplitude": 0.5,
            "shape": 0.09,
            "dutyCycle": 0.13
          }
        }
      ],
      "connections": [
        {
          "id": "conn-1774446412317-x9qqk5",
          "from": {
            "moduleId": "keyboard-singleton",
            "outputId": "cv-out",
            "position": null
          },
          "to": {
            "moduleId": "import-1-track-1-channel-1:module-2",
            "outputId": "freq-input",
            "position": null
          }
        },
        {
          "id": "conn-1774446416122-vtxksw",
          "from": {
            "moduleId": "keyboard-singleton",
            "outputId": "gate-out",
            "position": null
          },
          "to": {
            "moduleId": "import-1-track-1-channel-1:module-1",
            "outputId": "gate-input",
            "position": null
          }
        },
        {
          "id": "conn-1774446418537-v9oflg",
          "from": {
            "moduleId": "import-1-track-1-channel-1:module-1",
            "outputId": "output",
            "position": null
          },
          "to": {
            "moduleId": "import-1-track-1-channel-1:module-2",
            "outputId": "amp-input",
            "position": null
          }
        },
        {
          "id": "conn-1774446420824-xen6wd",
          "from": {
            "moduleId": "import-1-track-1-channel-1:module-2",
            "outputId": "output",
            "position": null
          },
          "to": {
            "moduleId": "track-output-singleton",
            "outputId": "audio-input",
            "position": null
          }
        }
      ]
    },
    {
      "id": "import-1-track-6-channel-6",
      "name": "BANDNEON · Ch 7",
      "source": {
        "kind": "midi-import",
        "midiTrackIndex": 6,
        "channel": 6
      },
      "midi": {
        "noteSegments": [
          {
            "noteNumber": 81,
            "velocity": 0.7007874015748031,
            "startMs": 53135.11499999897,
            "endMs": 53193.37718749897
          },
          {
            "noteNumber": 84,
            "velocity": 0.7007874015748031,
            "startMs": 53135.11499999897,
            "endMs": 53188.08062499897
          },
          {
            "noteNumber": 89,
            "velocity": 0.7007874015748031,
            "startMs": 53135.11499999897,
            "endMs": 53188.08062499897
          },
          {
            "noteNumber": 81,
            "velocity": 0.7007874015748031,
            "startMs": 53389.34999999896,
            "endMs": 53468.798437498954
          },
          {
            "noteNumber": 84,
            "velocity": 0.7007874015748031,
            "startMs": 53389.34999999896,
            "endMs": 53442.315624998955
          },
          {
            "noteNumber": 89,
            "velocity": 0.7007874015748031,
            "startMs": 53389.34999999896,
            "endMs": 53452.908749998955
          },
          {
            "noteNumber": 81,
            "velocity": 0.7007874015748031,
            "startMs": 53643.584999998944,
            "endMs": 53696.55062499894
          },
          {
            "noteNumber": 84,
            "velocity": 0.7007874015748031,
            "startMs": 53643.584999998944,
            "endMs": 53696.55062499894
          },
          {
            "noteNumber": 89,
            "velocity": 0.7007874015748031,
            "startMs": 53643.584999998944,
            "endMs": 53707.14374999894
          },
          {
            "noteNumber": 79,
            "velocity": 0.7007874015748031,
            "startMs": 53770.70249999894,
            "endMs": 53818.371562498935
          },
          {
            "noteNumber": 82,
            "velocity": 0.7007874015748031,
            "startMs": 53770.70249999894,
            "endMs": 53813.074999998935
          },
          {
            "noteNumber": 87,
            "velocity": 0.7007874015748031,
            "startMs": 53770.70249999894,
            "endMs": 53839.55781249893
          },
          {
            "noteNumber": 79,
            "velocity": 0.7007874015748031,
            "startMs": 54024.93749999892,
            "endMs": 54067.30999999892
          },
          {
            "noteNumber": 82,
            "velocity": 0.7007874015748031,
            "startMs": 54024.93749999892,
            "endMs": 54077.90312499892
          },
          {
            "noteNumber": 87,
            "velocity": 0.7007874015748031,
            "startMs": 54024.93749999892,
            "endMs": 54072.60656249892
          },
          {
            "noteNumber": 79,
            "velocity": 0.7007874015748031,
            "startMs": 54279.17249999891,
            "endMs": 54332.138124998906
          },
          {
            "noteNumber": 82,
            "velocity": 0.7007874015748031,
            "startMs": 54279.17249999891,
            "endMs": 54321.54499999891
          },
          {
            "noteNumber": 87,
            "velocity": 0.7007874015748031,
            "startMs": 54279.17249999891,
            "endMs": 54342.731249998906
          },
          {
            "noteNumber": 77,
            "velocity": 0.7007874015748031,
            "startMs": 54406.2899999989,
            "endMs": 54459.2556249989
          },
          {
            "noteNumber": 82,
            "velocity": 0.7007874015748031,
            "startMs": 54406.2899999989,
            "endMs": 54459.2556249989
          },
          {
            "noteNumber": 86,
            "velocity": 0.7007874015748031,
            "startMs": 54406.2899999989,
            "endMs": 54464.5521874989
          },
          {
            "noteNumber": 77,
            "velocity": 0.7007874015748031,
            "startMs": 54660.52499999889,
            "endMs": 54729.380312498884
          },
          {
            "noteNumber": 82,
            "velocity": 0.7007874015748031,
            "startMs": 54660.52499999889,
            "endMs": 54739.973437498884
          },
          {
            "noteNumber": 86,
            "velocity": 0.7007874015748031,
            "startMs": 54660.52499999889,
            "endMs": 54734.676874998884
          },
          {
            "noteNumber": 77,
            "velocity": 0.7007874015748031,
            "startMs": 55168.99499999886,
            "endMs": 55221.96062499886
          },
          {
            "noteNumber": 81,
            "velocity": 0.7007874015748031,
            "startMs": 55168.99499999886,
            "endMs": 55216.66406249886
          },
          {
            "noteNumber": 84,
            "velocity": 0.7007874015748031,
            "startMs": 55168.99499999886,
            "endMs": 55221.96062499886
          },
          {
            "noteNumber": 77,
            "velocity": 0.7007874015748031,
            "startMs": 55423.229999998846,
            "endMs": 55465.602499998844
          },
          {
            "noteNumber": 81,
            "velocity": 0.7007874015748031,
            "startMs": 55423.229999998846,
            "endMs": 55470.899062498844
          },
          {
            "noteNumber": 84,
            "velocity": 0.7007874015748031,
            "startMs": 55423.229999998846,
            "endMs": 55481.49218749884
          },
          {
            "noteNumber": 77,
            "velocity": 0.7007874015748031,
            "startMs": 55677.46499999883,
            "endMs": 55714.54093749883
          },
          {
            "noteNumber": 81,
            "velocity": 0.7007874015748031,
            "startMs": 55677.46499999883,
            "endMs": 55730.43062499883
          },
          {
            "noteNumber": 84,
            "velocity": 0.7007874015748031,
            "startMs": 55677.46499999883,
            "endMs": 55741.02374999883
          },
          {
            "noteNumber": 79,
            "velocity": 0.7007874015748031,
            "startMs": 55804.582499998825,
            "endMs": 55868.14124999882
          },
          {
            "noteNumber": 82,
            "velocity": 0.7007874015748031,
            "startMs": 55804.582499998825,
            "endMs": 55852.25156249882
          },
          {
            "noteNumber": 87,
            "velocity": 0.7007874015748031,
            "startMs": 55804.582499998825,
            "endMs": 55868.14124999882
          },
          {
            "noteNumber": 79,
            "velocity": 0.7007874015748031,
            "startMs": 56058.81749999881,
            "endMs": 56111.78312499881
          },
          {
            "noteNumber": 82,
            "velocity": 0.7007874015748031,
            "startMs": 56058.81749999881,
            "endMs": 56095.89343749881
          },
          {
            "noteNumber": 87,
            "velocity": 0.7007874015748031,
            "startMs": 56058.81749999881,
            "endMs": 56106.48656249881
          },
          {
            "noteNumber": 79,
            "velocity": 0.7007874015748031,
            "startMs": 56185.934999998804,
            "endMs": 56249.4937499988
          },
          {
            "noteNumber": 82,
            "velocity": 0.7007874015748031,
            "startMs": 56185.934999998804,
            "endMs": 56265.3834374988
          },
          {
            "noteNumber": 86,
            "velocity": 0.7007874015748031,
            "startMs": 56185.934999998804,
            "endMs": 56270.6799999988
          },
          {
            "noteNumber": 77,
            "velocity": 0.7007874015748031,
            "startMs": 56440.16999999879,
            "endMs": 56493.13562499879
          },
          {
            "noteNumber": 81,
            "velocity": 0.7007874015748031,
            "startMs": 56440.16999999879,
            "endMs": 56498.43218749879
          },
          {
            "noteNumber": 84,
            "velocity": 0.7007874015748031,
            "startMs": 56440.16999999879,
            "endMs": 56530.211562498785
          },
          {
            "noteNumber": 73,
            "velocity": 0.7007874015748031,
            "startMs": 57202.87499999875,
            "endMs": 57255.840624998746
          },
          {
            "noteNumber": 77,
            "velocity": 0.7007874015748031,
            "startMs": 57202.87499999875,
            "endMs": 57255.840624998746
          },
          {
            "noteNumber": 80,
            "velocity": 0.7007874015748031,
            "startMs": 57202.87499999875,
            "endMs": 57266.433749998745
          },
          {
            "noteNumber": 73,
            "velocity": 0.7007874015748031,
            "startMs": 57457.109999998735,
            "endMs": 57515.37218749873
          },
          {
            "noteNumber": 77,
            "velocity": 0.7007874015748031,
            "startMs": 57457.109999998735,
            "endMs": 57510.07562499873
          },
          {
            "noteNumber": 80,
            "velocity": 0.7007874015748031,
            "startMs": 57457.109999998735,
            "endMs": 57525.96531249873
          },
          {
            "noteNumber": 73,
            "velocity": 0.7007874015748031,
            "startMs": 57711.34499999872,
            "endMs": 57753.71749999872
          },
          {
            "noteNumber": 77,
            "velocity": 0.7007874015748031,
            "startMs": 57711.34499999872,
            "endMs": 57764.31062499872
          },
          {
            "noteNumber": 80,
            "velocity": 0.7007874015748031,
            "startMs": 57711.34499999872,
            "endMs": 57764.31062499872
          },
          {
            "noteNumber": 73,
            "velocity": 0.7007874015748031,
            "startMs": 57965.57999999871,
            "endMs": 58007.952499998704
          },
          {
            "noteNumber": 77,
            "velocity": 0.7007874015748031,
            "startMs": 57965.57999999871,
            "endMs": 58013.249062498704
          },
          {
            "noteNumber": 80,
            "velocity": 0.7007874015748031,
            "startMs": 57965.57999999871,
            "endMs": 58029.1387499987
          },
          {
            "noteNumber": 75,
            "velocity": 0.7007874015748031,
            "startMs": 58092.6974999987,
            "endMs": 58135.0699999987
          },
          {
            "noteNumber": 79,
            "velocity": 0.7007874015748031,
            "startMs": 58092.6974999987,
            "endMs": 58124.4768749987
          },
          {
            "noteNumber": 82,
            "velocity": 0.7007874015748031,
            "startMs": 58092.6974999987,
            "endMs": 58150.9596874987
          },
          {
            "noteNumber": 75,
            "velocity": 0.7007874015748031,
            "startMs": 58346.932499998686,
            "endMs": 58405.19468749868
          },
          {
            "noteNumber": 79,
            "velocity": 0.7007874015748031,
            "startMs": 58346.932499998686,
            "endMs": 58394.60156249868
          },
          {
            "noteNumber": 82,
            "velocity": 0.7007874015748031,
            "startMs": 58346.932499998686,
            "endMs": 58405.19468749868
          },
          {
            "noteNumber": 75,
            "velocity": 0.7007874015748031,
            "startMs": 58601.16749999867,
            "endMs": 58648.83656249867
          },
          {
            "noteNumber": 79,
            "velocity": 0.7007874015748031,
            "startMs": 58601.16749999867,
            "endMs": 58654.13312499867
          },
          {
            "noteNumber": 82,
            "velocity": 0.7007874015748031,
            "startMs": 58601.16749999867,
            "endMs": 58659.42968749867
          },
          {
            "noteNumber": 75,
            "velocity": 0.7007874015748031,
            "startMs": 58855.40249999866,
            "endMs": 58897.774999998655
          },
          {
            "noteNumber": 79,
            "velocity": 0.7007874015748031,
            "startMs": 58855.40249999866,
            "endMs": 58908.368124998655
          },
          {
            "noteNumber": 82,
            "velocity": 0.7007874015748031,
            "startMs": 58855.40249999866,
            "endMs": 58903.071562498655
          },
          {
            "noteNumber": 75,
            "velocity": 0.7007874015748031,
            "startMs": 58982.51999999865,
            "endMs": 59024.89249999865
          },
          {
            "noteNumber": 79,
            "velocity": 0.7007874015748031,
            "startMs": 58982.51999999865,
            "endMs": 59030.18906249865
          },
          {
            "noteNumber": 82,
            "velocity": 0.7007874015748031,
            "startMs": 58982.51999999865,
            "endMs": 59035.48562499865
          },
          {
            "noteNumber": 77,
            "velocity": 0.7007874015748031,
            "startMs": 59236.75499999864,
            "endMs": 59289.72062499864
          },
          {
            "noteNumber": 81,
            "velocity": 0.7007874015748031,
            "startMs": 59236.75499999864,
            "endMs": 59300.31374999864
          },
          {
            "noteNumber": 84,
            "velocity": 0.7007874015748031,
            "startMs": 59236.75499999864,
            "endMs": 59300.31374999864
          },
          {
            "noteNumber": 77,
            "velocity": 0.7007874015748031,
            "startMs": 59490.98999999863,
            "endMs": 59533.362499998635
          },
          {
            "noteNumber": 81,
            "velocity": 0.7007874015748031,
            "startMs": 59490.98999999863,
            "endMs": 59549.252187498634
          },
          {
            "noteNumber": 84,
            "velocity": 0.7007874015748031,
            "startMs": 59490.98999999863,
            "endMs": 59554.548749998634
          },
          {
            "noteNumber": 77,
            "velocity": 0.7007874015748031,
            "startMs": 59745.22499999862,
            "endMs": 59808.78374999862
          },
          {
            "noteNumber": 81,
            "velocity": 0.7007874015748031,
            "startMs": 59745.22499999862,
            "endMs": 59808.78374999862
          },
          {
            "noteNumber": 84,
            "velocity": 0.7007874015748031,
            "startMs": 59745.22499999862,
            "endMs": 59808.78374999862
          },
          {
            "noteNumber": 75,
            "velocity": 0.7007874015748031,
            "startMs": 59999.45999999861,
            "endMs": 60063.018749998606
          },
          {
            "noteNumber": 79,
            "velocity": 0.7007874015748031,
            "startMs": 59999.45999999861,
            "endMs": 60063.018749998606
          },
          {
            "noteNumber": 82,
            "velocity": 0.7007874015748031,
            "startMs": 59999.45999999861,
            "endMs": 60063.018749998606
          },
          {
            "noteNumber": 77,
            "velocity": 0.7007874015748031,
            "startMs": 60126.5774999986,
            "endMs": 60190.1362499986
          },
          {
            "noteNumber": 81,
            "velocity": 0.7007874015748031,
            "startMs": 60126.5774999986,
            "endMs": 60190.1362499986
          },
          {
            "noteNumber": 84,
            "velocity": 0.7007874015748031,
            "startMs": 60126.5774999986,
            "endMs": 60190.1362499986
          },
          {
            "noteNumber": 77,
            "velocity": 0.7007874015748031,
            "startMs": 60380.812499998596,
            "endMs": 60444.3712499986
          },
          {
            "noteNumber": 81,
            "velocity": 0.7007874015748031,
            "startMs": 60380.812499998596,
            "endMs": 60444.3712499986
          },
          {
            "noteNumber": 84,
            "velocity": 0.7007874015748031,
            "startMs": 60380.812499998596,
            "endMs": 60444.3712499986
          },
          {
            "noteNumber": 81,
            "velocity": 0.7007874015748031,
            "startMs": 61270.63499999856,
            "endMs": 61328.89718749856
          },
          {
            "noteNumber": 84,
            "velocity": 0.7007874015748031,
            "startMs": 61270.63499999856,
            "endMs": 61323.60062499856
          },
          {
            "noteNumber": 89,
            "velocity": 0.7007874015748031,
            "startMs": 61270.63499999856,
            "endMs": 61323.60062499856
          },
          {
            "noteNumber": 81,
            "velocity": 0.7007874015748031,
            "startMs": 61524.86999999855,
            "endMs": 61604.31843749854
          },
          {
            "noteNumber": 84,
            "velocity": 0.7007874015748031,
            "startMs": 61524.86999999855,
            "endMs": 61577.835624998545
          },
          {
            "noteNumber": 89,
            "velocity": 0.7007874015748031,
            "startMs": 61524.86999999855,
            "endMs": 61588.428749998544
          },
          {
            "noteNumber": 81,
            "velocity": 0.7007874015748031,
            "startMs": 61779.10499999853,
            "endMs": 61832.07062499853
          },
          {
            "noteNumber": 84,
            "velocity": 0.7007874015748031,
            "startMs": 61779.10499999853,
            "endMs": 61832.07062499853
          },
          {
            "noteNumber": 89,
            "velocity": 0.7007874015748031,
            "startMs": 61779.10499999853,
            "endMs": 61842.66374999853
          },
          {
            "noteNumber": 79,
            "velocity": 0.7007874015748031,
            "startMs": 61906.22249999853,
            "endMs": 61953.891562498524
          },
          {
            "noteNumber": 82,
            "velocity": 0.7007874015748031,
            "startMs": 61906.22249999853,
            "endMs": 61948.594999998524
          },
          {
            "noteNumber": 87,
            "velocity": 0.7007874015748031,
            "startMs": 61906.22249999853,
            "endMs": 61975.07781249852
          },
          {
            "noteNumber": 79,
            "velocity": 0.7007874015748031,
            "startMs": 62160.45749999851,
            "endMs": 62202.82999999851
          },
          {
            "noteNumber": 82,
            "velocity": 0.7007874015748031,
            "startMs": 62160.45749999851,
            "endMs": 62213.42312499851
          },
          {
            "noteNumber": 87,
            "velocity": 0.7007874015748031,
            "startMs": 62160.45749999851,
            "endMs": 62208.12656249851
          },
          {
            "noteNumber": 79,
            "velocity": 0.7007874015748031,
            "startMs": 62414.6924999985,
            "endMs": 62467.658124998496
          },
          {
            "noteNumber": 82,
            "velocity": 0.7007874015748031,
            "startMs": 62414.6924999985,
            "endMs": 62457.064999998496
          },
          {
            "noteNumber": 87,
            "velocity": 0.7007874015748031,
            "startMs": 62414.6924999985,
            "endMs": 62478.251249998495
          },
          {
            "noteNumber": 77,
            "velocity": 0.7007874015748031,
            "startMs": 62541.80999999849,
            "endMs": 62594.77562499849
          },
          {
            "noteNumber": 82,
            "velocity": 0.7007874015748031,
            "startMs": 62541.80999999849,
            "endMs": 62594.77562499849
          },
          {
            "noteNumber": 86,
            "velocity": 0.7007874015748031,
            "startMs": 62541.80999999849,
            "endMs": 62600.07218749849
          },
          {
            "noteNumber": 77,
            "velocity": 0.7007874015748031,
            "startMs": 62796.04499999848,
            "endMs": 62864.900312498474
          },
          {
            "noteNumber": 82,
            "velocity": 0.7007874015748031,
            "startMs": 62796.04499999848,
            "endMs": 62875.49343749847
          },
          {
            "noteNumber": 86,
            "velocity": 0.7007874015748031,
            "startMs": 62796.04499999848,
            "endMs": 62870.19687499847
          },
          {
            "noteNumber": 77,
            "velocity": 0.7007874015748031,
            "startMs": 63304.51499999845,
            "endMs": 63357.48062499845
          },
          {
            "noteNumber": 81,
            "velocity": 0.7007874015748031,
            "startMs": 63304.51499999845,
            "endMs": 63352.18406249845
          },
          {
            "noteNumber": 84,
            "velocity": 0.7007874015748031,
            "startMs": 63304.51499999845,
            "endMs": 63357.48062499845
          },
          {
            "noteNumber": 77,
            "velocity": 0.7007874015748031,
            "startMs": 63558.749999998436,
            "endMs": 63601.12249999843
          },
          {
            "noteNumber": 81,
            "velocity": 0.7007874015748031,
            "startMs": 63558.749999998436,
            "endMs": 63606.41906249843
          },
          {
            "noteNumber": 84,
            "velocity": 0.7007874015748031,
            "startMs": 63558.749999998436,
            "endMs": 63617.01218749843
          },
          {
            "noteNumber": 77,
            "velocity": 0.7007874015748031,
            "startMs": 63812.98499999842,
            "endMs": 63850.06093749842
          },
          {
            "noteNumber": 81,
            "velocity": 0.7007874015748031,
            "startMs": 63812.98499999842,
            "endMs": 63865.95062499842
          },
          {
            "noteNumber": 84,
            "velocity": 0.7007874015748031,
            "startMs": 63812.98499999842,
            "endMs": 63876.54374999842
          },
          {
            "noteNumber": 79,
            "velocity": 0.7007874015748031,
            "startMs": 63940.102499998415,
            "endMs": 64003.66124999841
          },
          {
            "noteNumber": 82,
            "velocity": 0.7007874015748031,
            "startMs": 63940.102499998415,
            "endMs": 63987.77156249841
          },
          {
            "noteNumber": 87,
            "velocity": 0.7007874015748031,
            "startMs": 63940.102499998415,
            "endMs": 64003.66124999841
          },
          {
            "noteNumber": 79,
            "velocity": 0.7007874015748031,
            "startMs": 64194.3374999984,
            "endMs": 64247.3031249984
          },
          {
            "noteNumber": 82,
            "velocity": 0.7007874015748031,
            "startMs": 64194.3374999984,
            "endMs": 64231.4134374984
          },
          {
            "noteNumber": 87,
            "velocity": 0.7007874015748031,
            "startMs": 64194.3374999984,
            "endMs": 64242.0065624984
          },
          {
            "noteNumber": 79,
            "velocity": 0.7007874015748031,
            "startMs": 64321.454999998394,
            "endMs": 64385.01374999839
          },
          {
            "noteNumber": 82,
            "velocity": 0.7007874015748031,
            "startMs": 64321.454999998394,
            "endMs": 64400.90343749839
          },
          {
            "noteNumber": 86,
            "velocity": 0.7007874015748031,
            "startMs": 64321.454999998394,
            "endMs": 64406.19999999839
          },
          {
            "noteNumber": 77,
            "velocity": 0.7007874015748031,
            "startMs": 64575.68999999838,
            "endMs": 64628.65562499838
          },
          {
            "noteNumber": 81,
            "velocity": 0.7007874015748031,
            "startMs": 64575.68999999838,
            "endMs": 64633.95218749838
          },
          {
            "noteNumber": 84,
            "velocity": 0.7007874015748031,
            "startMs": 64575.68999999838,
            "endMs": 64665.731562498375
          },
          {
            "noteNumber": 73,
            "velocity": 0.7007874015748031,
            "startMs": 65338.39499999834,
            "endMs": 65391.360624998335
          },
          {
            "noteNumber": 77,
            "velocity": 0.7007874015748031,
            "startMs": 65338.39499999834,
            "endMs": 65391.360624998335
          },
          {
            "noteNumber": 80,
            "velocity": 0.7007874015748031,
            "startMs": 65338.39499999834,
            "endMs": 65401.953749998334
          },
          {
            "noteNumber": 73,
            "velocity": 0.7007874015748031,
            "startMs": 65592.62999999833,
            "endMs": 65650.89218749834
          },
          {
            "noteNumber": 77,
            "velocity": 0.7007874015748031,
            "startMs": 65592.62999999833,
            "endMs": 65645.59562499833
          },
          {
            "noteNumber": 80,
            "velocity": 0.7007874015748031,
            "startMs": 65592.62999999833,
            "endMs": 65661.48531249835
          },
          {
            "noteNumber": 73,
            "velocity": 0.7007874015748031,
            "startMs": 65846.86499999835,
            "endMs": 65889.23749999836
          },
          {
            "noteNumber": 77,
            "velocity": 0.7007874015748031,
            "startMs": 65846.86499999835,
            "endMs": 65899.83062499836
          },
          {
            "noteNumber": 80,
            "velocity": 0.7007874015748031,
            "startMs": 65846.86499999835,
            "endMs": 65899.83062499836
          },
          {
            "noteNumber": 73,
            "velocity": 0.7007874015748031,
            "startMs": 66101.09999999838,
            "endMs": 66143.47249999837
          },
          {
            "noteNumber": 77,
            "velocity": 0.7007874015748031,
            "startMs": 66101.09999999838,
            "endMs": 66148.76906249838
          },
          {
            "noteNumber": 80,
            "velocity": 0.7007874015748031,
            "startMs": 66101.09999999838,
            "endMs": 66164.65874999839
          },
          {
            "noteNumber": 75,
            "velocity": 0.7007874015748031,
            "startMs": 66228.2174999984,
            "endMs": 66270.5899999984
          },
          {
            "noteNumber": 79,
            "velocity": 0.7007874015748031,
            "startMs": 66228.2174999984,
            "endMs": 66259.9968749984
          },
          {
            "noteNumber": 82,
            "velocity": 0.7007874015748031,
            "startMs": 66228.2174999984,
            "endMs": 66286.4796874984
          },
          {
            "noteNumber": 75,
            "velocity": 0.7007874015748031,
            "startMs": 66482.45249999841,
            "endMs": 66540.71468749842
          },
          {
            "noteNumber": 79,
            "velocity": 0.7007874015748031,
            "startMs": 66482.45249999841,
            "endMs": 66530.12156249842
          },
          {
            "noteNumber": 82,
            "velocity": 0.7007874015748031,
            "startMs": 66482.45249999841,
            "endMs": 66540.71468749842
          },
          {
            "noteNumber": 75,
            "velocity": 0.7007874015748031,
            "startMs": 66736.68749999843,
            "endMs": 66784.35656249843
          },
          {
            "noteNumber": 79,
            "velocity": 0.7007874015748031,
            "startMs": 66736.68749999843,
            "endMs": 66789.65312499844
          },
          {
            "noteNumber": 82,
            "velocity": 0.7007874015748031,
            "startMs": 66736.68749999843,
            "endMs": 66794.94968749845
          },
          {
            "noteNumber": 75,
            "velocity": 0.7007874015748031,
            "startMs": 66990.92249999846,
            "endMs": 67033.29499999846
          },
          {
            "noteNumber": 79,
            "velocity": 0.7007874015748031,
            "startMs": 66990.92249999846,
            "endMs": 67043.88812499847
          },
          {
            "noteNumber": 82,
            "velocity": 0.7007874015748031,
            "startMs": 66990.92249999846,
            "endMs": 67038.59156249846
          },
          {
            "noteNumber": 75,
            "velocity": 0.7007874015748031,
            "startMs": 67118.03999999848,
            "endMs": 67160.41249999848
          },
          {
            "noteNumber": 79,
            "velocity": 0.7007874015748031,
            "startMs": 67118.03999999848,
            "endMs": 67165.70906249848
          },
          {
            "noteNumber": 82,
            "velocity": 0.7007874015748031,
            "startMs": 67118.03999999848,
            "endMs": 67171.00562499849
          },
          {
            "noteNumber": 77,
            "velocity": 0.7007874015748031,
            "startMs": 67372.27499999848,
            "endMs": 67425.24062499848
          },
          {
            "noteNumber": 81,
            "velocity": 0.7007874015748031,
            "startMs": 67372.27499999848,
            "endMs": 67435.83374999848
          },
          {
            "noteNumber": 84,
            "velocity": 0.7007874015748031,
            "startMs": 67372.27499999848,
            "endMs": 67435.83374999848
          },
          {
            "noteNumber": 77,
            "velocity": 0.7007874015748031,
            "startMs": 67626.50999999847,
            "endMs": 67668.88249999846
          },
          {
            "noteNumber": 81,
            "velocity": 0.7007874015748031,
            "startMs": 67626.50999999847,
            "endMs": 67684.77218749847
          },
          {
            "noteNumber": 84,
            "velocity": 0.7007874015748031,
            "startMs": 67626.50999999847,
            "endMs": 67690.06874999848
          },
          {
            "noteNumber": 77,
            "velocity": 0.7007874015748031,
            "startMs": 67880.74499999848,
            "endMs": 67944.3037499985
          },
          {
            "noteNumber": 81,
            "velocity": 0.7007874015748031,
            "startMs": 67880.74499999848,
            "endMs": 67944.3037499985
          },
          {
            "noteNumber": 84,
            "velocity": 0.7007874015748031,
            "startMs": 67880.74499999848,
            "endMs": 67944.3037499985
          },
          {
            "noteNumber": 75,
            "velocity": 0.7007874015748031,
            "startMs": 68134.9799999985,
            "endMs": 68198.5387499985
          },
          {
            "noteNumber": 79,
            "velocity": 0.7007874015748031,
            "startMs": 68134.9799999985,
            "endMs": 68198.5387499985
          },
          {
            "noteNumber": 82,
            "velocity": 0.7007874015748031,
            "startMs": 68134.9799999985,
            "endMs": 68198.5387499985
          },
          {
            "noteNumber": 77,
            "velocity": 0.7007874015748031,
            "startMs": 68262.0974999985,
            "endMs": 68325.65624999852
          },
          {
            "noteNumber": 81,
            "velocity": 0.7007874015748031,
            "startMs": 68262.0974999985,
            "endMs": 68325.65624999852
          },
          {
            "noteNumber": 84,
            "velocity": 0.7007874015748031,
            "startMs": 68262.0974999985,
            "endMs": 68325.65624999852
          },
          {
            "noteNumber": 77,
            "velocity": 0.7007874015748031,
            "startMs": 68516.33249999852,
            "endMs": 68579.89124999853
          },
          {
            "noteNumber": 81,
            "velocity": 0.7007874015748031,
            "startMs": 68516.33249999852,
            "endMs": 68579.89124999853
          },
          {
            "noteNumber": 84,
            "velocity": 0.7007874015748031,
            "startMs": 68516.33249999852,
            "endMs": 68579.89124999853
          },
          {
            "noteNumber": 101,
            "velocity": 0.7007874015748031,
            "startMs": 83389.079999999,
            "endMs": 84114.70906249901
          },
          {
            "noteNumber": 99,
            "velocity": 0.7007874015748031,
            "startMs": 84151.78499999903,
            "endMs": 85163.42843749904
          },
          {
            "noteNumber": 96,
            "velocity": 0.7007874015748031,
            "startMs": 85168.72499999905,
            "endMs": 86153.88562499906
          },
          {
            "noteNumber": 94,
            "velocity": 0.7007874015748031,
            "startMs": 86185.66499999906,
            "endMs": 87043.70812499907
          },
          {
            "noteNumber": 92,
            "velocity": 0.7007874015748031,
            "startMs": 86948.36999999908,
            "endMs": 87456.83999999911
          },
          {
            "noteNumber": 89,
            "velocity": 0.7007874015748031,
            "startMs": 87456.83999999911,
            "endMs": 89485.42343749918
          },
          {
            "noteNumber": 81,
            "velocity": 0.7007874015748031,
            "startMs": 142625.8350000026,
            "endMs": 142684.09718750263
          },
          {
            "noteNumber": 84,
            "velocity": 0.7007874015748031,
            "startMs": 142625.8350000026,
            "endMs": 142678.80062500262
          },
          {
            "noteNumber": 89,
            "velocity": 0.7007874015748031,
            "startMs": 142625.8350000026,
            "endMs": 142678.80062500262
          },
          {
            "noteNumber": 81,
            "velocity": 0.7007874015748031,
            "startMs": 142880.07000000263,
            "endMs": 142959.51843750267
          },
          {
            "noteNumber": 84,
            "velocity": 0.7007874015748031,
            "startMs": 142880.07000000263,
            "endMs": 142933.03562500264
          },
          {
            "noteNumber": 89,
            "velocity": 0.7007874015748031,
            "startMs": 142880.07000000263,
            "endMs": 142943.62875000265
          },
          {
            "noteNumber": 81,
            "velocity": 0.7007874015748031,
            "startMs": 143134.30500000267,
            "endMs": 143187.27062500265
          },
          {
            "noteNumber": 84,
            "velocity": 0.7007874015748031,
            "startMs": 143134.30500000267,
            "endMs": 143187.27062500265
          },
          {
            "noteNumber": 89,
            "velocity": 0.7007874015748031,
            "startMs": 143134.30500000267,
            "endMs": 143197.86375000267
          },
          {
            "noteNumber": 79,
            "velocity": 0.7007874015748031,
            "startMs": 143261.42250000266,
            "endMs": 143309.09156250267
          },
          {
            "noteNumber": 82,
            "velocity": 0.7007874015748031,
            "startMs": 143261.42250000266,
            "endMs": 143303.79500000266
          },
          {
            "noteNumber": 87,
            "velocity": 0.7007874015748031,
            "startMs": 143261.42250000266,
            "endMs": 143330.27781250267
          },
          {
            "noteNumber": 79,
            "velocity": 0.7007874015748031,
            "startMs": 143515.6575000027,
            "endMs": 143558.0300000027
          },
          {
            "noteNumber": 82,
            "velocity": 0.7007874015748031,
            "startMs": 143515.6575000027,
            "endMs": 143568.62312500272
          },
          {
            "noteNumber": 87,
            "velocity": 0.7007874015748031,
            "startMs": 143515.6575000027,
            "endMs": 143563.3265625027
          },
          {
            "noteNumber": 79,
            "velocity": 0.7007874015748031,
            "startMs": 143769.89250000275,
            "endMs": 143822.8581250028
          },
          {
            "noteNumber": 82,
            "velocity": 0.7007874015748031,
            "startMs": 143769.89250000275,
            "endMs": 143812.26500000278
          },
          {
            "noteNumber": 87,
            "velocity": 0.7007874015748031,
            "startMs": 143769.89250000275,
            "endMs": 143833.4512500028
          },
          {
            "noteNumber": 77,
            "velocity": 0.7007874015748031,
            "startMs": 143897.01000000283,
            "endMs": 143949.97562500281
          },
          {
            "noteNumber": 82,
            "velocity": 0.7007874015748031,
            "startMs": 143897.01000000283,
            "endMs": 143949.97562500281
          },
          {
            "noteNumber": 86,
            "velocity": 0.7007874015748031,
            "startMs": 143897.01000000283,
            "endMs": 143955.27218750282
          },
          {
            "noteNumber": 77,
            "velocity": 0.7007874015748031,
            "startMs": 144151.24500000285,
            "endMs": 144220.10031250285
          },
          {
            "noteNumber": 82,
            "velocity": 0.7007874015748031,
            "startMs": 144151.24500000285,
            "endMs": 144230.69343750286
          },
          {
            "noteNumber": 86,
            "velocity": 0.7007874015748031,
            "startMs": 144151.24500000285,
            "endMs": 144225.39687500286
          },
          {
            "noteNumber": 77,
            "velocity": 0.7007874015748031,
            "startMs": 144659.71500000285,
            "endMs": 144712.68062500283
          },
          {
            "noteNumber": 81,
            "velocity": 0.7007874015748031,
            "startMs": 144659.71500000285,
            "endMs": 144707.38406250282
          },
          {
            "noteNumber": 84,
            "velocity": 0.7007874015748031,
            "startMs": 144659.71500000285,
            "endMs": 144712.68062500283
          },
          {
            "noteNumber": 77,
            "velocity": 0.7007874015748031,
            "startMs": 144913.95000000283,
            "endMs": 144956.32250000283
          },
          {
            "noteNumber": 81,
            "velocity": 0.7007874015748031,
            "startMs": 144913.95000000283,
            "endMs": 144961.61906250284
          },
          {
            "noteNumber": 84,
            "velocity": 0.7007874015748031,
            "startMs": 144913.95000000283,
            "endMs": 144972.21218750285
          },
          {
            "noteNumber": 77,
            "velocity": 0.7007874015748031,
            "startMs": 145168.18500000288,
            "endMs": 145205.26093750287
          },
          {
            "noteNumber": 81,
            "velocity": 0.7007874015748031,
            "startMs": 145168.18500000288,
            "endMs": 145221.15062500286
          },
          {
            "noteNumber": 84,
            "velocity": 0.7007874015748031,
            "startMs": 145168.18500000288,
            "endMs": 145231.74375000288
          },
          {
            "noteNumber": 79,
            "velocity": 0.7007874015748031,
            "startMs": 145295.30250000287,
            "endMs": 145358.86125000287
          },
          {
            "noteNumber": 82,
            "velocity": 0.7007874015748031,
            "startMs": 145295.30250000287,
            "endMs": 145342.97156250288
          },
          {
            "noteNumber": 87,
            "velocity": 0.7007874015748031,
            "startMs": 145295.30250000287,
            "endMs": 145358.86125000287
          },
          {
            "noteNumber": 79,
            "velocity": 0.7007874015748031,
            "startMs": 145549.53750000292,
            "endMs": 145602.50312500293
          },
          {
            "noteNumber": 82,
            "velocity": 0.7007874015748031,
            "startMs": 145549.53750000292,
            "endMs": 145586.6134375029
          },
          {
            "noteNumber": 87,
            "velocity": 0.7007874015748031,
            "startMs": 145549.53750000292,
            "endMs": 145597.20656250292
          },
          {
            "noteNumber": 79,
            "velocity": 0.7007874015748031,
            "startMs": 145676.65500000297,
            "endMs": 145740.21375000296
          },
          {
            "noteNumber": 82,
            "velocity": 0.7007874015748031,
            "startMs": 145676.65500000297,
            "endMs": 145756.10343750298
          },
          {
            "noteNumber": 86,
            "velocity": 0.7007874015748031,
            "startMs": 145676.65500000297,
            "endMs": 145761.400000003
          },
          {
            "noteNumber": 77,
            "velocity": 0.7007874015748031,
            "startMs": 145930.890000003,
            "endMs": 145983.85562500302
          },
          {
            "noteNumber": 81,
            "velocity": 0.7007874015748031,
            "startMs": 145930.890000003,
            "endMs": 145989.15218750303
          },
          {
            "noteNumber": 84,
            "velocity": 0.7007874015748031,
            "startMs": 145930.890000003,
            "endMs": 146020.93156250304
          },
          {
            "noteNumber": 73,
            "velocity": 0.7007874015748031,
            "startMs": 146693.59500000306,
            "endMs": 146746.56062500307
          },
          {
            "noteNumber": 77,
            "velocity": 0.7007874015748031,
            "startMs": 146693.59500000306,
            "endMs": 146746.56062500307
          },
          {
            "noteNumber": 80,
            "velocity": 0.7007874015748031,
            "startMs": 146693.59500000306,
            "endMs": 146757.15375000308
          },
          {
            "noteNumber": 73,
            "velocity": 0.7007874015748031,
            "startMs": 146947.8300000031,
            "endMs": 147006.09218750312
          },
          {
            "noteNumber": 77,
            "velocity": 0.7007874015748031,
            "startMs": 146947.8300000031,
            "endMs": 147000.7956250031
          },
          {
            "noteNumber": 80,
            "velocity": 0.7007874015748031,
            "startMs": 146947.8300000031,
            "endMs": 147016.68531250313
          },
          {
            "noteNumber": 73,
            "velocity": 0.7007874015748031,
            "startMs": 147202.06500000315,
            "endMs": 147244.43750000314
          },
          {
            "noteNumber": 77,
            "velocity": 0.7007874015748031,
            "startMs": 147202.06500000315,
            "endMs": 147255.03062500316
          },
          {
            "noteNumber": 80,
            "velocity": 0.7007874015748031,
            "startMs": 147202.06500000315,
            "endMs": 147255.03062500316
          },
          {
            "noteNumber": 73,
            "velocity": 0.7007874015748031,
            "startMs": 147456.3000000032,
            "endMs": 147498.6725000032
          },
          {
            "noteNumber": 77,
            "velocity": 0.7007874015748031,
            "startMs": 147456.3000000032,
            "endMs": 147503.9690625032
          },
          {
            "noteNumber": 80,
            "velocity": 0.7007874015748031,
            "startMs": 147456.3000000032,
            "endMs": 147519.8587500032
          },
          {
            "noteNumber": 75,
            "velocity": 0.7007874015748031,
            "startMs": 147583.41750000318,
            "endMs": 147625.7900000032
          },
          {
            "noteNumber": 79,
            "velocity": 0.7007874015748031,
            "startMs": 147583.41750000318,
            "endMs": 147615.1968750032
          },
          {
            "noteNumber": 82,
            "velocity": 0.7007874015748031,
            "startMs": 147583.41750000318,
            "endMs": 147641.6796875032
          },
          {
            "noteNumber": 75,
            "velocity": 0.7007874015748031,
            "startMs": 147837.65250000323,
            "endMs": 147895.91468750325
          },
          {
            "noteNumber": 79,
            "velocity": 0.7007874015748031,
            "startMs": 147837.65250000323,
            "endMs": 147885.32156250323
          },
          {
            "noteNumber": 82,
            "velocity": 0.7007874015748031,
            "startMs": 147837.65250000323,
            "endMs": 147895.91468750325
          },
          {
            "noteNumber": 75,
            "velocity": 0.7007874015748031,
            "startMs": 148091.88750000327,
            "endMs": 148139.55656250328
          },
          {
            "noteNumber": 79,
            "velocity": 0.7007874015748031,
            "startMs": 148091.88750000327,
            "endMs": 148144.85312500328
          },
          {
            "noteNumber": 82,
            "velocity": 0.7007874015748031,
            "startMs": 148091.88750000327,
            "endMs": 148150.1496875033
          },
          {
            "noteNumber": 75,
            "velocity": 0.7007874015748031,
            "startMs": 148346.12250000334,
            "endMs": 148388.49500000334
          },
          {
            "noteNumber": 79,
            "velocity": 0.7007874015748031,
            "startMs": 148346.12250000334,
            "endMs": 148399.08812500336
          },
          {
            "noteNumber": 82,
            "velocity": 0.7007874015748031,
            "startMs": 148346.12250000334,
            "endMs": 148393.79156250335
          },
          {
            "noteNumber": 75,
            "velocity": 0.7007874015748031,
            "startMs": 148473.2400000034,
            "endMs": 148515.6125000034
          },
          {
            "noteNumber": 79,
            "velocity": 0.7007874015748031,
            "startMs": 148473.2400000034,
            "endMs": 148520.9090625034
          },
          {
            "noteNumber": 82,
            "velocity": 0.7007874015748031,
            "startMs": 148473.2400000034,
            "endMs": 148526.2056250034
          },
          {
            "noteNumber": 77,
            "velocity": 0.7007874015748031,
            "startMs": 148727.47500000344,
            "endMs": 148780.44062500345
          },
          {
            "noteNumber": 81,
            "velocity": 0.7007874015748031,
            "startMs": 148727.47500000344,
            "endMs": 148791.03375000347
          },
          {
            "noteNumber": 84,
            "velocity": 0.7007874015748031,
            "startMs": 148727.47500000344,
            "endMs": 148791.03375000347
          },
          {
            "noteNumber": 77,
            "velocity": 0.7007874015748031,
            "startMs": 148981.71000000346,
            "endMs": 149024.08250000345
          },
          {
            "noteNumber": 81,
            "velocity": 0.7007874015748031,
            "startMs": 148981.71000000346,
            "endMs": 149039.97218750347
          },
          {
            "noteNumber": 84,
            "velocity": 0.7007874015748031,
            "startMs": 148981.71000000346,
            "endMs": 149045.26875000348
          },
          {
            "noteNumber": 77,
            "velocity": 0.7007874015748031,
            "startMs": 149235.94500000347,
            "endMs": 149299.5037500035
          },
          {
            "noteNumber": 81,
            "velocity": 0.7007874015748031,
            "startMs": 149235.94500000347,
            "endMs": 149299.5037500035
          },
          {
            "noteNumber": 84,
            "velocity": 0.7007874015748031,
            "startMs": 149235.94500000347,
            "endMs": 149299.5037500035
          },
          {
            "noteNumber": 75,
            "velocity": 0.7007874015748031,
            "startMs": 149490.18000000351,
            "endMs": 149553.7387500035
          },
          {
            "noteNumber": 79,
            "velocity": 0.7007874015748031,
            "startMs": 149490.18000000351,
            "endMs": 149553.7387500035
          },
          {
            "noteNumber": 82,
            "velocity": 0.7007874015748031,
            "startMs": 149490.18000000351,
            "endMs": 149553.7387500035
          },
          {
            "noteNumber": 77,
            "velocity": 0.7007874015748031,
            "startMs": 149617.29750000354,
            "endMs": 149680.8562500035
          },
          {
            "noteNumber": 81,
            "velocity": 0.7007874015748031,
            "startMs": 149617.29750000354,
            "endMs": 149680.8562500035
          },
          {
            "noteNumber": 84,
            "velocity": 0.7007874015748031,
            "startMs": 149617.29750000354,
            "endMs": 149680.8562500035
          },
          {
            "noteNumber": 77,
            "velocity": 0.7007874015748031,
            "startMs": 149871.53250000355,
            "endMs": 149935.09125000355
          },
          {
            "noteNumber": 81,
            "velocity": 0.7007874015748031,
            "startMs": 149871.53250000355,
            "endMs": 149935.09125000355
          },
          {
            "noteNumber": 84,
            "velocity": 0.7007874015748031,
            "startMs": 149871.53250000355,
            "endMs": 149935.09125000355
          },
          {
            "noteNumber": 81,
            "velocity": 0.7007874015748031,
            "startMs": 150761.3550000036,
            "endMs": 150819.6171875036
          },
          {
            "noteNumber": 84,
            "velocity": 0.7007874015748031,
            "startMs": 150761.3550000036,
            "endMs": 150814.3206250036
          },
          {
            "noteNumber": 89,
            "velocity": 0.7007874015748031,
            "startMs": 150761.3550000036,
            "endMs": 150814.3206250036
          },
          {
            "noteNumber": 81,
            "velocity": 0.7007874015748031,
            "startMs": 151015.59000000363,
            "endMs": 151095.03843750365
          },
          {
            "noteNumber": 84,
            "velocity": 0.7007874015748031,
            "startMs": 151015.59000000363,
            "endMs": 151068.55562500365
          },
          {
            "noteNumber": 89,
            "velocity": 0.7007874015748031,
            "startMs": 151015.59000000363,
            "endMs": 151079.14875000366
          },
          {
            "noteNumber": 81,
            "velocity": 0.7007874015748031,
            "startMs": 151269.82500000368,
            "endMs": 151322.7906250037
          },
          {
            "noteNumber": 84,
            "velocity": 0.7007874015748031,
            "startMs": 151269.82500000368,
            "endMs": 151322.7906250037
          },
          {
            "noteNumber": 89,
            "velocity": 0.7007874015748031,
            "startMs": 151269.82500000368,
            "endMs": 151333.3837500037
          },
          {
            "noteNumber": 79,
            "velocity": 0.7007874015748031,
            "startMs": 151396.9425000037,
            "endMs": 151444.6115625037
          },
          {
            "noteNumber": 82,
            "velocity": 0.7007874015748031,
            "startMs": 151396.9425000037,
            "endMs": 151439.3150000037
          },
          {
            "noteNumber": 87,
            "velocity": 0.7007874015748031,
            "startMs": 151396.9425000037,
            "endMs": 151465.7978125037
          },
          {
            "noteNumber": 79,
            "velocity": 0.7007874015748031,
            "startMs": 151651.1775000037,
            "endMs": 151693.55000000368
          },
          {
            "noteNumber": 82,
            "velocity": 0.7007874015748031,
            "startMs": 151651.1775000037,
            "endMs": 151704.1431250037
          },
          {
            "noteNumber": 87,
            "velocity": 0.7007874015748031,
            "startMs": 151651.1775000037,
            "endMs": 151698.8465625037
          },
          {
            "noteNumber": 79,
            "velocity": 0.7007874015748031,
            "startMs": 151905.4125000037,
            "endMs": 151958.37812500374
          },
          {
            "noteNumber": 82,
            "velocity": 0.7007874015748031,
            "startMs": 151905.4125000037,
            "endMs": 151947.78500000373
          },
          {
            "noteNumber": 87,
            "velocity": 0.7007874015748031,
            "startMs": 151905.4125000037,
            "endMs": 151968.97125000376
          },
          {
            "noteNumber": 77,
            "velocity": 0.7007874015748031,
            "startMs": 152032.53000000375,
            "endMs": 152085.49562500376
          },
          {
            "noteNumber": 82,
            "velocity": 0.7007874015748031,
            "startMs": 152032.53000000375,
            "endMs": 152085.49562500376
          },
          {
            "noteNumber": 86,
            "velocity": 0.7007874015748031,
            "startMs": 152032.53000000375,
            "endMs": 152090.79218750377
          },
          {
            "noteNumber": 77,
            "velocity": 0.7007874015748031,
            "startMs": 152286.7650000038,
            "endMs": 152355.6203125038
          },
          {
            "noteNumber": 82,
            "velocity": 0.7007874015748031,
            "startMs": 152286.7650000038,
            "endMs": 152366.21343750381
          },
          {
            "noteNumber": 86,
            "velocity": 0.7007874015748031,
            "startMs": 152286.7650000038,
            "endMs": 152360.9168750038
          },
          {
            "noteNumber": 77,
            "velocity": 0.7007874015748031,
            "startMs": 152795.2350000038,
            "endMs": 152848.2006250038
          },
          {
            "noteNumber": 81,
            "velocity": 0.7007874015748031,
            "startMs": 152795.2350000038,
            "endMs": 152842.9040625038
          },
          {
            "noteNumber": 84,
            "velocity": 0.7007874015748031,
            "startMs": 152795.2350000038,
            "endMs": 152848.2006250038
          },
          {
            "noteNumber": 77,
            "velocity": 0.7007874015748031,
            "startMs": 153049.4700000038,
            "endMs": 153091.8425000038
          },
          {
            "noteNumber": 81,
            "velocity": 0.7007874015748031,
            "startMs": 153049.4700000038,
            "endMs": 153097.13906250382
          },
          {
            "noteNumber": 84,
            "velocity": 0.7007874015748031,
            "startMs": 153049.4700000038,
            "endMs": 153107.73218750383
          },
          {
            "noteNumber": 77,
            "velocity": 0.7007874015748031,
            "startMs": 153303.70500000386,
            "endMs": 153340.78093750385
          },
          {
            "noteNumber": 81,
            "velocity": 0.7007874015748031,
            "startMs": 153303.70500000386,
            "endMs": 153356.67062500384
          },
          {
            "noteNumber": 84,
            "velocity": 0.7007874015748031,
            "startMs": 153303.70500000386,
            "endMs": 153367.26375000385
          },
          {
            "noteNumber": 79,
            "velocity": 0.7007874015748031,
            "startMs": 153430.82250000385,
            "endMs": 153494.38125000385
          },
          {
            "noteNumber": 82,
            "velocity": 0.7007874015748031,
            "startMs": 153430.82250000385,
            "endMs": 153478.49156250386
          },
          {
            "noteNumber": 87,
            "velocity": 0.7007874015748031,
            "startMs": 153430.82250000385,
            "endMs": 153494.38125000385
          },
          {
            "noteNumber": 79,
            "velocity": 0.7007874015748031,
            "startMs": 153685.05750000387,
            "endMs": 153738.02312500388
          },
          {
            "noteNumber": 82,
            "velocity": 0.7007874015748031,
            "startMs": 153685.05750000387,
            "endMs": 153722.13343750386
          },
          {
            "noteNumber": 87,
            "velocity": 0.7007874015748031,
            "startMs": 153685.05750000387,
            "endMs": 153732.72656250387
          },
          {
            "noteNumber": 79,
            "velocity": 0.7007874015748031,
            "startMs": 153812.1750000039,
            "endMs": 153875.7337500039
          },
          {
            "noteNumber": 82,
            "velocity": 0.7007874015748031,
            "startMs": 153812.1750000039,
            "endMs": 153891.62343750393
          },
          {
            "noteNumber": 86,
            "velocity": 0.7007874015748031,
            "startMs": 153812.1750000039,
            "endMs": 153896.92000000394
          },
          {
            "noteNumber": 77,
            "velocity": 0.7007874015748031,
            "startMs": 154066.41000000396,
            "endMs": 154119.37562500394
          },
          {
            "noteNumber": 81,
            "velocity": 0.7007874015748031,
            "startMs": 154066.41000000396,
            "endMs": 154124.67218750395
          },
          {
            "noteNumber": 84,
            "velocity": 0.7007874015748031,
            "startMs": 154066.41000000396,
            "endMs": 154156.45156250396
          },
          {
            "noteNumber": 73,
            "velocity": 0.7007874015748031,
            "startMs": 154829.11500000398,
            "endMs": 154882.080625004
          },
          {
            "noteNumber": 77,
            "velocity": 0.7007874015748031,
            "startMs": 154829.11500000398,
            "endMs": 154882.080625004
          },
          {
            "noteNumber": 80,
            "velocity": 0.7007874015748031,
            "startMs": 154829.11500000398,
            "endMs": 154892.673750004
          },
          {
            "noteNumber": 73,
            "velocity": 0.7007874015748031,
            "startMs": 155083.350000004,
            "endMs": 155141.612187504
          },
          {
            "noteNumber": 77,
            "velocity": 0.7007874015748031,
            "startMs": 155083.350000004,
            "endMs": 155136.315625004
          },
          {
            "noteNumber": 80,
            "velocity": 0.7007874015748031,
            "startMs": 155083.350000004,
            "endMs": 155152.20531250403
          },
          {
            "noteNumber": 73,
            "velocity": 0.7007874015748031,
            "startMs": 155337.58500000404,
            "endMs": 155379.95750000403
          },
          {
            "noteNumber": 77,
            "velocity": 0.7007874015748031,
            "startMs": 155337.58500000404,
            "endMs": 155390.55062500405
          },
          {
            "noteNumber": 80,
            "velocity": 0.7007874015748031,
            "startMs": 155337.58500000404,
            "endMs": 155390.55062500405
          },
          {
            "noteNumber": 73,
            "velocity": 0.7007874015748031,
            "startMs": 155591.82000000405,
            "endMs": 155634.19250000405
          },
          {
            "noteNumber": 77,
            "velocity": 0.7007874015748031,
            "startMs": 155591.82000000405,
            "endMs": 155639.48906250406
          },
          {
            "noteNumber": 80,
            "velocity": 0.7007874015748031,
            "startMs": 155591.82000000405,
            "endMs": 155655.37875000405
          },
          {
            "noteNumber": 75,
            "velocity": 0.7007874015748031,
            "startMs": 155718.93750000405,
            "endMs": 155761.31000000407
          },
          {
            "noteNumber": 79,
            "velocity": 0.7007874015748031,
            "startMs": 155718.93750000405,
            "endMs": 155750.71687500406
          },
          {
            "noteNumber": 82,
            "velocity": 0.7007874015748031,
            "startMs": 155718.93750000405,
            "endMs": 155777.19968750406
          },
          {
            "noteNumber": 75,
            "velocity": 0.7007874015748031,
            "startMs": 155973.1725000041,
            "endMs": 156031.4346875041
          },
          {
            "noteNumber": 79,
            "velocity": 0.7007874015748031,
            "startMs": 155973.1725000041,
            "endMs": 156020.8415625041
          },
          {
            "noteNumber": 82,
            "velocity": 0.7007874015748031,
            "startMs": 155973.1725000041,
            "endMs": 156031.4346875041
          },
          {
            "noteNumber": 75,
            "velocity": 0.7007874015748031,
            "startMs": 156227.40750000413,
            "endMs": 156275.07656250414
          },
          {
            "noteNumber": 79,
            "velocity": 0.7007874015748031,
            "startMs": 156227.40750000413,
            "endMs": 156280.37312500415
          },
          {
            "noteNumber": 82,
            "velocity": 0.7007874015748031,
            "startMs": 156227.40750000413,
            "endMs": 156285.66968750415
          },
          {
            "noteNumber": 75,
            "velocity": 0.7007874015748031,
            "startMs": 156481.64250000415,
            "endMs": 156524.01500000415
          },
          {
            "noteNumber": 79,
            "velocity": 0.7007874015748031,
            "startMs": 156481.64250000415,
            "endMs": 156534.60812500416
          },
          {
            "noteNumber": 82,
            "velocity": 0.7007874015748031,
            "startMs": 156481.64250000415,
            "endMs": 156529.31156250415
          },
          {
            "noteNumber": 75,
            "velocity": 0.7007874015748031,
            "startMs": 156608.76000000417,
            "endMs": 156651.13250000417
          },
          {
            "noteNumber": 79,
            "velocity": 0.7007874015748031,
            "startMs": 156608.76000000417,
            "endMs": 156656.42906250418
          },
          {
            "noteNumber": 82,
            "velocity": 0.7007874015748031,
            "startMs": 156608.76000000417,
            "endMs": 156661.72562500418
          },
          {
            "noteNumber": 77,
            "velocity": 0.7007874015748031,
            "startMs": 156862.99500000424,
            "endMs": 156915.96062500426
          },
          {
            "noteNumber": 81,
            "velocity": 0.7007874015748031,
            "startMs": 156862.99500000424,
            "endMs": 156926.55375000427
          },
          {
            "noteNumber": 84,
            "velocity": 0.7007874015748031,
            "startMs": 156862.99500000424,
            "endMs": 156926.55375000427
          },
          {
            "noteNumber": 77,
            "velocity": 0.7007874015748031,
            "startMs": 157117.23000000426,
            "endMs": 157159.60250000426
          },
          {
            "noteNumber": 81,
            "velocity": 0.7007874015748031,
            "startMs": 157117.23000000426,
            "endMs": 157175.49218750428
          },
          {
            "noteNumber": 84,
            "velocity": 0.7007874015748031,
            "startMs": 157117.23000000426,
            "endMs": 157180.78875000429
          },
          {
            "noteNumber": 77,
            "velocity": 0.7007874015748031,
            "startMs": 157371.4650000043,
            "endMs": 157435.02375000427
          },
          {
            "noteNumber": 81,
            "velocity": 0.7007874015748031,
            "startMs": 157371.4650000043,
            "endMs": 157435.02375000427
          },
          {
            "noteNumber": 84,
            "velocity": 0.7007874015748031,
            "startMs": 157371.4650000043,
            "endMs": 157435.02375000427
          },
          {
            "noteNumber": 75,
            "velocity": 0.7007874015748031,
            "startMs": 157625.70000000426,
            "endMs": 157689.25875000426
          },
          {
            "noteNumber": 79,
            "velocity": 0.7007874015748031,
            "startMs": 157625.70000000426,
            "endMs": 157689.25875000426
          },
          {
            "noteNumber": 82,
            "velocity": 0.7007874015748031,
            "startMs": 157625.70000000426,
            "endMs": 157689.25875000426
          },
          {
            "noteNumber": 77,
            "velocity": 0.7007874015748031,
            "startMs": 157752.81750000425,
            "endMs": 157816.37625000422
          },
          {
            "noteNumber": 81,
            "velocity": 0.7007874015748031,
            "startMs": 157752.81750000425,
            "endMs": 157816.37625000422
          },
          {
            "noteNumber": 84,
            "velocity": 0.7007874015748031,
            "startMs": 157752.81750000425,
            "endMs": 157816.37625000422
          },
          {
            "noteNumber": 77,
            "velocity": 0.7007874015748031,
            "startMs": 158007.0525000042,
            "endMs": 158070.6112500042
          },
          {
            "noteNumber": 81,
            "velocity": 0.7007874015748031,
            "startMs": 158007.0525000042,
            "endMs": 158070.6112500042
          },
          {
            "noteNumber": 84,
            "velocity": 0.7007874015748031,
            "startMs": 158007.0525000042,
            "endMs": 158070.6112500042
          },
          {
            "noteNumber": 73,
            "velocity": 0.7007874015748031,
            "startMs": 158896.87500000428,
            "endMs": 158949.8406250043
          },
          {
            "noteNumber": 77,
            "velocity": 0.7007874015748031,
            "startMs": 158896.87500000428,
            "endMs": 158949.8406250043
          },
          {
            "noteNumber": 80,
            "velocity": 0.7007874015748031,
            "startMs": 158896.87500000428,
            "endMs": 158960.4337500043
          },
          {
            "noteNumber": 73,
            "velocity": 0.7007874015748031,
            "startMs": 159151.1100000043,
            "endMs": 159209.37218750428
          },
          {
            "noteNumber": 77,
            "velocity": 0.7007874015748031,
            "startMs": 159151.1100000043,
            "endMs": 159204.07562500428
          },
          {
            "noteNumber": 80,
            "velocity": 0.7007874015748031,
            "startMs": 159151.1100000043,
            "endMs": 159219.9653125043
          },
          {
            "noteNumber": 73,
            "velocity": 0.7007874015748031,
            "startMs": 159405.3450000043,
            "endMs": 159447.7175000043
          },
          {
            "noteNumber": 77,
            "velocity": 0.7007874015748031,
            "startMs": 159405.3450000043,
            "endMs": 159458.31062500432
          },
          {
            "noteNumber": 80,
            "velocity": 0.7007874015748031,
            "startMs": 159405.3450000043,
            "endMs": 159458.31062500432
          },
          {
            "noteNumber": 73,
            "velocity": 0.7007874015748031,
            "startMs": 159659.58000000432,
            "endMs": 159701.95250000432
          },
          {
            "noteNumber": 77,
            "velocity": 0.7007874015748031,
            "startMs": 159659.58000000432,
            "endMs": 159707.24906250433
          },
          {
            "noteNumber": 80,
            "velocity": 0.7007874015748031,
            "startMs": 159659.58000000432,
            "endMs": 159723.13875000432
          },
          {
            "noteNumber": 75,
            "velocity": 0.7007874015748031,
            "startMs": 159786.69750000432,
            "endMs": 159829.0700000043
          },
          {
            "noteNumber": 79,
            "velocity": 0.7007874015748031,
            "startMs": 159786.69750000432,
            "endMs": 159818.4768750043
          },
          {
            "noteNumber": 82,
            "velocity": 0.7007874015748031,
            "startMs": 159786.69750000432,
            "endMs": 159844.9596875043
          },
          {
            "noteNumber": 75,
            "velocity": 0.7007874015748031,
            "startMs": 160040.93250000433,
            "endMs": 160099.19468750435
          },
          {
            "noteNumber": 79,
            "velocity": 0.7007874015748031,
            "startMs": 160040.93250000433,
            "endMs": 160088.60156250434
          },
          {
            "noteNumber": 82,
            "velocity": 0.7007874015748031,
            "startMs": 160040.93250000433,
            "endMs": 160099.19468750435
          },
          {
            "noteNumber": 75,
            "velocity": 0.7007874015748031,
            "startMs": 160295.16750000438,
            "endMs": 160342.83656250438
          },
          {
            "noteNumber": 79,
            "velocity": 0.7007874015748031,
            "startMs": 160295.16750000438,
            "endMs": 160348.1331250044
          },
          {
            "noteNumber": 82,
            "velocity": 0.7007874015748031,
            "startMs": 160295.16750000438,
            "endMs": 160353.4296875044
          },
          {
            "noteNumber": 75,
            "velocity": 0.7007874015748031,
            "startMs": 160549.4025000044,
            "endMs": 160591.7750000044
          },
          {
            "noteNumber": 79,
            "velocity": 0.7007874015748031,
            "startMs": 160549.4025000044,
            "endMs": 160602.3681250044
          },
          {
            "noteNumber": 82,
            "velocity": 0.7007874015748031,
            "startMs": 160549.4025000044,
            "endMs": 160597.0715625044
          },
          {
            "noteNumber": 75,
            "velocity": 0.7007874015748031,
            "startMs": 160676.5200000044,
            "endMs": 160718.8925000044
          },
          {
            "noteNumber": 79,
            "velocity": 0.7007874015748031,
            "startMs": 160676.5200000044,
            "endMs": 160724.18906250442
          },
          {
            "noteNumber": 82,
            "velocity": 0.7007874015748031,
            "startMs": 160676.5200000044,
            "endMs": 160729.48562500442
          },
          {
            "noteNumber": 77,
            "velocity": 0.7007874015748031,
            "startMs": 160930.7550000045,
            "endMs": 160983.7206250045
          },
          {
            "noteNumber": 81,
            "velocity": 0.7007874015748031,
            "startMs": 160930.7550000045,
            "endMs": 160994.3137500045
          },
          {
            "noteNumber": 84,
            "velocity": 0.7007874015748031,
            "startMs": 160930.7550000045,
            "endMs": 160994.3137500045
          },
          {
            "noteNumber": 77,
            "velocity": 0.7007874015748031,
            "startMs": 161184.9900000045,
            "endMs": 161227.3625000045
          },
          {
            "noteNumber": 81,
            "velocity": 0.7007874015748031,
            "startMs": 161184.9900000045,
            "endMs": 161243.25218750452
          },
          {
            "noteNumber": 84,
            "velocity": 0.7007874015748031,
            "startMs": 161184.9900000045,
            "endMs": 161248.54875000453
          },
          {
            "noteNumber": 77,
            "velocity": 0.7007874015748031,
            "startMs": 161439.22500000455,
            "endMs": 161502.7837500045
          },
          {
            "noteNumber": 81,
            "velocity": 0.7007874015748031,
            "startMs": 161439.22500000455,
            "endMs": 161502.7837500045
          },
          {
            "noteNumber": 84,
            "velocity": 0.7007874015748031,
            "startMs": 161439.22500000455,
            "endMs": 161502.7837500045
          },
          {
            "noteNumber": 75,
            "velocity": 0.7007874015748031,
            "startMs": 161693.4600000045,
            "endMs": 161757.0187500045
          },
          {
            "noteNumber": 79,
            "velocity": 0.7007874015748031,
            "startMs": 161693.4600000045,
            "endMs": 161757.0187500045
          },
          {
            "noteNumber": 82,
            "velocity": 0.7007874015748031,
            "startMs": 161693.4600000045,
            "endMs": 161757.0187500045
          },
          {
            "noteNumber": 77,
            "velocity": 0.7007874015748031,
            "startMs": 161820.5775000045,
            "endMs": 161884.13625000446
          },
          {
            "noteNumber": 81,
            "velocity": 0.7007874015748031,
            "startMs": 161820.5775000045,
            "endMs": 161884.13625000446
          },
          {
            "noteNumber": 84,
            "velocity": 0.7007874015748031,
            "startMs": 161820.5775000045,
            "endMs": 161884.13625000446
          },
          {
            "noteNumber": 77,
            "velocity": 0.7007874015748031,
            "startMs": 162074.81250000445,
            "endMs": 162138.37125000445
          },
          {
            "noteNumber": 81,
            "velocity": 0.7007874015748031,
            "startMs": 162074.81250000445,
            "endMs": 162138.37125000445
          },
          {
            "noteNumber": 84,
            "velocity": 0.7007874015748031,
            "startMs": 162074.81250000445,
            "endMs": 162138.37125000445
          },
          {
            "noteNumber": 41,
            "velocity": 0.984251968503937,
            "startMs": 178981.44000000422,
            "endMs": 183218.69000000422
          },
          {
            "noteNumber": 53,
            "velocity": 0.984251968503937,
            "startMs": 178981.44000000422,
            "endMs": 183218.69000000422
          }
        ],
        "durationMs": 183218.69000000422,
        "eventCount": 826,
        "events": [
          {
            "type": "noteOn",
            "timeMs": 53135.11499999897,
            "noteNumber": 81,
            "velocity": 0.7007874015748031
          },
          {
            "type": "noteOn",
            "timeMs": 53135.11499999897,
            "noteNumber": 84,
            "velocity": 0.7007874015748031
          },
          {
            "type": "noteOn",
            "timeMs": 53135.11499999897,
            "noteNumber": 89,
            "velocity": 0.7007874015748031
          },
          {
            "type": "noteOff",
            "timeMs": 53188.08062499897,
            "noteNumber": 89,
            "velocity": 0
          },
          {
            "type": "noteOff",
            "timeMs": 53188.08062499897,
            "noteNumber": 84,
            "velocity": 0
          },
          {
            "type": "noteOff",
            "timeMs": 53193.37718749897,
            "noteNumber": 81,
            "velocity": 0
          },
          {
            "type": "noteOn",
            "timeMs": 53389.34999999896,
            "noteNumber": 81,
            "velocity": 0.7007874015748031
          },
          {
            "type": "noteOn",
            "timeMs": 53389.34999999896,
            "noteNumber": 84,
            "velocity": 0.7007874015748031
          },
          {
            "type": "noteOn",
            "timeMs": 53389.34999999896,
            "noteNumber": 89,
            "velocity": 0.7007874015748031
          },
          {
            "type": "noteOff",
            "timeMs": 53442.315624998955,
            "noteNumber": 84,
            "velocity": 0
          },
          {
            "type": "noteOff",
            "timeMs": 53452.908749998955,
            "noteNumber": 89,
            "velocity": 0
          },
          {
            "type": "noteOff",
            "timeMs": 53468.798437498954,
            "noteNumber": 81,
            "velocity": 0
          },
          {
            "type": "noteOn",
            "timeMs": 53643.584999998944,
            "noteNumber": 81,
            "velocity": 0.7007874015748031
          },
          {
            "type": "noteOn",
            "timeMs": 53643.584999998944,
            "noteNumber": 84,
            "velocity": 0.7007874015748031
          },
          {
            "type": "noteOn",
            "timeMs": 53643.584999998944,
            "noteNumber": 89,
            "velocity": 0.7007874015748031
          },
          {
            "type": "noteOff",
            "timeMs": 53696.55062499894,
            "noteNumber": 84,
            "velocity": 0
          },
          {
            "type": "noteOff",
            "timeMs": 53696.55062499894,
            "noteNumber": 81,
            "velocity": 0
          },
          {
            "type": "noteOff",
            "timeMs": 53707.14374999894,
            "noteNumber": 89,
            "velocity": 0
          },
          {
            "type": "noteOn",
            "timeMs": 53770.70249999894,
            "noteNumber": 79,
            "velocity": 0.7007874015748031
          },
          {
            "type": "noteOn",
            "timeMs": 53770.70249999894,
            "noteNumber": 82,
            "velocity": 0.7007874015748031
          },
          {
            "type": "noteOn",
            "timeMs": 53770.70249999894,
            "noteNumber": 87,
            "velocity": 0.7007874015748031
          },
          {
            "type": "noteOff",
            "timeMs": 53813.074999998935,
            "noteNumber": 82,
            "velocity": 0
          },
          {
            "type": "noteOff",
            "timeMs": 53818.371562498935,
            "noteNumber": 79,
            "velocity": 0
          },
          {
            "type": "noteOff",
            "timeMs": 53839.55781249893,
            "noteNumber": 87,
            "velocity": 0
          },
          {
            "type": "noteOn",
            "timeMs": 54024.93749999892,
            "noteNumber": 79,
            "velocity": 0.7007874015748031
          },
          {
            "type": "noteOn",
            "timeMs": 54024.93749999892,
            "noteNumber": 82,
            "velocity": 0.7007874015748031
          },
          {
            "type": "noteOn",
            "timeMs": 54024.93749999892,
            "noteNumber": 87,
            "velocity": 0.7007874015748031
          },
          {
            "type": "noteOff",
            "timeMs": 54067.30999999892,
            "noteNumber": 79,
            "velocity": 0
          },
          {
            "type": "noteOff",
            "timeMs": 54072.60656249892,
            "noteNumber": 87,
            "velocity": 0
          },
          {
            "type": "noteOff",
            "timeMs": 54077.90312499892,
            "noteNumber": 82,
            "velocity": 0
          },
          {
            "type": "noteOn",
            "timeMs": 54279.17249999891,
            "noteNumber": 79,
            "velocity": 0.7007874015748031
          },
          {
            "type": "noteOn",
            "timeMs": 54279.17249999891,
            "noteNumber": 82,
            "velocity": 0.7007874015748031
          },
          {
            "type": "noteOn",
            "timeMs": 54279.17249999891,
            "noteNumber": 87,
            "velocity": 0.7007874015748031
          },
          {
            "type": "noteOff",
            "timeMs": 54321.54499999891,
            "noteNumber": 82,
            "velocity": 0
          },
          {
            "type": "noteOff",
            "timeMs": 54332.138124998906,
            "noteNumber": 79,
            "velocity": 0
          },
          {
            "type": "noteOff",
            "timeMs": 54342.731249998906,
            "noteNumber": 87,
            "velocity": 0
          },
          {
            "type": "noteOn",
            "timeMs": 54406.2899999989,
            "noteNumber": 77,
            "velocity": 0.7007874015748031
          },
          {
            "type": "noteOn",
            "timeMs": 54406.2899999989,
            "noteNumber": 82,
            "velocity": 0.7007874015748031
          },
          {
            "type": "noteOn",
            "timeMs": 54406.2899999989,
            "noteNumber": 86,
            "velocity": 0.7007874015748031
          },
          {
            "type": "noteOff",
            "timeMs": 54459.2556249989,
            "noteNumber": 82,
            "velocity": 0
          },
          {
            "type": "noteOff",
            "timeMs": 54459.2556249989,
            "noteNumber": 77,
            "velocity": 0
          },
          {
            "type": "noteOff",
            "timeMs": 54464.5521874989,
            "noteNumber": 86,
            "velocity": 0
          },
          {
            "type": "noteOn",
            "timeMs": 54660.52499999889,
            "noteNumber": 77,
            "velocity": 0.7007874015748031
          },
          {
            "type": "noteOn",
            "timeMs": 54660.52499999889,
            "noteNumber": 82,
            "velocity": 0.7007874015748031
          },
          {
            "type": "noteOn",
            "timeMs": 54660.52499999889,
            "noteNumber": 86,
            "velocity": 0.7007874015748031
          },
          {
            "type": "noteOff",
            "timeMs": 54729.380312498884,
            "noteNumber": 77,
            "velocity": 0
          },
          {
            "type": "noteOff",
            "timeMs": 54734.676874998884,
            "noteNumber": 86,
            "velocity": 0
          },
          {
            "type": "noteOff",
            "timeMs": 54739.973437498884,
            "noteNumber": 82,
            "velocity": 0
          },
          {
            "type": "noteOn",
            "timeMs": 55168.99499999886,
            "noteNumber": 77,
            "velocity": 0.7007874015748031
          },
          {
            "type": "noteOn",
            "timeMs": 55168.99499999886,
            "noteNumber": 81,
            "velocity": 0.7007874015748031
          },
          {
            "type": "noteOn",
            "timeMs": 55168.99499999886,
            "noteNumber": 84,
            "velocity": 0.7007874015748031
          },
          {
            "type": "noteOff",
            "timeMs": 55216.66406249886,
            "noteNumber": 81,
            "velocity": 0
          },
          {
            "type": "noteOff",
            "timeMs": 55221.96062499886,
            "noteNumber": 84,
            "velocity": 0
          },
          {
            "type": "noteOff",
            "timeMs": 55221.96062499886,
            "noteNumber": 77,
            "velocity": 0
          },
          {
            "type": "noteOn",
            "timeMs": 55423.229999998846,
            "noteNumber": 77,
            "velocity": 0.7007874015748031
          },
          {
            "type": "noteOn",
            "timeMs": 55423.229999998846,
            "noteNumber": 81,
            "velocity": 0.7007874015748031
          },
          {
            "type": "noteOn",
            "timeMs": 55423.229999998846,
            "noteNumber": 84,
            "velocity": 0.7007874015748031
          },
          {
            "type": "noteOff",
            "timeMs": 55465.602499998844,
            "noteNumber": 77,
            "velocity": 0
          },
          {
            "type": "noteOff",
            "timeMs": 55470.899062498844,
            "noteNumber": 81,
            "velocity": 0
          },
          {
            "type": "noteOff",
            "timeMs": 55481.49218749884,
            "noteNumber": 84,
            "velocity": 0
          },
          {
            "type": "noteOn",
            "timeMs": 55677.46499999883,
            "noteNumber": 77,
            "velocity": 0.7007874015748031
          },
          {
            "type": "noteOn",
            "timeMs": 55677.46499999883,
            "noteNumber": 81,
            "velocity": 0.7007874015748031
          },
          {
            "type": "noteOn",
            "timeMs": 55677.46499999883,
            "noteNumber": 84,
            "velocity": 0.7007874015748031
          },
          {
            "type": "noteOff",
            "timeMs": 55714.54093749883,
            "noteNumber": 77,
            "velocity": 0
          },
          {
            "type": "noteOff",
            "timeMs": 55730.43062499883,
            "noteNumber": 81,
            "velocity": 0
          },
          {
            "type": "noteOff",
            "timeMs": 55741.02374999883,
            "noteNumber": 84,
            "velocity": 0
          },
          {
            "type": "noteOn",
            "timeMs": 55804.582499998825,
            "noteNumber": 79,
            "velocity": 0.7007874015748031
          },
          {
            "type": "noteOn",
            "timeMs": 55804.582499998825,
            "noteNumber": 82,
            "velocity": 0.7007874015748031
          },
          {
            "type": "noteOn",
            "timeMs": 55804.582499998825,
            "noteNumber": 87,
            "velocity": 0.7007874015748031
          },
          {
            "type": "noteOff",
            "timeMs": 55852.25156249882,
            "noteNumber": 82,
            "velocity": 0
          },
          {
            "type": "noteOff",
            "timeMs": 55868.14124999882,
            "noteNumber": 87,
            "velocity": 0
          },
          {
            "type": "noteOff",
            "timeMs": 55868.14124999882,
            "noteNumber": 79,
            "velocity": 0
          },
          {
            "type": "noteOn",
            "timeMs": 56058.81749999881,
            "noteNumber": 79,
            "velocity": 0.7007874015748031
          },
          {
            "type": "noteOn",
            "timeMs": 56058.81749999881,
            "noteNumber": 82,
            "velocity": 0.7007874015748031
          },
          {
            "type": "noteOn",
            "timeMs": 56058.81749999881,
            "noteNumber": 87,
            "velocity": 0.7007874015748031
          },
          {
            "type": "noteOff",
            "timeMs": 56095.89343749881,
            "noteNumber": 82,
            "velocity": 0
          },
          {
            "type": "noteOff",
            "timeMs": 56106.48656249881,
            "noteNumber": 87,
            "velocity": 0
          },
          {
            "type": "noteOff",
            "timeMs": 56111.78312499881,
            "noteNumber": 79,
            "velocity": 0
          },
          {
            "type": "noteOn",
            "timeMs": 56185.934999998804,
            "noteNumber": 79,
            "velocity": 0.7007874015748031
          },
          {
            "type": "noteOn",
            "timeMs": 56185.934999998804,
            "noteNumber": 82,
            "velocity": 0.7007874015748031
          },
          {
            "type": "noteOn",
            "timeMs": 56185.934999998804,
            "noteNumber": 86,
            "velocity": 0.7007874015748031
          },
          {
            "type": "noteOff",
            "timeMs": 56249.4937499988,
            "noteNumber": 79,
            "velocity": 0
          },
          {
            "type": "noteOff",
            "timeMs": 56265.3834374988,
            "noteNumber": 82,
            "velocity": 0
          },
          {
            "type": "noteOff",
            "timeMs": 56270.6799999988,
            "noteNumber": 86,
            "velocity": 0
          },
          {
            "type": "noteOn",
            "timeMs": 56440.16999999879,
            "noteNumber": 77,
            "velocity": 0.7007874015748031
          },
          {
            "type": "noteOn",
            "timeMs": 56440.16999999879,
            "noteNumber": 81,
            "velocity": 0.7007874015748031
          },
          {
            "type": "noteOn",
            "timeMs": 56440.16999999879,
            "noteNumber": 84,
            "velocity": 0.7007874015748031
          },
          {
            "type": "noteOff",
            "timeMs": 56493.13562499879,
            "noteNumber": 77,
            "velocity": 0
          },
          {
            "type": "noteOff",
            "timeMs": 56498.43218749879,
            "noteNumber": 81,
            "velocity": 0
          },
          {
            "type": "noteOff",
            "timeMs": 56530.211562498785,
            "noteNumber": 84,
            "velocity": 0
          },
          {
            "type": "noteOn",
            "timeMs": 57202.87499999875,
            "noteNumber": 73,
            "velocity": 0.7007874015748031
          },
          {
            "type": "noteOn",
            "timeMs": 57202.87499999875,
            "noteNumber": 77,
            "velocity": 0.7007874015748031
          },
          {
            "type": "noteOn",
            "timeMs": 57202.87499999875,
            "noteNumber": 80,
            "velocity": 0.7007874015748031
          },
          {
            "type": "noteOff",
            "timeMs": 57255.840624998746,
            "noteNumber": 77,
            "velocity": 0
          },
          {
            "type": "noteOff",
            "timeMs": 57255.840624998746,
            "noteNumber": 73,
            "velocity": 0
          },
          {
            "type": "noteOff",
            "timeMs": 57266.433749998745,
            "noteNumber": 80,
            "velocity": 0
          },
          {
            "type": "noteOn",
            "timeMs": 57457.109999998735,
            "noteNumber": 73,
            "velocity": 0.7007874015748031
          },
          {
            "type": "noteOn",
            "timeMs": 57457.109999998735,
            "noteNumber": 77,
            "velocity": 0.7007874015748031
          },
          {
            "type": "noteOn",
            "timeMs": 57457.109999998735,
            "noteNumber": 80,
            "velocity": 0.7007874015748031
          },
          {
            "type": "noteOff",
            "timeMs": 57510.07562499873,
            "noteNumber": 77,
            "velocity": 0
          },
          {
            "type": "noteOff",
            "timeMs": 57515.37218749873,
            "noteNumber": 73,
            "velocity": 0
          },
          {
            "type": "noteOff",
            "timeMs": 57525.96531249873,
            "noteNumber": 80,
            "velocity": 0
          },
          {
            "type": "noteOn",
            "timeMs": 57711.34499999872,
            "noteNumber": 73,
            "velocity": 0.7007874015748031
          },
          {
            "type": "noteOn",
            "timeMs": 57711.34499999872,
            "noteNumber": 77,
            "velocity": 0.7007874015748031
          },
          {
            "type": "noteOn",
            "timeMs": 57711.34499999872,
            "noteNumber": 80,
            "velocity": 0.7007874015748031
          },
          {
            "type": "noteOff",
            "timeMs": 57753.71749999872,
            "noteNumber": 73,
            "velocity": 0
          },
          {
            "type": "noteOff",
            "timeMs": 57764.31062499872,
            "noteNumber": 80,
            "velocity": 0
          },
          {
            "type": "noteOff",
            "timeMs": 57764.31062499872,
            "noteNumber": 77,
            "velocity": 0
          },
          {
            "type": "noteOn",
            "timeMs": 57965.57999999871,
            "noteNumber": 73,
            "velocity": 0.7007874015748031
          },
          {
            "type": "noteOn",
            "timeMs": 57965.57999999871,
            "noteNumber": 77,
            "velocity": 0.7007874015748031
          },
          {
            "type": "noteOn",
            "timeMs": 57965.57999999871,
            "noteNumber": 80,
            "velocity": 0.7007874015748031
          },
          {
            "type": "noteOff",
            "timeMs": 58007.952499998704,
            "noteNumber": 73,
            "velocity": 0
          },
          {
            "type": "noteOff",
            "timeMs": 58013.249062498704,
            "noteNumber": 77,
            "velocity": 0
          },
          {
            "type": "noteOff",
            "timeMs": 58029.1387499987,
            "noteNumber": 80,
            "velocity": 0
          },
          {
            "type": "noteOn",
            "timeMs": 58092.6974999987,
            "noteNumber": 75,
            "velocity": 0.7007874015748031
          },
          {
            "type": "noteOn",
            "timeMs": 58092.6974999987,
            "noteNumber": 79,
            "velocity": 0.7007874015748031
          },
          {
            "type": "noteOn",
            "timeMs": 58092.6974999987,
            "noteNumber": 82,
            "velocity": 0.7007874015748031
          },
          {
            "type": "noteOff",
            "timeMs": 58124.4768749987,
            "noteNumber": 79,
            "velocity": 0
          },
          {
            "type": "noteOff",
            "timeMs": 58135.0699999987,
            "noteNumber": 75,
            "velocity": 0
          },
          {
            "type": "noteOff",
            "timeMs": 58150.9596874987,
            "noteNumber": 82,
            "velocity": 0
          },
          {
            "type": "noteOn",
            "timeMs": 58346.932499998686,
            "noteNumber": 75,
            "velocity": 0.7007874015748031
          },
          {
            "type": "noteOn",
            "timeMs": 58346.932499998686,
            "noteNumber": 79,
            "velocity": 0.7007874015748031
          },
          {
            "type": "noteOn",
            "timeMs": 58346.932499998686,
            "noteNumber": 82,
            "velocity": 0.7007874015748031
          },
          {
            "type": "noteOff",
            "timeMs": 58394.60156249868,
            "noteNumber": 79,
            "velocity": 0
          },
          {
            "type": "noteOff",
            "timeMs": 58405.19468749868,
            "noteNumber": 82,
            "velocity": 0
          },
          {
            "type": "noteOff",
            "timeMs": 58405.19468749868,
            "noteNumber": 75,
            "velocity": 0
          },
          {
            "type": "noteOn",
            "timeMs": 58601.16749999867,
            "noteNumber": 75,
            "velocity": 0.7007874015748031
          },
          {
            "type": "noteOn",
            "timeMs": 58601.16749999867,
            "noteNumber": 79,
            "velocity": 0.7007874015748031
          },
          {
            "type": "noteOn",
            "timeMs": 58601.16749999867,
            "noteNumber": 82,
            "velocity": 0.7007874015748031
          },
          {
            "type": "noteOff",
            "timeMs": 58648.83656249867,
            "noteNumber": 75,
            "velocity": 0
          },
          {
            "type": "noteOff",
            "timeMs": 58654.13312499867,
            "noteNumber": 79,
            "velocity": 0
          },
          {
            "type": "noteOff",
            "timeMs": 58659.42968749867,
            "noteNumber": 82,
            "velocity": 0
          },
          {
            "type": "noteOn",
            "timeMs": 58855.40249999866,
            "noteNumber": 75,
            "velocity": 0.7007874015748031
          },
          {
            "type": "noteOn",
            "timeMs": 58855.40249999866,
            "noteNumber": 79,
            "velocity": 0.7007874015748031
          },
          {
            "type": "noteOn",
            "timeMs": 58855.40249999866,
            "noteNumber": 82,
            "velocity": 0.7007874015748031
          },
          {
            "type": "noteOff",
            "timeMs": 58897.774999998655,
            "noteNumber": 75,
            "velocity": 0
          },
          {
            "type": "noteOff",
            "timeMs": 58903.071562498655,
            "noteNumber": 82,
            "velocity": 0
          },
          {
            "type": "noteOff",
            "timeMs": 58908.368124998655,
            "noteNumber": 79,
            "velocity": 0
          },
          {
            "type": "noteOn",
            "timeMs": 58982.51999999865,
            "noteNumber": 75,
            "velocity": 0.7007874015748031
          },
          {
            "type": "noteOn",
            "timeMs": 58982.51999999865,
            "noteNumber": 79,
            "velocity": 0.7007874015748031
          },
          {
            "type": "noteOn",
            "timeMs": 58982.51999999865,
            "noteNumber": 82,
            "velocity": 0.7007874015748031
          },
          {
            "type": "noteOff",
            "timeMs": 59024.89249999865,
            "noteNumber": 75,
            "velocity": 0
          },
          {
            "type": "noteOff",
            "timeMs": 59030.18906249865,
            "noteNumber": 79,
            "velocity": 0
          },
          {
            "type": "noteOff",
            "timeMs": 59035.48562499865,
            "noteNumber": 82,
            "velocity": 0
          },
          {
            "type": "noteOn",
            "timeMs": 59236.75499999864,
            "noteNumber": 77,
            "velocity": 0.7007874015748031
          },
          {
            "type": "noteOn",
            "timeMs": 59236.75499999864,
            "noteNumber": 81,
            "velocity": 0.7007874015748031
          },
          {
            "type": "noteOn",
            "timeMs": 59236.75499999864,
            "noteNumber": 84,
            "velocity": 0.7007874015748031
          },
          {
            "type": "noteOff",
            "timeMs": 59289.72062499864,
            "noteNumber": 77,
            "velocity": 0
          },
          {
            "type": "noteOff",
            "timeMs": 59300.31374999864,
            "noteNumber": 84,
            "velocity": 0
          },
          {
            "type": "noteOff",
            "timeMs": 59300.31374999864,
            "noteNumber": 81,
            "velocity": 0
          },
          {
            "type": "noteOn",
            "timeMs": 59490.98999999863,
            "noteNumber": 77,
            "velocity": 0.7007874015748031
          },
          {
            "type": "noteOn",
            "timeMs": 59490.98999999863,
            "noteNumber": 81,
            "velocity": 0.7007874015748031
          },
          {
            "type": "noteOn",
            "timeMs": 59490.98999999863,
            "noteNumber": 84,
            "velocity": 0.7007874015748031
          },
          {
            "type": "noteOff",
            "timeMs": 59533.362499998635,
            "noteNumber": 77,
            "velocity": 0
          },
          {
            "type": "noteOff",
            "timeMs": 59549.252187498634,
            "noteNumber": 81,
            "velocity": 0
          },
          {
            "type": "noteOff",
            "timeMs": 59554.548749998634,
            "noteNumber": 84,
            "velocity": 0
          },
          {
            "type": "noteOn",
            "timeMs": 59745.22499999862,
            "noteNumber": 77,
            "velocity": 0.7007874015748031
          },
          {
            "type": "noteOn",
            "timeMs": 59745.22499999862,
            "noteNumber": 81,
            "velocity": 0.7007874015748031
          },
          {
            "type": "noteOn",
            "timeMs": 59745.22499999862,
            "noteNumber": 84,
            "velocity": 0.7007874015748031
          },
          {
            "type": "noteOff",
            "timeMs": 59808.78374999862,
            "noteNumber": 84,
            "velocity": 0
          },
          {
            "type": "noteOff",
            "timeMs": 59808.78374999862,
            "noteNumber": 81,
            "velocity": 0
          },
          {
            "type": "noteOff",
            "timeMs": 59808.78374999862,
            "noteNumber": 77,
            "velocity": 0
          },
          {
            "type": "noteOn",
            "timeMs": 59999.45999999861,
            "noteNumber": 75,
            "velocity": 0.7007874015748031
          },
          {
            "type": "noteOn",
            "timeMs": 59999.45999999861,
            "noteNumber": 79,
            "velocity": 0.7007874015748031
          },
          {
            "type": "noteOn",
            "timeMs": 59999.45999999861,
            "noteNumber": 82,
            "velocity": 0.7007874015748031
          },
          {
            "type": "noteOff",
            "timeMs": 60063.018749998606,
            "noteNumber": 82,
            "velocity": 0
          },
          {
            "type": "noteOff",
            "timeMs": 60063.018749998606,
            "noteNumber": 79,
            "velocity": 0
          },
          {
            "type": "noteOff",
            "timeMs": 60063.018749998606,
            "noteNumber": 75,
            "velocity": 0
          },
          {
            "type": "noteOn",
            "timeMs": 60126.5774999986,
            "noteNumber": 77,
            "velocity": 0.7007874015748031
          },
          {
            "type": "noteOn",
            "timeMs": 60126.5774999986,
            "noteNumber": 81,
            "velocity": 0.7007874015748031
          },
          {
            "type": "noteOn",
            "timeMs": 60126.5774999986,
            "noteNumber": 84,
            "velocity": 0.7007874015748031
          },
          {
            "type": "noteOff",
            "timeMs": 60190.1362499986,
            "noteNumber": 84,
            "velocity": 0
          },
          {
            "type": "noteOff",
            "timeMs": 60190.1362499986,
            "noteNumber": 81,
            "velocity": 0
          },
          {
            "type": "noteOff",
            "timeMs": 60190.1362499986,
            "noteNumber": 77,
            "velocity": 0
          },
          {
            "type": "noteOn",
            "timeMs": 60380.812499998596,
            "noteNumber": 77,
            "velocity": 0.7007874015748031
          },
          {
            "type": "noteOn",
            "timeMs": 60380.812499998596,
            "noteNumber": 81,
            "velocity": 0.7007874015748031
          },
          {
            "type": "noteOn",
            "timeMs": 60380.812499998596,
            "noteNumber": 84,
            "velocity": 0.7007874015748031
          },
          {
            "type": "noteOff",
            "timeMs": 60444.3712499986,
            "noteNumber": 84,
            "velocity": 0
          },
          {
            "type": "noteOff",
            "timeMs": 60444.3712499986,
            "noteNumber": 81,
            "velocity": 0
          },
          {
            "type": "noteOff",
            "timeMs": 60444.3712499986,
            "noteNumber": 77,
            "velocity": 0
          },
          {
            "type": "noteOn",
            "timeMs": 61270.63499999856,
            "noteNumber": 81,
            "velocity": 0.7007874015748031
          },
          {
            "type": "noteOn",
            "timeMs": 61270.63499999856,
            "noteNumber": 84,
            "velocity": 0.7007874015748031
          },
          {
            "type": "noteOn",
            "timeMs": 61270.63499999856,
            "noteNumber": 89,
            "velocity": 0.7007874015748031
          },
          {
            "type": "noteOff",
            "timeMs": 61323.60062499856,
            "noteNumber": 89,
            "velocity": 0
          },
          {
            "type": "noteOff",
            "timeMs": 61323.60062499856,
            "noteNumber": 84,
            "velocity": 0
          },
          {
            "type": "noteOff",
            "timeMs": 61328.89718749856,
            "noteNumber": 81,
            "velocity": 0
          },
          {
            "type": "noteOn",
            "timeMs": 61524.86999999855,
            "noteNumber": 81,
            "velocity": 0.7007874015748031
          },
          {
            "type": "noteOn",
            "timeMs": 61524.86999999855,
            "noteNumber": 84,
            "velocity": 0.7007874015748031
          },
          {
            "type": "noteOn",
            "timeMs": 61524.86999999855,
            "noteNumber": 89,
            "velocity": 0.7007874015748031
          },
          {
            "type": "noteOff",
            "timeMs": 61577.835624998545,
            "noteNumber": 84,
            "velocity": 0
          },
          {
            "type": "noteOff",
            "timeMs": 61588.428749998544,
            "noteNumber": 89,
            "velocity": 0
          },
          {
            "type": "noteOff",
            "timeMs": 61604.31843749854,
            "noteNumber": 81,
            "velocity": 0
          },
          {
            "type": "noteOn",
            "timeMs": 61779.10499999853,
            "noteNumber": 81,
            "velocity": 0.7007874015748031
          },
          {
            "type": "noteOn",
            "timeMs": 61779.10499999853,
            "noteNumber": 84,
            "velocity": 0.7007874015748031
          },
          {
            "type": "noteOn",
            "timeMs": 61779.10499999853,
            "noteNumber": 89,
            "velocity": 0.7007874015748031
          },
          {
            "type": "noteOff",
            "timeMs": 61832.07062499853,
            "noteNumber": 84,
            "velocity": 0
          },
          {
            "type": "noteOff",
            "timeMs": 61832.07062499853,
            "noteNumber": 81,
            "velocity": 0
          },
          {
            "type": "noteOff",
            "timeMs": 61842.66374999853,
            "noteNumber": 89,
            "velocity": 0
          },
          {
            "type": "noteOn",
            "timeMs": 61906.22249999853,
            "noteNumber": 79,
            "velocity": 0.7007874015748031
          },
          {
            "type": "noteOn",
            "timeMs": 61906.22249999853,
            "noteNumber": 82,
            "velocity": 0.7007874015748031
          },
          {
            "type": "noteOn",
            "timeMs": 61906.22249999853,
            "noteNumber": 87,
            "velocity": 0.7007874015748031
          },
          {
            "type": "noteOff",
            "timeMs": 61948.594999998524,
            "noteNumber": 82,
            "velocity": 0
          },
          {
            "type": "noteOff",
            "timeMs": 61953.891562498524,
            "noteNumber": 79,
            "velocity": 0
          },
          {
            "type": "noteOff",
            "timeMs": 61975.07781249852,
            "noteNumber": 87,
            "velocity": 0
          },
          {
            "type": "noteOn",
            "timeMs": 62160.45749999851,
            "noteNumber": 79,
            "velocity": 0.7007874015748031
          },
          {
            "type": "noteOn",
            "timeMs": 62160.45749999851,
            "noteNumber": 82,
            "velocity": 0.7007874015748031
          },
          {
            "type": "noteOn",
            "timeMs": 62160.45749999851,
            "noteNumber": 87,
            "velocity": 0.7007874015748031
          },
          {
            "type": "noteOff",
            "timeMs": 62202.82999999851,
            "noteNumber": 79,
            "velocity": 0
          },
          {
            "type": "noteOff",
            "timeMs": 62208.12656249851,
            "noteNumber": 87,
            "velocity": 0
          },
          {
            "type": "noteOff",
            "timeMs": 62213.42312499851,
            "noteNumber": 82,
            "velocity": 0
          },
          {
            "type": "noteOn",
            "timeMs": 62414.6924999985,
            "noteNumber": 79,
            "velocity": 0.7007874015748031
          },
          {
            "type": "noteOn",
            "timeMs": 62414.6924999985,
            "noteNumber": 82,
            "velocity": 0.7007874015748031
          },
          {
            "type": "noteOn",
            "timeMs": 62414.6924999985,
            "noteNumber": 87,
            "velocity": 0.7007874015748031
          },
          {
            "type": "noteOff",
            "timeMs": 62457.064999998496,
            "noteNumber": 82,
            "velocity": 0
          },
          {
            "type": "noteOff",
            "timeMs": 62467.658124998496,
            "noteNumber": 79,
            "velocity": 0
          },
          {
            "type": "noteOff",
            "timeMs": 62478.251249998495,
            "noteNumber": 87,
            "velocity": 0
          },
          {
            "type": "noteOn",
            "timeMs": 62541.80999999849,
            "noteNumber": 77,
            "velocity": 0.7007874015748031
          },
          {
            "type": "noteOn",
            "timeMs": 62541.80999999849,
            "noteNumber": 82,
            "velocity": 0.7007874015748031
          },
          {
            "type": "noteOn",
            "timeMs": 62541.80999999849,
            "noteNumber": 86,
            "velocity": 0.7007874015748031
          },
          {
            "type": "noteOff",
            "timeMs": 62594.77562499849,
            "noteNumber": 82,
            "velocity": 0
          },
          {
            "type": "noteOff",
            "timeMs": 62594.77562499849,
            "noteNumber": 77,
            "velocity": 0
          },
          {
            "type": "noteOff",
            "timeMs": 62600.07218749849,
            "noteNumber": 86,
            "velocity": 0
          },
          {
            "type": "noteOn",
            "timeMs": 62796.04499999848,
            "noteNumber": 77,
            "velocity": 0.7007874015748031
          },
          {
            "type": "noteOn",
            "timeMs": 62796.04499999848,
            "noteNumber": 82,
            "velocity": 0.7007874015748031
          },
          {
            "type": "noteOn",
            "timeMs": 62796.04499999848,
            "noteNumber": 86,
            "velocity": 0.7007874015748031
          },
          {
            "type": "noteOff",
            "timeMs": 62864.900312498474,
            "noteNumber": 77,
            "velocity": 0
          },
          {
            "type": "noteOff",
            "timeMs": 62870.19687499847,
            "noteNumber": 86,
            "velocity": 0
          },
          {
            "type": "noteOff",
            "timeMs": 62875.49343749847,
            "noteNumber": 82,
            "velocity": 0
          },
          {
            "type": "noteOn",
            "timeMs": 63304.51499999845,
            "noteNumber": 77,
            "velocity": 0.7007874015748031
          },
          {
            "type": "noteOn",
            "timeMs": 63304.51499999845,
            "noteNumber": 81,
            "velocity": 0.7007874015748031
          },
          {
            "type": "noteOn",
            "timeMs": 63304.51499999845,
            "noteNumber": 84,
            "velocity": 0.7007874015748031
          },
          {
            "type": "noteOff",
            "timeMs": 63352.18406249845,
            "noteNumber": 81,
            "velocity": 0
          },
          {
            "type": "noteOff",
            "timeMs": 63357.48062499845,
            "noteNumber": 84,
            "velocity": 0
          },
          {
            "type": "noteOff",
            "timeMs": 63357.48062499845,
            "noteNumber": 77,
            "velocity": 0
          },
          {
            "type": "noteOn",
            "timeMs": 63558.749999998436,
            "noteNumber": 77,
            "velocity": 0.7007874015748031
          },
          {
            "type": "noteOn",
            "timeMs": 63558.749999998436,
            "noteNumber": 81,
            "velocity": 0.7007874015748031
          },
          {
            "type": "noteOn",
            "timeMs": 63558.749999998436,
            "noteNumber": 84,
            "velocity": 0.7007874015748031
          },
          {
            "type": "noteOff",
            "timeMs": 63601.12249999843,
            "noteNumber": 77,
            "velocity": 0
          },
          {
            "type": "noteOff",
            "timeMs": 63606.41906249843,
            "noteNumber": 81,
            "velocity": 0
          },
          {
            "type": "noteOff",
            "timeMs": 63617.01218749843,
            "noteNumber": 84,
            "velocity": 0
          },
          {
            "type": "noteOn",
            "timeMs": 63812.98499999842,
            "noteNumber": 77,
            "velocity": 0.7007874015748031
          },
          {
            "type": "noteOn",
            "timeMs": 63812.98499999842,
            "noteNumber": 81,
            "velocity": 0.7007874015748031
          },
          {
            "type": "noteOn",
            "timeMs": 63812.98499999842,
            "noteNumber": 84,
            "velocity": 0.7007874015748031
          },
          {
            "type": "noteOff",
            "timeMs": 63850.06093749842,
            "noteNumber": 77,
            "velocity": 0
          },
          {
            "type": "noteOff",
            "timeMs": 63865.95062499842,
            "noteNumber": 81,
            "velocity": 0
          },
          {
            "type": "noteOff",
            "timeMs": 63876.54374999842,
            "noteNumber": 84,
            "velocity": 0
          },
          {
            "type": "noteOn",
            "timeMs": 63940.102499998415,
            "noteNumber": 79,
            "velocity": 0.7007874015748031
          },
          {
            "type": "noteOn",
            "timeMs": 63940.102499998415,
            "noteNumber": 82,
            "velocity": 0.7007874015748031
          },
          {
            "type": "noteOn",
            "timeMs": 63940.102499998415,
            "noteNumber": 87,
            "velocity": 0.7007874015748031
          },
          {
            "type": "noteOff",
            "timeMs": 63987.77156249841,
            "noteNumber": 82,
            "velocity": 0
          },
          {
            "type": "noteOff",
            "timeMs": 64003.66124999841,
            "noteNumber": 87,
            "velocity": 0
          },
          {
            "type": "noteOff",
            "timeMs": 64003.66124999841,
            "noteNumber": 79,
            "velocity": 0
          },
          {
            "type": "noteOn",
            "timeMs": 64194.3374999984,
            "noteNumber": 79,
            "velocity": 0.7007874015748031
          },
          {
            "type": "noteOn",
            "timeMs": 64194.3374999984,
            "noteNumber": 82,
            "velocity": 0.7007874015748031
          },
          {
            "type": "noteOn",
            "timeMs": 64194.3374999984,
            "noteNumber": 87,
            "velocity": 0.7007874015748031
          },
          {
            "type": "noteOff",
            "timeMs": 64231.4134374984,
            "noteNumber": 82,
            "velocity": 0
          },
          {
            "type": "noteOff",
            "timeMs": 64242.0065624984,
            "noteNumber": 87,
            "velocity": 0
          },
          {
            "type": "noteOff",
            "timeMs": 64247.3031249984,
            "noteNumber": 79,
            "velocity": 0
          },
          {
            "type": "noteOn",
            "timeMs": 64321.454999998394,
            "noteNumber": 79,
            "velocity": 0.7007874015748031
          },
          {
            "type": "noteOn",
            "timeMs": 64321.454999998394,
            "noteNumber": 82,
            "velocity": 0.7007874015748031
          },
          {
            "type": "noteOn",
            "timeMs": 64321.454999998394,
            "noteNumber": 86,
            "velocity": 0.7007874015748031
          },
          {
            "type": "noteOff",
            "timeMs": 64385.01374999839,
            "noteNumber": 79,
            "velocity": 0
          },
          {
            "type": "noteOff",
            "timeMs": 64400.90343749839,
            "noteNumber": 82,
            "velocity": 0
          },
          {
            "type": "noteOff",
            "timeMs": 64406.19999999839,
            "noteNumber": 86,
            "velocity": 0
          },
          {
            "type": "noteOn",
            "timeMs": 64575.68999999838,
            "noteNumber": 77,
            "velocity": 0.7007874015748031
          },
          {
            "type": "noteOn",
            "timeMs": 64575.68999999838,
            "noteNumber": 81,
            "velocity": 0.7007874015748031
          },
          {
            "type": "noteOn",
            "timeMs": 64575.68999999838,
            "noteNumber": 84,
            "velocity": 0.7007874015748031
          },
          {
            "type": "noteOff",
            "timeMs": 64628.65562499838,
            "noteNumber": 77,
            "velocity": 0
          },
          {
            "type": "noteOff",
            "timeMs": 64633.95218749838,
            "noteNumber": 81,
            "velocity": 0
          },
          {
            "type": "noteOff",
            "timeMs": 64665.731562498375,
            "noteNumber": 84,
            "velocity": 0
          },
          {
            "type": "noteOn",
            "timeMs": 65338.39499999834,
            "noteNumber": 73,
            "velocity": 0.7007874015748031
          },
          {
            "type": "noteOn",
            "timeMs": 65338.39499999834,
            "noteNumber": 77,
            "velocity": 0.7007874015748031
          },
          {
            "type": "noteOn",
            "timeMs": 65338.39499999834,
            "noteNumber": 80,
            "velocity": 0.7007874015748031
          },
          {
            "type": "noteOff",
            "timeMs": 65391.360624998335,
            "noteNumber": 77,
            "velocity": 0
          },
          {
            "type": "noteOff",
            "timeMs": 65391.360624998335,
            "noteNumber": 73,
            "velocity": 0
          },
          {
            "type": "noteOff",
            "timeMs": 65401.953749998334,
            "noteNumber": 80,
            "velocity": 0
          },
          {
            "type": "noteOn",
            "timeMs": 65592.62999999833,
            "noteNumber": 73,
            "velocity": 0.7007874015748031
          },
          {
            "type": "noteOn",
            "timeMs": 65592.62999999833,
            "noteNumber": 77,
            "velocity": 0.7007874015748031
          },
          {
            "type": "noteOn",
            "timeMs": 65592.62999999833,
            "noteNumber": 80,
            "velocity": 0.7007874015748031
          },
          {
            "type": "noteOff",
            "timeMs": 65645.59562499833,
            "noteNumber": 77,
            "velocity": 0
          },
          {
            "type": "noteOff",
            "timeMs": 65650.89218749834,
            "noteNumber": 73,
            "velocity": 0
          },
          {
            "type": "noteOff",
            "timeMs": 65661.48531249835,
            "noteNumber": 80,
            "velocity": 0
          },
          {
            "type": "noteOn",
            "timeMs": 65846.86499999835,
            "noteNumber": 73,
            "velocity": 0.7007874015748031
          },
          {
            "type": "noteOn",
            "timeMs": 65846.86499999835,
            "noteNumber": 77,
            "velocity": 0.7007874015748031
          },
          {
            "type": "noteOn",
            "timeMs": 65846.86499999835,
            "noteNumber": 80,
            "velocity": 0.7007874015748031
          },
          {
            "type": "noteOff",
            "timeMs": 65889.23749999836,
            "noteNumber": 73,
            "velocity": 0
          },
          {
            "type": "noteOff",
            "timeMs": 65899.83062499836,
            "noteNumber": 80,
            "velocity": 0
          },
          {
            "type": "noteOff",
            "timeMs": 65899.83062499836,
            "noteNumber": 77,
            "velocity": 0
          },
          {
            "type": "noteOn",
            "timeMs": 66101.09999999838,
            "noteNumber": 73,
            "velocity": 0.7007874015748031
          },
          {
            "type": "noteOn",
            "timeMs": 66101.09999999838,
            "noteNumber": 77,
            "velocity": 0.7007874015748031
          },
          {
            "type": "noteOn",
            "timeMs": 66101.09999999838,
            "noteNumber": 80,
            "velocity": 0.7007874015748031
          },
          {
            "type": "noteOff",
            "timeMs": 66143.47249999837,
            "noteNumber": 73,
            "velocity": 0
          },
          {
            "type": "noteOff",
            "timeMs": 66148.76906249838,
            "noteNumber": 77,
            "velocity": 0
          },
          {
            "type": "noteOff",
            "timeMs": 66164.65874999839,
            "noteNumber": 80,
            "velocity": 0
          },
          {
            "type": "noteOn",
            "timeMs": 66228.2174999984,
            "noteNumber": 75,
            "velocity": 0.7007874015748031
          },
          {
            "type": "noteOn",
            "timeMs": 66228.2174999984,
            "noteNumber": 79,
            "velocity": 0.7007874015748031
          },
          {
            "type": "noteOn",
            "timeMs": 66228.2174999984,
            "noteNumber": 82,
            "velocity": 0.7007874015748031
          },
          {
            "type": "noteOff",
            "timeMs": 66259.9968749984,
            "noteNumber": 79,
            "velocity": 0
          },
          {
            "type": "noteOff",
            "timeMs": 66270.5899999984,
            "noteNumber": 75,
            "velocity": 0
          },
          {
            "type": "noteOff",
            "timeMs": 66286.4796874984,
            "noteNumber": 82,
            "velocity": 0
          },
          {
            "type": "noteOn",
            "timeMs": 66482.45249999841,
            "noteNumber": 75,
            "velocity": 0.7007874015748031
          },
          {
            "type": "noteOn",
            "timeMs": 66482.45249999841,
            "noteNumber": 79,
            "velocity": 0.7007874015748031
          },
          {
            "type": "noteOn",
            "timeMs": 66482.45249999841,
            "noteNumber": 82,
            "velocity": 0.7007874015748031
          },
          {
            "type": "noteOff",
            "timeMs": 66530.12156249842,
            "noteNumber": 79,
            "velocity": 0
          },
          {
            "type": "noteOff",
            "timeMs": 66540.71468749842,
            "noteNumber": 82,
            "velocity": 0
          },
          {
            "type": "noteOff",
            "timeMs": 66540.71468749842,
            "noteNumber": 75,
            "velocity": 0
          },
          {
            "type": "noteOn",
            "timeMs": 66736.68749999843,
            "noteNumber": 75,
            "velocity": 0.7007874015748031
          },
          {
            "type": "noteOn",
            "timeMs": 66736.68749999843,
            "noteNumber": 79,
            "velocity": 0.7007874015748031
          },
          {
            "type": "noteOn",
            "timeMs": 66736.68749999843,
            "noteNumber": 82,
            "velocity": 0.7007874015748031
          },
          {
            "type": "noteOff",
            "timeMs": 66784.35656249843,
            "noteNumber": 75,
            "velocity": 0
          },
          {
            "type": "noteOff",
            "timeMs": 66789.65312499844,
            "noteNumber": 79,
            "velocity": 0
          },
          {
            "type": "noteOff",
            "timeMs": 66794.94968749845,
            "noteNumber": 82,
            "velocity": 0
          },
          {
            "type": "noteOn",
            "timeMs": 66990.92249999846,
            "noteNumber": 75,
            "velocity": 0.7007874015748031
          },
          {
            "type": "noteOn",
            "timeMs": 66990.92249999846,
            "noteNumber": 79,
            "velocity": 0.7007874015748031
          },
          {
            "type": "noteOn",
            "timeMs": 66990.92249999846,
            "noteNumber": 82,
            "velocity": 0.7007874015748031
          },
          {
            "type": "noteOff",
            "timeMs": 67033.29499999846,
            "noteNumber": 75,
            "velocity": 0
          },
          {
            "type": "noteOff",
            "timeMs": 67038.59156249846,
            "noteNumber": 82,
            "velocity": 0
          },
          {
            "type": "noteOff",
            "timeMs": 67043.88812499847,
            "noteNumber": 79,
            "velocity": 0
          },
          {
            "type": "noteOn",
            "timeMs": 67118.03999999848,
            "noteNumber": 75,
            "velocity": 0.7007874015748031
          },
          {
            "type": "noteOn",
            "timeMs": 67118.03999999848,
            "noteNumber": 79,
            "velocity": 0.7007874015748031
          },
          {
            "type": "noteOn",
            "timeMs": 67118.03999999848,
            "noteNumber": 82,
            "velocity": 0.7007874015748031
          },
          {
            "type": "noteOff",
            "timeMs": 67160.41249999848,
            "noteNumber": 75,
            "velocity": 0
          },
          {
            "type": "noteOff",
            "timeMs": 67165.70906249848,
            "noteNumber": 79,
            "velocity": 0
          },
          {
            "type": "noteOff",
            "timeMs": 67171.00562499849,
            "noteNumber": 82,
            "velocity": 0
          },
          {
            "type": "noteOn",
            "timeMs": 67372.27499999848,
            "noteNumber": 77,
            "velocity": 0.7007874015748031
          },
          {
            "type": "noteOn",
            "timeMs": 67372.27499999848,
            "noteNumber": 81,
            "velocity": 0.7007874015748031
          },
          {
            "type": "noteOn",
            "timeMs": 67372.27499999848,
            "noteNumber": 84,
            "velocity": 0.7007874015748031
          },
          {
            "type": "noteOff",
            "timeMs": 67425.24062499848,
            "noteNumber": 77,
            "velocity": 0
          },
          {
            "type": "noteOff",
            "timeMs": 67435.83374999848,
            "noteNumber": 84,
            "velocity": 0
          },
          {
            "type": "noteOff",
            "timeMs": 67435.83374999848,
            "noteNumber": 81,
            "velocity": 0
          },
          {
            "type": "noteOn",
            "timeMs": 67626.50999999847,
            "noteNumber": 77,
            "velocity": 0.7007874015748031
          },
          {
            "type": "noteOn",
            "timeMs": 67626.50999999847,
            "noteNumber": 81,
            "velocity": 0.7007874015748031
          },
          {
            "type": "noteOn",
            "timeMs": 67626.50999999847,
            "noteNumber": 84,
            "velocity": 0.7007874015748031
          },
          {
            "type": "noteOff",
            "timeMs": 67668.88249999846,
            "noteNumber": 77,
            "velocity": 0
          },
          {
            "type": "noteOff",
            "timeMs": 67684.77218749847,
            "noteNumber": 81,
            "velocity": 0
          },
          {
            "type": "noteOff",
            "timeMs": 67690.06874999848,
            "noteNumber": 84,
            "velocity": 0
          },
          {
            "type": "noteOn",
            "timeMs": 67880.74499999848,
            "noteNumber": 77,
            "velocity": 0.7007874015748031
          },
          {
            "type": "noteOn",
            "timeMs": 67880.74499999848,
            "noteNumber": 81,
            "velocity": 0.7007874015748031
          },
          {
            "type": "noteOn",
            "timeMs": 67880.74499999848,
            "noteNumber": 84,
            "velocity": 0.7007874015748031
          },
          {
            "type": "noteOff",
            "timeMs": 67944.3037499985,
            "noteNumber": 84,
            "velocity": 0
          },
          {
            "type": "noteOff",
            "timeMs": 67944.3037499985,
            "noteNumber": 81,
            "velocity": 0
          },
          {
            "type": "noteOff",
            "timeMs": 67944.3037499985,
            "noteNumber": 77,
            "velocity": 0
          },
          {
            "type": "noteOn",
            "timeMs": 68134.9799999985,
            "noteNumber": 75,
            "velocity": 0.7007874015748031
          },
          {
            "type": "noteOn",
            "timeMs": 68134.9799999985,
            "noteNumber": 79,
            "velocity": 0.7007874015748031
          },
          {
            "type": "noteOn",
            "timeMs": 68134.9799999985,
            "noteNumber": 82,
            "velocity": 0.7007874015748031
          },
          {
            "type": "noteOff",
            "timeMs": 68198.5387499985,
            "noteNumber": 82,
            "velocity": 0
          },
          {
            "type": "noteOff",
            "timeMs": 68198.5387499985,
            "noteNumber": 79,
            "velocity": 0
          },
          {
            "type": "noteOff",
            "timeMs": 68198.5387499985,
            "noteNumber": 75,
            "velocity": 0
          },
          {
            "type": "noteOn",
            "timeMs": 68262.0974999985,
            "noteNumber": 77,
            "velocity": 0.7007874015748031
          },
          {
            "type": "noteOn",
            "timeMs": 68262.0974999985,
            "noteNumber": 81,
            "velocity": 0.7007874015748031
          },
          {
            "type": "noteOn",
            "timeMs": 68262.0974999985,
            "noteNumber": 84,
            "velocity": 0.7007874015748031
          },
          {
            "type": "noteOff",
            "timeMs": 68325.65624999852,
            "noteNumber": 84,
            "velocity": 0
          },
          {
            "type": "noteOff",
            "timeMs": 68325.65624999852,
            "noteNumber": 81,
            "velocity": 0
          },
          {
            "type": "noteOff",
            "timeMs": 68325.65624999852,
            "noteNumber": 77,
            "velocity": 0
          },
          {
            "type": "noteOn",
            "timeMs": 68516.33249999852,
            "noteNumber": 77,
            "velocity": 0.7007874015748031
          },
          {
            "type": "noteOn",
            "timeMs": 68516.33249999852,
            "noteNumber": 81,
            "velocity": 0.7007874015748031
          },
          {
            "type": "noteOn",
            "timeMs": 68516.33249999852,
            "noteNumber": 84,
            "velocity": 0.7007874015748031
          },
          {
            "type": "noteOff",
            "timeMs": 68579.89124999853,
            "noteNumber": 84,
            "velocity": 0
          },
          {
            "type": "noteOff",
            "timeMs": 68579.89124999853,
            "noteNumber": 81,
            "velocity": 0
          },
          {
            "type": "noteOff",
            "timeMs": 68579.89124999853,
            "noteNumber": 77,
            "velocity": 0
          },
          {
            "type": "noteOn",
            "timeMs": 83389.079999999,
            "noteNumber": 101,
            "velocity": 0.7007874015748031
          },
          {
            "type": "noteOff",
            "timeMs": 84114.70906249901,
            "noteNumber": 101,
            "velocity": 0
          },
          {
            "type": "noteOn",
            "timeMs": 84151.78499999903,
            "noteNumber": 99,
            "velocity": 0.7007874015748031
          },
          {
            "type": "noteOff",
            "timeMs": 85163.42843749904,
            "noteNumber": 99,
            "velocity": 0
          },
          {
            "type": "noteOn",
            "timeMs": 85168.72499999905,
            "noteNumber": 96,
            "velocity": 0.7007874015748031
          },
          {
            "type": "noteOff",
            "timeMs": 86153.88562499906,
            "noteNumber": 96,
            "velocity": 0
          },
          {
            "type": "noteOn",
            "timeMs": 86185.66499999906,
            "noteNumber": 94,
            "velocity": 0.7007874015748031
          },
          {
            "type": "noteOn",
            "timeMs": 86948.36999999908,
            "noteNumber": 92,
            "velocity": 0.7007874015748031
          },
          {
            "type": "noteOff",
            "timeMs": 87043.70812499907,
            "noteNumber": 94,
            "velocity": 0
          },
          {
            "type": "noteOff",
            "timeMs": 87456.83999999911,
            "noteNumber": 92,
            "velocity": 0
          },
          {
            "type": "noteOn",
            "timeMs": 87456.83999999911,
            "noteNumber": 89,
            "velocity": 0.7007874015748031
          },
          {
            "type": "noteOff",
            "timeMs": 89485.42343749918,
            "noteNumber": 89,
            "velocity": 0
          },
          {
            "type": "noteOn",
            "timeMs": 142625.8350000026,
            "noteNumber": 81,
            "velocity": 0.7007874015748031
          },
          {
            "type": "noteOn",
            "timeMs": 142625.8350000026,
            "noteNumber": 84,
            "velocity": 0.7007874015748031
          },
          {
            "type": "noteOn",
            "timeMs": 142625.8350000026,
            "noteNumber": 89,
            "velocity": 0.7007874015748031
          },
          {
            "type": "noteOff",
            "timeMs": 142678.80062500262,
            "noteNumber": 89,
            "velocity": 0
          },
          {
            "type": "noteOff",
            "timeMs": 142678.80062500262,
            "noteNumber": 84,
            "velocity": 0
          },
          {
            "type": "noteOff",
            "timeMs": 142684.09718750263,
            "noteNumber": 81,
            "velocity": 0
          },
          {
            "type": "noteOn",
            "timeMs": 142880.07000000263,
            "noteNumber": 81,
            "velocity": 0.7007874015748031
          },
          {
            "type": "noteOn",
            "timeMs": 142880.07000000263,
            "noteNumber": 84,
            "velocity": 0.7007874015748031
          },
          {
            "type": "noteOn",
            "timeMs": 142880.07000000263,
            "noteNumber": 89,
            "velocity": 0.7007874015748031
          },
          {
            "type": "noteOff",
            "timeMs": 142933.03562500264,
            "noteNumber": 84,
            "velocity": 0
          },
          {
            "type": "noteOff",
            "timeMs": 142943.62875000265,
            "noteNumber": 89,
            "velocity": 0
          },
          {
            "type": "noteOff",
            "timeMs": 142959.51843750267,
            "noteNumber": 81,
            "velocity": 0
          },
          {
            "type": "noteOn",
            "timeMs": 143134.30500000267,
            "noteNumber": 81,
            "velocity": 0.7007874015748031
          },
          {
            "type": "noteOn",
            "timeMs": 143134.30500000267,
            "noteNumber": 84,
            "velocity": 0.7007874015748031
          },
          {
            "type": "noteOn",
            "timeMs": 143134.30500000267,
            "noteNumber": 89,
            "velocity": 0.7007874015748031
          },
          {
            "type": "noteOff",
            "timeMs": 143187.27062500265,
            "noteNumber": 84,
            "velocity": 0
          },
          {
            "type": "noteOff",
            "timeMs": 143187.27062500265,
            "noteNumber": 81,
            "velocity": 0
          },
          {
            "type": "noteOff",
            "timeMs": 143197.86375000267,
            "noteNumber": 89,
            "velocity": 0
          },
          {
            "type": "noteOn",
            "timeMs": 143261.42250000266,
            "noteNumber": 79,
            "velocity": 0.7007874015748031
          },
          {
            "type": "noteOn",
            "timeMs": 143261.42250000266,
            "noteNumber": 82,
            "velocity": 0.7007874015748031
          },
          {
            "type": "noteOn",
            "timeMs": 143261.42250000266,
            "noteNumber": 87,
            "velocity": 0.7007874015748031
          },
          {
            "type": "noteOff",
            "timeMs": 143303.79500000266,
            "noteNumber": 82,
            "velocity": 0
          },
          {
            "type": "noteOff",
            "timeMs": 143309.09156250267,
            "noteNumber": 79,
            "velocity": 0
          },
          {
            "type": "noteOff",
            "timeMs": 143330.27781250267,
            "noteNumber": 87,
            "velocity": 0
          },
          {
            "type": "noteOn",
            "timeMs": 143515.6575000027,
            "noteNumber": 79,
            "velocity": 0.7007874015748031
          },
          {
            "type": "noteOn",
            "timeMs": 143515.6575000027,
            "noteNumber": 82,
            "velocity": 0.7007874015748031
          },
          {
            "type": "noteOn",
            "timeMs": 143515.6575000027,
            "noteNumber": 87,
            "velocity": 0.7007874015748031
          },
          {
            "type": "noteOff",
            "timeMs": 143558.0300000027,
            "noteNumber": 79,
            "velocity": 0
          },
          {
            "type": "noteOff",
            "timeMs": 143563.3265625027,
            "noteNumber": 87,
            "velocity": 0
          },
          {
            "type": "noteOff",
            "timeMs": 143568.62312500272,
            "noteNumber": 82,
            "velocity": 0
          },
          {
            "type": "noteOn",
            "timeMs": 143769.89250000275,
            "noteNumber": 79,
            "velocity": 0.7007874015748031
          },
          {
            "type": "noteOn",
            "timeMs": 143769.89250000275,
            "noteNumber": 82,
            "velocity": 0.7007874015748031
          },
          {
            "type": "noteOn",
            "timeMs": 143769.89250000275,
            "noteNumber": 87,
            "velocity": 0.7007874015748031
          },
          {
            "type": "noteOff",
            "timeMs": 143812.26500000278,
            "noteNumber": 82,
            "velocity": 0
          },
          {
            "type": "noteOff",
            "timeMs": 143822.8581250028,
            "noteNumber": 79,
            "velocity": 0
          },
          {
            "type": "noteOff",
            "timeMs": 143833.4512500028,
            "noteNumber": 87,
            "velocity": 0
          },
          {
            "type": "noteOn",
            "timeMs": 143897.01000000283,
            "noteNumber": 77,
            "velocity": 0.7007874015748031
          },
          {
            "type": "noteOn",
            "timeMs": 143897.01000000283,
            "noteNumber": 82,
            "velocity": 0.7007874015748031
          },
          {
            "type": "noteOn",
            "timeMs": 143897.01000000283,
            "noteNumber": 86,
            "velocity": 0.7007874015748031
          },
          {
            "type": "noteOff",
            "timeMs": 143949.97562500281,
            "noteNumber": 82,
            "velocity": 0
          },
          {
            "type": "noteOff",
            "timeMs": 143949.97562500281,
            "noteNumber": 77,
            "velocity": 0
          },
          {
            "type": "noteOff",
            "timeMs": 143955.27218750282,
            "noteNumber": 86,
            "velocity": 0
          },
          {
            "type": "noteOn",
            "timeMs": 144151.24500000285,
            "noteNumber": 77,
            "velocity": 0.7007874015748031
          },
          {
            "type": "noteOn",
            "timeMs": 144151.24500000285,
            "noteNumber": 82,
            "velocity": 0.7007874015748031
          },
          {
            "type": "noteOn",
            "timeMs": 144151.24500000285,
            "noteNumber": 86,
            "velocity": 0.7007874015748031
          },
          {
            "type": "noteOff",
            "timeMs": 144220.10031250285,
            "noteNumber": 77,
            "velocity": 0
          },
          {
            "type": "noteOff",
            "timeMs": 144225.39687500286,
            "noteNumber": 86,
            "velocity": 0
          },
          {
            "type": "noteOff",
            "timeMs": 144230.69343750286,
            "noteNumber": 82,
            "velocity": 0
          },
          {
            "type": "noteOn",
            "timeMs": 144659.71500000285,
            "noteNumber": 77,
            "velocity": 0.7007874015748031
          },
          {
            "type": "noteOn",
            "timeMs": 144659.71500000285,
            "noteNumber": 81,
            "velocity": 0.7007874015748031
          },
          {
            "type": "noteOn",
            "timeMs": 144659.71500000285,
            "noteNumber": 84,
            "velocity": 0.7007874015748031
          },
          {
            "type": "noteOff",
            "timeMs": 144707.38406250282,
            "noteNumber": 81,
            "velocity": 0
          },
          {
            "type": "noteOff",
            "timeMs": 144712.68062500283,
            "noteNumber": 84,
            "velocity": 0
          },
          {
            "type": "noteOff",
            "timeMs": 144712.68062500283,
            "noteNumber": 77,
            "velocity": 0
          },
          {
            "type": "noteOn",
            "timeMs": 144913.95000000283,
            "noteNumber": 77,
            "velocity": 0.7007874015748031
          },
          {
            "type": "noteOn",
            "timeMs": 144913.95000000283,
            "noteNumber": 81,
            "velocity": 0.7007874015748031
          },
          {
            "type": "noteOn",
            "timeMs": 144913.95000000283,
            "noteNumber": 84,
            "velocity": 0.7007874015748031
          },
          {
            "type": "noteOff",
            "timeMs": 144956.32250000283,
            "noteNumber": 77,
            "velocity": 0
          },
          {
            "type": "noteOff",
            "timeMs": 144961.61906250284,
            "noteNumber": 81,
            "velocity": 0
          },
          {
            "type": "noteOff",
            "timeMs": 144972.21218750285,
            "noteNumber": 84,
            "velocity": 0
          },
          {
            "type": "noteOn",
            "timeMs": 145168.18500000288,
            "noteNumber": 77,
            "velocity": 0.7007874015748031
          },
          {
            "type": "noteOn",
            "timeMs": 145168.18500000288,
            "noteNumber": 81,
            "velocity": 0.7007874015748031
          },
          {
            "type": "noteOn",
            "timeMs": 145168.18500000288,
            "noteNumber": 84,
            "velocity": 0.7007874015748031
          },
          {
            "type": "noteOff",
            "timeMs": 145205.26093750287,
            "noteNumber": 77,
            "velocity": 0
          },
          {
            "type": "noteOff",
            "timeMs": 145221.15062500286,
            "noteNumber": 81,
            "velocity": 0
          },
          {
            "type": "noteOff",
            "timeMs": 145231.74375000288,
            "noteNumber": 84,
            "velocity": 0
          },
          {
            "type": "noteOn",
            "timeMs": 145295.30250000287,
            "noteNumber": 79,
            "velocity": 0.7007874015748031
          },
          {
            "type": "noteOn",
            "timeMs": 145295.30250000287,
            "noteNumber": 82,
            "velocity": 0.7007874015748031
          },
          {
            "type": "noteOn",
            "timeMs": 145295.30250000287,
            "noteNumber": 87,
            "velocity": 0.7007874015748031
          },
          {
            "type": "noteOff",
            "timeMs": 145342.97156250288,
            "noteNumber": 82,
            "velocity": 0
          },
          {
            "type": "noteOff",
            "timeMs": 145358.86125000287,
            "noteNumber": 87,
            "velocity": 0
          },
          {
            "type": "noteOff",
            "timeMs": 145358.86125000287,
            "noteNumber": 79,
            "velocity": 0
          },
          {
            "type": "noteOn",
            "timeMs": 145549.53750000292,
            "noteNumber": 79,
            "velocity": 0.7007874015748031
          },
          {
            "type": "noteOn",
            "timeMs": 145549.53750000292,
            "noteNumber": 82,
            "velocity": 0.7007874015748031
          },
          {
            "type": "noteOn",
            "timeMs": 145549.53750000292,
            "noteNumber": 87,
            "velocity": 0.7007874015748031
          },
          {
            "type": "noteOff",
            "timeMs": 145586.6134375029,
            "noteNumber": 82,
            "velocity": 0
          },
          {
            "type": "noteOff",
            "timeMs": 145597.20656250292,
            "noteNumber": 87,
            "velocity": 0
          },
          {
            "type": "noteOff",
            "timeMs": 145602.50312500293,
            "noteNumber": 79,
            "velocity": 0
          },
          {
            "type": "noteOn",
            "timeMs": 145676.65500000297,
            "noteNumber": 79,
            "velocity": 0.7007874015748031
          },
          {
            "type": "noteOn",
            "timeMs": 145676.65500000297,
            "noteNumber": 82,
            "velocity": 0.7007874015748031
          },
          {
            "type": "noteOn",
            "timeMs": 145676.65500000297,
            "noteNumber": 86,
            "velocity": 0.7007874015748031
          },
          {
            "type": "noteOff",
            "timeMs": 145740.21375000296,
            "noteNumber": 79,
            "velocity": 0
          },
          {
            "type": "noteOff",
            "timeMs": 145756.10343750298,
            "noteNumber": 82,
            "velocity": 0
          },
          {
            "type": "noteOff",
            "timeMs": 145761.400000003,
            "noteNumber": 86,
            "velocity": 0
          },
          {
            "type": "noteOn",
            "timeMs": 145930.890000003,
            "noteNumber": 77,
            "velocity": 0.7007874015748031
          },
          {
            "type": "noteOn",
            "timeMs": 145930.890000003,
            "noteNumber": 81,
            "velocity": 0.7007874015748031
          },
          {
            "type": "noteOn",
            "timeMs": 145930.890000003,
            "noteNumber": 84,
            "velocity": 0.7007874015748031
          },
          {
            "type": "noteOff",
            "timeMs": 145983.85562500302,
            "noteNumber": 77,
            "velocity": 0
          },
          {
            "type": "noteOff",
            "timeMs": 145989.15218750303,
            "noteNumber": 81,
            "velocity": 0
          },
          {
            "type": "noteOff",
            "timeMs": 146020.93156250304,
            "noteNumber": 84,
            "velocity": 0
          },
          {
            "type": "noteOn",
            "timeMs": 146693.59500000306,
            "noteNumber": 73,
            "velocity": 0.7007874015748031
          },
          {
            "type": "noteOn",
            "timeMs": 146693.59500000306,
            "noteNumber": 77,
            "velocity": 0.7007874015748031
          },
          {
            "type": "noteOn",
            "timeMs": 146693.59500000306,
            "noteNumber": 80,
            "velocity": 0.7007874015748031
          },
          {
            "type": "noteOff",
            "timeMs": 146746.56062500307,
            "noteNumber": 77,
            "velocity": 0
          },
          {
            "type": "noteOff",
            "timeMs": 146746.56062500307,
            "noteNumber": 73,
            "velocity": 0
          },
          {
            "type": "noteOff",
            "timeMs": 146757.15375000308,
            "noteNumber": 80,
            "velocity": 0
          },
          {
            "type": "noteOn",
            "timeMs": 146947.8300000031,
            "noteNumber": 73,
            "velocity": 0.7007874015748031
          },
          {
            "type": "noteOn",
            "timeMs": 146947.8300000031,
            "noteNumber": 77,
            "velocity": 0.7007874015748031
          },
          {
            "type": "noteOn",
            "timeMs": 146947.8300000031,
            "noteNumber": 80,
            "velocity": 0.7007874015748031
          },
          {
            "type": "noteOff",
            "timeMs": 147000.7956250031,
            "noteNumber": 77,
            "velocity": 0
          },
          {
            "type": "noteOff",
            "timeMs": 147006.09218750312,
            "noteNumber": 73,
            "velocity": 0
          },
          {
            "type": "noteOff",
            "timeMs": 147016.68531250313,
            "noteNumber": 80,
            "velocity": 0
          },
          {
            "type": "noteOn",
            "timeMs": 147202.06500000315,
            "noteNumber": 73,
            "velocity": 0.7007874015748031
          },
          {
            "type": "noteOn",
            "timeMs": 147202.06500000315,
            "noteNumber": 77,
            "velocity": 0.7007874015748031
          },
          {
            "type": "noteOn",
            "timeMs": 147202.06500000315,
            "noteNumber": 80,
            "velocity": 0.7007874015748031
          },
          {
            "type": "noteOff",
            "timeMs": 147244.43750000314,
            "noteNumber": 73,
            "velocity": 0
          },
          {
            "type": "noteOff",
            "timeMs": 147255.03062500316,
            "noteNumber": 80,
            "velocity": 0
          },
          {
            "type": "noteOff",
            "timeMs": 147255.03062500316,
            "noteNumber": 77,
            "velocity": 0
          },
          {
            "type": "noteOn",
            "timeMs": 147456.3000000032,
            "noteNumber": 73,
            "velocity": 0.7007874015748031
          },
          {
            "type": "noteOn",
            "timeMs": 147456.3000000032,
            "noteNumber": 77,
            "velocity": 0.7007874015748031
          },
          {
            "type": "noteOn",
            "timeMs": 147456.3000000032,
            "noteNumber": 80,
            "velocity": 0.7007874015748031
          },
          {
            "type": "noteOff",
            "timeMs": 147498.6725000032,
            "noteNumber": 73,
            "velocity": 0
          },
          {
            "type": "noteOff",
            "timeMs": 147503.9690625032,
            "noteNumber": 77,
            "velocity": 0
          },
          {
            "type": "noteOff",
            "timeMs": 147519.8587500032,
            "noteNumber": 80,
            "velocity": 0
          },
          {
            "type": "noteOn",
            "timeMs": 147583.41750000318,
            "noteNumber": 75,
            "velocity": 0.7007874015748031
          },
          {
            "type": "noteOn",
            "timeMs": 147583.41750000318,
            "noteNumber": 79,
            "velocity": 0.7007874015748031
          },
          {
            "type": "noteOn",
            "timeMs": 147583.41750000318,
            "noteNumber": 82,
            "velocity": 0.7007874015748031
          },
          {
            "type": "noteOff",
            "timeMs": 147615.1968750032,
            "noteNumber": 79,
            "velocity": 0
          },
          {
            "type": "noteOff",
            "timeMs": 147625.7900000032,
            "noteNumber": 75,
            "velocity": 0
          },
          {
            "type": "noteOff",
            "timeMs": 147641.6796875032,
            "noteNumber": 82,
            "velocity": 0
          },
          {
            "type": "noteOn",
            "timeMs": 147837.65250000323,
            "noteNumber": 75,
            "velocity": 0.7007874015748031
          },
          {
            "type": "noteOn",
            "timeMs": 147837.65250000323,
            "noteNumber": 79,
            "velocity": 0.7007874015748031
          },
          {
            "type": "noteOn",
            "timeMs": 147837.65250000323,
            "noteNumber": 82,
            "velocity": 0.7007874015748031
          },
          {
            "type": "noteOff",
            "timeMs": 147885.32156250323,
            "noteNumber": 79,
            "velocity": 0
          },
          {
            "type": "noteOff",
            "timeMs": 147895.91468750325,
            "noteNumber": 82,
            "velocity": 0
          },
          {
            "type": "noteOff",
            "timeMs": 147895.91468750325,
            "noteNumber": 75,
            "velocity": 0
          },
          {
            "type": "noteOn",
            "timeMs": 148091.88750000327,
            "noteNumber": 75,
            "velocity": 0.7007874015748031
          },
          {
            "type": "noteOn",
            "timeMs": 148091.88750000327,
            "noteNumber": 79,
            "velocity": 0.7007874015748031
          },
          {
            "type": "noteOn",
            "timeMs": 148091.88750000327,
            "noteNumber": 82,
            "velocity": 0.7007874015748031
          },
          {
            "type": "noteOff",
            "timeMs": 148139.55656250328,
            "noteNumber": 75,
            "velocity": 0
          },
          {
            "type": "noteOff",
            "timeMs": 148144.85312500328,
            "noteNumber": 79,
            "velocity": 0
          },
          {
            "type": "noteOff",
            "timeMs": 148150.1496875033,
            "noteNumber": 82,
            "velocity": 0
          },
          {
            "type": "noteOn",
            "timeMs": 148346.12250000334,
            "noteNumber": 75,
            "velocity": 0.7007874015748031
          },
          {
            "type": "noteOn",
            "timeMs": 148346.12250000334,
            "noteNumber": 79,
            "velocity": 0.7007874015748031
          },
          {
            "type": "noteOn",
            "timeMs": 148346.12250000334,
            "noteNumber": 82,
            "velocity": 0.7007874015748031
          },
          {
            "type": "noteOff",
            "timeMs": 148388.49500000334,
            "noteNumber": 75,
            "velocity": 0
          },
          {
            "type": "noteOff",
            "timeMs": 148393.79156250335,
            "noteNumber": 82,
            "velocity": 0
          },
          {
            "type": "noteOff",
            "timeMs": 148399.08812500336,
            "noteNumber": 79,
            "velocity": 0
          },
          {
            "type": "noteOn",
            "timeMs": 148473.2400000034,
            "noteNumber": 75,
            "velocity": 0.7007874015748031
          },
          {
            "type": "noteOn",
            "timeMs": 148473.2400000034,
            "noteNumber": 79,
            "velocity": 0.7007874015748031
          },
          {
            "type": "noteOn",
            "timeMs": 148473.2400000034,
            "noteNumber": 82,
            "velocity": 0.7007874015748031
          },
          {
            "type": "noteOff",
            "timeMs": 148515.6125000034,
            "noteNumber": 75,
            "velocity": 0
          },
          {
            "type": "noteOff",
            "timeMs": 148520.9090625034,
            "noteNumber": 79,
            "velocity": 0
          },
          {
            "type": "noteOff",
            "timeMs": 148526.2056250034,
            "noteNumber": 82,
            "velocity": 0
          },
          {
            "type": "noteOn",
            "timeMs": 148727.47500000344,
            "noteNumber": 77,
            "velocity": 0.7007874015748031
          },
          {
            "type": "noteOn",
            "timeMs": 148727.47500000344,
            "noteNumber": 81,
            "velocity": 0.7007874015748031
          },
          {
            "type": "noteOn",
            "timeMs": 148727.47500000344,
            "noteNumber": 84,
            "velocity": 0.7007874015748031
          },
          {
            "type": "noteOff",
            "timeMs": 148780.44062500345,
            "noteNumber": 77,
            "velocity": 0
          },
          {
            "type": "noteOff",
            "timeMs": 148791.03375000347,
            "noteNumber": 84,
            "velocity": 0
          },
          {
            "type": "noteOff",
            "timeMs": 148791.03375000347,
            "noteNumber": 81,
            "velocity": 0
          },
          {
            "type": "noteOn",
            "timeMs": 148981.71000000346,
            "noteNumber": 77,
            "velocity": 0.7007874015748031
          },
          {
            "type": "noteOn",
            "timeMs": 148981.71000000346,
            "noteNumber": 81,
            "velocity": 0.7007874015748031
          },
          {
            "type": "noteOn",
            "timeMs": 148981.71000000346,
            "noteNumber": 84,
            "velocity": 0.7007874015748031
          },
          {
            "type": "noteOff",
            "timeMs": 149024.08250000345,
            "noteNumber": 77,
            "velocity": 0
          },
          {
            "type": "noteOff",
            "timeMs": 149039.97218750347,
            "noteNumber": 81,
            "velocity": 0
          },
          {
            "type": "noteOff",
            "timeMs": 149045.26875000348,
            "noteNumber": 84,
            "velocity": 0
          },
          {
            "type": "noteOn",
            "timeMs": 149235.94500000347,
            "noteNumber": 77,
            "velocity": 0.7007874015748031
          },
          {
            "type": "noteOn",
            "timeMs": 149235.94500000347,
            "noteNumber": 81,
            "velocity": 0.7007874015748031
          },
          {
            "type": "noteOn",
            "timeMs": 149235.94500000347,
            "noteNumber": 84,
            "velocity": 0.7007874015748031
          },
          {
            "type": "noteOff",
            "timeMs": 149299.5037500035,
            "noteNumber": 84,
            "velocity": 0
          },
          {
            "type": "noteOff",
            "timeMs": 149299.5037500035,
            "noteNumber": 81,
            "velocity": 0
          },
          {
            "type": "noteOff",
            "timeMs": 149299.5037500035,
            "noteNumber": 77,
            "velocity": 0
          },
          {
            "type": "noteOn",
            "timeMs": 149490.18000000351,
            "noteNumber": 75,
            "velocity": 0.7007874015748031
          },
          {
            "type": "noteOn",
            "timeMs": 149490.18000000351,
            "noteNumber": 79,
            "velocity": 0.7007874015748031
          },
          {
            "type": "noteOn",
            "timeMs": 149490.18000000351,
            "noteNumber": 82,
            "velocity": 0.7007874015748031
          },
          {
            "type": "noteOff",
            "timeMs": 149553.7387500035,
            "noteNumber": 82,
            "velocity": 0
          },
          {
            "type": "noteOff",
            "timeMs": 149553.7387500035,
            "noteNumber": 79,
            "velocity": 0
          },
          {
            "type": "noteOff",
            "timeMs": 149553.7387500035,
            "noteNumber": 75,
            "velocity": 0
          },
          {
            "type": "noteOn",
            "timeMs": 149617.29750000354,
            "noteNumber": 77,
            "velocity": 0.7007874015748031
          },
          {
            "type": "noteOn",
            "timeMs": 149617.29750000354,
            "noteNumber": 81,
            "velocity": 0.7007874015748031
          },
          {
            "type": "noteOn",
            "timeMs": 149617.29750000354,
            "noteNumber": 84,
            "velocity": 0.7007874015748031
          },
          {
            "type": "noteOff",
            "timeMs": 149680.8562500035,
            "noteNumber": 84,
            "velocity": 0
          },
          {
            "type": "noteOff",
            "timeMs": 149680.8562500035,
            "noteNumber": 81,
            "velocity": 0
          },
          {
            "type": "noteOff",
            "timeMs": 149680.8562500035,
            "noteNumber": 77,
            "velocity": 0
          },
          {
            "type": "noteOn",
            "timeMs": 149871.53250000355,
            "noteNumber": 77,
            "velocity": 0.7007874015748031
          },
          {
            "type": "noteOn",
            "timeMs": 149871.53250000355,
            "noteNumber": 81,
            "velocity": 0.7007874015748031
          },
          {
            "type": "noteOn",
            "timeMs": 149871.53250000355,
            "noteNumber": 84,
            "velocity": 0.7007874015748031
          },
          {
            "type": "noteOff",
            "timeMs": 149935.09125000355,
            "noteNumber": 84,
            "velocity": 0
          },
          {
            "type": "noteOff",
            "timeMs": 149935.09125000355,
            "noteNumber": 81,
            "velocity": 0
          },
          {
            "type": "noteOff",
            "timeMs": 149935.09125000355,
            "noteNumber": 77,
            "velocity": 0
          },
          {
            "type": "noteOn",
            "timeMs": 150761.3550000036,
            "noteNumber": 81,
            "velocity": 0.7007874015748031
          },
          {
            "type": "noteOn",
            "timeMs": 150761.3550000036,
            "noteNumber": 84,
            "velocity": 0.7007874015748031
          },
          {
            "type": "noteOn",
            "timeMs": 150761.3550000036,
            "noteNumber": 89,
            "velocity": 0.7007874015748031
          },
          {
            "type": "noteOff",
            "timeMs": 150814.3206250036,
            "noteNumber": 89,
            "velocity": 0
          },
          {
            "type": "noteOff",
            "timeMs": 150814.3206250036,
            "noteNumber": 84,
            "velocity": 0
          },
          {
            "type": "noteOff",
            "timeMs": 150819.6171875036,
            "noteNumber": 81,
            "velocity": 0
          },
          {
            "type": "noteOn",
            "timeMs": 151015.59000000363,
            "noteNumber": 81,
            "velocity": 0.7007874015748031
          },
          {
            "type": "noteOn",
            "timeMs": 151015.59000000363,
            "noteNumber": 84,
            "velocity": 0.7007874015748031
          },
          {
            "type": "noteOn",
            "timeMs": 151015.59000000363,
            "noteNumber": 89,
            "velocity": 0.7007874015748031
          },
          {
            "type": "noteOff",
            "timeMs": 151068.55562500365,
            "noteNumber": 84,
            "velocity": 0
          },
          {
            "type": "noteOff",
            "timeMs": 151079.14875000366,
            "noteNumber": 89,
            "velocity": 0
          },
          {
            "type": "noteOff",
            "timeMs": 151095.03843750365,
            "noteNumber": 81,
            "velocity": 0
          },
          {
            "type": "noteOn",
            "timeMs": 151269.82500000368,
            "noteNumber": 81,
            "velocity": 0.7007874015748031
          },
          {
            "type": "noteOn",
            "timeMs": 151269.82500000368,
            "noteNumber": 84,
            "velocity": 0.7007874015748031
          },
          {
            "type": "noteOn",
            "timeMs": 151269.82500000368,
            "noteNumber": 89,
            "velocity": 0.7007874015748031
          },
          {
            "type": "noteOff",
            "timeMs": 151322.7906250037,
            "noteNumber": 84,
            "velocity": 0
          },
          {
            "type": "noteOff",
            "timeMs": 151322.7906250037,
            "noteNumber": 81,
            "velocity": 0
          },
          {
            "type": "noteOff",
            "timeMs": 151333.3837500037,
            "noteNumber": 89,
            "velocity": 0
          },
          {
            "type": "noteOn",
            "timeMs": 151396.9425000037,
            "noteNumber": 79,
            "velocity": 0.7007874015748031
          },
          {
            "type": "noteOn",
            "timeMs": 151396.9425000037,
            "noteNumber": 82,
            "velocity": 0.7007874015748031
          },
          {
            "type": "noteOn",
            "timeMs": 151396.9425000037,
            "noteNumber": 87,
            "velocity": 0.7007874015748031
          },
          {
            "type": "noteOff",
            "timeMs": 151439.3150000037,
            "noteNumber": 82,
            "velocity": 0
          },
          {
            "type": "noteOff",
            "timeMs": 151444.6115625037,
            "noteNumber": 79,
            "velocity": 0
          },
          {
            "type": "noteOff",
            "timeMs": 151465.7978125037,
            "noteNumber": 87,
            "velocity": 0
          },
          {
            "type": "noteOn",
            "timeMs": 151651.1775000037,
            "noteNumber": 79,
            "velocity": 0.7007874015748031
          },
          {
            "type": "noteOn",
            "timeMs": 151651.1775000037,
            "noteNumber": 82,
            "velocity": 0.7007874015748031
          },
          {
            "type": "noteOn",
            "timeMs": 151651.1775000037,
            "noteNumber": 87,
            "velocity": 0.7007874015748031
          },
          {
            "type": "noteOff",
            "timeMs": 151693.55000000368,
            "noteNumber": 79,
            "velocity": 0
          },
          {
            "type": "noteOff",
            "timeMs": 151698.8465625037,
            "noteNumber": 87,
            "velocity": 0
          },
          {
            "type": "noteOff",
            "timeMs": 151704.1431250037,
            "noteNumber": 82,
            "velocity": 0
          },
          {
            "type": "noteOn",
            "timeMs": 151905.4125000037,
            "noteNumber": 79,
            "velocity": 0.7007874015748031
          },
          {
            "type": "noteOn",
            "timeMs": 151905.4125000037,
            "noteNumber": 82,
            "velocity": 0.7007874015748031
          },
          {
            "type": "noteOn",
            "timeMs": 151905.4125000037,
            "noteNumber": 87,
            "velocity": 0.7007874015748031
          },
          {
            "type": "noteOff",
            "timeMs": 151947.78500000373,
            "noteNumber": 82,
            "velocity": 0
          },
          {
            "type": "noteOff",
            "timeMs": 151958.37812500374,
            "noteNumber": 79,
            "velocity": 0
          },
          {
            "type": "noteOff",
            "timeMs": 151968.97125000376,
            "noteNumber": 87,
            "velocity": 0
          },
          {
            "type": "noteOn",
            "timeMs": 152032.53000000375,
            "noteNumber": 77,
            "velocity": 0.7007874015748031
          },
          {
            "type": "noteOn",
            "timeMs": 152032.53000000375,
            "noteNumber": 82,
            "velocity": 0.7007874015748031
          },
          {
            "type": "noteOn",
            "timeMs": 152032.53000000375,
            "noteNumber": 86,
            "velocity": 0.7007874015748031
          },
          {
            "type": "noteOff",
            "timeMs": 152085.49562500376,
            "noteNumber": 82,
            "velocity": 0
          },
          {
            "type": "noteOff",
            "timeMs": 152085.49562500376,
            "noteNumber": 77,
            "velocity": 0
          },
          {
            "type": "noteOff",
            "timeMs": 152090.79218750377,
            "noteNumber": 86,
            "velocity": 0
          },
          {
            "type": "noteOn",
            "timeMs": 152286.7650000038,
            "noteNumber": 77,
            "velocity": 0.7007874015748031
          },
          {
            "type": "noteOn",
            "timeMs": 152286.7650000038,
            "noteNumber": 82,
            "velocity": 0.7007874015748031
          },
          {
            "type": "noteOn",
            "timeMs": 152286.7650000038,
            "noteNumber": 86,
            "velocity": 0.7007874015748031
          },
          {
            "type": "noteOff",
            "timeMs": 152355.6203125038,
            "noteNumber": 77,
            "velocity": 0
          },
          {
            "type": "noteOff",
            "timeMs": 152360.9168750038,
            "noteNumber": 86,
            "velocity": 0
          },
          {
            "type": "noteOff",
            "timeMs": 152366.21343750381,
            "noteNumber": 82,
            "velocity": 0
          },
          {
            "type": "noteOn",
            "timeMs": 152795.2350000038,
            "noteNumber": 77,
            "velocity": 0.7007874015748031
          },
          {
            "type": "noteOn",
            "timeMs": 152795.2350000038,
            "noteNumber": 81,
            "velocity": 0.7007874015748031
          },
          {
            "type": "noteOn",
            "timeMs": 152795.2350000038,
            "noteNumber": 84,
            "velocity": 0.7007874015748031
          },
          {
            "type": "noteOff",
            "timeMs": 152842.9040625038,
            "noteNumber": 81,
            "velocity": 0
          },
          {
            "type": "noteOff",
            "timeMs": 152848.2006250038,
            "noteNumber": 84,
            "velocity": 0
          },
          {
            "type": "noteOff",
            "timeMs": 152848.2006250038,
            "noteNumber": 77,
            "velocity": 0
          },
          {
            "type": "noteOn",
            "timeMs": 153049.4700000038,
            "noteNumber": 77,
            "velocity": 0.7007874015748031
          },
          {
            "type": "noteOn",
            "timeMs": 153049.4700000038,
            "noteNumber": 81,
            "velocity": 0.7007874015748031
          },
          {
            "type": "noteOn",
            "timeMs": 153049.4700000038,
            "noteNumber": 84,
            "velocity": 0.7007874015748031
          },
          {
            "type": "noteOff",
            "timeMs": 153091.8425000038,
            "noteNumber": 77,
            "velocity": 0
          },
          {
            "type": "noteOff",
            "timeMs": 153097.13906250382,
            "noteNumber": 81,
            "velocity": 0
          },
          {
            "type": "noteOff",
            "timeMs": 153107.73218750383,
            "noteNumber": 84,
            "velocity": 0
          },
          {
            "type": "noteOn",
            "timeMs": 153303.70500000386,
            "noteNumber": 77,
            "velocity": 0.7007874015748031
          },
          {
            "type": "noteOn",
            "timeMs": 153303.70500000386,
            "noteNumber": 81,
            "velocity": 0.7007874015748031
          },
          {
            "type": "noteOn",
            "timeMs": 153303.70500000386,
            "noteNumber": 84,
            "velocity": 0.7007874015748031
          },
          {
            "type": "noteOff",
            "timeMs": 153340.78093750385,
            "noteNumber": 77,
            "velocity": 0
          },
          {
            "type": "noteOff",
            "timeMs": 153356.67062500384,
            "noteNumber": 81,
            "velocity": 0
          },
          {
            "type": "noteOff",
            "timeMs": 153367.26375000385,
            "noteNumber": 84,
            "velocity": 0
          },
          {
            "type": "noteOn",
            "timeMs": 153430.82250000385,
            "noteNumber": 79,
            "velocity": 0.7007874015748031
          },
          {
            "type": "noteOn",
            "timeMs": 153430.82250000385,
            "noteNumber": 82,
            "velocity": 0.7007874015748031
          },
          {
            "type": "noteOn",
            "timeMs": 153430.82250000385,
            "noteNumber": 87,
            "velocity": 0.7007874015748031
          },
          {
            "type": "noteOff",
            "timeMs": 153478.49156250386,
            "noteNumber": 82,
            "velocity": 0
          },
          {
            "type": "noteOff",
            "timeMs": 153494.38125000385,
            "noteNumber": 87,
            "velocity": 0
          },
          {
            "type": "noteOff",
            "timeMs": 153494.38125000385,
            "noteNumber": 79,
            "velocity": 0
          },
          {
            "type": "noteOn",
            "timeMs": 153685.05750000387,
            "noteNumber": 79,
            "velocity": 0.7007874015748031
          },
          {
            "type": "noteOn",
            "timeMs": 153685.05750000387,
            "noteNumber": 82,
            "velocity": 0.7007874015748031
          },
          {
            "type": "noteOn",
            "timeMs": 153685.05750000387,
            "noteNumber": 87,
            "velocity": 0.7007874015748031
          },
          {
            "type": "noteOff",
            "timeMs": 153722.13343750386,
            "noteNumber": 82,
            "velocity": 0
          },
          {
            "type": "noteOff",
            "timeMs": 153732.72656250387,
            "noteNumber": 87,
            "velocity": 0
          },
          {
            "type": "noteOff",
            "timeMs": 153738.02312500388,
            "noteNumber": 79,
            "velocity": 0
          },
          {
            "type": "noteOn",
            "timeMs": 153812.1750000039,
            "noteNumber": 79,
            "velocity": 0.7007874015748031
          },
          {
            "type": "noteOn",
            "timeMs": 153812.1750000039,
            "noteNumber": 82,
            "velocity": 0.7007874015748031
          },
          {
            "type": "noteOn",
            "timeMs": 153812.1750000039,
            "noteNumber": 86,
            "velocity": 0.7007874015748031
          },
          {
            "type": "noteOff",
            "timeMs": 153875.7337500039,
            "noteNumber": 79,
            "velocity": 0
          },
          {
            "type": "noteOff",
            "timeMs": 153891.62343750393,
            "noteNumber": 82,
            "velocity": 0
          },
          {
            "type": "noteOff",
            "timeMs": 153896.92000000394,
            "noteNumber": 86,
            "velocity": 0
          },
          {
            "type": "noteOn",
            "timeMs": 154066.41000000396,
            "noteNumber": 77,
            "velocity": 0.7007874015748031
          },
          {
            "type": "noteOn",
            "timeMs": 154066.41000000396,
            "noteNumber": 81,
            "velocity": 0.7007874015748031
          },
          {
            "type": "noteOn",
            "timeMs": 154066.41000000396,
            "noteNumber": 84,
            "velocity": 0.7007874015748031
          },
          {
            "type": "noteOff",
            "timeMs": 154119.37562500394,
            "noteNumber": 77,
            "velocity": 0
          },
          {
            "type": "noteOff",
            "timeMs": 154124.67218750395,
            "noteNumber": 81,
            "velocity": 0
          },
          {
            "type": "noteOff",
            "timeMs": 154156.45156250396,
            "noteNumber": 84,
            "velocity": 0
          },
          {
            "type": "noteOn",
            "timeMs": 154829.11500000398,
            "noteNumber": 73,
            "velocity": 0.7007874015748031
          },
          {
            "type": "noteOn",
            "timeMs": 154829.11500000398,
            "noteNumber": 77,
            "velocity": 0.7007874015748031
          },
          {
            "type": "noteOn",
            "timeMs": 154829.11500000398,
            "noteNumber": 80,
            "velocity": 0.7007874015748031
          },
          {
            "type": "noteOff",
            "timeMs": 154882.080625004,
            "noteNumber": 77,
            "velocity": 0
          },
          {
            "type": "noteOff",
            "timeMs": 154882.080625004,
            "noteNumber": 73,
            "velocity": 0
          },
          {
            "type": "noteOff",
            "timeMs": 154892.673750004,
            "noteNumber": 80,
            "velocity": 0
          },
          {
            "type": "noteOn",
            "timeMs": 155083.350000004,
            "noteNumber": 73,
            "velocity": 0.7007874015748031
          },
          {
            "type": "noteOn",
            "timeMs": 155083.350000004,
            "noteNumber": 77,
            "velocity": 0.7007874015748031
          },
          {
            "type": "noteOn",
            "timeMs": 155083.350000004,
            "noteNumber": 80,
            "velocity": 0.7007874015748031
          },
          {
            "type": "noteOff",
            "timeMs": 155136.315625004,
            "noteNumber": 77,
            "velocity": 0
          },
          {
            "type": "noteOff",
            "timeMs": 155141.612187504,
            "noteNumber": 73,
            "velocity": 0
          },
          {
            "type": "noteOff",
            "timeMs": 155152.20531250403,
            "noteNumber": 80,
            "velocity": 0
          },
          {
            "type": "noteOn",
            "timeMs": 155337.58500000404,
            "noteNumber": 73,
            "velocity": 0.7007874015748031
          },
          {
            "type": "noteOn",
            "timeMs": 155337.58500000404,
            "noteNumber": 77,
            "velocity": 0.7007874015748031
          },
          {
            "type": "noteOn",
            "timeMs": 155337.58500000404,
            "noteNumber": 80,
            "velocity": 0.7007874015748031
          },
          {
            "type": "noteOff",
            "timeMs": 155379.95750000403,
            "noteNumber": 73,
            "velocity": 0
          },
          {
            "type": "noteOff",
            "timeMs": 155390.55062500405,
            "noteNumber": 80,
            "velocity": 0
          },
          {
            "type": "noteOff",
            "timeMs": 155390.55062500405,
            "noteNumber": 77,
            "velocity": 0
          },
          {
            "type": "noteOn",
            "timeMs": 155591.82000000405,
            "noteNumber": 73,
            "velocity": 0.7007874015748031
          },
          {
            "type": "noteOn",
            "timeMs": 155591.82000000405,
            "noteNumber": 77,
            "velocity": 0.7007874015748031
          },
          {
            "type": "noteOn",
            "timeMs": 155591.82000000405,
            "noteNumber": 80,
            "velocity": 0.7007874015748031
          },
          {
            "type": "noteOff",
            "timeMs": 155634.19250000405,
            "noteNumber": 73,
            "velocity": 0
          },
          {
            "type": "noteOff",
            "timeMs": 155639.48906250406,
            "noteNumber": 77,
            "velocity": 0
          },
          {
            "type": "noteOff",
            "timeMs": 155655.37875000405,
            "noteNumber": 80,
            "velocity": 0
          },
          {
            "type": "noteOn",
            "timeMs": 155718.93750000405,
            "noteNumber": 75,
            "velocity": 0.7007874015748031
          },
          {
            "type": "noteOn",
            "timeMs": 155718.93750000405,
            "noteNumber": 79,
            "velocity": 0.7007874015748031
          },
          {
            "type": "noteOn",
            "timeMs": 155718.93750000405,
            "noteNumber": 82,
            "velocity": 0.7007874015748031
          },
          {
            "type": "noteOff",
            "timeMs": 155750.71687500406,
            "noteNumber": 79,
            "velocity": 0
          },
          {
            "type": "noteOff",
            "timeMs": 155761.31000000407,
            "noteNumber": 75,
            "velocity": 0
          },
          {
            "type": "noteOff",
            "timeMs": 155777.19968750406,
            "noteNumber": 82,
            "velocity": 0
          },
          {
            "type": "noteOn",
            "timeMs": 155973.1725000041,
            "noteNumber": 75,
            "velocity": 0.7007874015748031
          },
          {
            "type": "noteOn",
            "timeMs": 155973.1725000041,
            "noteNumber": 79,
            "velocity": 0.7007874015748031
          },
          {
            "type": "noteOn",
            "timeMs": 155973.1725000041,
            "noteNumber": 82,
            "velocity": 0.7007874015748031
          },
          {
            "type": "noteOff",
            "timeMs": 156020.8415625041,
            "noteNumber": 79,
            "velocity": 0
          },
          {
            "type": "noteOff",
            "timeMs": 156031.4346875041,
            "noteNumber": 82,
            "velocity": 0
          },
          {
            "type": "noteOff",
            "timeMs": 156031.4346875041,
            "noteNumber": 75,
            "velocity": 0
          },
          {
            "type": "noteOn",
            "timeMs": 156227.40750000413,
            "noteNumber": 75,
            "velocity": 0.7007874015748031
          },
          {
            "type": "noteOn",
            "timeMs": 156227.40750000413,
            "noteNumber": 79,
            "velocity": 0.7007874015748031
          },
          {
            "type": "noteOn",
            "timeMs": 156227.40750000413,
            "noteNumber": 82,
            "velocity": 0.7007874015748031
          },
          {
            "type": "noteOff",
            "timeMs": 156275.07656250414,
            "noteNumber": 75,
            "velocity": 0
          },
          {
            "type": "noteOff",
            "timeMs": 156280.37312500415,
            "noteNumber": 79,
            "velocity": 0
          },
          {
            "type": "noteOff",
            "timeMs": 156285.66968750415,
            "noteNumber": 82,
            "velocity": 0
          },
          {
            "type": "noteOn",
            "timeMs": 156481.64250000415,
            "noteNumber": 75,
            "velocity": 0.7007874015748031
          },
          {
            "type": "noteOn",
            "timeMs": 156481.64250000415,
            "noteNumber": 79,
            "velocity": 0.7007874015748031
          },
          {
            "type": "noteOn",
            "timeMs": 156481.64250000415,
            "noteNumber": 82,
            "velocity": 0.7007874015748031
          },
          {
            "type": "noteOff",
            "timeMs": 156524.01500000415,
            "noteNumber": 75,
            "velocity": 0
          },
          {
            "type": "noteOff",
            "timeMs": 156529.31156250415,
            "noteNumber": 82,
            "velocity": 0
          },
          {
            "type": "noteOff",
            "timeMs": 156534.60812500416,
            "noteNumber": 79,
            "velocity": 0
          },
          {
            "type": "noteOn",
            "timeMs": 156608.76000000417,
            "noteNumber": 75,
            "velocity": 0.7007874015748031
          },
          {
            "type": "noteOn",
            "timeMs": 156608.76000000417,
            "noteNumber": 79,
            "velocity": 0.7007874015748031
          },
          {
            "type": "noteOn",
            "timeMs": 156608.76000000417,
            "noteNumber": 82,
            "velocity": 0.7007874015748031
          },
          {
            "type": "noteOff",
            "timeMs": 156651.13250000417,
            "noteNumber": 75,
            "velocity": 0
          },
          {
            "type": "noteOff",
            "timeMs": 156656.42906250418,
            "noteNumber": 79,
            "velocity": 0
          },
          {
            "type": "noteOff",
            "timeMs": 156661.72562500418,
            "noteNumber": 82,
            "velocity": 0
          },
          {
            "type": "noteOn",
            "timeMs": 156862.99500000424,
            "noteNumber": 77,
            "velocity": 0.7007874015748031
          },
          {
            "type": "noteOn",
            "timeMs": 156862.99500000424,
            "noteNumber": 81,
            "velocity": 0.7007874015748031
          },
          {
            "type": "noteOn",
            "timeMs": 156862.99500000424,
            "noteNumber": 84,
            "velocity": 0.7007874015748031
          },
          {
            "type": "noteOff",
            "timeMs": 156915.96062500426,
            "noteNumber": 77,
            "velocity": 0
          },
          {
            "type": "noteOff",
            "timeMs": 156926.55375000427,
            "noteNumber": 84,
            "velocity": 0
          },
          {
            "type": "noteOff",
            "timeMs": 156926.55375000427,
            "noteNumber": 81,
            "velocity": 0
          },
          {
            "type": "noteOn",
            "timeMs": 157117.23000000426,
            "noteNumber": 77,
            "velocity": 0.7007874015748031
          },
          {
            "type": "noteOn",
            "timeMs": 157117.23000000426,
            "noteNumber": 81,
            "velocity": 0.7007874015748031
          },
          {
            "type": "noteOn",
            "timeMs": 157117.23000000426,
            "noteNumber": 84,
            "velocity": 0.7007874015748031
          },
          {
            "type": "noteOff",
            "timeMs": 157159.60250000426,
            "noteNumber": 77,
            "velocity": 0
          },
          {
            "type": "noteOff",
            "timeMs": 157175.49218750428,
            "noteNumber": 81,
            "velocity": 0
          },
          {
            "type": "noteOff",
            "timeMs": 157180.78875000429,
            "noteNumber": 84,
            "velocity": 0
          },
          {
            "type": "noteOn",
            "timeMs": 157371.4650000043,
            "noteNumber": 77,
            "velocity": 0.7007874015748031
          },
          {
            "type": "noteOn",
            "timeMs": 157371.4650000043,
            "noteNumber": 81,
            "velocity": 0.7007874015748031
          },
          {
            "type": "noteOn",
            "timeMs": 157371.4650000043,
            "noteNumber": 84,
            "velocity": 0.7007874015748031
          },
          {
            "type": "noteOff",
            "timeMs": 157435.02375000427,
            "noteNumber": 84,
            "velocity": 0
          },
          {
            "type": "noteOff",
            "timeMs": 157435.02375000427,
            "noteNumber": 81,
            "velocity": 0
          },
          {
            "type": "noteOff",
            "timeMs": 157435.02375000427,
            "noteNumber": 77,
            "velocity": 0
          },
          {
            "type": "noteOn",
            "timeMs": 157625.70000000426,
            "noteNumber": 75,
            "velocity": 0.7007874015748031
          },
          {
            "type": "noteOn",
            "timeMs": 157625.70000000426,
            "noteNumber": 79,
            "velocity": 0.7007874015748031
          },
          {
            "type": "noteOn",
            "timeMs": 157625.70000000426,
            "noteNumber": 82,
            "velocity": 0.7007874015748031
          },
          {
            "type": "noteOff",
            "timeMs": 157689.25875000426,
            "noteNumber": 82,
            "velocity": 0
          },
          {
            "type": "noteOff",
            "timeMs": 157689.25875000426,
            "noteNumber": 79,
            "velocity": 0
          },
          {
            "type": "noteOff",
            "timeMs": 157689.25875000426,
            "noteNumber": 75,
            "velocity": 0
          },
          {
            "type": "noteOn",
            "timeMs": 157752.81750000425,
            "noteNumber": 77,
            "velocity": 0.7007874015748031
          },
          {
            "type": "noteOn",
            "timeMs": 157752.81750000425,
            "noteNumber": 81,
            "velocity": 0.7007874015748031
          },
          {
            "type": "noteOn",
            "timeMs": 157752.81750000425,
            "noteNumber": 84,
            "velocity": 0.7007874015748031
          },
          {
            "type": "noteOff",
            "timeMs": 157816.37625000422,
            "noteNumber": 84,
            "velocity": 0
          },
          {
            "type": "noteOff",
            "timeMs": 157816.37625000422,
            "noteNumber": 81,
            "velocity": 0
          },
          {
            "type": "noteOff",
            "timeMs": 157816.37625000422,
            "noteNumber": 77,
            "velocity": 0
          },
          {
            "type": "noteOn",
            "timeMs": 158007.0525000042,
            "noteNumber": 77,
            "velocity": 0.7007874015748031
          },
          {
            "type": "noteOn",
            "timeMs": 158007.0525000042,
            "noteNumber": 81,
            "velocity": 0.7007874015748031
          },
          {
            "type": "noteOn",
            "timeMs": 158007.0525000042,
            "noteNumber": 84,
            "velocity": 0.7007874015748031
          },
          {
            "type": "noteOff",
            "timeMs": 158070.6112500042,
            "noteNumber": 84,
            "velocity": 0
          },
          {
            "type": "noteOff",
            "timeMs": 158070.6112500042,
            "noteNumber": 81,
            "velocity": 0
          },
          {
            "type": "noteOff",
            "timeMs": 158070.6112500042,
            "noteNumber": 77,
            "velocity": 0
          },
          {
            "type": "noteOn",
            "timeMs": 158896.87500000428,
            "noteNumber": 73,
            "velocity": 0.7007874015748031
          },
          {
            "type": "noteOn",
            "timeMs": 158896.87500000428,
            "noteNumber": 77,
            "velocity": 0.7007874015748031
          },
          {
            "type": "noteOn",
            "timeMs": 158896.87500000428,
            "noteNumber": 80,
            "velocity": 0.7007874015748031
          },
          {
            "type": "noteOff",
            "timeMs": 158949.8406250043,
            "noteNumber": 77,
            "velocity": 0
          },
          {
            "type": "noteOff",
            "timeMs": 158949.8406250043,
            "noteNumber": 73,
            "velocity": 0
          },
          {
            "type": "noteOff",
            "timeMs": 158960.4337500043,
            "noteNumber": 80,
            "velocity": 0
          },
          {
            "type": "noteOn",
            "timeMs": 159151.1100000043,
            "noteNumber": 73,
            "velocity": 0.7007874015748031
          },
          {
            "type": "noteOn",
            "timeMs": 159151.1100000043,
            "noteNumber": 77,
            "velocity": 0.7007874015748031
          },
          {
            "type": "noteOn",
            "timeMs": 159151.1100000043,
            "noteNumber": 80,
            "velocity": 0.7007874015748031
          },
          {
            "type": "noteOff",
            "timeMs": 159204.07562500428,
            "noteNumber": 77,
            "velocity": 0
          },
          {
            "type": "noteOff",
            "timeMs": 159209.37218750428,
            "noteNumber": 73,
            "velocity": 0
          },
          {
            "type": "noteOff",
            "timeMs": 159219.9653125043,
            "noteNumber": 80,
            "velocity": 0
          },
          {
            "type": "noteOn",
            "timeMs": 159405.3450000043,
            "noteNumber": 73,
            "velocity": 0.7007874015748031
          },
          {
            "type": "noteOn",
            "timeMs": 159405.3450000043,
            "noteNumber": 77,
            "velocity": 0.7007874015748031
          },
          {
            "type": "noteOn",
            "timeMs": 159405.3450000043,
            "noteNumber": 80,
            "velocity": 0.7007874015748031
          },
          {
            "type": "noteOff",
            "timeMs": 159447.7175000043,
            "noteNumber": 73,
            "velocity": 0
          },
          {
            "type": "noteOff",
            "timeMs": 159458.31062500432,
            "noteNumber": 80,
            "velocity": 0
          },
          {
            "type": "noteOff",
            "timeMs": 159458.31062500432,
            "noteNumber": 77,
            "velocity": 0
          },
          {
            "type": "noteOn",
            "timeMs": 159659.58000000432,
            "noteNumber": 73,
            "velocity": 0.7007874015748031
          },
          {
            "type": "noteOn",
            "timeMs": 159659.58000000432,
            "noteNumber": 77,
            "velocity": 0.7007874015748031
          },
          {
            "type": "noteOn",
            "timeMs": 159659.58000000432,
            "noteNumber": 80,
            "velocity": 0.7007874015748031
          },
          {
            "type": "noteOff",
            "timeMs": 159701.95250000432,
            "noteNumber": 73,
            "velocity": 0
          },
          {
            "type": "noteOff",
            "timeMs": 159707.24906250433,
            "noteNumber": 77,
            "velocity": 0
          },
          {
            "type": "noteOff",
            "timeMs": 159723.13875000432,
            "noteNumber": 80,
            "velocity": 0
          },
          {
            "type": "noteOn",
            "timeMs": 159786.69750000432,
            "noteNumber": 75,
            "velocity": 0.7007874015748031
          },
          {
            "type": "noteOn",
            "timeMs": 159786.69750000432,
            "noteNumber": 79,
            "velocity": 0.7007874015748031
          },
          {
            "type": "noteOn",
            "timeMs": 159786.69750000432,
            "noteNumber": 82,
            "velocity": 0.7007874015748031
          },
          {
            "type": "noteOff",
            "timeMs": 159818.4768750043,
            "noteNumber": 79,
            "velocity": 0
          },
          {
            "type": "noteOff",
            "timeMs": 159829.0700000043,
            "noteNumber": 75,
            "velocity": 0
          },
          {
            "type": "noteOff",
            "timeMs": 159844.9596875043,
            "noteNumber": 82,
            "velocity": 0
          },
          {
            "type": "noteOn",
            "timeMs": 160040.93250000433,
            "noteNumber": 75,
            "velocity": 0.7007874015748031
          },
          {
            "type": "noteOn",
            "timeMs": 160040.93250000433,
            "noteNumber": 79,
            "velocity": 0.7007874015748031
          },
          {
            "type": "noteOn",
            "timeMs": 160040.93250000433,
            "noteNumber": 82,
            "velocity": 0.7007874015748031
          },
          {
            "type": "noteOff",
            "timeMs": 160088.60156250434,
            "noteNumber": 79,
            "velocity": 0
          },
          {
            "type": "noteOff",
            "timeMs": 160099.19468750435,
            "noteNumber": 82,
            "velocity": 0
          },
          {
            "type": "noteOff",
            "timeMs": 160099.19468750435,
            "noteNumber": 75,
            "velocity": 0
          },
          {
            "type": "noteOn",
            "timeMs": 160295.16750000438,
            "noteNumber": 75,
            "velocity": 0.7007874015748031
          },
          {
            "type": "noteOn",
            "timeMs": 160295.16750000438,
            "noteNumber": 79,
            "velocity": 0.7007874015748031
          },
          {
            "type": "noteOn",
            "timeMs": 160295.16750000438,
            "noteNumber": 82,
            "velocity": 0.7007874015748031
          },
          {
            "type": "noteOff",
            "timeMs": 160342.83656250438,
            "noteNumber": 75,
            "velocity": 0
          },
          {
            "type": "noteOff",
            "timeMs": 160348.1331250044,
            "noteNumber": 79,
            "velocity": 0
          },
          {
            "type": "noteOff",
            "timeMs": 160353.4296875044,
            "noteNumber": 82,
            "velocity": 0
          },
          {
            "type": "noteOn",
            "timeMs": 160549.4025000044,
            "noteNumber": 75,
            "velocity": 0.7007874015748031
          },
          {
            "type": "noteOn",
            "timeMs": 160549.4025000044,
            "noteNumber": 79,
            "velocity": 0.7007874015748031
          },
          {
            "type": "noteOn",
            "timeMs": 160549.4025000044,
            "noteNumber": 82,
            "velocity": 0.7007874015748031
          },
          {
            "type": "noteOff",
            "timeMs": 160591.7750000044,
            "noteNumber": 75,
            "velocity": 0
          },
          {
            "type": "noteOff",
            "timeMs": 160597.0715625044,
            "noteNumber": 82,
            "velocity": 0
          },
          {
            "type": "noteOff",
            "timeMs": 160602.3681250044,
            "noteNumber": 79,
            "velocity": 0
          },
          {
            "type": "noteOn",
            "timeMs": 160676.5200000044,
            "noteNumber": 75,
            "velocity": 0.7007874015748031
          },
          {
            "type": "noteOn",
            "timeMs": 160676.5200000044,
            "noteNumber": 79,
            "velocity": 0.7007874015748031
          },
          {
            "type": "noteOn",
            "timeMs": 160676.5200000044,
            "noteNumber": 82,
            "velocity": 0.7007874015748031
          },
          {
            "type": "noteOff",
            "timeMs": 160718.8925000044,
            "noteNumber": 75,
            "velocity": 0
          },
          {
            "type": "noteOff",
            "timeMs": 160724.18906250442,
            "noteNumber": 79,
            "velocity": 0
          },
          {
            "type": "noteOff",
            "timeMs": 160729.48562500442,
            "noteNumber": 82,
            "velocity": 0
          },
          {
            "type": "noteOn",
            "timeMs": 160930.7550000045,
            "noteNumber": 77,
            "velocity": 0.7007874015748031
          },
          {
            "type": "noteOn",
            "timeMs": 160930.7550000045,
            "noteNumber": 81,
            "velocity": 0.7007874015748031
          },
          {
            "type": "noteOn",
            "timeMs": 160930.7550000045,
            "noteNumber": 84,
            "velocity": 0.7007874015748031
          },
          {
            "type": "noteOff",
            "timeMs": 160983.7206250045,
            "noteNumber": 77,
            "velocity": 0
          },
          {
            "type": "noteOff",
            "timeMs": 160994.3137500045,
            "noteNumber": 84,
            "velocity": 0
          },
          {
            "type": "noteOff",
            "timeMs": 160994.3137500045,
            "noteNumber": 81,
            "velocity": 0
          },
          {
            "type": "noteOn",
            "timeMs": 161184.9900000045,
            "noteNumber": 77,
            "velocity": 0.7007874015748031
          },
          {
            "type": "noteOn",
            "timeMs": 161184.9900000045,
            "noteNumber": 81,
            "velocity": 0.7007874015748031
          },
          {
            "type": "noteOn",
            "timeMs": 161184.9900000045,
            "noteNumber": 84,
            "velocity": 0.7007874015748031
          },
          {
            "type": "noteOff",
            "timeMs": 161227.3625000045,
            "noteNumber": 77,
            "velocity": 0
          },
          {
            "type": "noteOff",
            "timeMs": 161243.25218750452,
            "noteNumber": 81,
            "velocity": 0
          },
          {
            "type": "noteOff",
            "timeMs": 161248.54875000453,
            "noteNumber": 84,
            "velocity": 0
          },
          {
            "type": "noteOn",
            "timeMs": 161439.22500000455,
            "noteNumber": 77,
            "velocity": 0.7007874015748031
          },
          {
            "type": "noteOn",
            "timeMs": 161439.22500000455,
            "noteNumber": 81,
            "velocity": 0.7007874015748031
          },
          {
            "type": "noteOn",
            "timeMs": 161439.22500000455,
            "noteNumber": 84,
            "velocity": 0.7007874015748031
          },
          {
            "type": "noteOff",
            "timeMs": 161502.7837500045,
            "noteNumber": 84,
            "velocity": 0
          },
          {
            "type": "noteOff",
            "timeMs": 161502.7837500045,
            "noteNumber": 81,
            "velocity": 0
          },
          {
            "type": "noteOff",
            "timeMs": 161502.7837500045,
            "noteNumber": 77,
            "velocity": 0
          },
          {
            "type": "noteOn",
            "timeMs": 161693.4600000045,
            "noteNumber": 75,
            "velocity": 0.7007874015748031
          },
          {
            "type": "noteOn",
            "timeMs": 161693.4600000045,
            "noteNumber": 79,
            "velocity": 0.7007874015748031
          },
          {
            "type": "noteOn",
            "timeMs": 161693.4600000045,
            "noteNumber": 82,
            "velocity": 0.7007874015748031
          },
          {
            "type": "noteOff",
            "timeMs": 161757.0187500045,
            "noteNumber": 82,
            "velocity": 0
          },
          {
            "type": "noteOff",
            "timeMs": 161757.0187500045,
            "noteNumber": 79,
            "velocity": 0
          },
          {
            "type": "noteOff",
            "timeMs": 161757.0187500045,
            "noteNumber": 75,
            "velocity": 0
          },
          {
            "type": "noteOn",
            "timeMs": 161820.5775000045,
            "noteNumber": 77,
            "velocity": 0.7007874015748031
          },
          {
            "type": "noteOn",
            "timeMs": 161820.5775000045,
            "noteNumber": 81,
            "velocity": 0.7007874015748031
          },
          {
            "type": "noteOn",
            "timeMs": 161820.5775000045,
            "noteNumber": 84,
            "velocity": 0.7007874015748031
          },
          {
            "type": "noteOff",
            "timeMs": 161884.13625000446,
            "noteNumber": 84,
            "velocity": 0
          },
          {
            "type": "noteOff",
            "timeMs": 161884.13625000446,
            "noteNumber": 81,
            "velocity": 0
          },
          {
            "type": "noteOff",
            "timeMs": 161884.13625000446,
            "noteNumber": 77,
            "velocity": 0
          },
          {
            "type": "noteOn",
            "timeMs": 162074.81250000445,
            "noteNumber": 77,
            "velocity": 0.7007874015748031
          },
          {
            "type": "noteOn",
            "timeMs": 162074.81250000445,
            "noteNumber": 81,
            "velocity": 0.7007874015748031
          },
          {
            "type": "noteOn",
            "timeMs": 162074.81250000445,
            "noteNumber": 84,
            "velocity": 0.7007874015748031
          },
          {
            "type": "noteOff",
            "timeMs": 162138.37125000445,
            "noteNumber": 84,
            "velocity": 0
          },
          {
            "type": "noteOff",
            "timeMs": 162138.37125000445,
            "noteNumber": 81,
            "velocity": 0
          },
          {
            "type": "noteOff",
            "timeMs": 162138.37125000445,
            "noteNumber": 77,
            "velocity": 0
          },
          {
            "type": "noteOn",
            "timeMs": 178981.44000000422,
            "noteNumber": 41,
            "velocity": 0.984251968503937
          },
          {
            "type": "noteOn",
            "timeMs": 178981.44000000422,
            "noteNumber": 53,
            "velocity": 0.984251968503937
          },
          {
            "type": "noteOff",
            "timeMs": 183218.69000000422,
            "noteNumber": 53,
            "velocity": 0
          },
          {
            "type": "noteOff",
            "timeMs": 183218.69000000422,
            "noteNumber": 41,
            "velocity": 0
          }
        ]
      },
      "mix": {
        "volume": 0.8,
        "mute": false
      },
      "modules": [
        {
          "id": "import-1-track-6-channel-6:module-3",
          "type": "envelope",
          "x": 129,
          "y": 44,
          "params": {
            "attack": 0.01,
            "decay": 0.2,
            "sustain": 1,
            "release": 0.06668067692136222
          }
        },
        {
          "id": "import-1-track-6-channel-6:module-4",
          "type": "oscillator",
          "x": 572,
          "y": 75,
          "params": {
            "frequency": 440,
            "amplitude": 0.5,
            "shape": 0.5,
            "dutyCycle": 0.5
          }
        }
      ],
      "connections": [
        {
          "id": "conn-1774446448904-lla7aj",
          "from": {
            "moduleId": "keyboard-singleton",
            "outputId": "cv-out",
            "position": null
          },
          "to": {
            "moduleId": "import-1-track-6-channel-6:module-4",
            "outputId": "freq-input",
            "position": null
          }
        },
        {
          "id": "conn-1774446451746-4a3vfg",
          "from": {
            "moduleId": "keyboard-singleton",
            "outputId": "gate-out",
            "position": null
          },
          "to": {
            "moduleId": "import-1-track-6-channel-6:module-3",
            "outputId": "gate-input",
            "position": null
          }
        },
        {
          "id": "conn-1774446454246-fti7j0",
          "from": {
            "moduleId": "import-1-track-6-channel-6:module-3",
            "outputId": "output",
            "position": null
          },
          "to": {
            "moduleId": "import-1-track-6-channel-6:module-4",
            "outputId": "amp-input",
            "position": null
          }
        },
        {
          "id": "conn-1774446456621-dfihry",
          "from": {
            "moduleId": "import-1-track-6-channel-6:module-4",
            "outputId": "output",
            "position": null
          },
          "to": {
            "moduleId": "track-output-singleton",
            "outputId": "audio-input",
            "position": null
          }
        }
      ]
    },
    {
      "id": "import-1-track-7-channel-8",
      "name": "SAW WAVE · Ch 9",
      "source": {
        "kind": "midi-import",
        "midiTrackIndex": 7,
        "channel": 8
      },
      "midi": {
        "noteSegments": [
          {
            "noteNumber": 65,
            "velocity": 1,
            "startMs": 4094.2428125,
            "endMs": 4422.629687500001
          },
          {
            "noteNumber": 68,
            "velocity": 1,
            "startMs": 4576.230000000001,
            "endMs": 4841.058125000002
          },
          {
            "noteNumber": 65,
            "velocity": 1,
            "startMs": 4957.582500000002,
            "endMs": 5100.589687500003
          },
          {
            "noteNumber": 65,
            "velocity": 1,
            "startMs": 5211.817500000003,
            "endMs": 5344.231562500003
          },
          {
            "noteNumber": 70,
            "velocity": 1,
            "startMs": 5338.935000000003,
            "endMs": 5503.128437500003
          },
          {
            "noteNumber": 65,
            "velocity": 1,
            "startMs": 5593.170000000004,
            "endMs": 5714.990937500004
          },
          {
            "noteNumber": 63,
            "velocity": 1,
            "startMs": 5847.405000000004,
            "endMs": 5963.929375000004
          },
          {
            "noteNumber": 65,
            "velocity": 1,
            "startMs": 6101.640000000005,
            "endMs": 6472.399375000005
          },
          {
            "noteNumber": 72,
            "velocity": 1,
            "startMs": 6610.110000000006,
            "endMs": 6933.2003125000065
          },
          {
            "noteNumber": 65,
            "velocity": 1,
            "startMs": 6991.462500000007,
            "endMs": 7166.249062500007
          },
          {
            "noteNumber": 65,
            "velocity": 1,
            "startMs": 7245.6975000000075,
            "endMs": 7388.704687500008
          },
          {
            "noteNumber": 73,
            "velocity": 1,
            "startMs": 7372.815000000008,
            "endMs": 7499.932500000008
          },
          {
            "noteNumber": 72,
            "velocity": 1,
            "startMs": 7627.050000000008,
            "endMs": 7738.277812500009
          },
          {
            "noteNumber": 68,
            "velocity": 1,
            "startMs": 7881.285000000009,
            "endMs": 8003.1059375000095
          },
          {
            "noteNumber": 65,
            "velocity": 1,
            "startMs": 8135.5200000000095,
            "endMs": 8421.53437500001
          },
          {
            "noteNumber": 72,
            "velocity": 1,
            "startMs": 8389.75500000001,
            "endMs": 8612.21062500001
          },
          {
            "noteNumber": 77,
            "velocity": 1,
            "startMs": 8643.99000000001,
            "endMs": 8850.55593750001
          },
          {
            "noteNumber": 65,
            "velocity": 1,
            "startMs": 8898.22500000001,
            "endMs": 9014.74937500001
          },
          {
            "noteNumber": 63,
            "velocity": 1,
            "startMs": 9025.34250000001,
            "endMs": 9136.57031250001
          },
          {
            "noteNumber": 63,
            "velocity": 1,
            "startMs": 9279.577500000009,
            "endMs": 9396.10187500001
          },
          {
            "noteNumber": 60,
            "velocity": 1,
            "startMs": 9406.695000000009,
            "endMs": 9539.109062500009
          },
          {
            "noteNumber": 67,
            "velocity": 1,
            "startMs": 9660.93000000001,
            "endMs": 9893.97875000001
          },
          {
            "noteNumber": 65,
            "velocity": 1,
            "startMs": 9915.16500000001,
            "endMs": 10677.870000000012
          },
          {
            "noteNumber": 65,
            "velocity": 1,
            "startMs": 12203.280000000015,
            "endMs": 12531.666875000015
          },
          {
            "noteNumber": 68,
            "velocity": 1,
            "startMs": 12711.750000000016,
            "endMs": 12976.578125000016
          },
          {
            "noteNumber": 65,
            "velocity": 1,
            "startMs": 13093.102500000017,
            "endMs": 13236.109687500017
          },
          {
            "noteNumber": 65,
            "velocity": 1,
            "startMs": 13347.337500000016,
            "endMs": 13479.751562500016
          },
          {
            "noteNumber": 70,
            "velocity": 1,
            "startMs": 13474.455000000016,
            "endMs": 13638.648437500016
          },
          {
            "noteNumber": 65,
            "velocity": 1,
            "startMs": 13728.690000000017,
            "endMs": 13850.510937500017
          },
          {
            "noteNumber": 63,
            "velocity": 1,
            "startMs": 13982.925000000017,
            "endMs": 14099.449375000018
          },
          {
            "noteNumber": 65,
            "velocity": 1,
            "startMs": 14237.160000000018,
            "endMs": 14607.91937500002
          },
          {
            "noteNumber": 72,
            "velocity": 1,
            "startMs": 14745.63000000002,
            "endMs": 15068.72031250002
          },
          {
            "noteNumber": 65,
            "velocity": 1,
            "startMs": 15126.98250000002,
            "endMs": 15301.76906250002
          },
          {
            "noteNumber": 65,
            "velocity": 1,
            "startMs": 15381.217500000019,
            "endMs": 15524.224687500018
          },
          {
            "noteNumber": 73,
            "velocity": 1,
            "startMs": 15508.33500000002,
            "endMs": 15635.452500000018
          },
          {
            "noteNumber": 72,
            "velocity": 1,
            "startMs": 15762.570000000018,
            "endMs": 15873.797812500017
          },
          {
            "noteNumber": 68,
            "velocity": 1,
            "startMs": 16016.805000000017,
            "endMs": 16138.625937500017
          },
          {
            "noteNumber": 65,
            "velocity": 1,
            "startMs": 16271.040000000017,
            "endMs": 16557.054375000014
          },
          {
            "noteNumber": 72,
            "velocity": 1,
            "startMs": 16525.275000000016,
            "endMs": 16747.73062500001
          },
          {
            "noteNumber": 77,
            "velocity": 1,
            "startMs": 16779.51000000001,
            "endMs": 16986.07593750001
          },
          {
            "noteNumber": 65,
            "velocity": 1,
            "startMs": 17033.74500000001,
            "endMs": 17150.26937500001
          },
          {
            "noteNumber": 63,
            "velocity": 1,
            "startMs": 17160.86250000001,
            "endMs": 17272.09031250001
          },
          {
            "noteNumber": 63,
            "velocity": 1,
            "startMs": 17415.09750000001,
            "endMs": 17531.62187500001
          },
          {
            "noteNumber": 60,
            "velocity": 1,
            "startMs": 17542.21500000001,
            "endMs": 17674.62906250001
          },
          {
            "noteNumber": 67,
            "velocity": 1,
            "startMs": 17796.45000000001,
            "endMs": 18029.498750000013
          },
          {
            "noteNumber": 65,
            "velocity": 1,
            "startMs": 18050.685000000012,
            "endMs": 18813.390000000014
          },
          {
            "noteNumber": 65,
            "velocity": 1,
            "startMs": 36609.83999999981,
            "endMs": 36938.22687499979
          },
          {
            "noteNumber": 68,
            "velocity": 1,
            "startMs": 37118.30999999978,
            "endMs": 37383.138124999765
          },
          {
            "noteNumber": 65,
            "velocity": 1,
            "startMs": 37499.66249999976,
            "endMs": 37642.66968749975
          },
          {
            "noteNumber": 65,
            "velocity": 1,
            "startMs": 37753.897499999744,
            "endMs": 37886.31156249974
          },
          {
            "noteNumber": 70,
            "velocity": 1,
            "startMs": 37881.01499999974,
            "endMs": 38045.20843749973
          },
          {
            "noteNumber": 65,
            "velocity": 1,
            "startMs": 38135.24999999972,
            "endMs": 38257.07093749972
          },
          {
            "noteNumber": 63,
            "velocity": 1,
            "startMs": 38389.48499999971,
            "endMs": 38506.0093749997
          },
          {
            "noteNumber": 65,
            "velocity": 1,
            "startMs": 38643.719999999696,
            "endMs": 39014.479374999675
          },
          {
            "noteNumber": 72,
            "velocity": 1,
            "startMs": 39152.18999999967,
            "endMs": 39475.28031249965
          },
          {
            "noteNumber": 65,
            "velocity": 1,
            "startMs": 39533.54249999965,
            "endMs": 39708.32906249964
          },
          {
            "noteNumber": 65,
            "velocity": 1,
            "startMs": 39787.77749999963,
            "endMs": 39930.784687499625
          },
          {
            "noteNumber": 73,
            "velocity": 1,
            "startMs": 39914.894999999626,
            "endMs": 40042.01249999962
          },
          {
            "noteNumber": 72,
            "velocity": 1,
            "startMs": 40169.12999999961,
            "endMs": 40280.357812499606
          },
          {
            "noteNumber": 68,
            "velocity": 1,
            "startMs": 40423.3649999996,
            "endMs": 40545.18593749959
          },
          {
            "noteNumber": 65,
            "velocity": 1,
            "startMs": 40677.599999999584,
            "endMs": 40963.61437499957
          },
          {
            "noteNumber": 72,
            "velocity": 1,
            "startMs": 40931.83499999957,
            "endMs": 41154.29062499956
          },
          {
            "noteNumber": 77,
            "velocity": 1,
            "startMs": 41186.069999999556,
            "endMs": 41392.635937499545
          },
          {
            "noteNumber": 65,
            "velocity": 1,
            "startMs": 41440.30499999954,
            "endMs": 41556.829374999536
          },
          {
            "noteNumber": 63,
            "velocity": 1,
            "startMs": 41567.422499999535,
            "endMs": 41678.65031249953
          },
          {
            "noteNumber": 63,
            "velocity": 1,
            "startMs": 41821.65749999952,
            "endMs": 41938.181874999515
          },
          {
            "noteNumber": 60,
            "velocity": 1,
            "startMs": 41948.774999999514,
            "endMs": 42081.18906249951
          },
          {
            "noteNumber": 67,
            "velocity": 1,
            "startMs": 42203.0099999995,
            "endMs": 42436.05874999949
          },
          {
            "noteNumber": 65,
            "velocity": 1,
            "startMs": 42457.244999999486,
            "endMs": 43219.94999999945
          },
          {
            "noteNumber": 65,
            "velocity": 1,
            "startMs": 44745.3599999994,
            "endMs": 45073.74687499938
          },
          {
            "noteNumber": 68,
            "velocity": 1,
            "startMs": 45253.82999999937,
            "endMs": 45518.658124999354
          },
          {
            "noteNumber": 65,
            "velocity": 1,
            "startMs": 45635.18249999935,
            "endMs": 45778.18968749934
          },
          {
            "noteNumber": 65,
            "velocity": 1,
            "startMs": 45889.417499999334,
            "endMs": 46021.83156249933
          },
          {
            "noteNumber": 70,
            "velocity": 1,
            "startMs": 46016.53499999933,
            "endMs": 46180.72843749932
          },
          {
            "noteNumber": 65,
            "velocity": 1,
            "startMs": 46270.76999999931,
            "endMs": 46392.590937499306
          },
          {
            "noteNumber": 63,
            "velocity": 1,
            "startMs": 46525.0049999993,
            "endMs": 46641.52937499929
          },
          {
            "noteNumber": 65,
            "velocity": 1,
            "startMs": 46779.239999999285,
            "endMs": 47149.999374999265
          },
          {
            "noteNumber": 72,
            "velocity": 1,
            "startMs": 47287.70999999926,
            "endMs": 47610.80031249924
          },
          {
            "noteNumber": 65,
            "velocity": 1,
            "startMs": 47669.062499999236,
            "endMs": 47843.84906249923
          },
          {
            "noteNumber": 65,
            "velocity": 1,
            "startMs": 47923.29749999922,
            "endMs": 48066.304687499214
          },
          {
            "noteNumber": 73,
            "velocity": 1,
            "startMs": 48050.414999999215,
            "endMs": 48177.53249999921
          },
          {
            "noteNumber": 72,
            "velocity": 1,
            "startMs": 48304.6499999992,
            "endMs": 48415.877812499195
          },
          {
            "noteNumber": 68,
            "velocity": 1,
            "startMs": 48558.88499999919,
            "endMs": 48680.70593749918
          },
          {
            "noteNumber": 65,
            "velocity": 1,
            "startMs": 48813.11999999917,
            "endMs": 49099.13437499916
          },
          {
            "noteNumber": 72,
            "velocity": 1,
            "startMs": 49067.35499999916,
            "endMs": 49289.81062499915
          },
          {
            "noteNumber": 77,
            "velocity": 1,
            "startMs": 49321.589999999145,
            "endMs": 49528.155937499134
          },
          {
            "noteNumber": 65,
            "velocity": 1,
            "startMs": 49575.82499999913,
            "endMs": 49692.349374999125
          },
          {
            "noteNumber": 63,
            "velocity": 1,
            "startMs": 49702.942499999124,
            "endMs": 49814.17031249912
          },
          {
            "noteNumber": 63,
            "velocity": 1,
            "startMs": 49957.17749999911,
            "endMs": 50073.701874999104
          },
          {
            "noteNumber": 60,
            "velocity": 1,
            "startMs": 50084.2949999991,
            "endMs": 50216.709062499096
          },
          {
            "noteNumber": 67,
            "velocity": 1,
            "startMs": 50338.52999999909,
            "endMs": 50571.57874999908
          },
          {
            "noteNumber": 65,
            "velocity": 1,
            "startMs": 50592.764999999075,
            "endMs": 51355.46999999904
          },
          {
            "noteNumber": 48,
            "velocity": 0.7480314960629921,
            "startMs": 69151.91999999856,
            "endMs": 73267.34906249879
          },
          {
            "noteNumber": 53,
            "velocity": 0.7480314960629921,
            "startMs": 69151.91999999856,
            "endMs": 73267.34906249879
          },
          {
            "noteNumber": 60,
            "velocity": 0.7480314960629921,
            "startMs": 69151.91999999856,
            "endMs": 73267.34906249879
          },
          {
            "noteNumber": 65,
            "velocity": 0.7480314960629921,
            "startMs": 69151.91999999856,
            "endMs": 73267.34906249879
          },
          {
            "noteNumber": 72,
            "velocity": 0.7480314960629921,
            "startMs": 69151.91999999856,
            "endMs": 73267.34906249879
          },
          {
            "noteNumber": 65,
            "velocity": 1,
            "startMs": 91524.5999999992,
            "endMs": 91863.5799999992
          },
          {
            "noteNumber": 68,
            "velocity": 1,
            "startMs": 92033.06999999924,
            "endMs": 92329.67749999922
          },
          {
            "noteNumber": 65,
            "velocity": 1,
            "startMs": 92414.42249999923,
            "endMs": 92562.72624999922
          },
          {
            "noteNumber": 65,
            "velocity": 1,
            "startMs": 92668.65749999922,
            "endMs": 92795.77499999924
          },
          {
            "noteNumber": 70,
            "velocity": 1,
            "startMs": 92795.77499999924,
            "endMs": 92938.78218749924
          },
          {
            "noteNumber": 65,
            "velocity": 1,
            "startMs": 93050.00999999924,
            "endMs": 93166.53437499925
          },
          {
            "noteNumber": 63,
            "velocity": 1,
            "startMs": 93304.24499999925,
            "endMs": 93388.98999999925
          },
          {
            "noteNumber": 65,
            "velocity": 1,
            "startMs": 93558.47999999927,
            "endMs": 93929.23937499926
          },
          {
            "noteNumber": 72,
            "velocity": 1,
            "startMs": 94066.94999999925,
            "endMs": 94358.26093749928
          },
          {
            "noteNumber": 65,
            "velocity": 1,
            "startMs": 94448.30249999929,
            "endMs": 94591.30968749929
          },
          {
            "noteNumber": 65,
            "velocity": 1,
            "startMs": 94702.5374999993,
            "endMs": 94845.5446874993
          },
          {
            "noteNumber": 73,
            "velocity": 1,
            "startMs": 94829.6549999993,
            "endMs": 94967.36562499931
          },
          {
            "noteNumber": 72,
            "velocity": 1,
            "startMs": 95083.88999999932,
            "endMs": 95205.71093749932
          },
          {
            "noteNumber": 68,
            "velocity": 1,
            "startMs": 95338.12499999935,
            "endMs": 95438.75968749935
          },
          {
            "noteNumber": 65,
            "velocity": 1,
            "startMs": 95592.35999999936,
            "endMs": 95867.78124999937
          },
          {
            "noteNumber": 72,
            "velocity": 1,
            "startMs": 95846.59499999938,
            "endMs": 96042.5678124994
          },
          {
            "noteNumber": 77,
            "velocity": 1,
            "startMs": 96100.8299999994,
            "endMs": 96328.58218749941
          },
          {
            "noteNumber": 65,
            "velocity": 1,
            "startMs": 96355.06499999942,
            "endMs": 96482.18249999943
          },
          {
            "noteNumber": 63,
            "velocity": 1,
            "startMs": 96482.18249999943,
            "endMs": 96577.52062499942
          },
          {
            "noteNumber": 63,
            "velocity": 1,
            "startMs": 96736.41749999941,
            "endMs": 96821.16249999942
          },
          {
            "noteNumber": 60,
            "velocity": 1,
            "startMs": 96863.53499999944,
            "endMs": 96980.05937499943
          },
          {
            "noteNumber": 67,
            "velocity": 1,
            "startMs": 97117.76999999944,
            "endMs": 97324.33593749945
          },
          {
            "noteNumber": 65,
            "velocity": 1,
            "startMs": 97372.00499999945,
            "endMs": 98145.30312499945
          },
          {
            "noteNumber": 65,
            "velocity": 1,
            "startMs": 99660.11999999952,
            "endMs": 99661.44414062452
          },
          {
            "noteNumber": 65,
            "velocity": 1,
            "startMs": 99660.11999999952,
            "endMs": 99988.50687499951
          },
          {
            "noteNumber": 68,
            "velocity": 1,
            "startMs": 100168.58999999952,
            "endMs": 100169.91414062452
          },
          {
            "noteNumber": 68,
            "velocity": 1,
            "startMs": 100168.58999999952,
            "endMs": 100433.41812499952
          },
          {
            "noteNumber": 65,
            "velocity": 1,
            "startMs": 100549.94249999951,
            "endMs": 100551.26664062451
          },
          {
            "noteNumber": 65,
            "velocity": 1,
            "startMs": 100549.94249999951,
            "endMs": 100687.6531249995
          },
          {
            "noteNumber": 65,
            "velocity": 1,
            "startMs": 100804.1774999995,
            "endMs": 100805.5016406245
          },
          {
            "noteNumber": 65,
            "velocity": 1,
            "startMs": 100804.1774999995,
            "endMs": 100936.59156249951
          },
          {
            "noteNumber": 70,
            "velocity": 1,
            "startMs": 100931.2949999995,
            "endMs": 100932.6191406245
          },
          {
            "noteNumber": 70,
            "velocity": 1,
            "startMs": 100931.2949999995,
            "endMs": 101047.81937499953
          },
          {
            "noteNumber": 65,
            "velocity": 1,
            "startMs": 101185.52999999952,
            "endMs": 101186.85414062452
          },
          {
            "noteNumber": 65,
            "velocity": 1,
            "startMs": 101185.52999999952,
            "endMs": 101307.35093749952
          },
          {
            "noteNumber": 63,
            "velocity": 1,
            "startMs": 101439.76499999955,
            "endMs": 101441.08914062455
          },
          {
            "noteNumber": 63,
            "velocity": 1,
            "startMs": 101439.76499999955,
            "endMs": 101535.10312499954
          },
          {
            "noteNumber": 65,
            "velocity": 1,
            "startMs": 101693.99999999955,
            "endMs": 101695.32414062455
          },
          {
            "noteNumber": 65,
            "velocity": 1,
            "startMs": 101693.99999999955,
            "endMs": 102054.16624999956
          },
          {
            "noteNumber": 72,
            "velocity": 1,
            "startMs": 102202.46999999956,
            "endMs": 102203.79414062457
          },
          {
            "noteNumber": 72,
            "velocity": 1,
            "startMs": 102202.46999999956,
            "endMs": 102488.48437499958
          },
          {
            "noteNumber": 65,
            "velocity": 1,
            "startMs": 102583.82249999957,
            "endMs": 102585.14664062457
          },
          {
            "noteNumber": 65,
            "velocity": 1,
            "startMs": 102583.82249999957,
            "endMs": 102726.82968749959
          },
          {
            "noteNumber": 65,
            "velocity": 1,
            "startMs": 102838.05749999959,
            "endMs": 102839.38164062459
          },
          {
            "noteNumber": 65,
            "velocity": 1,
            "startMs": 102838.05749999959,
            "endMs": 102975.7681249996
          },
          {
            "noteNumber": 73,
            "velocity": 1,
            "startMs": 102965.1749999996,
            "endMs": 102966.4991406246
          },
          {
            "noteNumber": 73,
            "velocity": 1,
            "startMs": 102965.1749999996,
            "endMs": 103092.2924999996
          },
          {
            "noteNumber": 72,
            "velocity": 1,
            "startMs": 103219.40999999961,
            "endMs": 103220.73414062461
          },
          {
            "noteNumber": 72,
            "velocity": 1,
            "startMs": 103219.40999999961,
            "endMs": 103330.63781249961
          },
          {
            "noteNumber": 68,
            "velocity": 1,
            "startMs": 103473.64499999963,
            "endMs": 103474.96914062463
          },
          {
            "noteNumber": 68,
            "velocity": 1,
            "startMs": 103473.64499999963,
            "endMs": 103590.16937499962
          },
          {
            "noteNumber": 65,
            "velocity": 1,
            "startMs": 103727.87999999963,
            "endMs": 103729.20414062463
          },
          {
            "noteNumber": 65,
            "velocity": 1,
            "startMs": 103727.87999999963,
            "endMs": 104013.89437499963
          },
          {
            "noteNumber": 72,
            "velocity": 1,
            "startMs": 103982.11499999963,
            "endMs": 103983.43914062463
          },
          {
            "noteNumber": 72,
            "velocity": 1,
            "startMs": 103982.11499999963,
            "endMs": 104146.30843749963
          },
          {
            "noteNumber": 77,
            "velocity": 1,
            "startMs": 104236.34999999963,
            "endMs": 104237.67414062463
          },
          {
            "noteNumber": 77,
            "velocity": 1,
            "startMs": 104236.34999999963,
            "endMs": 104432.32281249962
          },
          {
            "noteNumber": 65,
            "velocity": 1,
            "startMs": 104490.58499999963,
            "endMs": 104491.90914062463
          },
          {
            "noteNumber": 65,
            "velocity": 1,
            "startMs": 104490.58499999963,
            "endMs": 104601.81281249964
          },
          {
            "noteNumber": 63,
            "velocity": 1,
            "startMs": 104617.70249999965,
            "endMs": 104619.02664062465
          },
          {
            "noteNumber": 63,
            "velocity": 1,
            "startMs": 104617.70249999965,
            "endMs": 104718.33718749965
          },
          {
            "noteNumber": 63,
            "velocity": 1,
            "startMs": 104871.93749999967,
            "endMs": 104873.26164062467
          },
          {
            "noteNumber": 63,
            "velocity": 1,
            "startMs": 104871.93749999967,
            "endMs": 104967.27562499967
          },
          {
            "noteNumber": 60,
            "velocity": 1,
            "startMs": 104999.05499999969,
            "endMs": 105000.37914062469
          },
          {
            "noteNumber": 60,
            "velocity": 1,
            "startMs": 104999.05499999969,
            "endMs": 105104.98624999968
          },
          {
            "noteNumber": 67,
            "velocity": 1,
            "startMs": 105253.2899999997,
            "endMs": 105254.6141406247
          },
          {
            "noteNumber": 67,
            "velocity": 1,
            "startMs": 105253.2899999997,
            "endMs": 105465.1524999997
          },
          {
            "noteNumber": 65,
            "velocity": 1,
            "startMs": 105507.5249999997,
            "endMs": 105508.8491406247
          },
          {
            "noteNumber": 65,
            "velocity": 1,
            "startMs": 105507.5249999997,
            "endMs": 106270.22999999972
          },
          {
            "noteNumber": 80,
            "velocity": 1,
            "startMs": 132202.20000000132,
            "endMs": 132281.64843750134
          },
          {
            "noteNumber": 80,
            "velocity": 1,
            "startMs": 132583.55250000136,
            "endMs": 132663.00093750135
          },
          {
            "noteNumber": 80,
            "velocity": 1,
            "startMs": 132964.9050000014,
            "endMs": 133044.35343750138
          },
          {
            "noteNumber": 80,
            "velocity": 1,
            "startMs": 133346.25750000146,
            "endMs": 133425.70593750148
          },
          {
            "noteNumber": 80,
            "velocity": 1,
            "startMs": 133600.49250000148,
            "endMs": 133664.0512500015
          },
          {
            "noteNumber": 82,
            "velocity": 1,
            "startMs": 133727.61000000153,
            "endMs": 133807.05843750158
          },
          {
            "noteNumber": 84,
            "velocity": 1,
            "startMs": 133981.8450000016,
            "endMs": 134077.18312500164
          },
          {
            "noteNumber": 80,
            "velocity": 1,
            "startMs": 134236.08000000165,
            "endMs": 134326.12156250165
          },
          {
            "noteNumber": 80,
            "velocity": 1,
            "startMs": 134617.43250000163,
            "endMs": 134686.28781250163
          },
          {
            "noteNumber": 80,
            "velocity": 1,
            "startMs": 134998.78500000166,
            "endMs": 135088.82656250166
          },
          {
            "noteNumber": 80,
            "velocity": 1,
            "startMs": 135380.13750000176,
            "endMs": 135454.28937500177
          },
          {
            "noteNumber": 80,
            "velocity": 1,
            "startMs": 135634.37250000183,
            "endMs": 135692.63468750185
          },
          {
            "noteNumber": 82,
            "velocity": 1,
            "startMs": 135761.49000000185,
            "endMs": 135846.23500000188
          },
          {
            "noteNumber": 84,
            "velocity": 1,
            "startMs": 136015.7250000019,
            "endMs": 136111.0631250019
          },
          {
            "noteNumber": 80,
            "velocity": 1,
            "startMs": 136269.9600000019,
            "endMs": 136360.00156250194
          },
          {
            "noteNumber": 80,
            "velocity": 1,
            "startMs": 136651.31250000195,
            "endMs": 136725.46437500196
          },
          {
            "noteNumber": 80,
            "velocity": 1,
            "startMs": 137032.66500000202,
            "endMs": 137117.41000000204
          },
          {
            "noteNumber": 80,
            "velocity": 1,
            "startMs": 137414.01750000208,
            "endMs": 137498.7625000021
          },
          {
            "noteNumber": 80,
            "velocity": 1,
            "startMs": 137668.25250000216,
            "endMs": 137742.4043750022
          },
          {
            "noteNumber": 82,
            "velocity": 1,
            "startMs": 137795.3700000022,
            "endMs": 137880.1150000022
          },
          {
            "noteNumber": 84,
            "velocity": 1,
            "startMs": 138049.6050000022,
            "endMs": 138139.6465625022
          },
          {
            "noteNumber": 80,
            "velocity": 1,
            "startMs": 138303.84000000218,
            "endMs": 138399.1781250022
          },
          {
            "noteNumber": 80,
            "velocity": 1,
            "startMs": 138685.19250000225,
            "endMs": 138764.64093750223
          },
          {
            "noteNumber": 80,
            "velocity": 1,
            "startMs": 139066.54500000225,
            "endMs": 139161.88312500226
          },
          {
            "noteNumber": 80,
            "velocity": 1,
            "startMs": 139447.8975000023,
            "endMs": 139532.6425000023
          },
          {
            "noteNumber": 80,
            "velocity": 1,
            "startMs": 139702.1325000023,
            "endMs": 139786.8775000023
          },
          {
            "noteNumber": 82,
            "velocity": 1,
            "startMs": 139829.25000000233,
            "endMs": 139919.29156250233
          },
          {
            "noteNumber": 84,
            "velocity": 1,
            "startMs": 140083.48500000234,
            "endMs": 140173.52656250235
          },
          {
            "noteNumber": 80,
            "velocity": 1,
            "startMs": 140337.7200000024,
            "endMs": 140427.7615625024
          },
          {
            "noteNumber": 80,
            "velocity": 1,
            "startMs": 140719.07250000242,
            "endMs": 140793.22437500244
          },
          {
            "noteNumber": 80,
            "velocity": 1,
            "startMs": 141100.42500000246,
            "endMs": 141185.1700000025
          },
          {
            "noteNumber": 80,
            "velocity": 1,
            "startMs": 141481.7775000025,
            "endMs": 141555.9293750025
          },
          {
            "noteNumber": 80,
            "velocity": 1,
            "startMs": 141736.01250000254,
            "endMs": 141852.53687500255
          },
          {
            "noteNumber": 82,
            "velocity": 1,
            "startMs": 141863.13000000257,
            "endMs": 141942.57843750255
          },
          {
            "noteNumber": 84,
            "velocity": 1,
            "startMs": 142117.36500000258,
            "endMs": 142207.40656250258
          },
          {
            "noteNumber": 65,
            "velocity": 1,
            "startMs": 162710.4000000045,
            "endMs": 163038.7868750045
          },
          {
            "noteNumber": 68,
            "velocity": 1,
            "startMs": 163218.8700000045,
            "endMs": 163483.69812500454
          },
          {
            "noteNumber": 65,
            "velocity": 1,
            "startMs": 163600.22250000454,
            "endMs": 163743.22968750453
          },
          {
            "noteNumber": 65,
            "velocity": 1,
            "startMs": 163854.45750000453,
            "endMs": 163986.87156250453
          },
          {
            "noteNumber": 70,
            "velocity": 1,
            "startMs": 163981.57500000452,
            "endMs": 164145.76843750454
          },
          {
            "noteNumber": 65,
            "velocity": 1,
            "startMs": 164235.81000000454,
            "endMs": 164357.63093750452
          },
          {
            "noteNumber": 63,
            "velocity": 1,
            "startMs": 164490.04500000452,
            "endMs": 164606.56937500453
          },
          {
            "noteNumber": 65,
            "velocity": 1,
            "startMs": 164744.28000000454,
            "endMs": 165115.03937500453
          },
          {
            "noteNumber": 72,
            "velocity": 1,
            "startMs": 165252.75000000454,
            "endMs": 165575.84031250456
          },
          {
            "noteNumber": 65,
            "velocity": 1,
            "startMs": 165634.10250000455,
            "endMs": 165808.88906250455
          },
          {
            "noteNumber": 65,
            "velocity": 1,
            "startMs": 165888.33750000453,
            "endMs": 166031.34468750455
          },
          {
            "noteNumber": 73,
            "velocity": 1,
            "startMs": 166015.45500000456,
            "endMs": 166142.57250000455
          },
          {
            "noteNumber": 72,
            "velocity": 1,
            "startMs": 166269.69000000454,
            "endMs": 166380.91781250454
          },
          {
            "noteNumber": 68,
            "velocity": 1,
            "startMs": 166523.92500000453,
            "endMs": 166645.74593750451
          },
          {
            "noteNumber": 65,
            "velocity": 1,
            "startMs": 166778.16000000451,
            "endMs": 167064.1743750045
          },
          {
            "noteNumber": 72,
            "velocity": 1,
            "startMs": 167032.3950000045,
            "endMs": 167254.85062500453
          },
          {
            "noteNumber": 77,
            "velocity": 1,
            "startMs": 167286.63000000454,
            "endMs": 167493.19593750453
          },
          {
            "noteNumber": 65,
            "velocity": 1,
            "startMs": 167540.86500000453,
            "endMs": 167657.38937500454
          },
          {
            "noteNumber": 63,
            "velocity": 1,
            "startMs": 167667.98250000455,
            "endMs": 167779.21031250455
          },
          {
            "noteNumber": 63,
            "velocity": 1,
            "startMs": 167922.21750000454,
            "endMs": 168038.74187500452
          },
          {
            "noteNumber": 60,
            "velocity": 1,
            "startMs": 168049.33500000453,
            "endMs": 168181.74906250453
          },
          {
            "noteNumber": 67,
            "velocity": 1,
            "startMs": 168303.57000000452,
            "endMs": 168536.6187500045
          },
          {
            "noteNumber": 65,
            "velocity": 1,
            "startMs": 168557.8050000045,
            "endMs": 169320.51000000446
          },
          {
            "noteNumber": 65,
            "velocity": 1,
            "startMs": 170845.92000000435,
            "endMs": 171174.30687500435
          },
          {
            "noteNumber": 68,
            "velocity": 1,
            "startMs": 171354.39000000435,
            "endMs": 171619.21812500438
          },
          {
            "noteNumber": 65,
            "velocity": 1,
            "startMs": 171735.7425000044,
            "endMs": 171878.74968750437
          },
          {
            "noteNumber": 65,
            "velocity": 1,
            "startMs": 171989.97750000437,
            "endMs": 172122.39156250437
          },
          {
            "noteNumber": 70,
            "velocity": 1,
            "startMs": 172117.09500000437,
            "endMs": 172281.28843750438
          },
          {
            "noteNumber": 65,
            "velocity": 1,
            "startMs": 172371.33000000438,
            "endMs": 172493.15093750437
          },
          {
            "noteNumber": 63,
            "velocity": 1,
            "startMs": 172625.56500000437,
            "endMs": 172742.08937500438
          },
          {
            "noteNumber": 65,
            "velocity": 1,
            "startMs": 172879.80000000438,
            "endMs": 173250.55937500438
          },
          {
            "noteNumber": 72,
            "velocity": 1,
            "startMs": 173388.27000000438,
            "endMs": 173711.3603125044
          },
          {
            "noteNumber": 65,
            "velocity": 1,
            "startMs": 173769.6225000044,
            "endMs": 173944.4090625044
          },
          {
            "noteNumber": 65,
            "velocity": 1,
            "startMs": 174023.85750000438,
            "endMs": 174166.8646875044
          },
          {
            "noteNumber": 73,
            "velocity": 1,
            "startMs": 174150.9750000044,
            "endMs": 174278.0925000044
          },
          {
            "noteNumber": 72,
            "velocity": 1,
            "startMs": 174405.2100000044,
            "endMs": 174516.4378125044
          },
          {
            "noteNumber": 68,
            "velocity": 1,
            "startMs": 174659.44500000437,
            "endMs": 174781.26593750436
          },
          {
            "noteNumber": 65,
            "velocity": 1,
            "startMs": 174913.68000000436,
            "endMs": 175199.69437500436
          },
          {
            "noteNumber": 72,
            "velocity": 1,
            "startMs": 175167.91500000434,
            "endMs": 175390.37062500438
          },
          {
            "noteNumber": 77,
            "velocity": 1,
            "startMs": 175422.1500000044,
            "endMs": 175628.71593750437
          },
          {
            "noteNumber": 65,
            "velocity": 1,
            "startMs": 175676.38500000437,
            "endMs": 175792.90937500438
          },
          {
            "noteNumber": 63,
            "velocity": 1,
            "startMs": 175803.5025000044,
            "endMs": 175914.7303125044
          },
          {
            "noteNumber": 63,
            "velocity": 1,
            "startMs": 176057.73750000438,
            "endMs": 176174.26187500436
          },
          {
            "noteNumber": 60,
            "velocity": 1,
            "startMs": 176184.85500000438,
            "endMs": 176317.26906250438
          },
          {
            "noteNumber": 67,
            "velocity": 1,
            "startMs": 176439.09000000436,
            "endMs": 176672.13875000435
          },
          {
            "noteNumber": 65,
            "velocity": 1,
            "startMs": 176693.32500000435,
            "endMs": 177456.0300000043
          },
          {
            "noteNumber": 29,
            "velocity": 1,
            "startMs": 178981.44000000422,
            "endMs": 183218.69000000422
          }
        ],
        "durationMs": 183218.69000000422,
        "eventCount": 496,
        "events": [
          {
            "type": "noteOn",
            "timeMs": 4094.2428125,
            "noteNumber": 65,
            "velocity": 1
          },
          {
            "type": "noteOff",
            "timeMs": 4422.629687500001,
            "noteNumber": 65,
            "velocity": 0
          },
          {
            "type": "noteOn",
            "timeMs": 4576.230000000001,
            "noteNumber": 68,
            "velocity": 1
          },
          {
            "type": "noteOff",
            "timeMs": 4841.058125000002,
            "noteNumber": 68,
            "velocity": 0
          },
          {
            "type": "noteOn",
            "timeMs": 4957.582500000002,
            "noteNumber": 65,
            "velocity": 1
          },
          {
            "type": "noteOff",
            "timeMs": 5100.589687500003,
            "noteNumber": 65,
            "velocity": 0
          },
          {
            "type": "noteOn",
            "timeMs": 5211.817500000003,
            "noteNumber": 65,
            "velocity": 1
          },
          {
            "type": "noteOn",
            "timeMs": 5338.935000000003,
            "noteNumber": 70,
            "velocity": 1
          },
          {
            "type": "noteOff",
            "timeMs": 5344.231562500003,
            "noteNumber": 65,
            "velocity": 0
          },
          {
            "type": "noteOff",
            "timeMs": 5503.128437500003,
            "noteNumber": 70,
            "velocity": 0
          },
          {
            "type": "noteOn",
            "timeMs": 5593.170000000004,
            "noteNumber": 65,
            "velocity": 1
          },
          {
            "type": "noteOff",
            "timeMs": 5714.990937500004,
            "noteNumber": 65,
            "velocity": 0
          },
          {
            "type": "noteOn",
            "timeMs": 5847.405000000004,
            "noteNumber": 63,
            "velocity": 1
          },
          {
            "type": "noteOff",
            "timeMs": 5963.929375000004,
            "noteNumber": 63,
            "velocity": 0
          },
          {
            "type": "noteOn",
            "timeMs": 6101.640000000005,
            "noteNumber": 65,
            "velocity": 1
          },
          {
            "type": "noteOff",
            "timeMs": 6472.399375000005,
            "noteNumber": 65,
            "velocity": 0
          },
          {
            "type": "noteOn",
            "timeMs": 6610.110000000006,
            "noteNumber": 72,
            "velocity": 1
          },
          {
            "type": "noteOff",
            "timeMs": 6933.2003125000065,
            "noteNumber": 72,
            "velocity": 0
          },
          {
            "type": "noteOn",
            "timeMs": 6991.462500000007,
            "noteNumber": 65,
            "velocity": 1
          },
          {
            "type": "noteOff",
            "timeMs": 7166.249062500007,
            "noteNumber": 65,
            "velocity": 0
          },
          {
            "type": "noteOn",
            "timeMs": 7245.6975000000075,
            "noteNumber": 65,
            "velocity": 1
          },
          {
            "type": "noteOn",
            "timeMs": 7372.815000000008,
            "noteNumber": 73,
            "velocity": 1
          },
          {
            "type": "noteOff",
            "timeMs": 7388.704687500008,
            "noteNumber": 65,
            "velocity": 0
          },
          {
            "type": "noteOff",
            "timeMs": 7499.932500000008,
            "noteNumber": 73,
            "velocity": 0
          },
          {
            "type": "noteOn",
            "timeMs": 7627.050000000008,
            "noteNumber": 72,
            "velocity": 1
          },
          {
            "type": "noteOff",
            "timeMs": 7738.277812500009,
            "noteNumber": 72,
            "velocity": 0
          },
          {
            "type": "noteOn",
            "timeMs": 7881.285000000009,
            "noteNumber": 68,
            "velocity": 1
          },
          {
            "type": "noteOff",
            "timeMs": 8003.1059375000095,
            "noteNumber": 68,
            "velocity": 0
          },
          {
            "type": "noteOn",
            "timeMs": 8135.5200000000095,
            "noteNumber": 65,
            "velocity": 1
          },
          {
            "type": "noteOn",
            "timeMs": 8389.75500000001,
            "noteNumber": 72,
            "velocity": 1
          },
          {
            "type": "noteOff",
            "timeMs": 8421.53437500001,
            "noteNumber": 65,
            "velocity": 0
          },
          {
            "type": "noteOff",
            "timeMs": 8612.21062500001,
            "noteNumber": 72,
            "velocity": 0
          },
          {
            "type": "noteOn",
            "timeMs": 8643.99000000001,
            "noteNumber": 77,
            "velocity": 1
          },
          {
            "type": "noteOff",
            "timeMs": 8850.55593750001,
            "noteNumber": 77,
            "velocity": 0
          },
          {
            "type": "noteOn",
            "timeMs": 8898.22500000001,
            "noteNumber": 65,
            "velocity": 1
          },
          {
            "type": "noteOff",
            "timeMs": 9014.74937500001,
            "noteNumber": 65,
            "velocity": 0
          },
          {
            "type": "noteOn",
            "timeMs": 9025.34250000001,
            "noteNumber": 63,
            "velocity": 1
          },
          {
            "type": "noteOff",
            "timeMs": 9136.57031250001,
            "noteNumber": 63,
            "velocity": 0
          },
          {
            "type": "noteOn",
            "timeMs": 9279.577500000009,
            "noteNumber": 63,
            "velocity": 1
          },
          {
            "type": "noteOff",
            "timeMs": 9396.10187500001,
            "noteNumber": 63,
            "velocity": 0
          },
          {
            "type": "noteOn",
            "timeMs": 9406.695000000009,
            "noteNumber": 60,
            "velocity": 1
          },
          {
            "type": "noteOff",
            "timeMs": 9539.109062500009,
            "noteNumber": 60,
            "velocity": 0
          },
          {
            "type": "noteOn",
            "timeMs": 9660.93000000001,
            "noteNumber": 67,
            "velocity": 1
          },
          {
            "type": "noteOff",
            "timeMs": 9893.97875000001,
            "noteNumber": 67,
            "velocity": 0
          },
          {
            "type": "noteOn",
            "timeMs": 9915.16500000001,
            "noteNumber": 65,
            "velocity": 1
          },
          {
            "type": "noteOff",
            "timeMs": 10677.870000000012,
            "noteNumber": 65,
            "velocity": 0
          },
          {
            "type": "noteOn",
            "timeMs": 12203.280000000015,
            "noteNumber": 65,
            "velocity": 1
          },
          {
            "type": "noteOff",
            "timeMs": 12531.666875000015,
            "noteNumber": 65,
            "velocity": 0
          },
          {
            "type": "noteOn",
            "timeMs": 12711.750000000016,
            "noteNumber": 68,
            "velocity": 1
          },
          {
            "type": "noteOff",
            "timeMs": 12976.578125000016,
            "noteNumber": 68,
            "velocity": 0
          },
          {
            "type": "noteOn",
            "timeMs": 13093.102500000017,
            "noteNumber": 65,
            "velocity": 1
          },
          {
            "type": "noteOff",
            "timeMs": 13236.109687500017,
            "noteNumber": 65,
            "velocity": 0
          },
          {
            "type": "noteOn",
            "timeMs": 13347.337500000016,
            "noteNumber": 65,
            "velocity": 1
          },
          {
            "type": "noteOn",
            "timeMs": 13474.455000000016,
            "noteNumber": 70,
            "velocity": 1
          },
          {
            "type": "noteOff",
            "timeMs": 13479.751562500016,
            "noteNumber": 65,
            "velocity": 0
          },
          {
            "type": "noteOff",
            "timeMs": 13638.648437500016,
            "noteNumber": 70,
            "velocity": 0
          },
          {
            "type": "noteOn",
            "timeMs": 13728.690000000017,
            "noteNumber": 65,
            "velocity": 1
          },
          {
            "type": "noteOff",
            "timeMs": 13850.510937500017,
            "noteNumber": 65,
            "velocity": 0
          },
          {
            "type": "noteOn",
            "timeMs": 13982.925000000017,
            "noteNumber": 63,
            "velocity": 1
          },
          {
            "type": "noteOff",
            "timeMs": 14099.449375000018,
            "noteNumber": 63,
            "velocity": 0
          },
          {
            "type": "noteOn",
            "timeMs": 14237.160000000018,
            "noteNumber": 65,
            "velocity": 1
          },
          {
            "type": "noteOff",
            "timeMs": 14607.91937500002,
            "noteNumber": 65,
            "velocity": 0
          },
          {
            "type": "noteOn",
            "timeMs": 14745.63000000002,
            "noteNumber": 72,
            "velocity": 1
          },
          {
            "type": "noteOff",
            "timeMs": 15068.72031250002,
            "noteNumber": 72,
            "velocity": 0
          },
          {
            "type": "noteOn",
            "timeMs": 15126.98250000002,
            "noteNumber": 65,
            "velocity": 1
          },
          {
            "type": "noteOff",
            "timeMs": 15301.76906250002,
            "noteNumber": 65,
            "velocity": 0
          },
          {
            "type": "noteOn",
            "timeMs": 15381.217500000019,
            "noteNumber": 65,
            "velocity": 1
          },
          {
            "type": "noteOn",
            "timeMs": 15508.33500000002,
            "noteNumber": 73,
            "velocity": 1
          },
          {
            "type": "noteOff",
            "timeMs": 15524.224687500018,
            "noteNumber": 65,
            "velocity": 0
          },
          {
            "type": "noteOff",
            "timeMs": 15635.452500000018,
            "noteNumber": 73,
            "velocity": 0
          },
          {
            "type": "noteOn",
            "timeMs": 15762.570000000018,
            "noteNumber": 72,
            "velocity": 1
          },
          {
            "type": "noteOff",
            "timeMs": 15873.797812500017,
            "noteNumber": 72,
            "velocity": 0
          },
          {
            "type": "noteOn",
            "timeMs": 16016.805000000017,
            "noteNumber": 68,
            "velocity": 1
          },
          {
            "type": "noteOff",
            "timeMs": 16138.625937500017,
            "noteNumber": 68,
            "velocity": 0
          },
          {
            "type": "noteOn",
            "timeMs": 16271.040000000017,
            "noteNumber": 65,
            "velocity": 1
          },
          {
            "type": "noteOn",
            "timeMs": 16525.275000000016,
            "noteNumber": 72,
            "velocity": 1
          },
          {
            "type": "noteOff",
            "timeMs": 16557.054375000014,
            "noteNumber": 65,
            "velocity": 0
          },
          {
            "type": "noteOff",
            "timeMs": 16747.73062500001,
            "noteNumber": 72,
            "velocity": 0
          },
          {
            "type": "noteOn",
            "timeMs": 16779.51000000001,
            "noteNumber": 77,
            "velocity": 1
          },
          {
            "type": "noteOff",
            "timeMs": 16986.07593750001,
            "noteNumber": 77,
            "velocity": 0
          },
          {
            "type": "noteOn",
            "timeMs": 17033.74500000001,
            "noteNumber": 65,
            "velocity": 1
          },
          {
            "type": "noteOff",
            "timeMs": 17150.26937500001,
            "noteNumber": 65,
            "velocity": 0
          },
          {
            "type": "noteOn",
            "timeMs": 17160.86250000001,
            "noteNumber": 63,
            "velocity": 1
          },
          {
            "type": "noteOff",
            "timeMs": 17272.09031250001,
            "noteNumber": 63,
            "velocity": 0
          },
          {
            "type": "noteOn",
            "timeMs": 17415.09750000001,
            "noteNumber": 63,
            "velocity": 1
          },
          {
            "type": "noteOff",
            "timeMs": 17531.62187500001,
            "noteNumber": 63,
            "velocity": 0
          },
          {
            "type": "noteOn",
            "timeMs": 17542.21500000001,
            "noteNumber": 60,
            "velocity": 1
          },
          {
            "type": "noteOff",
            "timeMs": 17674.62906250001,
            "noteNumber": 60,
            "velocity": 0
          },
          {
            "type": "noteOn",
            "timeMs": 17796.45000000001,
            "noteNumber": 67,
            "velocity": 1
          },
          {
            "type": "noteOff",
            "timeMs": 18029.498750000013,
            "noteNumber": 67,
            "velocity": 0
          },
          {
            "type": "noteOn",
            "timeMs": 18050.685000000012,
            "noteNumber": 65,
            "velocity": 1
          },
          {
            "type": "noteOff",
            "timeMs": 18813.390000000014,
            "noteNumber": 65,
            "velocity": 0
          },
          {
            "type": "noteOn",
            "timeMs": 36609.83999999981,
            "noteNumber": 65,
            "velocity": 1
          },
          {
            "type": "noteOff",
            "timeMs": 36938.22687499979,
            "noteNumber": 65,
            "velocity": 0
          },
          {
            "type": "noteOn",
            "timeMs": 37118.30999999978,
            "noteNumber": 68,
            "velocity": 1
          },
          {
            "type": "noteOff",
            "timeMs": 37383.138124999765,
            "noteNumber": 68,
            "velocity": 0
          },
          {
            "type": "noteOn",
            "timeMs": 37499.66249999976,
            "noteNumber": 65,
            "velocity": 1
          },
          {
            "type": "noteOff",
            "timeMs": 37642.66968749975,
            "noteNumber": 65,
            "velocity": 0
          },
          {
            "type": "noteOn",
            "timeMs": 37753.897499999744,
            "noteNumber": 65,
            "velocity": 1
          },
          {
            "type": "noteOn",
            "timeMs": 37881.01499999974,
            "noteNumber": 70,
            "velocity": 1
          },
          {
            "type": "noteOff",
            "timeMs": 37886.31156249974,
            "noteNumber": 65,
            "velocity": 0
          },
          {
            "type": "noteOff",
            "timeMs": 38045.20843749973,
            "noteNumber": 70,
            "velocity": 0
          },
          {
            "type": "noteOn",
            "timeMs": 38135.24999999972,
            "noteNumber": 65,
            "velocity": 1
          },
          {
            "type": "noteOff",
            "timeMs": 38257.07093749972,
            "noteNumber": 65,
            "velocity": 0
          },
          {
            "type": "noteOn",
            "timeMs": 38389.48499999971,
            "noteNumber": 63,
            "velocity": 1
          },
          {
            "type": "noteOff",
            "timeMs": 38506.0093749997,
            "noteNumber": 63,
            "velocity": 0
          },
          {
            "type": "noteOn",
            "timeMs": 38643.719999999696,
            "noteNumber": 65,
            "velocity": 1
          },
          {
            "type": "noteOff",
            "timeMs": 39014.479374999675,
            "noteNumber": 65,
            "velocity": 0
          },
          {
            "type": "noteOn",
            "timeMs": 39152.18999999967,
            "noteNumber": 72,
            "velocity": 1
          },
          {
            "type": "noteOff",
            "timeMs": 39475.28031249965,
            "noteNumber": 72,
            "velocity": 0
          },
          {
            "type": "noteOn",
            "timeMs": 39533.54249999965,
            "noteNumber": 65,
            "velocity": 1
          },
          {
            "type": "noteOff",
            "timeMs": 39708.32906249964,
            "noteNumber": 65,
            "velocity": 0
          },
          {
            "type": "noteOn",
            "timeMs": 39787.77749999963,
            "noteNumber": 65,
            "velocity": 1
          },
          {
            "type": "noteOn",
            "timeMs": 39914.894999999626,
            "noteNumber": 73,
            "velocity": 1
          },
          {
            "type": "noteOff",
            "timeMs": 39930.784687499625,
            "noteNumber": 65,
            "velocity": 0
          },
          {
            "type": "noteOff",
            "timeMs": 40042.01249999962,
            "noteNumber": 73,
            "velocity": 0
          },
          {
            "type": "noteOn",
            "timeMs": 40169.12999999961,
            "noteNumber": 72,
            "velocity": 1
          },
          {
            "type": "noteOff",
            "timeMs": 40280.357812499606,
            "noteNumber": 72,
            "velocity": 0
          },
          {
            "type": "noteOn",
            "timeMs": 40423.3649999996,
            "noteNumber": 68,
            "velocity": 1
          },
          {
            "type": "noteOff",
            "timeMs": 40545.18593749959,
            "noteNumber": 68,
            "velocity": 0
          },
          {
            "type": "noteOn",
            "timeMs": 40677.599999999584,
            "noteNumber": 65,
            "velocity": 1
          },
          {
            "type": "noteOn",
            "timeMs": 40931.83499999957,
            "noteNumber": 72,
            "velocity": 1
          },
          {
            "type": "noteOff",
            "timeMs": 40963.61437499957,
            "noteNumber": 65,
            "velocity": 0
          },
          {
            "type": "noteOff",
            "timeMs": 41154.29062499956,
            "noteNumber": 72,
            "velocity": 0
          },
          {
            "type": "noteOn",
            "timeMs": 41186.069999999556,
            "noteNumber": 77,
            "velocity": 1
          },
          {
            "type": "noteOff",
            "timeMs": 41392.635937499545,
            "noteNumber": 77,
            "velocity": 0
          },
          {
            "type": "noteOn",
            "timeMs": 41440.30499999954,
            "noteNumber": 65,
            "velocity": 1
          },
          {
            "type": "noteOff",
            "timeMs": 41556.829374999536,
            "noteNumber": 65,
            "velocity": 0
          },
          {
            "type": "noteOn",
            "timeMs": 41567.422499999535,
            "noteNumber": 63,
            "velocity": 1
          },
          {
            "type": "noteOff",
            "timeMs": 41678.65031249953,
            "noteNumber": 63,
            "velocity": 0
          },
          {
            "type": "noteOn",
            "timeMs": 41821.65749999952,
            "noteNumber": 63,
            "velocity": 1
          },
          {
            "type": "noteOff",
            "timeMs": 41938.181874999515,
            "noteNumber": 63,
            "velocity": 0
          },
          {
            "type": "noteOn",
            "timeMs": 41948.774999999514,
            "noteNumber": 60,
            "velocity": 1
          },
          {
            "type": "noteOff",
            "timeMs": 42081.18906249951,
            "noteNumber": 60,
            "velocity": 0
          },
          {
            "type": "noteOn",
            "timeMs": 42203.0099999995,
            "noteNumber": 67,
            "velocity": 1
          },
          {
            "type": "noteOff",
            "timeMs": 42436.05874999949,
            "noteNumber": 67,
            "velocity": 0
          },
          {
            "type": "noteOn",
            "timeMs": 42457.244999999486,
            "noteNumber": 65,
            "velocity": 1
          },
          {
            "type": "noteOff",
            "timeMs": 43219.94999999945,
            "noteNumber": 65,
            "velocity": 0
          },
          {
            "type": "noteOn",
            "timeMs": 44745.3599999994,
            "noteNumber": 65,
            "velocity": 1
          },
          {
            "type": "noteOff",
            "timeMs": 45073.74687499938,
            "noteNumber": 65,
            "velocity": 0
          },
          {
            "type": "noteOn",
            "timeMs": 45253.82999999937,
            "noteNumber": 68,
            "velocity": 1
          },
          {
            "type": "noteOff",
            "timeMs": 45518.658124999354,
            "noteNumber": 68,
            "velocity": 0
          },
          {
            "type": "noteOn",
            "timeMs": 45635.18249999935,
            "noteNumber": 65,
            "velocity": 1
          },
          {
            "type": "noteOff",
            "timeMs": 45778.18968749934,
            "noteNumber": 65,
            "velocity": 0
          },
          {
            "type": "noteOn",
            "timeMs": 45889.417499999334,
            "noteNumber": 65,
            "velocity": 1
          },
          {
            "type": "noteOn",
            "timeMs": 46016.53499999933,
            "noteNumber": 70,
            "velocity": 1
          },
          {
            "type": "noteOff",
            "timeMs": 46021.83156249933,
            "noteNumber": 65,
            "velocity": 0
          },
          {
            "type": "noteOff",
            "timeMs": 46180.72843749932,
            "noteNumber": 70,
            "velocity": 0
          },
          {
            "type": "noteOn",
            "timeMs": 46270.76999999931,
            "noteNumber": 65,
            "velocity": 1
          },
          {
            "type": "noteOff",
            "timeMs": 46392.590937499306,
            "noteNumber": 65,
            "velocity": 0
          },
          {
            "type": "noteOn",
            "timeMs": 46525.0049999993,
            "noteNumber": 63,
            "velocity": 1
          },
          {
            "type": "noteOff",
            "timeMs": 46641.52937499929,
            "noteNumber": 63,
            "velocity": 0
          },
          {
            "type": "noteOn",
            "timeMs": 46779.239999999285,
            "noteNumber": 65,
            "velocity": 1
          },
          {
            "type": "noteOff",
            "timeMs": 47149.999374999265,
            "noteNumber": 65,
            "velocity": 0
          },
          {
            "type": "noteOn",
            "timeMs": 47287.70999999926,
            "noteNumber": 72,
            "velocity": 1
          },
          {
            "type": "noteOff",
            "timeMs": 47610.80031249924,
            "noteNumber": 72,
            "velocity": 0
          },
          {
            "type": "noteOn",
            "timeMs": 47669.062499999236,
            "noteNumber": 65,
            "velocity": 1
          },
          {
            "type": "noteOff",
            "timeMs": 47843.84906249923,
            "noteNumber": 65,
            "velocity": 0
          },
          {
            "type": "noteOn",
            "timeMs": 47923.29749999922,
            "noteNumber": 65,
            "velocity": 1
          },
          {
            "type": "noteOn",
            "timeMs": 48050.414999999215,
            "noteNumber": 73,
            "velocity": 1
          },
          {
            "type": "noteOff",
            "timeMs": 48066.304687499214,
            "noteNumber": 65,
            "velocity": 0
          },
          {
            "type": "noteOff",
            "timeMs": 48177.53249999921,
            "noteNumber": 73,
            "velocity": 0
          },
          {
            "type": "noteOn",
            "timeMs": 48304.6499999992,
            "noteNumber": 72,
            "velocity": 1
          },
          {
            "type": "noteOff",
            "timeMs": 48415.877812499195,
            "noteNumber": 72,
            "velocity": 0
          },
          {
            "type": "noteOn",
            "timeMs": 48558.88499999919,
            "noteNumber": 68,
            "velocity": 1
          },
          {
            "type": "noteOff",
            "timeMs": 48680.70593749918,
            "noteNumber": 68,
            "velocity": 0
          },
          {
            "type": "noteOn",
            "timeMs": 48813.11999999917,
            "noteNumber": 65,
            "velocity": 1
          },
          {
            "type": "noteOn",
            "timeMs": 49067.35499999916,
            "noteNumber": 72,
            "velocity": 1
          },
          {
            "type": "noteOff",
            "timeMs": 49099.13437499916,
            "noteNumber": 65,
            "velocity": 0
          },
          {
            "type": "noteOff",
            "timeMs": 49289.81062499915,
            "noteNumber": 72,
            "velocity": 0
          },
          {
            "type": "noteOn",
            "timeMs": 49321.589999999145,
            "noteNumber": 77,
            "velocity": 1
          },
          {
            "type": "noteOff",
            "timeMs": 49528.155937499134,
            "noteNumber": 77,
            "velocity": 0
          },
          {
            "type": "noteOn",
            "timeMs": 49575.82499999913,
            "noteNumber": 65,
            "velocity": 1
          },
          {
            "type": "noteOff",
            "timeMs": 49692.349374999125,
            "noteNumber": 65,
            "velocity": 0
          },
          {
            "type": "noteOn",
            "timeMs": 49702.942499999124,
            "noteNumber": 63,
            "velocity": 1
          },
          {
            "type": "noteOff",
            "timeMs": 49814.17031249912,
            "noteNumber": 63,
            "velocity": 0
          },
          {
            "type": "noteOn",
            "timeMs": 49957.17749999911,
            "noteNumber": 63,
            "velocity": 1
          },
          {
            "type": "noteOff",
            "timeMs": 50073.701874999104,
            "noteNumber": 63,
            "velocity": 0
          },
          {
            "type": "noteOn",
            "timeMs": 50084.2949999991,
            "noteNumber": 60,
            "velocity": 1
          },
          {
            "type": "noteOff",
            "timeMs": 50216.709062499096,
            "noteNumber": 60,
            "velocity": 0
          },
          {
            "type": "noteOn",
            "timeMs": 50338.52999999909,
            "noteNumber": 67,
            "velocity": 1
          },
          {
            "type": "noteOff",
            "timeMs": 50571.57874999908,
            "noteNumber": 67,
            "velocity": 0
          },
          {
            "type": "noteOn",
            "timeMs": 50592.764999999075,
            "noteNumber": 65,
            "velocity": 1
          },
          {
            "type": "noteOff",
            "timeMs": 51355.46999999904,
            "noteNumber": 65,
            "velocity": 0
          },
          {
            "type": "noteOn",
            "timeMs": 69151.91999999856,
            "noteNumber": 48,
            "velocity": 0.7480314960629921
          },
          {
            "type": "noteOn",
            "timeMs": 69151.91999999856,
            "noteNumber": 53,
            "velocity": 0.7480314960629921
          },
          {
            "type": "noteOn",
            "timeMs": 69151.91999999856,
            "noteNumber": 60,
            "velocity": 0.7480314960629921
          },
          {
            "type": "noteOn",
            "timeMs": 69151.91999999856,
            "noteNumber": 65,
            "velocity": 0.7480314960629921
          },
          {
            "type": "noteOn",
            "timeMs": 69151.91999999856,
            "noteNumber": 72,
            "velocity": 0.7480314960629921
          },
          {
            "type": "noteOff",
            "timeMs": 73267.34906249879,
            "noteNumber": 72,
            "velocity": 0
          },
          {
            "type": "noteOff",
            "timeMs": 73267.34906249879,
            "noteNumber": 65,
            "velocity": 0
          },
          {
            "type": "noteOff",
            "timeMs": 73267.34906249879,
            "noteNumber": 60,
            "velocity": 0
          },
          {
            "type": "noteOff",
            "timeMs": 73267.34906249879,
            "noteNumber": 53,
            "velocity": 0
          },
          {
            "type": "noteOff",
            "timeMs": 73267.34906249879,
            "noteNumber": 48,
            "velocity": 0
          },
          {
            "type": "noteOn",
            "timeMs": 91524.5999999992,
            "noteNumber": 65,
            "velocity": 1
          },
          {
            "type": "noteOff",
            "timeMs": 91863.5799999992,
            "noteNumber": 65,
            "velocity": 0
          },
          {
            "type": "noteOn",
            "timeMs": 92033.06999999924,
            "noteNumber": 68,
            "velocity": 1
          },
          {
            "type": "noteOff",
            "timeMs": 92329.67749999922,
            "noteNumber": 68,
            "velocity": 0
          },
          {
            "type": "noteOn",
            "timeMs": 92414.42249999923,
            "noteNumber": 65,
            "velocity": 1
          },
          {
            "type": "noteOff",
            "timeMs": 92562.72624999922,
            "noteNumber": 65,
            "velocity": 0
          },
          {
            "type": "noteOn",
            "timeMs": 92668.65749999922,
            "noteNumber": 65,
            "velocity": 1
          },
          {
            "type": "noteOff",
            "timeMs": 92795.77499999924,
            "noteNumber": 65,
            "velocity": 0
          },
          {
            "type": "noteOn",
            "timeMs": 92795.77499999924,
            "noteNumber": 70,
            "velocity": 1
          },
          {
            "type": "noteOff",
            "timeMs": 92938.78218749924,
            "noteNumber": 70,
            "velocity": 0
          },
          {
            "type": "noteOn",
            "timeMs": 93050.00999999924,
            "noteNumber": 65,
            "velocity": 1
          },
          {
            "type": "noteOff",
            "timeMs": 93166.53437499925,
            "noteNumber": 65,
            "velocity": 0
          },
          {
            "type": "noteOn",
            "timeMs": 93304.24499999925,
            "noteNumber": 63,
            "velocity": 1
          },
          {
            "type": "noteOff",
            "timeMs": 93388.98999999925,
            "noteNumber": 63,
            "velocity": 0
          },
          {
            "type": "noteOn",
            "timeMs": 93558.47999999927,
            "noteNumber": 65,
            "velocity": 1
          },
          {
            "type": "noteOff",
            "timeMs": 93929.23937499926,
            "noteNumber": 65,
            "velocity": 0
          },
          {
            "type": "noteOn",
            "timeMs": 94066.94999999925,
            "noteNumber": 72,
            "velocity": 1
          },
          {
            "type": "noteOff",
            "timeMs": 94358.26093749928,
            "noteNumber": 72,
            "velocity": 0
          },
          {
            "type": "noteOn",
            "timeMs": 94448.30249999929,
            "noteNumber": 65,
            "velocity": 1
          },
          {
            "type": "noteOff",
            "timeMs": 94591.30968749929,
            "noteNumber": 65,
            "velocity": 0
          },
          {
            "type": "noteOn",
            "timeMs": 94702.5374999993,
            "noteNumber": 65,
            "velocity": 1
          },
          {
            "type": "noteOn",
            "timeMs": 94829.6549999993,
            "noteNumber": 73,
            "velocity": 1
          },
          {
            "type": "noteOff",
            "timeMs": 94845.5446874993,
            "noteNumber": 65,
            "velocity": 0
          },
          {
            "type": "noteOff",
            "timeMs": 94967.36562499931,
            "noteNumber": 73,
            "velocity": 0
          },
          {
            "type": "noteOn",
            "timeMs": 95083.88999999932,
            "noteNumber": 72,
            "velocity": 1
          },
          {
            "type": "noteOff",
            "timeMs": 95205.71093749932,
            "noteNumber": 72,
            "velocity": 0
          },
          {
            "type": "noteOn",
            "timeMs": 95338.12499999935,
            "noteNumber": 68,
            "velocity": 1
          },
          {
            "type": "noteOff",
            "timeMs": 95438.75968749935,
            "noteNumber": 68,
            "velocity": 0
          },
          {
            "type": "noteOn",
            "timeMs": 95592.35999999936,
            "noteNumber": 65,
            "velocity": 1
          },
          {
            "type": "noteOn",
            "timeMs": 95846.59499999938,
            "noteNumber": 72,
            "velocity": 1
          },
          {
            "type": "noteOff",
            "timeMs": 95867.78124999937,
            "noteNumber": 65,
            "velocity": 0
          },
          {
            "type": "noteOff",
            "timeMs": 96042.5678124994,
            "noteNumber": 72,
            "velocity": 0
          },
          {
            "type": "noteOn",
            "timeMs": 96100.8299999994,
            "noteNumber": 77,
            "velocity": 1
          },
          {
            "type": "noteOff",
            "timeMs": 96328.58218749941,
            "noteNumber": 77,
            "velocity": 0
          },
          {
            "type": "noteOn",
            "timeMs": 96355.06499999942,
            "noteNumber": 65,
            "velocity": 1
          },
          {
            "type": "noteOff",
            "timeMs": 96482.18249999943,
            "noteNumber": 65,
            "velocity": 0
          },
          {
            "type": "noteOn",
            "timeMs": 96482.18249999943,
            "noteNumber": 63,
            "velocity": 1
          },
          {
            "type": "noteOff",
            "timeMs": 96577.52062499942,
            "noteNumber": 63,
            "velocity": 0
          },
          {
            "type": "noteOn",
            "timeMs": 96736.41749999941,
            "noteNumber": 63,
            "velocity": 1
          },
          {
            "type": "noteOff",
            "timeMs": 96821.16249999942,
            "noteNumber": 63,
            "velocity": 0
          },
          {
            "type": "noteOn",
            "timeMs": 96863.53499999944,
            "noteNumber": 60,
            "velocity": 1
          },
          {
            "type": "noteOff",
            "timeMs": 96980.05937499943,
            "noteNumber": 60,
            "velocity": 0
          },
          {
            "type": "noteOn",
            "timeMs": 97117.76999999944,
            "noteNumber": 67,
            "velocity": 1
          },
          {
            "type": "noteOff",
            "timeMs": 97324.33593749945,
            "noteNumber": 67,
            "velocity": 0
          },
          {
            "type": "noteOn",
            "timeMs": 97372.00499999945,
            "noteNumber": 65,
            "velocity": 1
          },
          {
            "type": "noteOff",
            "timeMs": 98145.30312499945,
            "noteNumber": 65,
            "velocity": 0
          },
          {
            "type": "noteOn",
            "timeMs": 99660.11999999952,
            "noteNumber": 65,
            "velocity": 1
          },
          {
            "type": "noteOn",
            "timeMs": 99660.11999999952,
            "noteNumber": 65,
            "velocity": 1
          },
          {
            "type": "noteOff",
            "timeMs": 99661.44414062452,
            "noteNumber": 65,
            "velocity": 0
          },
          {
            "type": "noteOff",
            "timeMs": 99988.50687499951,
            "noteNumber": 65,
            "velocity": 0
          },
          {
            "type": "noteOn",
            "timeMs": 100168.58999999952,
            "noteNumber": 68,
            "velocity": 1
          },
          {
            "type": "noteOn",
            "timeMs": 100168.58999999952,
            "noteNumber": 68,
            "velocity": 1
          },
          {
            "type": "noteOff",
            "timeMs": 100169.91414062452,
            "noteNumber": 68,
            "velocity": 0
          },
          {
            "type": "noteOff",
            "timeMs": 100433.41812499952,
            "noteNumber": 68,
            "velocity": 0
          },
          {
            "type": "noteOn",
            "timeMs": 100549.94249999951,
            "noteNumber": 65,
            "velocity": 1
          },
          {
            "type": "noteOn",
            "timeMs": 100549.94249999951,
            "noteNumber": 65,
            "velocity": 1
          },
          {
            "type": "noteOff",
            "timeMs": 100551.26664062451,
            "noteNumber": 65,
            "velocity": 0
          },
          {
            "type": "noteOff",
            "timeMs": 100687.6531249995,
            "noteNumber": 65,
            "velocity": 0
          },
          {
            "type": "noteOn",
            "timeMs": 100804.1774999995,
            "noteNumber": 65,
            "velocity": 1
          },
          {
            "type": "noteOn",
            "timeMs": 100804.1774999995,
            "noteNumber": 65,
            "velocity": 1
          },
          {
            "type": "noteOff",
            "timeMs": 100805.5016406245,
            "noteNumber": 65,
            "velocity": 0
          },
          {
            "type": "noteOn",
            "timeMs": 100931.2949999995,
            "noteNumber": 70,
            "velocity": 1
          },
          {
            "type": "noteOn",
            "timeMs": 100931.2949999995,
            "noteNumber": 70,
            "velocity": 1
          },
          {
            "type": "noteOff",
            "timeMs": 100932.6191406245,
            "noteNumber": 70,
            "velocity": 0
          },
          {
            "type": "noteOff",
            "timeMs": 100936.59156249951,
            "noteNumber": 65,
            "velocity": 0
          },
          {
            "type": "noteOff",
            "timeMs": 101047.81937499953,
            "noteNumber": 70,
            "velocity": 0
          },
          {
            "type": "noteOn",
            "timeMs": 101185.52999999952,
            "noteNumber": 65,
            "velocity": 1
          },
          {
            "type": "noteOn",
            "timeMs": 101185.52999999952,
            "noteNumber": 65,
            "velocity": 1
          },
          {
            "type": "noteOff",
            "timeMs": 101186.85414062452,
            "noteNumber": 65,
            "velocity": 0
          },
          {
            "type": "noteOff",
            "timeMs": 101307.35093749952,
            "noteNumber": 65,
            "velocity": 0
          },
          {
            "type": "noteOn",
            "timeMs": 101439.76499999955,
            "noteNumber": 63,
            "velocity": 1
          },
          {
            "type": "noteOn",
            "timeMs": 101439.76499999955,
            "noteNumber": 63,
            "velocity": 1
          },
          {
            "type": "noteOff",
            "timeMs": 101441.08914062455,
            "noteNumber": 63,
            "velocity": 0
          },
          {
            "type": "noteOff",
            "timeMs": 101535.10312499954,
            "noteNumber": 63,
            "velocity": 0
          },
          {
            "type": "noteOn",
            "timeMs": 101693.99999999955,
            "noteNumber": 65,
            "velocity": 1
          },
          {
            "type": "noteOn",
            "timeMs": 101693.99999999955,
            "noteNumber": 65,
            "velocity": 1
          },
          {
            "type": "noteOff",
            "timeMs": 101695.32414062455,
            "noteNumber": 65,
            "velocity": 0
          },
          {
            "type": "noteOff",
            "timeMs": 102054.16624999956,
            "noteNumber": 65,
            "velocity": 0
          },
          {
            "type": "noteOn",
            "timeMs": 102202.46999999956,
            "noteNumber": 72,
            "velocity": 1
          },
          {
            "type": "noteOn",
            "timeMs": 102202.46999999956,
            "noteNumber": 72,
            "velocity": 1
          },
          {
            "type": "noteOff",
            "timeMs": 102203.79414062457,
            "noteNumber": 72,
            "velocity": 0
          },
          {
            "type": "noteOff",
            "timeMs": 102488.48437499958,
            "noteNumber": 72,
            "velocity": 0
          },
          {
            "type": "noteOn",
            "timeMs": 102583.82249999957,
            "noteNumber": 65,
            "velocity": 1
          },
          {
            "type": "noteOn",
            "timeMs": 102583.82249999957,
            "noteNumber": 65,
            "velocity": 1
          },
          {
            "type": "noteOff",
            "timeMs": 102585.14664062457,
            "noteNumber": 65,
            "velocity": 0
          },
          {
            "type": "noteOff",
            "timeMs": 102726.82968749959,
            "noteNumber": 65,
            "velocity": 0
          },
          {
            "type": "noteOn",
            "timeMs": 102838.05749999959,
            "noteNumber": 65,
            "velocity": 1
          },
          {
            "type": "noteOn",
            "timeMs": 102838.05749999959,
            "noteNumber": 65,
            "velocity": 1
          },
          {
            "type": "noteOff",
            "timeMs": 102839.38164062459,
            "noteNumber": 65,
            "velocity": 0
          },
          {
            "type": "noteOn",
            "timeMs": 102965.1749999996,
            "noteNumber": 73,
            "velocity": 1
          },
          {
            "type": "noteOn",
            "timeMs": 102965.1749999996,
            "noteNumber": 73,
            "velocity": 1
          },
          {
            "type": "noteOff",
            "timeMs": 102966.4991406246,
            "noteNumber": 73,
            "velocity": 0
          },
          {
            "type": "noteOff",
            "timeMs": 102975.7681249996,
            "noteNumber": 65,
            "velocity": 0
          },
          {
            "type": "noteOff",
            "timeMs": 103092.2924999996,
            "noteNumber": 73,
            "velocity": 0
          },
          {
            "type": "noteOn",
            "timeMs": 103219.40999999961,
            "noteNumber": 72,
            "velocity": 1
          },
          {
            "type": "noteOn",
            "timeMs": 103219.40999999961,
            "noteNumber": 72,
            "velocity": 1
          },
          {
            "type": "noteOff",
            "timeMs": 103220.73414062461,
            "noteNumber": 72,
            "velocity": 0
          },
          {
            "type": "noteOff",
            "timeMs": 103330.63781249961,
            "noteNumber": 72,
            "velocity": 0
          },
          {
            "type": "noteOn",
            "timeMs": 103473.64499999963,
            "noteNumber": 68,
            "velocity": 1
          },
          {
            "type": "noteOn",
            "timeMs": 103473.64499999963,
            "noteNumber": 68,
            "velocity": 1
          },
          {
            "type": "noteOff",
            "timeMs": 103474.96914062463,
            "noteNumber": 68,
            "velocity": 0
          },
          {
            "type": "noteOff",
            "timeMs": 103590.16937499962,
            "noteNumber": 68,
            "velocity": 0
          },
          {
            "type": "noteOn",
            "timeMs": 103727.87999999963,
            "noteNumber": 65,
            "velocity": 1
          },
          {
            "type": "noteOn",
            "timeMs": 103727.87999999963,
            "noteNumber": 65,
            "velocity": 1
          },
          {
            "type": "noteOff",
            "timeMs": 103729.20414062463,
            "noteNumber": 65,
            "velocity": 0
          },
          {
            "type": "noteOn",
            "timeMs": 103982.11499999963,
            "noteNumber": 72,
            "velocity": 1
          },
          {
            "type": "noteOn",
            "timeMs": 103982.11499999963,
            "noteNumber": 72,
            "velocity": 1
          },
          {
            "type": "noteOff",
            "timeMs": 103983.43914062463,
            "noteNumber": 72,
            "velocity": 0
          },
          {
            "type": "noteOff",
            "timeMs": 104013.89437499963,
            "noteNumber": 65,
            "velocity": 0
          },
          {
            "type": "noteOff",
            "timeMs": 104146.30843749963,
            "noteNumber": 72,
            "velocity": 0
          },
          {
            "type": "noteOn",
            "timeMs": 104236.34999999963,
            "noteNumber": 77,
            "velocity": 1
          },
          {
            "type": "noteOn",
            "timeMs": 104236.34999999963,
            "noteNumber": 77,
            "velocity": 1
          },
          {
            "type": "noteOff",
            "timeMs": 104237.67414062463,
            "noteNumber": 77,
            "velocity": 0
          },
          {
            "type": "noteOff",
            "timeMs": 104432.32281249962,
            "noteNumber": 77,
            "velocity": 0
          },
          {
            "type": "noteOn",
            "timeMs": 104490.58499999963,
            "noteNumber": 65,
            "velocity": 1
          },
          {
            "type": "noteOn",
            "timeMs": 104490.58499999963,
            "noteNumber": 65,
            "velocity": 1
          },
          {
            "type": "noteOff",
            "timeMs": 104491.90914062463,
            "noteNumber": 65,
            "velocity": 0
          },
          {
            "type": "noteOff",
            "timeMs": 104601.81281249964,
            "noteNumber": 65,
            "velocity": 0
          },
          {
            "type": "noteOn",
            "timeMs": 104617.70249999965,
            "noteNumber": 63,
            "velocity": 1
          },
          {
            "type": "noteOn",
            "timeMs": 104617.70249999965,
            "noteNumber": 63,
            "velocity": 1
          },
          {
            "type": "noteOff",
            "timeMs": 104619.02664062465,
            "noteNumber": 63,
            "velocity": 0
          },
          {
            "type": "noteOff",
            "timeMs": 104718.33718749965,
            "noteNumber": 63,
            "velocity": 0
          },
          {
            "type": "noteOn",
            "timeMs": 104871.93749999967,
            "noteNumber": 63,
            "velocity": 1
          },
          {
            "type": "noteOn",
            "timeMs": 104871.93749999967,
            "noteNumber": 63,
            "velocity": 1
          },
          {
            "type": "noteOff",
            "timeMs": 104873.26164062467,
            "noteNumber": 63,
            "velocity": 0
          },
          {
            "type": "noteOff",
            "timeMs": 104967.27562499967,
            "noteNumber": 63,
            "velocity": 0
          },
          {
            "type": "noteOn",
            "timeMs": 104999.05499999969,
            "noteNumber": 60,
            "velocity": 1
          },
          {
            "type": "noteOn",
            "timeMs": 104999.05499999969,
            "noteNumber": 60,
            "velocity": 1
          },
          {
            "type": "noteOff",
            "timeMs": 105000.37914062469,
            "noteNumber": 60,
            "velocity": 0
          },
          {
            "type": "noteOff",
            "timeMs": 105104.98624999968,
            "noteNumber": 60,
            "velocity": 0
          },
          {
            "type": "noteOn",
            "timeMs": 105253.2899999997,
            "noteNumber": 67,
            "velocity": 1
          },
          {
            "type": "noteOn",
            "timeMs": 105253.2899999997,
            "noteNumber": 67,
            "velocity": 1
          },
          {
            "type": "noteOff",
            "timeMs": 105254.6141406247,
            "noteNumber": 67,
            "velocity": 0
          },
          {
            "type": "noteOff",
            "timeMs": 105465.1524999997,
            "noteNumber": 67,
            "velocity": 0
          },
          {
            "type": "noteOn",
            "timeMs": 105507.5249999997,
            "noteNumber": 65,
            "velocity": 1
          },
          {
            "type": "noteOn",
            "timeMs": 105507.5249999997,
            "noteNumber": 65,
            "velocity": 1
          },
          {
            "type": "noteOff",
            "timeMs": 105508.8491406247,
            "noteNumber": 65,
            "velocity": 0
          },
          {
            "type": "noteOff",
            "timeMs": 106270.22999999972,
            "noteNumber": 65,
            "velocity": 0
          },
          {
            "type": "noteOn",
            "timeMs": 132202.20000000132,
            "noteNumber": 80,
            "velocity": 1
          },
          {
            "type": "noteOff",
            "timeMs": 132281.64843750134,
            "noteNumber": 80,
            "velocity": 0
          },
          {
            "type": "noteOn",
            "timeMs": 132583.55250000136,
            "noteNumber": 80,
            "velocity": 1
          },
          {
            "type": "noteOff",
            "timeMs": 132663.00093750135,
            "noteNumber": 80,
            "velocity": 0
          },
          {
            "type": "noteOn",
            "timeMs": 132964.9050000014,
            "noteNumber": 80,
            "velocity": 1
          },
          {
            "type": "noteOff",
            "timeMs": 133044.35343750138,
            "noteNumber": 80,
            "velocity": 0
          },
          {
            "type": "noteOn",
            "timeMs": 133346.25750000146,
            "noteNumber": 80,
            "velocity": 1
          },
          {
            "type": "noteOff",
            "timeMs": 133425.70593750148,
            "noteNumber": 80,
            "velocity": 0
          },
          {
            "type": "noteOn",
            "timeMs": 133600.49250000148,
            "noteNumber": 80,
            "velocity": 1
          },
          {
            "type": "noteOff",
            "timeMs": 133664.0512500015,
            "noteNumber": 80,
            "velocity": 0
          },
          {
            "type": "noteOn",
            "timeMs": 133727.61000000153,
            "noteNumber": 82,
            "velocity": 1
          },
          {
            "type": "noteOff",
            "timeMs": 133807.05843750158,
            "noteNumber": 82,
            "velocity": 0
          },
          {
            "type": "noteOn",
            "timeMs": 133981.8450000016,
            "noteNumber": 84,
            "velocity": 1
          },
          {
            "type": "noteOff",
            "timeMs": 134077.18312500164,
            "noteNumber": 84,
            "velocity": 0
          },
          {
            "type": "noteOn",
            "timeMs": 134236.08000000165,
            "noteNumber": 80,
            "velocity": 1
          },
          {
            "type": "noteOff",
            "timeMs": 134326.12156250165,
            "noteNumber": 80,
            "velocity": 0
          },
          {
            "type": "noteOn",
            "timeMs": 134617.43250000163,
            "noteNumber": 80,
            "velocity": 1
          },
          {
            "type": "noteOff",
            "timeMs": 134686.28781250163,
            "noteNumber": 80,
            "velocity": 0
          },
          {
            "type": "noteOn",
            "timeMs": 134998.78500000166,
            "noteNumber": 80,
            "velocity": 1
          },
          {
            "type": "noteOff",
            "timeMs": 135088.82656250166,
            "noteNumber": 80,
            "velocity": 0
          },
          {
            "type": "noteOn",
            "timeMs": 135380.13750000176,
            "noteNumber": 80,
            "velocity": 1
          },
          {
            "type": "noteOff",
            "timeMs": 135454.28937500177,
            "noteNumber": 80,
            "velocity": 0
          },
          {
            "type": "noteOn",
            "timeMs": 135634.37250000183,
            "noteNumber": 80,
            "velocity": 1
          },
          {
            "type": "noteOff",
            "timeMs": 135692.63468750185,
            "noteNumber": 80,
            "velocity": 0
          },
          {
            "type": "noteOn",
            "timeMs": 135761.49000000185,
            "noteNumber": 82,
            "velocity": 1
          },
          {
            "type": "noteOff",
            "timeMs": 135846.23500000188,
            "noteNumber": 82,
            "velocity": 0
          },
          {
            "type": "noteOn",
            "timeMs": 136015.7250000019,
            "noteNumber": 84,
            "velocity": 1
          },
          {
            "type": "noteOff",
            "timeMs": 136111.0631250019,
            "noteNumber": 84,
            "velocity": 0
          },
          {
            "type": "noteOn",
            "timeMs": 136269.9600000019,
            "noteNumber": 80,
            "velocity": 1
          },
          {
            "type": "noteOff",
            "timeMs": 136360.00156250194,
            "noteNumber": 80,
            "velocity": 0
          },
          {
            "type": "noteOn",
            "timeMs": 136651.31250000195,
            "noteNumber": 80,
            "velocity": 1
          },
          {
            "type": "noteOff",
            "timeMs": 136725.46437500196,
            "noteNumber": 80,
            "velocity": 0
          },
          {
            "type": "noteOn",
            "timeMs": 137032.66500000202,
            "noteNumber": 80,
            "velocity": 1
          },
          {
            "type": "noteOff",
            "timeMs": 137117.41000000204,
            "noteNumber": 80,
            "velocity": 0
          },
          {
            "type": "noteOn",
            "timeMs": 137414.01750000208,
            "noteNumber": 80,
            "velocity": 1
          },
          {
            "type": "noteOff",
            "timeMs": 137498.7625000021,
            "noteNumber": 80,
            "velocity": 0
          },
          {
            "type": "noteOn",
            "timeMs": 137668.25250000216,
            "noteNumber": 80,
            "velocity": 1
          },
          {
            "type": "noteOff",
            "timeMs": 137742.4043750022,
            "noteNumber": 80,
            "velocity": 0
          },
          {
            "type": "noteOn",
            "timeMs": 137795.3700000022,
            "noteNumber": 82,
            "velocity": 1
          },
          {
            "type": "noteOff",
            "timeMs": 137880.1150000022,
            "noteNumber": 82,
            "velocity": 0
          },
          {
            "type": "noteOn",
            "timeMs": 138049.6050000022,
            "noteNumber": 84,
            "velocity": 1
          },
          {
            "type": "noteOff",
            "timeMs": 138139.6465625022,
            "noteNumber": 84,
            "velocity": 0
          },
          {
            "type": "noteOn",
            "timeMs": 138303.84000000218,
            "noteNumber": 80,
            "velocity": 1
          },
          {
            "type": "noteOff",
            "timeMs": 138399.1781250022,
            "noteNumber": 80,
            "velocity": 0
          },
          {
            "type": "noteOn",
            "timeMs": 138685.19250000225,
            "noteNumber": 80,
            "velocity": 1
          },
          {
            "type": "noteOff",
            "timeMs": 138764.64093750223,
            "noteNumber": 80,
            "velocity": 0
          },
          {
            "type": "noteOn",
            "timeMs": 139066.54500000225,
            "noteNumber": 80,
            "velocity": 1
          },
          {
            "type": "noteOff",
            "timeMs": 139161.88312500226,
            "noteNumber": 80,
            "velocity": 0
          },
          {
            "type": "noteOn",
            "timeMs": 139447.8975000023,
            "noteNumber": 80,
            "velocity": 1
          },
          {
            "type": "noteOff",
            "timeMs": 139532.6425000023,
            "noteNumber": 80,
            "velocity": 0
          },
          {
            "type": "noteOn",
            "timeMs": 139702.1325000023,
            "noteNumber": 80,
            "velocity": 1
          },
          {
            "type": "noteOff",
            "timeMs": 139786.8775000023,
            "noteNumber": 80,
            "velocity": 0
          },
          {
            "type": "noteOn",
            "timeMs": 139829.25000000233,
            "noteNumber": 82,
            "velocity": 1
          },
          {
            "type": "noteOff",
            "timeMs": 139919.29156250233,
            "noteNumber": 82,
            "velocity": 0
          },
          {
            "type": "noteOn",
            "timeMs": 140083.48500000234,
            "noteNumber": 84,
            "velocity": 1
          },
          {
            "type": "noteOff",
            "timeMs": 140173.52656250235,
            "noteNumber": 84,
            "velocity": 0
          },
          {
            "type": "noteOn",
            "timeMs": 140337.7200000024,
            "noteNumber": 80,
            "velocity": 1
          },
          {
            "type": "noteOff",
            "timeMs": 140427.7615625024,
            "noteNumber": 80,
            "velocity": 0
          },
          {
            "type": "noteOn",
            "timeMs": 140719.07250000242,
            "noteNumber": 80,
            "velocity": 1
          },
          {
            "type": "noteOff",
            "timeMs": 140793.22437500244,
            "noteNumber": 80,
            "velocity": 0
          },
          {
            "type": "noteOn",
            "timeMs": 141100.42500000246,
            "noteNumber": 80,
            "velocity": 1
          },
          {
            "type": "noteOff",
            "timeMs": 141185.1700000025,
            "noteNumber": 80,
            "velocity": 0
          },
          {
            "type": "noteOn",
            "timeMs": 141481.7775000025,
            "noteNumber": 80,
            "velocity": 1
          },
          {
            "type": "noteOff",
            "timeMs": 141555.9293750025,
            "noteNumber": 80,
            "velocity": 0
          },
          {
            "type": "noteOn",
            "timeMs": 141736.01250000254,
            "noteNumber": 80,
            "velocity": 1
          },
          {
            "type": "noteOff",
            "timeMs": 141852.53687500255,
            "noteNumber": 80,
            "velocity": 0
          },
          {
            "type": "noteOn",
            "timeMs": 141863.13000000257,
            "noteNumber": 82,
            "velocity": 1
          },
          {
            "type": "noteOff",
            "timeMs": 141942.57843750255,
            "noteNumber": 82,
            "velocity": 0
          },
          {
            "type": "noteOn",
            "timeMs": 142117.36500000258,
            "noteNumber": 84,
            "velocity": 1
          },
          {
            "type": "noteOff",
            "timeMs": 142207.40656250258,
            "noteNumber": 84,
            "velocity": 0
          },
          {
            "type": "noteOn",
            "timeMs": 162710.4000000045,
            "noteNumber": 65,
            "velocity": 1
          },
          {
            "type": "noteOff",
            "timeMs": 163038.7868750045,
            "noteNumber": 65,
            "velocity": 0
          },
          {
            "type": "noteOn",
            "timeMs": 163218.8700000045,
            "noteNumber": 68,
            "velocity": 1
          },
          {
            "type": "noteOff",
            "timeMs": 163483.69812500454,
            "noteNumber": 68,
            "velocity": 0
          },
          {
            "type": "noteOn",
            "timeMs": 163600.22250000454,
            "noteNumber": 65,
            "velocity": 1
          },
          {
            "type": "noteOff",
            "timeMs": 163743.22968750453,
            "noteNumber": 65,
            "velocity": 0
          },
          {
            "type": "noteOn",
            "timeMs": 163854.45750000453,
            "noteNumber": 65,
            "velocity": 1
          },
          {
            "type": "noteOn",
            "timeMs": 163981.57500000452,
            "noteNumber": 70,
            "velocity": 1
          },
          {
            "type": "noteOff",
            "timeMs": 163986.87156250453,
            "noteNumber": 65,
            "velocity": 0
          },
          {
            "type": "noteOff",
            "timeMs": 164145.76843750454,
            "noteNumber": 70,
            "velocity": 0
          },
          {
            "type": "noteOn",
            "timeMs": 164235.81000000454,
            "noteNumber": 65,
            "velocity": 1
          },
          {
            "type": "noteOff",
            "timeMs": 164357.63093750452,
            "noteNumber": 65,
            "velocity": 0
          },
          {
            "type": "noteOn",
            "timeMs": 164490.04500000452,
            "noteNumber": 63,
            "velocity": 1
          },
          {
            "type": "noteOff",
            "timeMs": 164606.56937500453,
            "noteNumber": 63,
            "velocity": 0
          },
          {
            "type": "noteOn",
            "timeMs": 164744.28000000454,
            "noteNumber": 65,
            "velocity": 1
          },
          {
            "type": "noteOff",
            "timeMs": 165115.03937500453,
            "noteNumber": 65,
            "velocity": 0
          },
          {
            "type": "noteOn",
            "timeMs": 165252.75000000454,
            "noteNumber": 72,
            "velocity": 1
          },
          {
            "type": "noteOff",
            "timeMs": 165575.84031250456,
            "noteNumber": 72,
            "velocity": 0
          },
          {
            "type": "noteOn",
            "timeMs": 165634.10250000455,
            "noteNumber": 65,
            "velocity": 1
          },
          {
            "type": "noteOff",
            "timeMs": 165808.88906250455,
            "noteNumber": 65,
            "velocity": 0
          },
          {
            "type": "noteOn",
            "timeMs": 165888.33750000453,
            "noteNumber": 65,
            "velocity": 1
          },
          {
            "type": "noteOn",
            "timeMs": 166015.45500000456,
            "noteNumber": 73,
            "velocity": 1
          },
          {
            "type": "noteOff",
            "timeMs": 166031.34468750455,
            "noteNumber": 65,
            "velocity": 0
          },
          {
            "type": "noteOff",
            "timeMs": 166142.57250000455,
            "noteNumber": 73,
            "velocity": 0
          },
          {
            "type": "noteOn",
            "timeMs": 166269.69000000454,
            "noteNumber": 72,
            "velocity": 1
          },
          {
            "type": "noteOff",
            "timeMs": 166380.91781250454,
            "noteNumber": 72,
            "velocity": 0
          },
          {
            "type": "noteOn",
            "timeMs": 166523.92500000453,
            "noteNumber": 68,
            "velocity": 1
          },
          {
            "type": "noteOff",
            "timeMs": 166645.74593750451,
            "noteNumber": 68,
            "velocity": 0
          },
          {
            "type": "noteOn",
            "timeMs": 166778.16000000451,
            "noteNumber": 65,
            "velocity": 1
          },
          {
            "type": "noteOn",
            "timeMs": 167032.3950000045,
            "noteNumber": 72,
            "velocity": 1
          },
          {
            "type": "noteOff",
            "timeMs": 167064.1743750045,
            "noteNumber": 65,
            "velocity": 0
          },
          {
            "type": "noteOff",
            "timeMs": 167254.85062500453,
            "noteNumber": 72,
            "velocity": 0
          },
          {
            "type": "noteOn",
            "timeMs": 167286.63000000454,
            "noteNumber": 77,
            "velocity": 1
          },
          {
            "type": "noteOff",
            "timeMs": 167493.19593750453,
            "noteNumber": 77,
            "velocity": 0
          },
          {
            "type": "noteOn",
            "timeMs": 167540.86500000453,
            "noteNumber": 65,
            "velocity": 1
          },
          {
            "type": "noteOff",
            "timeMs": 167657.38937500454,
            "noteNumber": 65,
            "velocity": 0
          },
          {
            "type": "noteOn",
            "timeMs": 167667.98250000455,
            "noteNumber": 63,
            "velocity": 1
          },
          {
            "type": "noteOff",
            "timeMs": 167779.21031250455,
            "noteNumber": 63,
            "velocity": 0
          },
          {
            "type": "noteOn",
            "timeMs": 167922.21750000454,
            "noteNumber": 63,
            "velocity": 1
          },
          {
            "type": "noteOff",
            "timeMs": 168038.74187500452,
            "noteNumber": 63,
            "velocity": 0
          },
          {
            "type": "noteOn",
            "timeMs": 168049.33500000453,
            "noteNumber": 60,
            "velocity": 1
          },
          {
            "type": "noteOff",
            "timeMs": 168181.74906250453,
            "noteNumber": 60,
            "velocity": 0
          },
          {
            "type": "noteOn",
            "timeMs": 168303.57000000452,
            "noteNumber": 67,
            "velocity": 1
          },
          {
            "type": "noteOff",
            "timeMs": 168536.6187500045,
            "noteNumber": 67,
            "velocity": 0
          },
          {
            "type": "noteOn",
            "timeMs": 168557.8050000045,
            "noteNumber": 65,
            "velocity": 1
          },
          {
            "type": "noteOff",
            "timeMs": 169320.51000000446,
            "noteNumber": 65,
            "velocity": 0
          },
          {
            "type": "noteOn",
            "timeMs": 170845.92000000435,
            "noteNumber": 65,
            "velocity": 1
          },
          {
            "type": "noteOff",
            "timeMs": 171174.30687500435,
            "noteNumber": 65,
            "velocity": 0
          },
          {
            "type": "noteOn",
            "timeMs": 171354.39000000435,
            "noteNumber": 68,
            "velocity": 1
          },
          {
            "type": "noteOff",
            "timeMs": 171619.21812500438,
            "noteNumber": 68,
            "velocity": 0
          },
          {
            "type": "noteOn",
            "timeMs": 171735.7425000044,
            "noteNumber": 65,
            "velocity": 1
          },
          {
            "type": "noteOff",
            "timeMs": 171878.74968750437,
            "noteNumber": 65,
            "velocity": 0
          },
          {
            "type": "noteOn",
            "timeMs": 171989.97750000437,
            "noteNumber": 65,
            "velocity": 1
          },
          {
            "type": "noteOn",
            "timeMs": 172117.09500000437,
            "noteNumber": 70,
            "velocity": 1
          },
          {
            "type": "noteOff",
            "timeMs": 172122.39156250437,
            "noteNumber": 65,
            "velocity": 0
          },
          {
            "type": "noteOff",
            "timeMs": 172281.28843750438,
            "noteNumber": 70,
            "velocity": 0
          },
          {
            "type": "noteOn",
            "timeMs": 172371.33000000438,
            "noteNumber": 65,
            "velocity": 1
          },
          {
            "type": "noteOff",
            "timeMs": 172493.15093750437,
            "noteNumber": 65,
            "velocity": 0
          },
          {
            "type": "noteOn",
            "timeMs": 172625.56500000437,
            "noteNumber": 63,
            "velocity": 1
          },
          {
            "type": "noteOff",
            "timeMs": 172742.08937500438,
            "noteNumber": 63,
            "velocity": 0
          },
          {
            "type": "noteOn",
            "timeMs": 172879.80000000438,
            "noteNumber": 65,
            "velocity": 1
          },
          {
            "type": "noteOff",
            "timeMs": 173250.55937500438,
            "noteNumber": 65,
            "velocity": 0
          },
          {
            "type": "noteOn",
            "timeMs": 173388.27000000438,
            "noteNumber": 72,
            "velocity": 1
          },
          {
            "type": "noteOff",
            "timeMs": 173711.3603125044,
            "noteNumber": 72,
            "velocity": 0
          },
          {
            "type": "noteOn",
            "timeMs": 173769.6225000044,
            "noteNumber": 65,
            "velocity": 1
          },
          {
            "type": "noteOff",
            "timeMs": 173944.4090625044,
            "noteNumber": 65,
            "velocity": 0
          },
          {
            "type": "noteOn",
            "timeMs": 174023.85750000438,
            "noteNumber": 65,
            "velocity": 1
          },
          {
            "type": "noteOn",
            "timeMs": 174150.9750000044,
            "noteNumber": 73,
            "velocity": 1
          },
          {
            "type": "noteOff",
            "timeMs": 174166.8646875044,
            "noteNumber": 65,
            "velocity": 0
          },
          {
            "type": "noteOff",
            "timeMs": 174278.0925000044,
            "noteNumber": 73,
            "velocity": 0
          },
          {
            "type": "noteOn",
            "timeMs": 174405.2100000044,
            "noteNumber": 72,
            "velocity": 1
          },
          {
            "type": "noteOff",
            "timeMs": 174516.4378125044,
            "noteNumber": 72,
            "velocity": 0
          },
          {
            "type": "noteOn",
            "timeMs": 174659.44500000437,
            "noteNumber": 68,
            "velocity": 1
          },
          {
            "type": "noteOff",
            "timeMs": 174781.26593750436,
            "noteNumber": 68,
            "velocity": 0
          },
          {
            "type": "noteOn",
            "timeMs": 174913.68000000436,
            "noteNumber": 65,
            "velocity": 1
          },
          {
            "type": "noteOn",
            "timeMs": 175167.91500000434,
            "noteNumber": 72,
            "velocity": 1
          },
          {
            "type": "noteOff",
            "timeMs": 175199.69437500436,
            "noteNumber": 65,
            "velocity": 0
          },
          {
            "type": "noteOff",
            "timeMs": 175390.37062500438,
            "noteNumber": 72,
            "velocity": 0
          },
          {
            "type": "noteOn",
            "timeMs": 175422.1500000044,
            "noteNumber": 77,
            "velocity": 1
          },
          {
            "type": "noteOff",
            "timeMs": 175628.71593750437,
            "noteNumber": 77,
            "velocity": 0
          },
          {
            "type": "noteOn",
            "timeMs": 175676.38500000437,
            "noteNumber": 65,
            "velocity": 1
          },
          {
            "type": "noteOff",
            "timeMs": 175792.90937500438,
            "noteNumber": 65,
            "velocity": 0
          },
          {
            "type": "noteOn",
            "timeMs": 175803.5025000044,
            "noteNumber": 63,
            "velocity": 1
          },
          {
            "type": "noteOff",
            "timeMs": 175914.7303125044,
            "noteNumber": 63,
            "velocity": 0
          },
          {
            "type": "noteOn",
            "timeMs": 176057.73750000438,
            "noteNumber": 63,
            "velocity": 1
          },
          {
            "type": "noteOff",
            "timeMs": 176174.26187500436,
            "noteNumber": 63,
            "velocity": 0
          },
          {
            "type": "noteOn",
            "timeMs": 176184.85500000438,
            "noteNumber": 60,
            "velocity": 1
          },
          {
            "type": "noteOff",
            "timeMs": 176317.26906250438,
            "noteNumber": 60,
            "velocity": 0
          },
          {
            "type": "noteOn",
            "timeMs": 176439.09000000436,
            "noteNumber": 67,
            "velocity": 1
          },
          {
            "type": "noteOff",
            "timeMs": 176672.13875000435,
            "noteNumber": 67,
            "velocity": 0
          },
          {
            "type": "noteOn",
            "timeMs": 176693.32500000435,
            "noteNumber": 65,
            "velocity": 1
          },
          {
            "type": "noteOff",
            "timeMs": 177456.0300000043,
            "noteNumber": 65,
            "velocity": 0
          },
          {
            "type": "noteOn",
            "timeMs": 178981.44000000422,
            "noteNumber": 29,
            "velocity": 1
          },
          {
            "type": "noteOff",
            "timeMs": 183218.69000000422,
            "noteNumber": 29,
            "velocity": 0
          }
        ]
      },
      "mix": {
        "volume": 0.8,
        "mute": false
      },
      "modules": [
        {
          "id": "import-1-track-7-channel-8:module-5",
          "type": "oscillator",
          "x": 475,
          "y": 47,
          "params": {
            "frequency": 440,
            "amplitude": 0.5,
            "shape": 1,
            "dutyCycle": 0.28
          }
        },
        {
          "id": "import-1-track-7-channel-8:module-6",
          "type": "envelope",
          "x": 130,
          "y": 23,
          "params": {
            "attack": 0.1076465213629835,
            "decay": 0.2,
            "sustain": 0.7,
            "release": 0.4
          }
        },
        {
          "id": "import-1-track-7-channel-8:module-7",
          "type": "filter",
          "x": 742,
          "y": 197,
          "params": {
            "cutoffSlider": 0.521,
            "resonance": 0.87,
            "filterType": "lowpass"
          }
        },
        {
          "id": "import-1-track-7-channel-8:module-8",
          "type": "multi",
          "x": 354,
          "y": 312,
          "params": {}
        }
      ],
      "connections": [
        {
          "id": "conn-1774446478096-ftgxwq",
          "from": {
            "moduleId": "keyboard-singleton",
            "outputId": "cv-out",
            "position": null
          },
          "to": {
            "moduleId": "import-1-track-7-channel-8:module-5",
            "outputId": "freq-input",
            "position": null
          }
        },
        {
          "id": "conn-1774446481304-4xqim3",
          "from": {
            "moduleId": "keyboard-singleton",
            "outputId": "gate-out",
            "position": null
          },
          "to": {
            "moduleId": "import-1-track-7-channel-8:module-6",
            "outputId": "gate-input",
            "position": null
          }
        },
        {
          "id": "conn-1774447613404-5ulic0",
          "from": {
            "moduleId": "import-1-track-7-channel-8:module-5",
            "outputId": "output",
            "position": null
          },
          "to": {
            "moduleId": "import-1-track-7-channel-8:module-7",
            "outputId": "audio-input",
            "position": null
          }
        },
        {
          "id": "conn-1774447615404-ib48qj",
          "from": {
            "moduleId": "import-1-track-7-channel-8:module-7",
            "outputId": "output",
            "position": null
          },
          "to": {
            "moduleId": "track-output-singleton",
            "outputId": "audio-input",
            "position": null
          }
        },
        {
          "id": "conn-1774447670627-c3jdw0",
          "from": {
            "moduleId": "import-1-track-7-channel-8:module-8",
            "outputId": "output-b",
            "position": null
          },
          "to": {
            "moduleId": "import-1-track-7-channel-8:module-7",
            "outputId": "cutoff-input",
            "position": null
          }
        },
        {
          "id": "conn-1774447691473-km9y0y",
          "from": {
            "moduleId": "import-1-track-7-channel-8:module-6",
            "outputId": "output",
            "position": null
          },
          "to": {
            "moduleId": "import-1-track-7-channel-8:module-8",
            "outputId": "signal-input",
            "position": null
          }
        },
        {
          "id": "conn-1774447694013-gwv3dl",
          "from": {
            "moduleId": "import-1-track-7-channel-8:module-8",
            "outputId": "output-a",
            "position": null
          },
          "to": {
            "moduleId": "import-1-track-7-channel-8:module-5",
            "outputId": "amp-input",
            "position": null
          }
        }
      ]
    }
  ]
}