<?xml version="1.0" encoding="UTF-8"?>
<svg id="Layer_1" xmlns="http://www.w3.org/2000/svg" version="1.1" viewBox="120 95 300 240">
  <!-- Generator: Adobe Illustrator 30.2.1, SVG Export Plug-In . SVG Version: 2.1.1 Build 1)  -->
  <defs>
    <style>
      .st0 {
        fill: #58595b;
      }

      .st0, .st1, .st2, .st3 {
        stroke: #231f20;
        stroke-miterlimit: 10;
      }

      .st1 {
        fill: #414042;
      }

      .st2 {
        fill: #6d6e71;
      }

      .st3 {
        fill: none;
        stroke-width: 4px;
      }
    </style>
  </defs>
  <g>
    <path class="st3" d="M276.82,141.19c13.25-2.35,23.67-10.33,26.53-20.89,1.27-4.68.83-9.05,0-12.42"/>
    <path class="st3" d="M263.35,141.19c-13.25-2.35-23.67-10.33-26.53-20.89-1.27-4.68-.83-9.05,0-12.42"/>
  </g>
  <path class="st2" d="M282.37,292.25c9.45,10.92,25.44,17.65,41.79,15.25,16.1-2.37,29.81-13.1,35.79-27.09,4.72-11.04,3.34-21.1,2.61-26-4.19-28.01-28.51-44.42-40.66-53.08-9.23-6.58-35.79-25.52-48-16.94-4.81,3.38-4.94,9.32-1.13,58.16,2.87,36.74,3.67,42.85,9.6,49.69Z"/>
  <path class="st2" d="M257.8,292.25c-9.45,10.92-25.44,17.65-41.79,15.25-16.1-2.37-29.81-13.1-35.79-27.09-4.72-11.04-3.34-21.1-2.61-26,4.19-28.01,28.51-44.42,40.66-53.08,9.23-6.58,35.79-25.52,48-16.94,4.81,3.38,4.94,9.32,1.13,58.16-2.87,36.74-3.67,42.85-9.6,49.69Z"/>
  <path class="st0" d="M223.47,155.02c-35.31,10.99-52.96,16.48-69.22,32.19-10.41,10.05-22.75,22.01-24.28,41.22-1.25,15.73,4.96,34.02,18.64,44.05,23.43,17.18,59.45,3.27,77.93-11.86,14.75-12.07,22.63-33.65,38.4-76.8.12-.32,1.99-5.55,2.83-12.81.45-3.88,1.21-14.45-2.83-19.38-3.91-4.77-13.32-5.37-41.46,3.39Z"/>
  <path class="st0" d="M316.71,155.02c35.31,10.99,52.96,16.48,69.22,32.19,10.41,10.05,22.75,22.01,24.28,41.22,1.25,15.73-4.96,34.02-18.64,44.05-23.43,17.18-59.45,3.27-77.93-11.86-14.75-12.07-22.63-33.65-38.4-76.8-.12-.32-1.99-5.55-2.83-12.81-.45-3.88-1.21-14.45,2.83-19.38,3.91-4.77,13.32-5.37,41.46,3.39Z"/>
  <ellipse class="st1" cx="270.09" cy="231.61" rx="13.55" ry="93.46"/>
  <ellipse class="st1" cx="270.09" cy="145.32" rx="13.55" ry="20.79"/>
</svg>